<svg width="375" height="375" viewBox="0 0 375 375" fill="none" xmlns="http://www.w3.org/2000/svg">
<path d="M186.84 365.123C282.698 365.123 360.405 321.931 360.405 268.65C360.405 215.37 282.698 172.178 186.84 172.178C90.9831 172.178 13.2754 215.37 13.2754 268.65C13.2754 321.931 90.9831 365.123 186.84 365.123Z" fill="#F5F5F5"/>
<path d="M269.609 253.151C261.529 244.496 249.942 237.871 234.847 233.276C233.623 232.956 232.348 232.884 231.097 233.066C214.259 236.238 200.497 244.503 187.979 253.638C187.778 253.773 187.612 253.952 187.492 254.163C187.372 254.373 187.303 254.608 187.29 254.85C187.277 255.091 187.32 255.332 187.417 255.554C187.513 255.776 187.659 255.973 187.844 256.128L188.452 256.668C167.452 250.946 141.629 253.091 124.274 263.111C102.179 275.861 102.179 296.553 124.274 309.311C146.369 322.068 182.197 322.061 204.292 309.311C219.869 300.311 224.444 287.396 218.069 276.086C222.603 278.158 227.247 279.979 231.982 281.538C233.176 281.857 234.443 281.759 235.574 281.261C248.324 274.811 260.467 264.266 269.519 255.933C269.899 255.576 270.122 255.082 270.139 254.561C270.156 254.039 269.965 253.532 269.609 253.151Z" fill="#E0E0E0"/>
<path d="M231.436 189.004L234.271 189.086L236.626 157.601L233.791 157.519L231.436 189.004Z" fill="#455A64"/>
<path d="M255.652 202.294L258.487 202.376L260.835 170.891L258 170.809L255.652 202.294Z" fill="#455A64"/>
<path d="M254.693 204.994H259.388L266.206 253.707C266.205 253.816 266.173 253.923 266.113 254.015C266.053 254.107 265.968 254.179 265.868 254.224C265.609 254.354 265.322 254.421 265.032 254.421C264.742 254.421 264.456 254.354 264.196 254.224C264.115 254.184 264.043 254.127 263.984 254.057C263.926 253.988 263.883 253.906 263.858 253.819L254.693 204.994Z" fill="#455A64"/>
<path d="M226.553 188.733H231.24L238.065 237.438C238.064 237.549 238.031 237.656 237.97 237.748C237.908 237.84 237.822 237.912 237.72 237.956C237.463 238.089 237.177 238.158 236.888 238.158C236.598 238.158 236.313 238.089 236.055 237.956C235.972 237.918 235.899 237.861 235.841 237.791C235.783 237.721 235.74 237.639 235.718 237.551L226.553 188.733Z" fill="#455A64"/>
<path d="M190.312 252.837L198.413 204.994H203.1L192.668 252.949C192.644 253.035 192.602 253.115 192.545 253.183C192.488 253.252 192.417 253.307 192.338 253.347C192.079 253.48 191.792 253.549 191.501 253.549C191.21 253.549 190.924 253.48 190.665 253.347C190.564 253.306 190.477 253.235 190.417 253.144C190.357 253.053 190.326 252.946 190.328 252.837H190.312Z" fill="#455A64"/>
<path d="M220.801 270.438L227.611 221.733H232.298L223.148 270.558C223.124 270.644 223.083 270.724 223.026 270.793C222.969 270.861 222.898 270.917 222.818 270.956C222.56 271.089 222.273 271.158 221.982 271.158C221.691 271.158 221.404 271.089 221.146 270.956C221.045 270.914 220.959 270.843 220.899 270.752C220.839 270.662 220.807 270.555 220.808 270.446L220.801 270.438Z" fill="#455A64"/>
<path d="M198.412 204.994H203.099L201.194 213.762C200.129 212.877 199.089 211.969 198.074 211.039C197.85 210.819 197.66 210.566 197.512 210.289L198.412 204.994Z" fill="#37474F"/>
<path d="M259.388 204.994L260.198 210.814C260.035 211.41 259.722 211.954 259.291 212.397C258.421 213.199 257.498 214.002 256.538 214.804L254.693 204.994H259.388Z" fill="#37474F"/>
<path d="M226.68 228.438L227.61 221.733H232.297L230.797 229.908C229.387 229.458 228.015 228.968 226.68 228.438Z" fill="#37474F"/>
<path d="M230.776 190.001C230.987 189.962 231.199 189.937 231.413 189.926L236.738 228.011C235.883 228.476 235.028 228.926 234.166 229.368L226.943 190.811C228.203 190.518 229.478 190.233 230.776 190.001Z" fill="#37474F"/>
<path d="M230.828 226.234C217.553 221.839 206.828 215.396 198.075 207.356C197.441 206.7 197.066 205.837 197.018 204.926V202.399C197.041 201.954 197.157 201.52 197.357 201.122C197.557 200.725 197.837 200.373 198.18 200.089C207.87 193.103 219.012 188.396 230.775 186.319C231.711 186.177 232.665 186.228 233.58 186.469C244.785 189.889 253.383 194.811 259.373 201.236C259.961 201.945 260.301 202.828 260.34 203.749V206.284C260.297 207.194 259.924 208.058 259.29 208.714C252.54 214.894 242.97 221.246 233.49 226.039C232.652 226.409 231.711 226.478 230.828 226.234Z" fill="#3BADD4"/>
<path opacity="0.4" d="M197.018 202.377V204.904C197.066 205.815 197.441 206.678 198.075 207.334C206.82 215.374 217.575 221.824 230.82 226.212C231.307 226.351 231.817 226.392 232.32 226.332V186.237C231.82 186.197 231.316 186.217 230.82 186.297C219.053 188.374 207.908 193.084 198.218 200.074C197.869 200.354 197.582 200.703 197.375 201.099C197.168 201.496 197.047 201.931 197.018 202.377Z" fill="black"/>
<path opacity="0.5" d="M232.305 186.236V226.331C232.716 226.299 233.119 226.19 233.49 226.009C242.962 221.224 252.57 214.871 259.29 208.691C259.923 208.036 260.297 207.172 260.34 206.261V203.734C260.301 202.813 259.961 201.931 259.372 201.221C253.382 194.791 244.795 189.879 233.61 186.484C233.186 186.349 232.748 186.266 232.305 186.236Z" fill="black"/>
<path d="M259.29 203.254C252.54 209.441 242.97 215.779 233.49 220.564C232.651 220.933 231.712 221.004 230.827 220.766C217.552 216.394 206.827 209.959 198.075 201.911C197.938 201.796 197.829 201.65 197.758 201.485C197.687 201.32 197.656 201.142 197.666 200.963C197.676 200.783 197.728 200.609 197.817 200.454C197.906 200.298 198.03 200.166 198.18 200.066C207.867 193.077 219.01 188.37 230.775 186.296C231.71 186.154 232.665 186.205 233.58 186.446C244.785 189.866 253.382 194.781 259.372 201.191C259.625 201.48 259.757 201.855 259.742 202.239C259.727 202.623 259.565 202.986 259.29 203.254Z" fill="#3BADD4"/>
<path opacity="0.3" d="M259.29 203.254C252.54 209.441 242.97 215.779 233.49 220.564C232.651 220.933 231.712 221.004 230.827 220.766C217.552 216.394 206.827 209.959 198.075 201.911C197.938 201.796 197.829 201.65 197.758 201.485C197.687 201.32 197.656 201.142 197.666 200.963C197.676 200.783 197.728 200.609 197.817 200.454C197.906 200.298 198.03 200.166 198.18 200.066C207.867 193.077 219.01 188.37 230.775 186.296C231.71 186.154 232.665 186.205 233.58 186.446C244.785 189.866 253.382 194.781 259.372 201.191C259.625 201.48 259.757 201.855 259.742 202.239C259.727 202.623 259.565 202.986 259.29 203.254Z" fill="black"/>
<path d="M266.386 165.686C257.386 154.136 245.636 147.358 231.136 145.353C230.239 145.27 229.337 145.442 228.533 145.848C228.186 146.086 227.899 146.402 227.696 146.771C227.493 147.139 227.379 147.55 227.363 147.971V158.621C227.373 159.017 227.522 159.398 227.784 159.695C228.046 159.993 228.404 160.189 228.796 160.248C243.296 162.248 255.046 169.026 264.046 180.581C264.276 180.887 264.607 181.102 264.98 181.189C265.353 181.275 265.745 181.227 266.086 181.053C266.436 180.818 266.725 180.503 266.93 180.134C267.134 179.765 267.249 179.353 267.263 178.931V168.281C267.22 167.351 266.916 166.451 266.386 165.686Z" fill="#3BADD4"/>
<path opacity="0.5" d="M256.859 172.856L267.022 166.983C267.168 167.404 267.249 167.844 267.262 168.288V178.938C267.247 179.36 267.133 179.772 266.928 180.141C266.724 180.51 266.434 180.825 266.084 181.061C265.743 181.235 265.351 181.283 264.978 181.196C264.605 181.11 264.274 180.895 264.044 180.588C261.892 177.795 259.487 175.207 256.859 172.856Z" fill="black"/>
<path opacity="0.3" d="M256.86 172.856C249.065 165.941 239.72 161.734 228.825 160.234C228.433 160.174 228.075 159.978 227.813 159.681C227.551 159.383 227.402 159.003 227.393 158.606V147.956C227.408 147.536 227.522 147.125 227.725 146.756C227.928 146.387 228.215 146.072 228.563 145.834C229.366 145.427 230.268 145.256 231.165 145.339C245.665 147.339 257.415 154.116 266.415 165.671C266.697 166.064 266.912 166.499 267.053 166.961L256.86 172.856Z" fill="black"/>
<path d="M264.037 180.582C255.052 169.017 243.314 162.234 228.824 160.234C228.432 160.174 228.074 159.978 227.812 159.681C227.55 159.383 227.401 159.003 227.392 158.607V147.957C227.385 147.774 227.418 147.592 227.49 147.424C227.563 147.256 227.671 147.107 227.808 146.986C227.945 146.865 228.108 146.777 228.283 146.727C228.459 146.677 228.644 146.666 228.824 146.697C243.324 148.697 255.074 155.474 264.074 167.029C264.602 167.792 264.904 168.689 264.944 169.617V180.274C264.914 181.084 264.532 181.234 264.037 180.582Z" fill="#3BADD4"/>
<path opacity="0.4" d="M264.037 180.582C255.052 169.017 243.314 162.234 228.824 160.234C228.432 160.174 228.074 159.978 227.812 159.681C227.55 159.383 227.401 159.003 227.392 158.607V147.957C227.385 147.774 227.418 147.592 227.49 147.424C227.563 147.256 227.671 147.107 227.808 146.986C227.945 146.865 228.108 146.777 228.283 146.727C228.459 146.677 228.644 146.666 228.824 146.697C243.324 148.697 255.074 155.474 264.074 167.029C264.602 167.792 264.904 168.689 264.944 169.617V180.274C264.914 181.084 264.532 181.234 264.037 180.582Z" fill="black"/>
<path d="M225.51 132.799C220.192 133.174 217.852 133.931 215.76 138.911C214.012 143.126 208.312 164.096 208.312 164.096C208.312 164.096 196.987 171.094 191.145 174.026L197.482 179.134C197.482 179.134 211.777 174.199 214.29 172.999C216.802 171.799 216.75 171.086 219.487 162.274C223.425 149.734 225.51 132.799 225.51 132.799Z" fill="#FFBDA7"/>
<path d="M225.853 132.483C222.696 132.325 218.518 133.285 216.366 136.743C214.213 140.2 209.818 156.835 209.818 156.835C209.818 156.835 215.488 161.778 222.793 161.68L226.393 144.468L225.853 132.483Z" fill="#3BADD4"/>
<path d="M209.032 250.279C209.032 250.279 208.222 259.616 206.826 262.661C205.333 266.131 203.421 269.405 201.134 272.411C200.579 273.161 199.296 274.474 198.839 275.051C198.73 275.166 198.648 275.304 198.599 275.454C198.549 275.604 198.534 275.763 198.553 275.92C198.572 276.077 198.626 276.228 198.711 276.362C198.795 276.496 198.908 276.609 199.041 276.694C200.309 277.781 205.446 277.789 208.199 275.486C210.951 273.184 213.164 269.524 214.784 267.701C215.594 266.794 216.359 265.924 216.914 265.279C217.181 264.977 217.365 264.611 217.446 264.216C217.528 263.821 217.505 263.412 217.379 263.029C217.304 262.804 217.229 262.549 217.139 262.241C216.329 259.511 217.672 251.584 217.672 251.584C215.024 248.291 212.107 249.551 209.032 250.279Z" fill="#FFBDA7"/>
<path d="M217.807 265.706C217.915 266.203 217.891 266.72 217.739 267.206C217.477 267.904 215.617 269.231 214.649 269.771C213.538 270.442 212.665 271.444 212.152 272.636C211.057 274.736 209.362 277.024 207.157 278.171C204.193 279.632 200.855 280.155 197.586 279.671C193.529 279.154 193.086 276.799 193.086 276.799C193.086 276.799 192.756 274.549 193.739 274.174C194.721 273.799 217.807 265.706 217.807 265.706Z" fill="#263238"/>
<path d="M218.219 262.931C218.287 263.875 218.146 264.823 217.807 265.706C216.704 267.409 213.937 268.091 212.429 270.416C210.922 272.741 209.174 276.296 203.962 277.609C198.749 278.921 194.662 277.451 193.612 275.996C192.562 274.541 193.379 273.086 196.664 271.099C200.152 268.976 204.164 263.599 204.164 263.599C205.477 261.761 205.972 259.384 206.662 257.254C206.722 257.051 206.834 256.804 207.052 256.789C207.269 256.774 207.442 257.089 207.592 257.306C207.858 257.62 208.228 257.827 208.634 257.891C210.023 258.318 211.474 258.503 212.924 258.439C213.082 258.411 213.243 258.414 213.398 258.449C213.554 258.484 213.701 258.549 213.832 258.641C213.92 258.754 213.984 258.883 214.022 259.02C214.059 259.158 214.068 259.302 214.049 259.444C214.035 259.8 214.003 260.156 213.952 260.509C213.907 260.678 213.907 260.857 213.952 261.026C214.005 261.143 214.093 261.241 214.202 261.307C214.312 261.374 214.439 261.407 214.567 261.401C214.838 261.392 215.099 261.3 215.317 261.139C215.74 260.91 216.105 260.589 216.387 260.199C216.669 259.81 216.859 259.362 216.944 258.889C216.944 258.889 216.944 258.349 216.989 257.861C217.148 257.934 217.29 258.037 217.407 258.166C217.525 258.295 217.615 258.446 217.672 258.611C217.755 259.022 217.815 259.438 217.852 259.856C218.049 260.871 218.172 261.899 218.219 262.931Z" fill="#37474F"/>
<path d="M186.637 238.053C186.637 238.053 185.617 247.706 184.387 250.803C183.047 254.329 181.285 257.678 179.137 260.778C178.612 261.528 177.397 262.916 176.962 263.508C176.858 263.628 176.782 263.769 176.739 263.922C176.696 264.075 176.688 264.235 176.714 264.392C176.741 264.548 176.802 264.697 176.893 264.827C176.984 264.957 177.102 265.065 177.24 265.143C178.552 266.178 183.682 265.953 186.337 263.531C188.992 261.108 191.025 257.351 192.562 255.461C193.312 254.516 194.062 253.608 194.587 252.948C194.833 252.635 194.996 252.264 195.059 251.87C195.122 251.476 195.083 251.073 194.947 250.698C194.865 250.481 194.775 250.226 194.67 249.948C193.747 247.248 196.17 239.778 196.17 239.778C193.342 236.598 189.675 237.198 186.637 238.053Z" fill="#FFBDA7"/>
<path d="M195.472 253.983C195.577 254.481 195.554 254.997 195.404 255.483C195.142 256.173 193.274 257.508 192.314 258.041C191.205 258.714 190.332 259.715 189.817 260.906C188.714 263.013 187.027 265.293 184.822 266.441C181.858 267.901 178.52 268.424 175.252 267.941C171.194 267.416 170.752 265.061 170.752 265.061C170.752 265.061 170.429 262.811 171.412 262.436C172.394 262.061 195.472 253.983 195.472 253.983Z" fill="#263238"/>
<path d="M195.878 251.238C195.948 252.182 195.81 253.129 195.473 254.013C194.37 255.716 191.595 256.398 190.095 258.723C188.595 261.048 186.84 264.603 181.62 265.916C176.4 267.228 172.32 265.751 171.27 264.303C170.22 262.856 171.038 261.393 174.323 259.398C177.81 257.283 181.823 251.898 181.823 251.898C183.135 250.053 183.63 247.676 184.313 245.553C184.38 245.343 184.493 245.103 184.71 245.088C184.928 245.073 185.1 245.381 185.25 245.598C185.509 245.917 185.879 246.126 186.285 246.183C186.747 246.328 187.218 246.444 187.695 246.528C188.647 246.707 189.615 246.778 190.583 246.738C190.74 246.709 190.901 246.712 191.057 246.747C191.213 246.782 191.36 246.848 191.49 246.941C191.577 247.052 191.64 247.18 191.676 247.317C191.712 247.454 191.72 247.596 191.7 247.736C191.694 248.093 191.661 248.449 191.603 248.801C191.562 248.973 191.562 249.153 191.603 249.326C191.658 249.443 191.746 249.541 191.857 249.608C191.968 249.675 192.096 249.707 192.225 249.701C192.481 249.676 192.727 249.586 192.938 249.438C193.351 249.207 193.706 248.884 193.976 248.494C194.245 248.104 194.421 247.657 194.49 247.188C194.511 246.844 194.551 246.501 194.61 246.161C194.926 246.314 195.17 246.583 195.293 246.911C195.405 247.316 195.39 247.751 195.473 248.156C195.683 249.172 195.818 250.202 195.878 251.238Z" fill="#37474F"/>
<path d="M254.429 182.194L242.016 181.309L216.779 179.276C216.779 179.276 193.611 192.244 190.311 199.526C188.399 203.749 186.561 235.984 186.209 240.776C187.949 242.156 193.034 243.664 195.164 243.304C196.484 239.501 197.631 237.874 199.469 232.279C200.969 227.719 202.349 224.674 203.421 221.524C204.642 217.832 205.398 214.003 205.671 210.124C205.671 210.124 213.846 204.529 219.981 202.196C216.599 205.894 211.731 212.576 211.101 214.046C209.219 218.284 208.529 248.681 208.529 252.896C209.886 254.734 216.359 255.109 217.994 253.984C219.959 247.084 221.414 243.761 222.996 238.091C225.516 229.054 224.699 225.386 224.331 222.086C224.331 222.086 230.864 217.931 239.331 211.586C242.901 208.909 247.311 205.219 249.756 202.399C254.234 197.224 254.901 188.081 254.429 182.194Z" fill="#37474F"/>
<path d="M219.953 202.234L226.943 194.434C226.943 194.434 219.833 191.314 218.513 184.571C218.513 184.571 217.358 190.256 222.795 194.876L218.055 201.484L205.643 210.154C210.773 207.484 215.865 204.701 219.953 202.234Z" fill="#263238"/>
<path d="M237.052 132.371C240.305 132.507 243.542 132.916 246.727 133.593C250.304 134.816 251.347 135.746 253.079 140.688C255.667 148.061 254.872 158.223 254.872 165.191C254.872 174.446 254.654 185.148 254.654 185.148C246.832 191.733 221.362 188.733 217.109 179.441C217.109 179.441 218.099 167.816 218.099 146.651C218.099 136.391 221.797 132.153 228.352 132.153C228.359 132.153 233.759 132.236 237.052 132.371Z" fill="#455A64"/>
<path d="M231.599 108.649C231.668 110.193 231.278 111.723 230.479 113.045C229.679 114.368 228.504 115.423 227.105 116.079C225.705 116.734 224.142 116.959 222.614 116.726C221.086 116.493 219.662 115.813 218.52 114.77C217.379 113.728 216.573 112.37 216.203 110.869C215.834 109.369 215.917 107.792 216.444 106.339C216.97 104.886 217.916 103.621 219.161 102.705C220.406 101.789 221.895 101.263 223.439 101.194C224.464 101.147 225.488 101.303 226.453 101.653C227.418 102.002 228.305 102.539 229.063 103.231C229.82 103.923 230.434 104.758 230.87 105.687C231.305 106.617 231.552 107.623 231.599 108.649Z" fill="#263238"/>
<path d="M244.109 115.121C244.109 115.121 242.856 123.019 242.279 124.331C241.896 125.135 241.215 125.759 240.381 126.071L240.246 120.559L244.109 115.121Z" fill="#263238"/>
<path d="M242.61 103.983C243.072 103.931 243.54 104.004 243.965 104.194C244.389 104.383 244.755 104.684 245.025 105.063C246.12 106.668 245.565 110.778 244.117 115.151L241.117 115.646L242.61 103.983Z" fill="#263238"/>
<path d="M243.607 104.809L247.274 104.321C247.267 104.078 247.209 103.839 247.104 103.619C246.998 103.4 246.848 103.205 246.663 103.047C246.478 102.889 246.262 102.771 246.029 102.701C245.796 102.631 245.551 102.611 245.309 102.641C244.807 102.726 244.354 102.995 244.039 103.396C243.724 103.796 243.57 104.3 243.607 104.809Z" fill="#263238"/>
<path d="M243.922 103.879L246.232 100.879C246.047 100.72 245.832 100.6 245.599 100.529C245.366 100.457 245.12 100.434 244.878 100.461C244.636 100.489 244.402 100.566 244.191 100.688C243.98 100.81 243.797 100.975 243.652 101.171C243.351 101.575 243.212 102.076 243.262 102.577C243.312 103.078 243.547 103.542 243.922 103.879Z" fill="#263238"/>
<path d="M240.202 115.661C240.825 116.006 241.627 114.761 242.34 113.914C243.052 113.066 245.137 112.189 246.465 114.799C246.737 115.336 246.895 115.924 246.928 116.525C246.961 117.127 246.869 117.729 246.658 118.293C246.446 118.857 246.12 119.371 245.699 119.802C245.279 120.234 244.773 120.573 244.215 120.799C243.69 121.03 243.109 121.103 242.543 121.01C241.977 120.917 241.45 120.661 241.027 120.274L241.162 133.286C237.952 141.109 225 139.354 229.62 134.081V129.131C229.62 129.131 227.37 129.364 225.277 129.394C223.537 129.394 221.602 128.291 220.68 125.644C219.619 122.44 218.976 119.112 218.767 115.744C218.606 113.709 218.606 111.665 218.767 109.631C219.652 100.954 230.167 98.2386 236.017 101.726C241.867 105.214 240.202 115.661 240.202 115.661Z" fill="#FFBDA7"/>
<path d="M226.785 108.079C228.945 107.712 231.03 106.992 232.957 105.949C233.041 105.884 233.138 105.837 233.242 105.813C233.345 105.788 233.453 105.786 233.557 105.806C233.782 105.874 233.887 106.106 233.977 106.316C234.318 107.311 234.734 108.279 235.222 109.211C235.723 110.148 236.546 110.873 237.54 111.251C237.907 111.305 238.25 111.47 238.522 111.724C238.732 112.019 238.845 112.373 238.845 112.736C238.83 113.205 238.775 113.672 238.68 114.131C238.59 114.769 238.432 115.871 238.815 116.419C238.896 116.536 239.001 116.634 239.122 116.709C239.244 116.783 239.38 116.83 239.521 116.849C239.663 116.867 239.806 116.856 239.943 116.815C240.079 116.775 240.206 116.706 240.315 116.614C240.758 116.172 241.132 115.667 241.425 115.114C241.769 114.574 242.169 114.071 242.617 113.614C243.037 113.209 242.827 112.361 242.895 111.799C243.037 110.666 243.09 109.549 243.127 108.379C243.127 107.411 243.742 105.236 243.877 104.284C244.08 102.911 243.937 103.399 243.42 102.439C242.295 97.9385 237.247 96.296 233.295 96.716C231.539 96.9133 229.773 96.9985 228.007 96.971C225.783 96.9574 223.565 96.7516 221.377 96.356C221.08 96.2772 220.767 96.2772 220.47 96.356C220.24 96.4695 220.056 96.6573 219.947 96.8888C219.838 97.1204 219.811 97.382 219.87 97.631C219.992 98.1284 220.228 98.5905 220.56 98.981C219.892 98.6839 219.184 98.4868 218.46 98.396C218.095 98.3516 217.725 98.3883 217.376 98.5037C217.027 98.6191 216.708 98.8103 216.442 99.0635C216.173 99.4168 215.985 99.8254 215.893 100.26C215.801 100.694 215.807 101.144 215.91 101.576C216.175 102.993 216.818 104.313 217.769 105.396C218.72 106.48 219.946 107.287 221.317 107.734C223.086 108.283 224.961 108.401 226.785 108.079Z" fill="#263238"/>
<path d="M229.635 129.108C229.635 129.108 235.005 127.968 236.85 126.858C237.947 126.195 238.818 125.214 239.347 124.046C239.112 125.204 238.656 126.307 238.005 127.293C236.7 129.198 229.635 130.878 229.635 130.878V129.108Z" fill="#F0997A"/>
<path d="M229.582 114.791C229.564 114.944 229.578 115.1 229.625 115.248C229.671 115.395 229.748 115.531 229.851 115.647C229.954 115.762 230.08 115.854 230.221 115.918C230.362 115.981 230.515 116.014 230.669 116.014C230.824 116.014 230.977 115.981 231.118 115.918C231.259 115.854 231.385 115.762 231.488 115.647C231.59 115.531 231.667 115.395 231.714 115.248C231.76 115.1 231.775 114.944 231.757 114.791C231.762 114.643 231.737 114.495 231.685 114.356C231.632 114.217 231.553 114.09 231.451 113.982C231.35 113.874 231.227 113.787 231.092 113.726C230.956 113.665 230.81 113.632 230.662 113.628C230.366 113.644 230.088 113.774 229.886 113.991C229.685 114.208 229.575 114.495 229.582 114.791Z" fill="#263238"/>
<path d="M230.205 111.221L232.545 112.533C232.704 112.2 232.735 111.82 232.631 111.466C232.527 111.112 232.296 110.808 231.983 110.613C231.828 110.528 231.657 110.476 231.48 110.46C231.304 110.444 231.127 110.466 230.959 110.523C230.792 110.58 230.638 110.672 230.508 110.792C230.378 110.912 230.275 111.058 230.205 111.221Z" fill="#263238"/>
<path d="M231.359 121.983L227.609 123.483C227.687 123.743 227.817 123.984 227.991 124.191C228.166 124.399 228.381 124.568 228.624 124.688C228.867 124.808 229.132 124.877 229.402 124.891C229.673 124.904 229.943 124.862 230.197 124.766C230.701 124.528 231.099 124.112 231.313 123.598C231.528 123.084 231.544 122.509 231.359 121.983Z" fill="#F0997A"/>
<path d="M220.048 112.983L222.156 111.258C222.058 111.112 221.931 110.988 221.783 110.894C221.635 110.8 221.468 110.737 221.295 110.711C221.121 110.685 220.944 110.696 220.774 110.742C220.605 110.789 220.447 110.87 220.311 110.981C220.026 111.222 219.841 111.561 219.792 111.931C219.743 112.302 219.835 112.677 220.048 112.983Z" fill="#263238"/>
<path d="M220.754 115.233C220.773 115.444 220.852 115.644 220.984 115.81C221.115 115.976 221.291 116.1 221.492 116.167C221.692 116.234 221.908 116.241 222.112 116.188C222.317 116.134 222.501 116.022 222.643 115.866C222.785 115.709 222.878 115.514 222.911 115.305C222.944 115.097 222.915 114.883 222.829 114.69C222.742 114.497 222.601 114.334 222.423 114.22C222.245 114.106 222.037 114.046 221.826 114.048C221.678 114.055 221.532 114.091 221.398 114.154C221.263 114.218 221.143 114.307 221.043 114.417C220.943 114.528 220.866 114.656 220.817 114.796C220.767 114.936 220.746 115.085 220.754 115.233Z" fill="#263238"/>
<path d="M226.108 114.708L226.393 121.721L222.479 120.941L226.108 114.708Z" fill="#F0997A"/>
<path d="M237.907 98.5611C240.907 100.526 244.312 104.269 244.117 112.436C244.807 112.875 245.36 113.5 245.71 114.239C246.06 114.978 246.194 115.801 246.097 116.614C245.894 119.164 243.914 121.234 241.679 121.226C239.444 121.219 237.787 119.149 237.989 116.591C238.139 114.686 239.707 112.534 241.319 112.316C241.575 109.523 241.102 106.712 239.947 104.156C237.359 98.0136 231.637 97.4061 226.387 96.9411C228.209 96.1011 233.872 95.8986 237.907 98.5611Z" fill="#3BADD4"/>
<path opacity="0.5" d="M237.907 98.5611C240.907 100.526 244.312 104.269 244.117 112.436C244.807 112.875 245.36 113.5 245.71 114.239C246.06 114.978 246.194 115.801 246.097 116.614C245.894 119.164 243.914 121.234 241.679 121.226C239.444 121.219 237.787 119.149 237.989 116.591C238.139 114.686 239.707 112.534 241.319 112.316C241.575 109.523 241.102 106.712 239.947 104.156C237.359 98.0136 231.637 97.4061 226.387 96.9411C228.209 96.1011 233.872 95.8986 237.907 98.5611Z" fill="black"/>
<path d="M237.502 116.576C237.727 113.741 239.917 111.453 242.399 111.461C242.775 111.461 243.149 111.517 243.509 111.626C243.809 111.723 244.732 112.106 244.912 112.181C245.819 112.598 246.57 113.295 247.053 114.17C247.536 115.044 247.726 116.05 247.597 117.041C247.372 119.868 245.182 122.156 242.699 122.156C242.243 122.155 241.79 122.071 241.364 121.908L240.074 121.391C239.198 120.956 238.479 120.258 238.018 119.395C237.557 118.532 237.376 117.546 237.502 116.576Z" fill="#3BADD4"/>
<path opacity="0.3" d="M237.502 116.576C237.727 113.741 239.917 111.453 242.399 111.461C242.775 111.461 243.149 111.517 243.509 111.626C243.809 111.723 244.732 112.106 244.912 112.181C245.819 112.598 246.57 113.295 247.053 114.17C247.536 115.044 247.726 116.05 247.597 117.041C247.372 119.868 245.182 122.156 242.699 122.156C242.243 122.155 241.79 122.071 241.364 121.908L240.074 121.391C239.198 120.956 238.479 120.258 238.018 119.395C237.557 118.532 237.376 117.546 237.502 116.576Z" fill="black"/>
<path d="M238.612 117.019C238.837 114.191 241.027 111.904 243.51 111.911C245.992 111.919 247.815 114.214 247.597 117.041C247.38 119.869 245.182 122.156 242.7 122.156C240.217 122.156 238.387 119.846 238.612 117.019Z" fill="#3BADD4"/>
<path opacity="0.1" d="M238.612 117.019C238.837 114.191 241.027 111.904 243.51 111.911C245.992 111.919 247.815 114.214 247.597 117.041C247.38 119.869 245.182 122.156 242.7 122.156C240.217 122.156 238.387 119.846 238.612 117.019Z" fill="black"/>
<path d="M240.981 117.026C241.003 116.41 241.251 115.824 241.677 115.379C242.102 114.933 242.677 114.66 243.291 114.611C243.582 114.63 243.866 114.71 244.124 114.845C244.382 114.98 244.609 115.168 244.791 115.396C244.972 115.624 245.104 115.887 245.178 116.169C245.251 116.451 245.265 116.746 245.219 117.033C245.197 117.649 244.949 118.235 244.524 118.681C244.098 119.126 243.523 119.399 242.909 119.448C242.618 119.43 242.333 119.351 242.075 119.216C241.816 119.082 241.588 118.894 241.407 118.666C241.225 118.437 241.093 118.173 241.02 117.891C240.947 117.608 240.933 117.314 240.981 117.026Z" fill="#455A64"/>
<path d="M178.11 274.923C170.498 270.528 158.16 270.528 150.548 274.923C146.745 277.121 144.848 280.001 144.848 282.881C144.848 283.181 144.848 285.011 144.848 285.356C144.908 288.191 146.805 291.011 150.548 293.171C158.16 297.566 170.498 297.566 178.11 293.171C181.86 291.003 183.773 288.161 183.81 285.311C183.81 284.981 183.81 283.143 183.81 282.836C183.758 279.971 181.86 277.106 178.11 274.923Z" fill="#37474F"/>
<path d="M150.51 290.838C142.898 286.443 142.898 279.318 150.51 274.923C158.123 270.528 170.46 270.528 178.073 274.923C185.685 279.318 185.685 286.443 178.073 290.838C170.46 295.233 158.123 295.233 150.51 290.838Z" fill="#455A64"/>
<path d="M166.702 280.983V233.283H161.85V280.983C161.835 281.217 161.894 281.45 162.017 281.649C162.141 281.848 162.324 282.003 162.54 282.093C163.072 282.363 163.661 282.504 164.257 282.504C164.854 282.504 165.443 282.363 165.975 282.093C166.199 282.01 166.39 281.858 166.521 281.658C166.652 281.458 166.716 281.222 166.702 280.983Z" fill="#37474F"/>
<path d="M204.247 189.236C182.152 176.486 146.325 176.486 124.23 189.236C113.182 195.611 107.662 203.974 107.67 212.336V213.956C107.67 222.319 113.182 230.681 124.23 237.056C146.325 249.806 182.152 249.806 204.247 237.056C215.295 230.681 220.815 222.319 220.807 213.956V212.336C220.815 203.974 215.295 195.619 204.247 189.236Z" fill="#455A64"/>
<path d="M204.3 184.983C182.205 172.233 146.377 172.233 124.282 184.983C113.227 191.358 107.715 199.721 107.715 208.083C107.715 209.793 107.715 209.148 107.715 210.866C107.715 219.228 113.227 227.583 124.282 233.966C146.377 246.716 182.205 246.716 204.3 233.966C215.347 227.598 220.86 218.081 220.86 209.733V208.113C220.86 199.736 215.347 191.373 204.3 184.983Z" fill="#3BADD4"/>
<path opacity="0.4" d="M204.3 184.983C182.205 172.233 146.377 172.233 124.282 184.983C113.227 191.358 107.715 199.721 107.715 208.083C107.715 209.793 107.715 209.148 107.715 210.866C107.715 219.228 113.227 227.583 124.282 233.966C146.377 246.716 182.205 246.716 204.3 233.966C215.347 227.598 220.86 218.081 220.86 209.733V208.113C220.86 199.736 215.347 191.373 204.3 184.983Z" fill="white"/>
<path opacity="0.1" d="M204.3 184.983C182.205 172.233 146.377 172.233 124.282 184.983C113.227 191.358 107.715 199.721 107.715 208.083C107.715 209.793 107.715 209.148 107.715 210.866C107.715 219.228 113.227 227.583 124.282 233.966C146.377 246.716 182.205 246.716 204.3 233.966C215.347 227.598 220.86 218.081 220.86 209.733V208.113C220.86 199.736 215.347 191.373 204.3 184.983Z" fill="black"/>
<path d="M164.287 240.769C195.535 240.769 220.867 226.142 220.867 208.099C220.867 190.056 195.535 175.429 164.287 175.429C133.039 175.429 107.707 190.056 107.707 208.099C107.707 226.142 133.039 240.769 164.287 240.769Z" fill="#3BADD4"/>
<path opacity="0.85" d="M124.229 231.199C102.134 218.449 102.134 197.756 124.229 184.999C146.324 172.241 182.152 172.249 204.247 184.999C226.342 197.749 226.349 218.441 204.247 231.199C182.144 243.956 146.324 243.956 124.229 231.199Z" fill="white"/>
<path opacity="0.1" d="M153.758 193.428L176.61 180.243C176.81 180.129 177.036 180.068 177.267 180.068C177.497 180.068 177.723 180.129 177.923 180.243L217.553 203.126C217.598 203.151 217.636 203.188 217.662 203.233C217.688 203.278 217.702 203.329 217.702 203.381C217.702 203.432 217.688 203.483 217.662 203.528C217.636 203.573 217.598 203.61 217.553 203.636L194.498 216.948L153.758 193.428Z" fill="black"/>
<path d="M155.461 190.653V191.163C155.462 191.534 155.56 191.898 155.746 192.219C155.931 192.54 156.198 192.807 156.518 192.993L193.433 214.308C193.755 214.492 194.12 214.589 194.491 214.589C194.862 214.589 195.226 214.492 195.548 214.308L215.671 202.728C215.99 202.543 216.255 202.277 216.44 201.957C216.624 201.638 216.721 201.275 216.721 200.906V200.156C216.721 200.202 216.71 200.248 216.688 200.289C216.665 200.33 216.633 200.364 216.593 200.388L194.491 213.138L155.461 190.653Z" fill="#37474F"/>
<path d="M194.491 213.183V214.586C194.12 214.588 193.755 214.493 193.433 214.308L156.518 192.993C156.197 192.808 155.929 192.542 155.744 192.22C155.558 191.899 155.46 191.534 155.461 191.163V190.653L194.491 213.183Z" fill="#263238"/>
<path d="M155.461 190.653L177.361 178.016C177.551 177.905 177.767 177.847 177.987 177.847C178.207 177.847 178.423 177.905 178.613 178.016L216.586 199.938C216.628 199.964 216.663 199.999 216.687 200.042C216.711 200.085 216.723 200.133 216.723 200.182C216.723 200.231 216.711 200.279 216.687 200.322C216.663 200.364 216.628 200.4 216.586 200.426L194.498 213.176L155.461 190.653Z" fill="#455A64"/>
<path d="M194.684 211.323L206.497 204.513L171.974 184.586L160.109 191.358L194.684 211.323Z" fill="#37474F"/>
<path d="M160.109 191.358L160.559 191.621L171.974 185.103L206.039 204.776L206.489 204.521L171.974 184.586L160.109 191.358Z" fill="#263238"/>
<path d="M200.49 192.386L200.272 192.506L194.49 195.851L184.2 189.911L183.982 189.783L189.982 186.318L200.49 192.386Z" fill="#263238"/>
<path d="M200.274 192.505L194.491 195.85L184.201 189.91L189.984 186.565L200.274 192.505Z" fill="#37474F"/>
<path d="M208.68 163.841C205.635 165.633 201.818 167.973 199.598 169.203C197.378 170.433 195.758 171.123 193.26 172.368C191.34 173.321 188.925 174.123 187.53 175.428C186.135 176.733 179.01 183.806 177.458 185.028C175.905 186.251 176.708 187.578 179.588 188.426C180.735 188.789 181.946 188.911 183.143 188.781C184.339 188.652 185.496 188.276 186.54 187.676C188.235 186.667 189.823 185.488 191.28 184.158C192.655 184.101 193.986 183.651 195.113 182.861C196.613 181.623 197.542 180.146 198.42 179.411C199.297 178.676 207.615 175.563 213.923 173.148L208.68 163.841Z" fill="#FFBDA7"/>
<path d="M193.86 213.483C193.512 213.618 193.138 213.674 192.765 213.645C192.393 213.617 192.031 213.505 191.708 213.318L154.958 192.101C154.638 191.918 154.362 191.666 154.151 191.364C153.939 191.062 153.797 190.717 153.735 190.353L149.715 166.353C149.704 166.216 149.704 166.078 149.715 165.941C149.717 165.609 149.783 165.282 149.912 164.977C150.041 164.672 150.229 164.395 150.465 164.163L188.663 186.221C188.897 186.357 189.098 186.544 189.252 186.766C189.406 186.989 189.51 187.243 189.555 187.511L193.86 213.483Z" fill="#37474F"/>
<path d="M194.491 213.183L194.236 213.326C194.127 213.391 194.011 213.446 193.891 213.491L189.541 187.526C189.496 187.258 189.392 187.004 189.238 186.781C189.084 186.559 188.883 186.372 188.649 186.236L150.451 164.178C150.605 164.028 150.776 163.897 150.961 163.788L189.211 185.883C189.447 186.02 189.65 186.207 189.806 186.432C189.961 186.656 190.066 186.912 190.111 187.181L194.491 213.183Z" fill="#455A64"/>
<path d="M189.188 186.723L189.78 186.378C189.959 186.614 190.079 186.889 190.133 187.18L194.49 213.183L194.235 213.325C194.125 213.391 194.01 213.446 193.89 213.49L189.54 187.525C189.494 187.232 189.372 186.956 189.188 186.723Z" fill="#263238"/>
<path d="M173.191 191.343C172.921 189.738 171.264 187.593 169.486 186.581C167.709 185.568 166.486 186.026 166.756 187.631C167.026 189.236 168.691 191.381 170.461 192.393C172.231 193.406 173.461 192.948 173.191 191.343Z" fill="#3BADD4"/>
<path d="M228.644 189.903C229.701 189.003 247.116 183.078 250.296 181.376C253.476 179.673 253.791 178.158 254.691 173.336C255.996 166.338 257.114 149.208 256.829 143.268C256.626 138.971 254.264 135.281 247.641 134.426C245.646 136.556 243.689 140.853 244.499 150.596C244.169 154.781 242.249 172.391 242.249 172.391C239.511 173.816 232.994 177.888 229.799 179.666C227.549 180.926 225.951 181.586 223.454 182.831C221.534 183.776 219.126 184.586 217.724 185.891C216.321 187.196 209.234 194.268 207.689 195.483C206.144 196.698 206.939 198.033 209.811 198.881C210.96 199.244 212.172 199.365 213.37 199.236C214.568 199.107 215.726 198.731 216.771 198.131C218.464 197.122 220.05 195.944 221.504 194.613C222.881 194.556 224.214 194.106 225.344 193.316C226.859 192.116 227.774 190.638 228.644 189.903Z" fill="#FFBDA7"/>
<path d="M246.824 133.661C250.102 133.984 254.639 135.356 256.267 138.161C257.894 140.966 258.172 142.181 257.504 151.031C256.882 159.281 256.177 164.284 256.177 164.284C256.177 164.284 251.759 166.939 243.359 162.484L244.109 150.484C244.109 150.484 242.264 138.206 246.824 133.661Z" fill="#3BADD4"/>
<g opacity="0.2">
<path opacity="0.2" d="M131.737 214.811C129.059 214.869 126.422 214.147 124.147 212.734C122.37 211.556 121.395 210.086 121.395 208.594C121.395 207.101 122.37 205.594 124.147 204.446C126.447 203.091 129.068 202.376 131.737 202.376C134.407 202.376 137.027 203.091 139.327 204.446C141.105 205.624 142.08 207.094 142.08 208.594C142.08 210.094 141.105 211.556 139.327 212.734C137.052 214.147 134.415 214.869 131.737 214.811Z" fill="black"/>
</g>
<path d="M140.363 207.828C141.065 207.869 141.769 207.769 142.432 207.536C143.347 207.198 144.142 206.216 144.87 204.536C145.477 203.111 146.46 199.983 145.77 198.378C144.892 196.331 142.41 196.256 140.767 196.211H140.205L140.115 198.168C140.31 198.168 140.617 198.236 140.865 198.243C141.787 198.243 143.827 198.588 144.052 199.113C144.802 200.381 142.86 205.248 142.012 205.781C140.964 206.006 139.881 206.006 138.832 205.781L138.188 207.416C138.887 207.663 139.621 207.802 140.363 207.828Z" fill="#3BADD4"/>
<path opacity="0.5" d="M140.363 207.828C141.065 207.869 141.769 207.769 142.432 207.536C143.347 207.198 144.142 206.216 144.87 204.536C145.477 203.111 146.46 199.983 145.77 198.378C144.892 196.331 142.41 196.256 140.767 196.211H140.205L140.115 198.168C140.31 198.168 140.617 198.236 140.865 198.243C141.787 198.243 143.827 198.588 144.052 199.113C144.802 200.381 142.86 205.248 142.012 205.781C140.964 206.006 139.881 206.006 138.832 205.781L138.188 207.416C138.887 207.663 139.621 207.802 140.363 207.828Z" fill="black"/>
<path d="M123.104 193.841C123.292 193.008 124.117 192.191 125.572 191.538C129.514 190.023 133.869 189.978 137.842 191.411C139.342 192.033 140.152 192.828 140.362 193.661H140.407C141.044 199.128 140.129 205.488 138.217 209.021C138.209 209.048 138.196 209.073 138.179 209.096C138.182 209.113 138.182 209.131 138.179 209.148C137.791 209.777 137.245 210.294 136.597 210.648C135.162 211.393 133.572 211.791 131.955 211.808C130.338 211.825 128.74 211.461 127.289 210.746C126.626 210.401 126.069 209.882 125.677 209.246V209.201L125.632 209.118C123.644 205.623 122.632 199.286 123.119 193.803L123.104 193.841Z" fill="#3BADD4"/>
<path opacity="0.4" d="M123.104 193.841C123.292 193.008 124.117 192.191 125.572 191.538C129.514 190.023 133.869 189.978 137.842 191.411C139.342 192.033 140.152 192.828 140.362 193.661H140.407C141.044 199.128 140.129 205.488 138.217 209.021C138.209 209.048 138.196 209.073 138.179 209.096C138.182 209.113 138.182 209.131 138.179 209.148C137.791 209.777 137.245 210.294 136.597 210.648C135.162 211.393 133.572 211.791 131.955 211.808C130.338 211.825 128.74 211.461 127.289 210.746C126.626 210.401 126.069 209.882 125.677 209.246V209.201L125.632 209.118C123.644 205.623 122.632 199.286 123.119 193.803L123.104 193.841Z" fill="black"/>
<path d="M125.609 191.538C122.242 193.038 122.264 195.431 125.669 196.871C129.644 198.297 133.998 198.249 137.939 196.736C141.307 195.236 141.284 192.843 137.879 191.411C133.907 189.978 129.551 190.023 125.609 191.538Z" fill="#3BADD4"/>
<path opacity="0.4" d="M126.773 192.483C124.05 193.473 124.065 195.025 126.773 195.963C130.01 196.888 133.448 196.852 136.665 195.858C139.388 194.868 139.373 193.308 136.665 192.37C133.427 191.441 129.988 191.48 126.773 192.483Z" fill="black"/>
<path d="M126.795 194.553C126.306 194.716 125.846 194.954 125.43 195.258C125.853 195.551 126.318 195.778 126.81 195.933C130.048 196.858 133.485 196.822 136.702 195.828C137.19 195.662 137.65 195.424 138.067 195.123C137.644 194.83 137.178 194.602 136.687 194.448C133.449 193.522 130.012 193.558 126.795 194.553Z" fill="#263238"/>
<path d="M240.586 86.6288L243.308 81.4838L241.111 75.1913V71.3213L247.861 75.1913V79.0613L244.981 84.0563C244.933 84.1309 244.866 84.1907 244.786 84.2288L240.586 86.6288Z" fill="#3BADD4"/>
<path opacity="0.2" d="M240.586 86.6288L243.308 81.4838L241.111 75.1913V71.3213L247.861 75.1913V79.0613L244.981 84.0563C244.933 84.1309 244.866 84.1907 244.786 84.2288L240.586 86.6288Z" fill="black"/>
<path d="M220.223 46.1213C220.26 45.4239 220.461 44.7451 220.811 44.1404C221.16 43.5356 221.647 43.022 222.233 42.6413L223.86 41.7338C224.482 41.4158 225.171 41.25 225.87 41.25C226.569 41.25 227.258 41.4158 227.88 41.7338L265.785 63.6263C266.366 64.0117 266.849 64.5267 267.196 65.1306C267.544 65.7344 267.746 66.4108 267.788 67.1063V86.7113C267.75 87.4077 267.549 88.0856 267.201 88.6901C266.854 89.2946 266.368 89.8089 265.785 90.1913L264.143 91.1363C263.518 91.4479 262.83 91.6101 262.133 91.6101C261.435 91.6101 260.747 91.4479 260.123 91.1363L243.623 81.5363L240.743 86.5163C240.701 86.5829 240.642 86.6365 240.571 86.6712C240.501 86.7058 240.422 86.72 240.344 86.7122C240.266 86.7044 240.192 86.6749 240.13 86.627C240.068 86.5791 240.02 86.5148 239.993 86.4413L236.955 77.6738L222.233 69.1988C221.649 68.8196 221.163 68.3083 220.814 67.7063C220.465 67.1043 220.262 66.4286 220.223 65.7338V46.1213Z" fill="#3BADD4"/>
<path opacity="0.2" d="M267.795 86.6739C267.757 87.3703 267.556 88.0482 267.208 88.6527C266.861 89.2572 266.375 89.7715 265.792 90.1539L264.15 91.0989C263.583 91.3837 262.963 91.5456 262.33 91.5741C261.696 91.6025 261.064 91.4968 260.475 91.2639C261.42 91.6164 262.14 91.0839 262.14 89.9364V70.3389C262.116 69.6399 261.914 68.9586 261.555 68.3589L267.21 65.0889C267.568 65.689 267.77 66.3701 267.795 67.0689V86.6739Z" fill="black"/>
<path opacity="0.2" d="M220.291 45.5515C220.524 44.6965 221.304 44.4264 222.234 44.959L260.139 66.859C260.731 67.2278 261.217 67.7448 261.549 68.359L267.204 65.0965C266.869 64.4818 266.381 63.9649 265.786 63.5965L227.896 41.7339C227.27 41.4199 226.579 41.2563 225.879 41.2563C225.178 41.2563 224.487 41.4199 223.861 41.7339L222.219 42.6789C221.721 43.0044 221.295 43.4263 220.964 43.9198C220.632 44.4132 220.404 44.968 220.291 45.5515Z" fill="white"/>
<path d="M259.859 79.3536C259.935 79.3536 260.007 79.3236 260.061 79.2702C260.114 79.2167 260.144 79.1442 260.144 79.0686V78.0711C260.144 77.9955 260.114 77.9231 260.061 77.8696C260.007 77.8162 259.935 77.7861 259.859 77.7861C259.784 77.7861 259.711 77.8162 259.658 77.8696C259.604 77.9231 259.574 77.9955 259.574 78.0711V79.0686C259.574 79.1442 259.604 79.2167 259.658 79.2702C259.711 79.3236 259.784 79.3536 259.859 79.3536Z" fill="#FAFAFA"/>
<path d="M258.419 81.3488C258.495 81.3488 258.568 81.3188 258.621 81.2653C258.674 81.2119 258.704 81.1394 258.704 81.0638V74.4188C258.704 74.3432 258.674 74.2707 258.621 74.2173C258.568 74.1638 258.495 74.1338 258.419 74.1338C258.343 74.1338 258.27 74.1636 258.215 74.2168C258.161 74.27 258.129 74.3425 258.127 74.4188V81.0638C258.129 81.1401 258.161 81.2125 258.215 81.2658C258.27 81.319 258.343 81.3488 258.419 81.3488Z" fill="#FAFAFA"/>
<path d="M256.98 79.0161C257.056 79.0161 257.128 78.9861 257.182 78.9326C257.235 78.8792 257.265 78.8067 257.265 78.7311V75.0936C257.265 75.018 257.235 74.9455 257.182 74.8921C257.128 74.8386 257.056 74.8086 256.98 74.8086C256.905 74.8086 256.832 74.8386 256.779 74.8921C256.725 74.9455 256.695 75.018 256.695 75.0936V78.7311C256.695 78.8067 256.725 78.8792 256.779 78.9326C256.832 78.9861 256.905 79.0161 256.98 79.0161Z" fill="#FAFAFA"/>
<path d="M254.107 76.3837C254.183 76.3837 254.255 76.3536 254.308 76.3002C254.362 76.2467 254.392 76.1742 254.392 76.0987V74.4037C254.392 74.3281 254.362 74.2556 254.308 74.2021C254.255 74.1487 254.183 74.1187 254.107 74.1187C254.031 74.1186 253.957 74.1484 253.903 74.2017C253.848 74.2549 253.816 74.3274 253.814 74.4037V76.0987C253.816 76.1749 253.848 76.2474 253.903 76.3007C253.957 76.3539 254.031 76.3837 254.107 76.3837Z" fill="#FAFAFA"/>
<path d="M252.668 76.8486C252.706 76.8486 252.744 76.841 252.779 76.8262C252.814 76.8114 252.846 76.7898 252.872 76.7625C252.899 76.7352 252.92 76.7029 252.933 76.6675C252.947 76.632 252.954 76.5942 252.953 76.5561V72.2811C252.953 72.2055 252.923 72.133 252.869 72.0796C252.816 72.0261 252.744 71.9961 252.668 71.9961C252.592 71.9961 252.52 72.0261 252.466 72.0796C252.413 72.133 252.383 72.2055 252.383 72.2811V76.5561C252.382 76.5942 252.389 76.632 252.402 76.6675C252.416 76.7029 252.437 76.7352 252.464 76.7625C252.49 76.7898 252.522 76.8114 252.557 76.8262C252.592 76.841 252.63 76.8486 252.668 76.8486Z" fill="#FAFAFA"/>
<path d="M251.226 79.1061C251.302 79.1061 251.374 79.0761 251.428 79.0227C251.481 78.9692 251.511 78.8967 251.511 78.8211V68.3211C251.511 68.2455 251.481 68.1731 251.428 68.1196C251.374 68.0662 251.302 68.0361 251.226 68.0361C251.151 68.0361 251.078 68.0662 251.025 68.1196C250.971 68.1731 250.941 68.2455 250.941 68.3211V78.8211C250.941 78.8967 250.971 78.9692 251.025 79.0227C251.078 79.0761 251.151 79.1061 251.226 79.1061Z" fill="#FAFAFA"/>
<path d="M249.794 77.2012C249.87 77.2012 249.943 77.1711 249.996 77.1177C250.049 77.0642 250.079 76.9918 250.079 76.9162V68.6062C250.068 68.5376 250.033 68.4752 249.98 68.4301C249.927 68.3851 249.86 68.3604 249.791 68.3604C249.721 68.3604 249.654 68.3851 249.601 68.4301C249.548 68.4752 249.513 68.5376 249.502 68.6062V76.9162C249.502 76.9542 249.51 76.9919 249.524 77.027C249.539 77.0621 249.561 77.0938 249.588 77.1204C249.615 77.147 249.648 77.1678 249.683 77.1817C249.719 77.1955 249.756 77.2022 249.794 77.2012Z" fill="#FAFAFA"/>
<path d="M248.355 78.199C248.431 78.199 248.503 78.169 248.557 78.1155C248.61 78.0621 248.64 77.9896 248.64 77.914V65.9515C248.64 65.8759 248.61 65.8034 248.557 65.75C248.503 65.6965 248.431 65.6665 248.355 65.6665C248.28 65.6665 248.207 65.6965 248.154 65.75C248.1 65.8034 248.07 65.8759 248.07 65.9515V77.914C248.07 77.9514 248.078 77.9885 248.092 78.0231C248.106 78.0576 248.127 78.0891 248.154 78.1155C248.18 78.142 248.212 78.163 248.246 78.1773C248.281 78.1916 248.318 78.199 248.355 78.199Z" fill="#FAFAFA"/>
<path d="M246.914 74.2538C246.989 74.2538 247.062 74.2238 247.115 74.1703C247.169 74.1169 247.199 74.0444 247.199 73.9688V68.2313C247.199 68.1557 247.169 68.0832 247.115 68.0298C247.062 67.9763 246.989 67.9463 246.914 67.9463C246.838 67.9463 246.766 67.9763 246.712 68.0298C246.659 68.0832 246.629 68.1557 246.629 68.2313V73.9838C246.633 74.0567 246.664 74.1254 246.718 74.1757C246.771 74.2259 246.841 74.2539 246.914 74.2538Z" fill="#FAFAFA"/>
<path d="M245.482 71.2386C245.558 71.2386 245.63 71.2086 245.683 71.1551C245.737 71.1017 245.767 71.0292 245.767 70.9536V69.5886C245.756 69.52 245.721 69.4576 245.668 69.4125C245.615 69.3675 245.548 69.3428 245.478 69.3428C245.409 69.3428 245.342 69.3675 245.289 69.4125C245.236 69.4576 245.201 69.52 245.189 69.5886V70.9836C245.197 71.0552 245.231 71.1213 245.286 71.1686C245.34 71.2159 245.41 71.2409 245.482 71.2386Z" fill="#FAFAFA"/>
<path d="M242.609 72.8214C242.685 72.8214 242.757 72.7914 242.811 72.7379C242.864 72.6845 242.894 72.612 242.894 72.5364V64.6839C242.894 64.6083 242.864 64.5358 242.811 64.4824C242.757 64.429 242.685 64.3989 242.609 64.3989C242.534 64.3989 242.461 64.429 242.408 64.4824C242.354 64.5358 242.324 64.6083 242.324 64.6839V72.5364C242.324 72.612 242.354 72.6845 242.408 72.7379C242.461 72.7914 242.534 72.8214 242.609 72.8214Z" fill="#FAFAFA"/>
<path d="M239.729 73.234C239.804 73.234 239.877 73.204 239.93 73.1505C239.984 73.0971 240.014 73.0246 240.014 72.949V60.994C240.014 60.9184 239.984 60.8459 239.93 60.7925C239.877 60.739 239.804 60.709 239.729 60.709C239.653 60.709 239.581 60.739 239.527 60.7925C239.474 60.8459 239.444 60.9184 239.444 60.994V72.9115C239.439 72.9519 239.442 72.9931 239.454 73.0321C239.466 73.0711 239.486 73.1071 239.513 73.1377C239.54 73.1683 239.573 73.1927 239.61 73.2093C239.648 73.2259 239.688 73.2343 239.729 73.234Z" fill="#FAFAFA"/>
<path d="M236.857 66.4241C236.933 66.4241 237.005 66.394 237.058 66.3406C237.112 66.2871 237.142 66.2146 237.142 66.1391V64.4441C237.131 64.3755 237.096 64.3131 237.043 64.268C236.99 64.223 236.923 64.1982 236.853 64.1982C236.784 64.1982 236.717 64.223 236.664 64.268C236.611 64.3131 236.576 64.3755 236.564 64.4441V66.1391C236.564 66.1771 236.572 66.2148 236.587 66.2499C236.602 66.285 236.623 66.3167 236.651 66.3433C236.678 66.3698 236.71 66.3907 236.746 66.4046C236.781 66.4184 236.819 66.4251 236.857 66.4241Z" fill="#FAFAFA"/>
<path d="M222.509 57.7989C222.548 57.7999 222.585 57.7933 222.621 57.7794C222.656 57.7656 222.689 57.7447 222.716 57.7182C222.743 57.6916 222.765 57.6598 222.78 57.6248C222.794 57.5897 222.802 57.552 222.802 57.5139V56.5164C222.809 56.4746 222.806 56.4318 222.795 56.391C222.784 56.3502 222.763 56.3124 222.736 56.2801C222.708 56.2479 222.674 56.222 222.636 56.2042C222.597 56.1864 222.556 56.1772 222.513 56.1772C222.471 56.1772 222.429 56.1864 222.391 56.2042C222.352 56.222 222.318 56.2479 222.29 56.2801C222.263 56.3124 222.243 56.3502 222.231 56.391C222.22 56.4318 222.218 56.4746 222.224 56.5164V57.4839C222.22 57.5238 222.224 57.5641 222.237 57.6022C222.249 57.6403 222.27 57.6754 222.297 57.7051C222.323 57.7349 222.356 57.7586 222.393 57.7748C222.43 57.7909 222.469 57.7992 222.509 57.7989Z" fill="#FAFAFA"/>
<path d="M223.949 61.4438C224.025 61.4438 224.097 61.4138 224.151 61.3604C224.204 61.3069 224.234 61.2344 224.234 61.1588V54.5213C224.234 54.4457 224.204 54.3733 224.151 54.3198C224.097 54.2664 224.025 54.2363 223.949 54.2363C223.873 54.2363 223.801 54.2664 223.748 54.3198C223.694 54.3733 223.664 54.4457 223.664 54.5213V61.1588C223.664 61.2344 223.694 61.3069 223.748 61.3604C223.801 61.4138 223.873 61.4438 223.949 61.4438Z" fill="#FAFAFA"/>
<path d="M225.359 60.7763C225.435 60.7763 225.507 60.7463 225.561 60.6929C225.614 60.6394 225.644 60.5669 225.644 60.4914V56.8539C225.644 56.7783 225.614 56.7058 225.561 56.6523C225.507 56.5989 225.435 56.5688 225.359 56.5688C225.284 56.5688 225.211 56.5989 225.158 56.6523C225.104 56.7058 225.074 56.7783 225.074 56.8539V60.4838C225.073 60.5219 225.08 60.5598 225.094 60.5952C225.108 60.6307 225.129 60.663 225.155 60.6902C225.182 60.7175 225.213 60.7392 225.248 60.754C225.284 60.7687 225.321 60.7764 225.359 60.7763Z" fill="#FAFAFA"/>
<path d="M228.262 61.4662C228.337 61.4662 228.41 61.4361 228.463 61.3827C228.517 61.3292 228.547 61.2568 228.547 61.1812V59.4862C228.547 59.4106 228.517 59.3381 228.463 59.2846C228.41 59.2312 228.337 59.2012 228.262 59.2012C228.186 59.2012 228.113 59.2312 228.06 59.2846C228.007 59.3381 227.977 59.4106 227.977 59.4862V61.1812C227.977 61.2568 228.007 61.3292 228.06 61.3827C228.113 61.4361 228.186 61.4662 228.262 61.4662Z" fill="#FAFAFA"/>
<path d="M229.701 63.5888C229.777 63.5888 229.849 63.5588 229.903 63.5054C229.956 63.4519 229.986 63.3794 229.986 63.3038V59.0213C229.986 58.9457 229.956 58.8732 229.903 58.8198C229.849 58.7664 229.777 58.7363 229.701 58.7363C229.625 58.7363 229.553 58.7664 229.499 58.8198C229.446 58.8732 229.416 58.9457 229.416 59.0213V63.3038C229.416 63.3794 229.446 63.4519 229.499 63.5054C229.553 63.5588 229.625 63.5888 229.701 63.5888Z" fill="#FAFAFA"/>
<path d="M231.135 67.5111C231.173 67.5111 231.211 67.5035 231.247 67.4888C231.282 67.4741 231.314 67.4526 231.341 67.4254C231.369 67.3983 231.39 67.366 231.405 67.3305C231.419 67.2951 231.427 67.257 231.427 67.2186V56.7336C231.416 56.665 231.381 56.6026 231.328 56.5576C231.275 56.5125 231.208 56.4878 231.138 56.4878C231.069 56.4878 231.002 56.5125 230.949 56.5576C230.896 56.6026 230.861 56.665 230.85 56.7336V67.2336C230.853 67.3073 230.885 67.3768 230.938 67.4283C230.991 67.4797 231.061 67.5093 231.135 67.5111Z" fill="#FAFAFA"/>
<path d="M234.014 69.9186C234.089 69.9186 234.162 69.8886 234.215 69.8352C234.268 69.7817 234.299 69.7092 234.299 69.6336V57.6336C234.299 57.558 234.268 57.4856 234.215 57.4321C234.162 57.3787 234.089 57.3486 234.014 57.3486C233.938 57.3486 233.865 57.3787 233.812 57.4321C233.759 57.4856 233.729 57.558 233.729 57.6336V69.6336C233.729 69.7092 233.759 69.7817 233.812 69.8352C233.865 69.8886 233.938 69.9186 234.014 69.9186Z" fill="#FAFAFA"/>
<path d="M235.455 66.9941C235.53 66.9941 235.603 66.9641 235.656 66.9106C235.71 66.8572 235.74 66.7847 235.74 66.7091V62.2541C235.729 62.1855 235.693 62.1231 235.64 62.0781C235.588 62.033 235.52 62.0083 235.451 62.0083C235.381 62.0083 235.314 62.033 235.261 62.0781C235.208 62.1231 235.173 62.1855 235.162 62.2541V66.7091C235.162 66.7472 235.17 66.7849 235.184 66.8199C235.199 66.855 235.221 66.8868 235.248 66.9133C235.275 66.9399 235.308 66.9607 235.343 66.9746C235.379 66.9885 235.417 66.9951 235.455 66.9941Z" fill="#FAFAFA"/>
<path d="M255.539 81.6864C255.614 81.6864 255.687 81.6564 255.74 81.603C255.794 81.5495 255.824 81.477 255.824 81.4014V70.7664C255.824 70.6909 255.794 70.6184 255.74 70.5649C255.687 70.5115 255.614 70.4814 255.539 70.4814C255.463 70.4814 255.391 70.5115 255.337 70.5649C255.284 70.6184 255.254 70.6909 255.254 70.7664V81.4014C255.254 81.477 255.284 81.5495 255.337 81.603C255.391 81.6564 255.463 81.6864 255.539 81.6864Z" fill="#FAFAFA"/>
<path d="M244.043 71.1862C244.118 71.1862 244.191 71.1562 244.244 71.1028C244.298 71.0493 244.328 70.9768 244.328 70.9012V67.9837C244.328 67.9081 244.298 67.8357 244.244 67.7822C244.191 67.7288 244.118 67.6987 244.043 67.6987C243.967 67.6987 243.895 67.7288 243.841 67.7822C243.788 67.8357 243.758 67.9081 243.758 67.9837V70.9012C243.758 70.9768 243.788 71.0493 243.841 71.1028C243.895 71.1562 243.967 71.1862 244.043 71.1862Z" fill="#FAFAFA"/>
<path d="M241.169 76.1889C241.245 76.1889 241.318 76.1589 241.371 76.1054C241.424 76.052 241.454 75.9795 241.454 75.9039V59.6589C241.443 59.5903 241.408 59.5279 241.355 59.4829C241.302 59.4378 241.235 59.4131 241.166 59.4131C241.096 59.4131 241.029 59.4378 240.976 59.4829C240.923 59.5279 240.888 59.5903 240.877 59.6589V75.9039C240.877 75.942 240.885 75.9796 240.899 76.0147C240.914 76.0498 240.936 76.0816 240.963 76.1081C240.99 76.1347 241.023 76.1555 241.058 76.1694C241.094 76.1833 241.131 76.1899 241.169 76.1889Z" fill="#FAFAFA"/>
<path d="M238.289 69.1837C238.365 69.1837 238.437 69.1536 238.49 69.1002C238.544 69.0467 238.574 68.9742 238.574 68.8987V63.3412C238.574 63.2656 238.544 63.1931 238.49 63.1396C238.437 63.0862 238.365 63.0562 238.289 63.0562C238.213 63.0562 238.141 63.0862 238.087 63.1396C238.034 63.1931 238.004 63.2656 238.004 63.3412V68.8987C238.004 68.9742 238.034 69.0467 238.087 69.1002C238.141 69.1536 238.213 69.1837 238.289 69.1837Z" fill="#FAFAFA"/>
<path d="M226.859 65.1038C226.897 65.1048 226.935 65.0982 226.971 65.0843C227.006 65.0704 227.038 65.0496 227.066 65.023C227.093 64.9965 227.115 64.9647 227.129 64.9296C227.144 64.8945 227.152 64.8569 227.152 64.8188V54.1838C227.141 54.1152 227.105 54.0528 227.053 54.0078C227 53.9627 226.932 53.938 226.863 53.938C226.793 53.938 226.726 53.9627 226.673 54.0078C226.62 54.0528 226.585 54.1152 226.574 54.1838V64.8188C226.574 64.8944 226.604 64.9669 226.658 65.0203C226.711 65.0738 226.784 65.1038 226.859 65.1038Z" fill="#FAFAFA"/>
<path d="M232.574 67.2338C232.65 67.2318 232.723 67.2002 232.776 67.1455C232.829 67.0909 232.859 67.0176 232.859 66.9413V58.6688C232.859 58.6314 232.852 58.5943 232.837 58.5597C232.823 58.5251 232.802 58.4937 232.776 58.4673C232.749 58.4408 232.718 58.4198 232.683 58.4055C232.649 58.3912 232.612 58.3838 232.574 58.3838C232.537 58.3838 232.5 58.3912 232.465 58.4055C232.43 58.4198 232.399 58.4408 232.373 58.4673C232.346 58.4937 232.325 58.5251 232.311 58.5597C232.296 58.5943 232.289 58.6314 232.289 58.6688V66.9713C232.296 67.0423 232.329 67.1082 232.382 67.1565C232.434 67.2048 232.503 67.2323 232.574 67.2338Z" fill="#FAFAFA"/>
<path d="M172.469 29.0965V131.329C172.441 131.826 172.297 132.31 172.049 132.741C171.8 133.172 171.453 133.539 171.037 133.811L110.107 168.986C109.966 169.076 109.801 169.123 109.634 169.121C109.572 169.129 109.509 169.129 109.447 169.121C109.404 169.113 109.364 169.098 109.327 169.076L109.199 169.016C109.039 168.887 108.911 168.723 108.824 168.536C108.72 168.3 108.669 168.044 108.674 167.786V65.9065C108.702 65.4094 108.846 64.9258 109.095 64.4947C109.344 64.0635 109.69 63.6967 110.107 63.424L171.037 28.2715C171.174 28.1736 171.334 28.1113 171.502 28.0904C171.669 28.0695 171.839 28.0904 171.997 28.1515C172.039 28.1725 172.077 28.2004 172.109 28.234C172.145 28.2607 172.175 28.2938 172.199 28.3315C172.218 28.3452 172.234 28.3632 172.244 28.384C172.264 28.4061 172.279 28.4315 172.289 28.459C172.329 28.5128 172.357 28.574 172.372 28.639C172.389 28.68 172.401 28.7228 172.409 28.7665C172.413 28.8089 172.413 28.8515 172.409 28.894C172.462 28.984 172.469 29.0365 172.469 29.0965Z" fill="#455A64"/>
<path d="M108.825 168.484C108.724 168.247 108.673 167.991 108.675 167.734V70.5787V65.9062C108.693 65.4023 108.84 64.9115 109.103 64.4812L105.435 62.3887C105.171 62.8217 105.022 63.3146 105 63.8212V68.4712V165.679C105.003 165.937 105.059 166.193 105.165 166.429C105.265 166.629 105.418 166.798 105.607 166.916C105.607 166.916 108.893 168.799 109.02 168.881L109.2 168.986C109.037 168.85 108.909 168.678 108.825 168.484Z" fill="#263238"/>
<path d="M171.038 28.2714L110.108 63.4239C109.693 63.6914 109.351 64.0572 109.111 64.4889L105.443 62.3889C105.681 61.9614 106.024 61.6023 106.441 61.3464L167.371 26.1939C167.52 26.0853 167.696 26.0196 167.88 26.0038C168.063 25.9879 168.248 26.0225 168.413 26.1039C168.668 26.2614 171.698 27.9864 172.006 28.1439C171.846 28.0852 171.675 28.0662 171.506 28.0884C171.338 28.1106 171.177 28.1734 171.038 28.2714Z" fill="#37474F"/>
<path d="M150.398 145.729L153.571 153.056C153.665 153.281 153.831 153.469 154.043 153.589L158.198 155.989C158.348 156.077 158.515 156.13 158.688 156.143C158.861 156.156 159.034 156.129 159.195 156.065C159.356 156 159.5 155.9 159.616 155.771C159.732 155.642 159.816 155.488 159.863 155.321L163.861 137.959L150.398 145.729Z" fill="#263238"/>
<path d="M163.86 137.959L159.862 155.321C159.798 155.546 159.666 155.746 159.483 155.893C159.301 156.039 159.078 156.126 158.845 156.141C158.611 156.156 158.379 156.098 158.18 155.975C157.981 155.853 157.824 155.671 157.732 155.456L152.895 144.281L163.86 137.959Z" fill="#455A64"/>
<path d="M144.449 57.484V61.489C144.451 61.6227 144.422 61.7551 144.365 61.876C144.308 61.9969 144.224 62.1031 144.119 62.1865L142.694 63.0115C142.469 62.1415 141.682 61.864 140.737 62.4115C139.733 63.0689 139.03 64.0958 138.779 65.269L137.092 66.244C136.912 66.349 136.762 66.2065 136.762 65.9215V61.924C136.762 58.654 138.479 55.009 140.609 53.7865C141.009 53.4917 141.5 53.3468 141.997 53.377C142.493 53.4071 142.963 53.6104 143.324 53.9515C144.151 54.9345 144.555 56.2042 144.449 57.484Z" fill="#3BADD4"/>
<path d="M144.434 63.739C144.247 66.8515 142.604 70.159 140.609 71.314C138.614 72.469 136.964 71.059 136.777 68.1565C136.769 68.0143 136.794 67.8721 136.852 67.7417C136.909 67.6114 136.996 67.4964 137.107 67.4065L138.772 66.484C138.982 67.384 139.784 67.684 140.744 67.1365C141.252 66.8062 141.687 66.3769 142.025 65.8743C142.363 65.3717 142.596 64.8061 142.709 64.2115L144.104 63.409C144.299 63.259 144.449 63.4315 144.434 63.739Z" fill="#3BADD4"/>
<path d="M141.15 73.3762C144.593 71.3737 146.565 67.3087 146.565 62.2387C146.565 62.0955 146.509 61.9582 146.407 61.8569C146.306 61.7556 146.169 61.6987 146.025 61.6987C145.882 61.6987 145.745 61.7556 145.644 61.8569C145.542 61.9582 145.485 62.0955 145.485 62.2387C145.485 66.9187 143.708 70.6387 140.61 72.4387C140.243 72.6979 139.813 72.8547 139.365 72.8929C138.917 72.9311 138.467 72.8494 138.06 72.6562C136.905 72.0412 136.133 70.3612 135.998 68.1562C135.986 68.0136 135.92 67.8812 135.812 67.7873C135.704 67.6934 135.563 67.6454 135.42 67.6537C135.349 67.6565 135.28 67.6737 135.216 67.7042C135.151 67.7347 135.094 67.7779 135.047 67.8311C135 67.8844 134.965 67.9467 134.942 68.0142C134.92 68.0817 134.912 68.153 134.918 68.2237C135.083 70.8412 136.043 72.8062 137.55 73.6087C138.011 73.8578 138.527 73.9892 139.05 73.9912C139.385 73.9881 139.718 73.9402 140.04 73.8487V77.2462L138.54 78.1162C138.439 78.1762 138.36 78.2679 138.315 78.3772C138.27 78.4865 138.263 78.6074 138.293 78.7213C138.324 78.8353 138.391 78.9362 138.485 79.0084C138.578 79.0806 138.692 79.1202 138.81 79.1212C138.905 79.1211 138.997 79.0979 139.08 79.0537L142.658 76.9837C142.72 76.9473 142.774 76.899 142.818 76.8416C142.861 76.7842 142.893 76.7188 142.911 76.6492C142.929 76.5795 142.933 76.507 142.923 76.4357C142.913 76.3644 142.889 76.2958 142.853 76.2337C142.817 76.1709 142.769 76.1158 142.712 76.0718C142.655 76.0278 142.589 75.9958 142.519 75.9776C142.449 75.9594 142.376 75.9555 142.305 75.966C142.233 75.9765 142.165 76.0012 142.103 76.0387L141.128 76.5937V73.3762H141.15Z" fill="#3BADD4"/>
<path d="M126.42 92.4937C126.96 92.1787 127.387 92.1262 127.687 92.3512C127.987 92.5762 128.137 93.1012 128.137 93.8512C128.152 94.5453 127.998 95.2326 127.687 95.8537C127.403 96.4117 126.962 96.8753 126.42 97.1887L125.34 97.8112V100.129C125.339 100.21 125.318 100.29 125.28 100.361C125.256 100.427 125.212 100.482 125.152 100.519L124.605 100.834C124.587 100.848 124.564 100.855 124.541 100.855C124.518 100.855 124.496 100.848 124.477 100.834C124.458 100.811 124.443 100.785 124.434 100.757C124.425 100.728 124.422 100.698 124.425 100.669V93.9187C124.424 93.8406 124.442 93.7635 124.477 93.6937C124.506 93.6313 124.55 93.5771 124.605 93.5362L126.42 92.4937ZM125.34 96.4837L126.382 95.8837C126.634 95.7409 126.845 95.5371 126.997 95.2912C127.161 95.004 127.242 94.6767 127.23 94.3462C127.23 93.9562 127.147 93.7312 126.997 93.6712C126.892 93.6468 126.782 93.6455 126.676 93.6675C126.57 93.6895 126.47 93.7343 126.382 93.7987L125.34 94.4062V96.4837Z" fill="#3BADD4"/>
<path d="M129.052 93.6861C129.062 93.2875 129.11 92.8907 129.195 92.5011C129.273 92.1203 129.397 91.7502 129.563 91.3986C129.724 91.0569 129.928 90.7368 130.17 90.4461C130.411 90.1468 130.703 89.8928 131.032 89.6961C131.29 89.5297 131.588 89.4364 131.895 89.4261C132.007 89.4229 132.118 89.4432 132.221 89.4859C132.325 89.5285 132.418 89.5925 132.495 89.6736C132.678 89.8641 132.807 90.0996 132.87 90.3561C132.96 90.6865 133.01 91.0264 133.02 91.3686C133.02 91.4961 133.02 91.6386 133.02 91.8036C133.02 91.9686 133.02 92.1186 133.02 92.2911C133.02 92.4636 133.02 92.6286 133.02 92.7861C133.02 92.9436 133.02 93.0936 133.02 93.2286C133.007 93.6274 132.957 94.0242 132.87 94.4136C132.792 94.7944 132.668 95.1646 132.503 95.5161C132.345 95.8601 132.14 96.1807 131.895 96.4686C131.65 96.7536 131.359 96.9946 131.032 97.1811C130.776 97.3516 130.478 97.4476 130.17 97.4586C130.058 97.4608 129.946 97.4407 129.842 97.3995C129.738 97.3583 129.643 97.2968 129.563 97.2186C129.382 97.0273 129.256 96.7919 129.195 96.5361C129.106 96.2059 129.058 95.8657 129.052 95.5236C129.052 95.3961 129.052 95.2461 129.052 95.0886V94.1061C129.045 93.9636 129.045 93.8211 129.052 93.6861ZM132.105 91.9686C132.121 91.7933 132.101 91.6165 132.047 91.4489C131.993 91.2814 131.906 91.1265 131.79 90.9936C131.603 90.8286 131.348 90.8361 131.04 90.9936C130.712 91.1961 130.451 91.4909 130.29 91.8411C130.091 92.2585 129.984 92.7137 129.975 93.1761C129.975 93.4461 129.975 93.7461 129.975 94.0686C129.975 94.3911 129.975 94.6761 129.975 94.9386C129.96 95.1128 129.98 95.2881 130.034 95.4543C130.088 95.6205 130.175 95.7742 130.29 95.9061C130.485 96.0711 130.733 96.0561 131.04 95.9061C131.37 95.7058 131.631 95.4103 131.79 95.0586C131.994 94.643 132.102 94.1867 132.105 93.7236C132.105 93.4611 132.105 93.1611 132.105 92.8386C132.105 92.5161 132.12 92.2311 132.105 91.9836V91.9686Z" fill="#3BADD4"/>
<path d="M136.11 86.9064C136.371 86.7371 136.67 86.6341 136.98 86.6064C137.092 86.5998 137.204 86.6157 137.31 86.653C137.415 86.6904 137.512 86.7485 137.595 86.8239C137.777 87.018 137.906 87.2556 137.97 87.5139C138.069 87.8709 138.121 88.2388 138.128 88.6089C138.128 89.1114 138.128 89.6214 138.128 90.1089C138.115 90.5379 138.062 90.9647 137.97 91.3839C137.89 91.7699 137.764 92.145 137.595 92.5014C137.441 92.8385 137.239 93.1517 136.995 93.4314C136.751 93.705 136.465 93.9379 136.148 94.1214L134.445 95.1039C134.427 95.1192 134.405 95.1277 134.381 95.1277C134.358 95.1277 134.335 95.1192 134.318 95.1039C134.298 95.0804 134.282 95.0529 134.273 95.0232C134.264 94.9935 134.262 94.9622 134.265 94.9314V88.1814C134.265 88.1033 134.283 88.0262 134.318 87.9564C134.343 87.8924 134.388 87.8375 134.445 87.7989L136.11 86.9064ZM137.22 89.1564C137.216 88.9632 137.186 88.7714 137.13 88.5864C137.097 88.4434 137.027 88.3116 136.928 88.2039C136.83 88.1195 136.704 88.0741 136.575 88.0764C136.399 88.0883 136.228 88.1451 136.08 88.2414L135.173 88.7664V93.4389L136.11 92.8989C136.293 92.796 136.455 92.6614 136.59 92.5014C136.725 92.3444 136.838 92.1705 136.928 91.9839C137.02 91.7852 137.088 91.5762 137.13 91.3614C137.183 91.1426 137.213 90.9189 137.22 90.6939C137.22 90.1464 137.22 89.6364 137.205 89.1339L137.22 89.1564Z" fill="#3BADD4"/>
<path d="M142.237 88.3237C142.241 88.2385 142.267 88.1556 142.312 88.0837C142.338 88.0259 142.38 87.9765 142.432 87.9412L142.98 87.6262C142.999 87.6116 143.023 87.6037 143.047 87.6037C143.072 87.6037 143.095 87.6116 143.115 87.6262C143.136 87.6495 143.151 87.677 143.16 87.7068C143.169 87.7365 143.172 87.7679 143.167 87.7987C143.15 88.1151 143.103 88.429 143.025 88.7362C142.942 89.0736 142.821 89.4006 142.665 89.7112C142.498 90.04 142.291 90.3473 142.05 90.6262C141.795 90.9253 141.49 91.1789 141.15 91.3762C140.905 91.5383 140.619 91.6292 140.325 91.6387C140.101 91.6411 139.885 91.5548 139.725 91.3987C139.537 91.2099 139.402 90.9743 139.335 90.7162C139.232 90.3729 139.176 90.0171 139.17 89.6587C139.17 89.3962 139.17 89.1112 139.17 88.7887C139.17 88.4662 139.17 88.1812 139.17 87.9112C139.183 87.4892 139.238 87.0696 139.335 86.6587C139.42 86.2671 139.55 85.8869 139.725 85.5262C139.887 85.1884 140.088 84.8712 140.325 84.5812C140.558 84.3076 140.837 84.0767 141.15 83.8987C141.418 83.7204 141.729 83.6168 142.05 83.5987C142.273 83.591 142.491 83.6628 142.665 83.8012C142.836 83.9509 142.961 84.1459 143.025 84.3637C143.105 84.6064 143.153 84.8586 143.167 85.1137C143.168 85.1942 143.15 85.2738 143.115 85.3462C143.086 85.4088 143.039 85.4611 142.98 85.4962L142.432 85.8112C142.414 85.8241 142.391 85.831 142.369 85.831C142.346 85.831 142.324 85.8241 142.305 85.8112C142.281 85.7926 142.262 85.7686 142.249 85.7413C142.236 85.714 142.229 85.684 142.23 85.6537C142.218 85.5324 142.187 85.4135 142.14 85.3012C142.095 85.2064 142.025 85.1258 141.937 85.0687C141.842 85.0069 141.727 84.9829 141.615 85.0012C141.449 85.0188 141.29 85.0753 141.15 85.1662C140.974 85.2665 140.819 85.3988 140.692 85.5562C140.563 85.7153 140.452 85.889 140.362 86.0737C140.276 86.2714 140.211 86.4775 140.167 86.6887C140.115 86.9077 140.085 87.1313 140.077 87.3562C140.077 87.6187 140.077 87.9187 140.077 88.2337C140.077 88.5487 140.077 88.8412 140.077 89.0962C140.081 89.2895 140.111 89.4814 140.167 89.6662C140.201 89.8074 140.268 89.9385 140.362 90.0487C140.453 90.133 140.569 90.1834 140.692 90.1912C140.855 90.1867 141.013 90.1374 141.15 90.0487C141.322 89.9493 141.479 89.8255 141.615 89.6812C141.74 89.5471 141.848 89.3985 141.937 89.2387C142.025 89.0898 142.096 88.9313 142.147 88.7662C142.19 88.6216 142.22 88.4735 142.237 88.3237Z" fill="#3BADD4"/>
<path d="M146.468 80.9138C146.533 80.8738 146.585 80.8738 146.625 80.9138C146.674 80.9751 146.708 81.0471 146.723 81.1238L148.373 86.7338C148.377 86.7561 148.377 86.7789 148.373 86.8013C148.374 86.8819 148.356 86.9616 148.32 87.0338C148.292 87.0962 148.248 87.1504 148.193 87.1913L147.705 87.4688C147.615 87.5213 147.555 87.5288 147.518 87.4688C147.483 87.4328 147.458 87.3891 147.443 87.3413L147.15 86.3513L145.02 87.5888L144.728 88.9088C144.711 88.9813 144.686 89.0517 144.653 89.1188C144.614 89.2046 144.548 89.2755 144.465 89.3213L143.978 89.5988C143.96 89.6128 143.937 89.6204 143.914 89.6204C143.891 89.6204 143.869 89.6128 143.85 89.5988C143.831 89.5763 143.816 89.5501 143.807 89.5217C143.798 89.4934 143.795 89.4634 143.798 89.4338C143.794 89.409 143.794 89.3836 143.798 89.3588L145.448 81.8588C145.469 81.7507 145.502 81.6451 145.545 81.5438C145.577 81.4661 145.636 81.4022 145.71 81.3638L146.468 80.9138ZM146.835 85.2638L146.085 82.7288L145.335 86.1263L146.835 85.2638Z" fill="#3BADD4"/>
<path d="M150.892 78.2589C151.131 78.1051 151.404 78.01 151.687 77.9814C151.89 77.9655 152.092 78.0155 152.264 78.1239C152.419 78.2227 152.539 78.3667 152.609 78.5364C152.688 78.7143 152.733 78.9048 152.744 79.0989C152.746 79.1795 152.728 79.2592 152.692 79.3314C152.663 79.396 152.616 79.4508 152.557 79.4889L152.084 79.7589C152.009 79.8039 151.949 79.8114 151.912 79.7589C151.868 79.7277 151.832 79.6866 151.807 79.6389C151.778 79.5746 151.735 79.5172 151.682 79.4706C151.629 79.4241 151.567 79.3894 151.499 79.3689C151.393 79.3497 151.283 79.3539 151.178 79.3811C151.073 79.4082 150.976 79.4578 150.892 79.5264C150.771 79.5972 150.658 79.6801 150.554 79.7739C150.45 79.8716 150.359 79.9825 150.284 80.1039C150.204 80.2166 150.141 80.3404 150.097 80.4714C150.053 80.5993 150.03 80.7336 150.029 80.8689C150.023 80.9894 150.044 81.1097 150.089 81.2214C150.113 81.2589 150.145 81.2906 150.183 81.314C150.22 81.3374 150.263 81.3519 150.307 81.3564C150.441 81.3768 150.578 81.3768 150.712 81.3564L151.334 81.2139C151.562 81.1537 151.797 81.1259 152.032 81.1314C152.204 81.1319 152.372 81.187 152.512 81.2889C152.642 81.4018 152.736 81.5505 152.782 81.7164C152.854 81.9441 152.887 82.1826 152.879 82.4214C152.879 82.7412 152.833 83.0592 152.744 83.3664C152.657 83.6854 152.525 83.9907 152.354 84.2739C152.184 84.5682 151.977 84.8403 151.739 85.0839C151.5 85.3331 151.228 85.5477 150.929 85.7214C150.696 85.8546 150.443 85.9483 150.179 85.9989C149.991 86.0416 149.795 86.0365 149.609 85.9839C149.426 85.9041 149.275 85.7638 149.182 85.5864C149.056 85.3565 148.992 85.0983 148.994 84.8364C148.992 84.7557 149.01 84.6758 149.047 84.6039C149.075 84.5393 149.122 84.4845 149.182 84.4464L149.654 84.1764C149.729 84.1314 149.789 84.1164 149.827 84.1764C149.876 84.2046 149.914 84.25 149.932 84.3039C149.964 84.3745 150.001 84.4422 150.044 84.5064C150.088 84.5695 150.151 84.6168 150.224 84.6414C150.318 84.6608 150.415 84.6608 150.509 84.6414C150.663 84.6047 150.81 84.5439 150.944 84.4614C151.08 84.3765 151.21 84.2838 151.334 84.1839C151.456 84.0802 151.566 83.9646 151.664 83.8389C151.757 83.7142 151.832 83.5781 151.889 83.4339C151.949 83.2915 151.98 83.1384 151.979 82.9839C151.986 82.9275 151.981 82.8703 151.964 82.816C151.947 82.7618 151.919 82.7116 151.882 82.6689C151.844 82.6344 151.798 82.6085 151.749 82.5929C151.7 82.5774 151.648 82.5726 151.597 82.5789C151.437 82.5895 151.278 82.6172 151.124 82.6614L150.464 82.7964C150.273 82.8393 150.075 82.8545 149.879 82.8414C149.723 82.8321 149.574 82.7684 149.459 82.6614C149.335 82.5418 149.249 82.3877 149.212 82.2189C149.153 81.9734 149.125 81.7214 149.129 81.4689C149.13 81.1492 149.175 80.8311 149.264 80.5239C149.354 80.215 149.479 79.9179 149.639 79.6389C149.799 79.3693 149.988 79.1178 150.202 78.8889C150.396 78.6431 150.629 78.4304 150.892 78.2589Z" fill="#3BADD4"/>
<path d="M157.11 74.7864C157.127 74.7711 157.15 74.7627 157.173 74.7627C157.197 74.7627 157.22 74.7711 157.237 74.7864C157.259 74.8094 157.275 74.8366 157.286 74.8663C157.296 74.896 157.3 74.9276 157.297 74.9589V75.7089C157.295 75.7876 157.275 75.8647 157.237 75.9339C157.216 76.0006 157.171 76.0569 157.11 76.0914L155.895 76.7964V82.4889C155.895 82.5694 155.877 82.649 155.842 82.7214C155.816 82.7855 155.772 82.8404 155.715 82.8789L155.167 83.1939C155.159 83.2023 155.149 83.209 155.138 83.2135C155.127 83.2181 155.115 83.2204 155.103 83.2204C155.092 83.2204 155.08 83.2181 155.069 83.2135C155.058 83.209 155.048 83.2023 155.04 83.1939C155.02 83.1717 155.005 83.1455 154.996 83.1171C154.987 83.0886 154.984 83.0586 154.987 83.0289V77.3139L153.772 78.0114C153.72 78.0114 153.675 78.0114 153.645 78.0114C153.623 77.9899 153.607 77.964 153.597 77.9355C153.586 77.907 153.582 77.8766 153.585 77.8464V77.0964C153.587 77.0154 153.607 76.9358 153.645 76.8639C153.668 76.7985 153.713 76.743 153.772 76.7064L157.11 74.7864Z" fill="#3BADD4"/>
<path d="M117.743 122.493C117.653 122.492 117.566 122.455 117.502 122.39C117.437 122.326 117.4 122.239 117.398 122.149V120.949C117.398 120.857 117.435 120.769 117.499 120.705C117.564 120.64 117.652 120.604 117.743 120.604C117.835 120.604 117.923 120.64 117.987 120.705C118.052 120.769 118.088 120.857 118.088 120.949V122.149C118.087 122.239 118.05 122.326 117.985 122.39C117.921 122.455 117.834 122.492 117.743 122.493Z" fill="#3BADD4"/>
<path d="M119.476 124.894C119.385 124.892 119.298 124.855 119.234 124.791C119.17 124.726 119.133 124.64 119.131 124.549V116.546C119.131 116.455 119.167 116.367 119.232 116.302C119.297 116.238 119.384 116.201 119.476 116.201C119.567 116.201 119.655 116.238 119.72 116.302C119.784 116.367 119.821 116.455 119.821 116.546V124.549C119.819 124.64 119.782 124.726 119.718 124.791C119.653 124.855 119.567 124.892 119.476 124.894Z" fill="#3BADD4"/>
<path d="M121.208 122.081C121.163 122.082 121.117 122.074 121.075 122.057C121.033 122.04 120.994 122.015 120.962 121.982C120.93 121.95 120.905 121.912 120.888 121.869C120.871 121.827 120.862 121.782 120.863 121.736V117.356C120.863 117.265 120.9 117.177 120.964 117.112C121.029 117.048 121.117 117.011 121.208 117.011C121.299 117.013 121.386 117.05 121.45 117.114C121.514 117.179 121.551 117.265 121.553 117.356V121.736C121.553 121.828 121.517 121.915 121.452 121.98C121.388 122.045 121.3 122.081 121.208 122.081Z" fill="#3BADD4"/>
<path d="M124.673 118.916C124.582 118.916 124.494 118.88 124.429 118.815C124.364 118.75 124.328 118.663 124.328 118.571V116.524C124.328 116.432 124.364 116.344 124.429 116.28C124.494 116.215 124.582 116.179 124.673 116.179C124.764 116.181 124.851 116.218 124.915 116.282C124.979 116.346 125.016 116.433 125.018 116.524V118.571C125.016 118.662 124.979 118.749 124.915 118.813C124.851 118.877 124.764 118.914 124.673 118.916Z" fill="#3BADD4"/>
<path d="M126.398 119.471C126.307 119.469 126.22 119.432 126.156 119.368C126.092 119.304 126.055 119.217 126.053 119.126V113.974C126.053 113.882 126.089 113.794 126.154 113.73C126.218 113.665 126.306 113.629 126.398 113.629C126.443 113.627 126.489 113.636 126.531 113.653C126.573 113.67 126.612 113.695 126.644 113.727C126.676 113.76 126.702 113.798 126.719 113.84C126.736 113.883 126.744 113.928 126.743 113.974V119.126C126.743 119.218 126.706 119.305 126.642 119.37C126.577 119.435 126.489 119.471 126.398 119.471Z" fill="#3BADD4"/>
<path d="M128.13 122.194C128.039 122.192 127.953 122.155 127.888 122.091C127.824 122.026 127.787 121.94 127.785 121.849V109.234C127.787 109.143 127.824 109.056 127.888 108.992C127.953 108.928 128.039 108.891 128.13 108.889C128.222 108.889 128.309 108.925 128.374 108.99C128.439 109.054 128.475 109.142 128.475 109.234V121.834C128.477 121.88 128.47 121.927 128.453 121.97C128.437 122.014 128.412 122.054 128.38 122.087C128.347 122.121 128.309 122.148 128.266 122.166C128.223 122.184 128.177 122.194 128.13 122.194Z" fill="#3BADD4"/>
<path d="M129.863 119.899C129.772 119.897 129.685 119.86 129.621 119.796C129.556 119.731 129.519 119.645 129.518 119.554V109.549C129.518 109.457 129.554 109.369 129.619 109.305C129.683 109.24 129.771 109.204 129.863 109.204C129.908 109.203 129.953 109.211 129.996 109.228C130.038 109.245 130.077 109.27 130.109 109.302C130.141 109.335 130.166 109.373 130.183 109.415C130.2 109.458 130.209 109.503 130.208 109.549V119.554C130.208 119.645 130.171 119.733 130.107 119.798C130.042 119.862 129.954 119.899 129.863 119.899Z" fill="#3BADD4"/>
<path d="M131.611 121.098C131.52 121.097 131.433 121.06 131.369 120.995C131.305 120.931 131.268 120.844 131.266 120.753V106.346C131.268 106.255 131.305 106.168 131.369 106.104C131.433 106.04 131.52 106.003 131.611 106.001C131.702 106.001 131.79 106.037 131.855 106.102C131.919 106.167 131.956 106.254 131.956 106.346V120.753C131.956 120.845 131.919 120.933 131.855 120.997C131.79 121.062 131.702 121.098 131.611 121.098Z" fill="#3BADD4"/>
<path d="M133.329 116.351C133.238 116.349 133.152 116.312 133.088 116.248C133.023 116.184 132.986 116.097 132.984 116.006V109.091C132.984 109 133.021 108.912 133.085 108.847C133.15 108.782 133.238 108.746 133.329 108.746C133.421 108.746 133.509 108.782 133.573 108.847C133.638 108.912 133.674 109 133.674 109.091V115.984C133.676 116.031 133.669 116.077 133.653 116.121C133.636 116.165 133.611 116.206 133.579 116.24C133.547 116.274 133.508 116.302 133.466 116.321C133.423 116.34 133.376 116.35 133.329 116.351Z" fill="#3BADD4"/>
<path d="M135.06 112.721C134.968 112.721 134.881 112.685 134.816 112.62C134.751 112.556 134.715 112.468 134.715 112.376V110.734C134.714 110.688 134.722 110.643 134.739 110.601C134.756 110.558 134.781 110.52 134.814 110.488C134.846 110.455 134.884 110.43 134.927 110.413C134.969 110.396 135.014 110.388 135.06 110.389C135.151 110.389 135.239 110.425 135.304 110.49C135.369 110.555 135.405 110.642 135.405 110.734V112.384C135.401 112.473 135.363 112.558 135.299 112.621C135.235 112.684 135.15 112.719 135.06 112.721Z" fill="#3BADD4"/>
<path d="M138.527 114.626C138.435 114.626 138.347 114.59 138.283 114.525C138.218 114.46 138.182 114.373 138.182 114.281V104.824C138.181 104.778 138.189 104.733 138.206 104.69C138.223 104.648 138.248 104.61 138.28 104.577C138.313 104.545 138.351 104.52 138.393 104.503C138.436 104.486 138.481 104.478 138.527 104.479C138.618 104.479 138.706 104.515 138.771 104.58C138.835 104.644 138.872 104.732 138.872 104.824V114.281C138.87 114.372 138.833 114.459 138.769 114.523C138.704 114.587 138.618 114.624 138.527 114.626Z" fill="#3BADD4"/>
<path d="M141.984 115.076C141.893 115.075 141.806 115.038 141.742 114.973C141.678 114.909 141.641 114.822 141.639 114.731V100.369C141.641 100.278 141.678 100.191 141.742 100.127C141.806 100.063 141.893 100.026 141.984 100.024C142.075 100.024 142.163 100.06 142.228 100.125C142.292 100.19 142.329 100.277 142.329 100.369V114.731C142.329 114.823 142.292 114.911 142.228 114.975C142.163 115.04 142.075 115.076 141.984 115.076Z" fill="#3BADD4"/>
<path d="M145.449 106.916C145.403 106.916 145.358 106.907 145.316 106.89C145.275 106.873 145.237 106.847 145.205 106.815C145.173 106.783 145.147 106.745 145.13 106.703C145.112 106.661 145.104 106.616 145.104 106.571V104.531C145.104 104.44 145.14 104.352 145.205 104.287C145.269 104.222 145.357 104.186 145.449 104.186C145.494 104.185 145.539 104.193 145.582 104.21C145.624 104.227 145.663 104.253 145.695 104.285C145.727 104.317 145.752 104.356 145.769 104.398C145.786 104.44 145.795 104.486 145.794 104.531V106.571C145.795 106.617 145.786 106.662 145.769 106.704C145.752 106.747 145.727 106.785 145.695 106.817C145.663 106.85 145.624 106.875 145.582 106.892C145.539 106.909 145.494 106.917 145.449 106.916Z" fill="#3BADD4"/>
<path d="M162.72 96.5212C162.629 96.5212 162.541 96.4848 162.476 96.4201C162.411 96.3554 162.375 96.2677 162.375 96.1762V94.9837C162.377 94.8928 162.414 94.8061 162.478 94.7418C162.542 94.6776 162.629 94.6406 162.72 94.6387C162.812 94.6387 162.899 94.675 162.964 94.7397C163.029 94.8044 163.065 94.8922 163.065 94.9837V96.1837C163.065 96.2286 163.056 96.2731 163.039 96.3146C163.021 96.356 162.996 96.3936 162.964 96.425C162.931 96.4565 162.893 96.4812 162.851 96.4977C162.81 96.5142 162.765 96.5222 162.72 96.5212Z" fill="#3BADD4"/>
<path d="M160.995 100.923C160.904 100.923 160.816 100.887 160.751 100.822C160.687 100.758 160.65 100.67 160.65 100.578V92.576C160.65 92.4845 160.687 92.3967 160.751 92.332C160.816 92.2673 160.904 92.231 160.995 92.231C161.086 92.2329 161.173 92.2698 161.237 92.3341C161.302 92.3984 161.339 92.4851 161.34 92.576V100.578C161.339 100.669 161.302 100.756 161.237 100.82C161.173 100.885 161.086 100.922 160.995 100.923Z" fill="#3BADD4"/>
<path d="M159.263 100.114C159.172 100.114 159.084 100.077 159.019 100.012C158.954 99.9478 158.918 99.86 158.918 99.7685V95.3885C158.917 95.343 158.925 95.2976 158.942 95.2553C158.959 95.213 158.985 95.1745 159.017 95.1423C159.049 95.1101 159.088 95.0847 159.13 95.0677C159.172 95.0507 159.217 95.0425 159.263 95.0435C159.355 95.0435 159.442 95.0799 159.507 95.1446C159.572 95.2093 159.608 95.297 159.608 95.3885V99.7685C159.606 99.8594 159.569 99.9461 159.505 100.01C159.441 100.075 159.354 100.112 159.263 100.114Z" fill="#3BADD4"/>
<path d="M155.798 100.984C155.707 100.984 155.619 100.947 155.554 100.883C155.489 100.818 155.453 100.73 155.453 100.639V98.5911C155.453 98.4996 155.489 98.4118 155.554 98.3471C155.619 98.2824 155.707 98.2461 155.798 98.2461C155.889 98.248 155.976 98.285 156.04 98.3493C156.104 98.4136 156.141 98.5002 156.143 98.5911V100.639C156.141 100.729 156.104 100.816 156.04 100.88C155.976 100.945 155.889 100.982 155.798 100.984Z" fill="#3BADD4"/>
<path d="M154.066 103.496C153.974 103.496 153.886 103.46 153.822 103.395C153.757 103.33 153.721 103.243 153.721 103.151V97.9837C153.721 97.8922 153.757 97.8044 153.822 97.7397C153.886 97.675 153.974 97.6387 154.066 97.6387C154.157 97.6387 154.245 97.675 154.31 97.7397C154.374 97.8044 154.411 97.8922 154.411 97.9837V103.136C154.413 103.183 154.405 103.229 154.389 103.273C154.372 103.316 154.347 103.356 154.315 103.39C154.283 103.424 154.244 103.45 154.201 103.469C154.158 103.487 154.112 103.496 154.066 103.496Z" fill="#3BADD4"/>
<path d="M152.333 108.221C152.242 108.219 152.156 108.182 152.091 108.118C152.027 108.054 151.99 107.967 151.988 107.876V95.2762C151.99 95.1853 152.027 95.0986 152.091 95.0343C152.156 94.97 152.242 94.9331 152.333 94.9312C152.425 94.9312 152.513 94.9675 152.577 95.0322C152.642 95.0969 152.678 95.1847 152.678 95.2762V107.876C152.678 107.968 152.642 108.055 152.577 108.12C152.513 108.185 152.425 108.221 152.333 108.221Z" fill="#3BADD4"/>
<path d="M148.861 111.124C148.769 111.124 148.681 111.088 148.617 111.023C148.552 110.958 148.516 110.87 148.516 110.779V96.3714C148.518 96.2805 148.554 96.1938 148.619 96.1295C148.683 96.0652 148.77 96.0283 148.861 96.0264C148.952 96.0264 149.04 96.0627 149.105 96.1274C149.169 96.1921 149.206 96.2799 149.206 96.3714V110.779C149.207 110.824 149.198 110.87 149.181 110.912C149.164 110.954 149.139 110.993 149.107 111.025C149.075 111.057 149.036 111.083 148.994 111.1C148.952 111.117 148.906 111.125 148.861 111.124Z" fill="#3BADD4"/>
<path d="M147.136 107.606C147.045 107.604 146.958 107.568 146.894 107.503C146.83 107.439 146.793 107.352 146.791 107.261V101.891C146.793 101.8 146.83 101.714 146.894 101.65C146.958 101.585 147.045 101.548 147.136 101.546C147.228 101.546 147.315 101.583 147.38 101.647C147.445 101.712 147.481 101.8 147.481 101.891V107.261C147.481 107.353 147.445 107.441 147.38 107.505C147.315 107.57 147.228 107.606 147.136 107.606Z" fill="#3BADD4"/>
<path d="M122.941 125.299C122.857 125.296 122.778 125.262 122.717 125.204C122.656 125.146 122.619 125.068 122.611 124.984V112.144C122.61 112.098 122.619 112.053 122.636 112.011C122.653 111.968 122.678 111.93 122.71 111.898C122.742 111.865 122.781 111.84 122.823 111.823C122.866 111.806 122.911 111.798 122.956 111.799C123.048 111.799 123.136 111.835 123.2 111.9C123.265 111.965 123.301 112.052 123.301 112.144V124.984C123.292 125.072 123.25 125.153 123.183 125.212C123.116 125.27 123.03 125.301 122.941 125.299Z" fill="#3BADD4"/>
<path d="M136.794 112.654C136.703 112.654 136.615 112.617 136.55 112.553C136.486 112.488 136.449 112.4 136.449 112.309V108.791C136.449 108.7 136.486 108.612 136.55 108.547C136.615 108.483 136.703 108.446 136.794 108.446C136.885 108.448 136.972 108.485 137.036 108.549C137.1 108.614 137.137 108.7 137.139 108.791V112.309C137.137 112.4 137.1 112.486 137.036 112.551C136.972 112.615 136.885 112.652 136.794 112.654Z" fill="#3BADD4"/>
<path d="M140.259 118.676C140.214 118.677 140.168 118.669 140.126 118.652C140.084 118.635 140.045 118.61 140.013 118.578C139.981 118.545 139.955 118.507 139.938 118.465C139.921 118.422 139.913 118.377 139.914 118.331V98.7714C139.913 98.7258 139.921 98.6804 139.938 98.6381C139.955 98.5958 139.981 98.5574 140.013 98.5251C140.045 98.4929 140.084 98.4675 140.126 98.4505C140.168 98.4336 140.214 98.4253 140.259 98.4264C140.351 98.4264 140.438 98.4627 140.503 98.5274C140.568 98.5921 140.604 98.6799 140.604 98.7714V118.331C140.604 118.423 140.568 118.511 140.503 118.575C140.438 118.64 140.351 118.676 140.259 118.676Z" fill="#3BADD4"/>
<path d="M143.716 110.246C143.625 110.244 143.539 110.207 143.474 110.143C143.41 110.079 143.373 109.992 143.371 109.901V103.234C143.373 103.143 143.41 103.056 143.474 102.992C143.539 102.928 143.625 102.891 143.716 102.889C143.808 102.889 143.895 102.925 143.96 102.99C144.025 103.054 144.061 103.142 144.061 103.234V109.931C144.054 110.017 144.014 110.098 143.95 110.156C143.886 110.214 143.803 110.247 143.716 110.246Z" fill="#3BADD4"/>
<path d="M157.531 105.326C157.485 105.327 157.44 105.319 157.397 105.302C157.355 105.285 157.317 105.26 157.284 105.227C157.252 105.195 157.227 105.157 157.21 105.114C157.193 105.072 157.185 105.027 157.186 104.981V92.1712C157.186 92.0797 157.222 91.9919 157.287 91.9272C157.351 91.8625 157.439 91.8262 157.531 91.8262C157.622 91.8281 157.708 91.8651 157.772 91.9293C157.837 91.9936 157.874 92.0803 157.876 92.1712V104.981C157.876 105.073 157.839 105.16 157.775 105.225C157.71 105.29 157.622 105.326 157.531 105.326Z" fill="#3BADD4"/>
<path d="M150.601 107.921C150.556 107.921 150.511 107.912 150.469 107.895C150.427 107.877 150.389 107.852 150.357 107.82C150.325 107.788 150.299 107.75 150.282 107.708C150.265 107.666 150.256 107.621 150.256 107.576V97.5711C150.258 97.4802 150.295 97.3935 150.359 97.3292C150.423 97.265 150.51 97.228 150.601 97.2261C150.692 97.2261 150.78 97.2624 150.845 97.3271C150.91 97.3918 150.946 97.4796 150.946 97.5711V107.576C150.947 107.622 150.939 107.667 150.922 107.709C150.905 107.752 150.879 107.79 150.847 107.822C150.815 107.855 150.776 107.88 150.734 107.897C150.692 107.914 150.646 107.922 150.601 107.921Z" fill="#3BADD4"/>
<path d="M117.023 153.176H116.978V152.951L116.273 153.356C116.273 153.356 116.273 153.356 116.235 153.356C116.198 153.356 116.235 153.356 116.235 153.356V153.116C116.229 153.079 116.229 153.041 116.235 153.004L116.903 151.781C116.903 151.781 116.903 151.736 116.94 151.729C116.978 151.721 116.94 151.729 116.985 151.691L117.323 151.496H117.36V152.351L117.548 152.239H117.593V152.479C117.598 152.496 117.598 152.514 117.593 152.531C117.593 152.531 117.593 152.531 117.548 152.576L117.36 152.681V152.914C117.363 152.931 117.363 152.949 117.36 152.966L117.315 153.004L117.023 153.176ZM116.97 152.561V152.149L116.648 152.749L116.97 152.561Z" fill="white"/>
<path d="M118.343 151.624C118.346 151.607 118.346 151.589 118.343 151.572V151.279H118.298L118.005 151.444C117.996 151.449 117.988 151.455 117.982 151.463C117.976 151.471 117.971 151.48 117.968 151.489C117.962 151.506 117.962 151.525 117.968 151.542V151.834H118.005L118.298 151.669C118.315 151.656 118.33 151.641 118.343 151.624Z" fill="white"/>
<path d="M119.467 151.759C119.467 151.759 119.467 151.759 119.43 151.759C119.392 151.759 119.43 151.759 119.43 151.759V151.534L118.732 151.939H118.687V151.706C118.677 151.67 118.677 151.631 118.687 151.594L119.347 150.371L119.385 150.311H119.43L119.767 150.116C119.774 150.113 119.782 150.111 119.79 150.111C119.798 150.111 119.805 150.113 119.812 150.116V150.971L120.007 150.866H120.052V151.106C120.055 151.124 120.055 151.141 120.052 151.159L120.007 151.196L119.812 151.309V151.534C119.819 151.551 119.819 151.569 119.812 151.586C119.801 151.605 119.786 151.62 119.767 151.631L119.467 151.759ZM119.422 151.144V150.739L119.092 151.331L119.422 151.144Z" fill="white"/>
<path d="M120.502 151.114L120.982 149.712L120.322 150.094C120.322 150.094 120.285 150.094 120.277 150.094C120.27 150.094 120.277 150.094 120.277 150.094V149.854C120.272 149.837 120.272 149.819 120.277 149.802C120.285 149.785 120.297 149.771 120.311 149.759C120.325 149.747 120.342 149.739 120.36 149.734L121.425 149.119H121.462V149.322C121.456 149.368 121.444 149.414 121.425 149.457L120.937 150.867C120.942 150.881 120.942 150.897 120.937 150.912C120.937 150.912 120.937 150.912 120.937 150.957L120.622 151.137C120.619 151.153 120.61 151.167 120.597 151.176C120.583 151.185 120.567 151.188 120.551 151.185C120.535 151.182 120.521 151.173 120.512 151.16C120.503 151.147 120.499 151.13 120.502 151.114Z" fill="white"/>
<path d="M160.958 127.271C160.96 127.361 160.942 127.451 160.906 127.534C160.869 127.626 160.821 127.714 160.763 127.796C160.699 127.881 160.626 127.959 160.546 128.029C160.47 128.1 160.387 128.163 160.298 128.216C160.218 128.261 160.132 128.296 160.043 128.321C159.971 128.335 159.897 128.335 159.826 128.321C159.769 128.307 159.719 128.276 159.683 128.231C159.644 128.168 159.626 128.095 159.631 128.021C159.623 127.976 159.623 127.931 159.631 127.886C159.64 127.843 159.652 127.8 159.668 127.759L159.728 127.639L159.781 127.526L160.208 126.701V126.664C160.219 126.645 160.235 126.629 160.253 126.619L160.606 126.416H160.643L160.351 126.971C160.421 126.936 160.497 126.913 160.576 126.904C160.635 126.888 160.697 126.888 160.756 126.904C160.781 126.911 160.805 126.923 160.826 126.94C160.846 126.957 160.863 126.977 160.876 127.001C160.908 127.037 160.933 127.08 160.947 127.127C160.961 127.173 160.965 127.223 160.958 127.271ZM160.043 127.804C160.036 127.828 160.036 127.854 160.043 127.879H160.096H160.178L160.276 127.834L160.366 127.766C160.397 127.742 160.424 127.715 160.448 127.684C160.47 127.654 160.488 127.621 160.501 127.586C160.507 127.554 160.507 127.521 160.501 127.489C160.506 127.477 160.508 127.464 160.508 127.451C160.508 127.438 160.506 127.425 160.501 127.414C160.484 127.407 160.465 127.407 160.448 127.414C160.421 127.407 160.393 127.407 160.366 127.414H160.276C160.24 127.432 160.207 127.454 160.178 127.481C160.149 127.507 160.121 127.534 160.096 127.564L160.043 127.661C160.03 127.708 160.03 127.757 160.043 127.804Z" fill="white"/>
<path d="M161.67 126.559C161.673 126.577 161.673 126.594 161.67 126.612L161.625 126.649L161.333 126.822C161.326 126.825 161.318 126.827 161.31 126.827C161.302 126.827 161.295 126.825 161.288 126.822V126.484C161.284 126.467 161.284 126.449 161.288 126.432C161.299 126.413 161.314 126.398 161.333 126.387L161.625 126.222H161.67V126.559ZM161.67 127.309C161.673 127.327 161.673 127.344 161.67 127.362L161.625 127.407L161.333 127.572C161.326 127.575 161.318 127.577 161.31 127.577C161.302 127.577 161.295 127.575 161.288 127.572V127.279C161.284 127.262 161.284 127.244 161.288 127.227C161.299 127.208 161.314 127.193 161.333 127.182L161.625 127.017H161.67V127.309Z" fill="white"/>
<path d="M163.177 124.984C163.177 124.984 163.177 124.984 163.215 124.984C163.252 124.984 163.215 124.984 163.215 124.984V125.224C163.217 125.242 163.217 125.259 163.215 125.277V125.329L162.945 125.757C163.037 125.724 163.137 125.724 163.23 125.757C163.297 125.757 163.334 125.854 163.334 125.974C163.331 126.149 163.27 126.317 163.162 126.454C163.027 126.619 162.861 126.757 162.675 126.859C162.585 126.913 162.489 126.956 162.39 126.987C162.32 127.001 162.249 127.001 162.18 126.987C162.131 126.978 162.086 126.955 162.052 126.919C162.022 126.881 162.006 126.833 162.007 126.784C162.004 126.777 162.002 126.77 162.002 126.762C162.002 126.754 162.004 126.746 162.007 126.739L162.292 126.574H162.36H162.412H162.495C162.542 126.565 162.588 126.548 162.629 126.522C162.695 126.482 162.756 126.434 162.81 126.379C162.83 126.36 162.847 126.337 162.859 126.311C162.87 126.285 162.876 126.258 162.877 126.229C162.877 126.177 162.877 126.147 162.81 126.154C162.744 126.16 162.682 126.183 162.629 126.222L162.442 126.327C162.442 126.327 162.442 126.327 162.405 126.327C162.367 126.327 162.405 126.327 162.405 126.327V126.132C162.402 126.114 162.402 126.097 162.405 126.079L162.442 126.027L162.675 125.652L162.097 125.989H162.052V125.757C162.046 125.74 162.046 125.721 162.052 125.704C162.052 125.704 162.052 125.667 162.097 125.659L163.177 124.984Z" fill="white"/>
<path d="M164.287 124.301C164.377 124.246 164.476 124.208 164.58 124.189C164.643 124.165 164.712 124.165 164.775 124.189C164.827 124.214 164.869 124.256 164.895 124.309C164.919 124.376 164.934 124.447 164.94 124.519C164.94 124.579 164.94 124.646 164.94 124.714C164.94 124.781 164.94 124.849 164.94 124.916C164.931 125.002 164.916 125.087 164.895 125.171C164.864 125.263 164.824 125.351 164.775 125.434C164.717 125.521 164.652 125.604 164.58 125.681C164.491 125.763 164.393 125.833 164.287 125.891C164.2 125.948 164.104 125.989 164.002 126.011C163.936 126.031 163.866 126.031 163.8 126.011C163.748 125.984 163.707 125.939 163.687 125.884C163.658 125.82 163.64 125.751 163.635 125.681V125.284C163.641 125.197 163.659 125.111 163.687 125.029C163.71 124.936 163.748 124.847 163.8 124.766C163.854 124.674 163.923 124.59 164.002 124.519C164.088 124.434 164.183 124.361 164.287 124.301ZM164.527 125.156C164.535 125.031 164.535 124.906 164.527 124.781C164.531 124.749 164.531 124.716 164.527 124.684C164.521 124.662 164.508 124.644 164.49 124.631C164.478 124.626 164.465 124.623 164.452 124.623C164.439 124.623 164.427 124.626 164.415 124.631C164.374 124.635 164.335 124.651 164.302 124.676C164.261 124.697 164.223 124.725 164.19 124.759C164.161 124.786 164.138 124.819 164.122 124.856C164.105 124.889 164.093 124.925 164.085 124.961C164.081 124.999 164.081 125.036 164.085 125.074C164.077 125.198 164.077 125.324 164.085 125.449C164.085 125.449 164.085 125.516 164.085 125.539C164.087 125.551 164.093 125.563 164.101 125.574C164.108 125.584 164.118 125.592 164.13 125.599C164.13 125.599 164.167 125.599 164.197 125.599L164.31 125.554C164.352 125.53 164.39 125.499 164.422 125.464L164.497 125.374C164.512 125.339 164.524 125.304 164.535 125.269C164.536 125.231 164.533 125.193 164.527 125.156Z" fill="white"/>
<path d="M139.635 126.574V130.009C139.63 130.095 139.605 130.178 139.562 130.252C139.519 130.326 139.459 130.389 139.388 130.437L138.728 130.819C138.593 130.894 138.48 130.819 138.48 130.677V127.234C138.486 127.149 138.511 127.066 138.554 126.991C138.597 126.917 138.657 126.854 138.728 126.807L139.388 126.424C139.523 126.349 139.635 126.417 139.635 126.574Z" fill="white"/>
<path d="M141.944 125.239V128.674C141.939 128.759 141.913 128.843 141.871 128.917C141.828 128.991 141.768 129.054 141.697 129.101L141.037 129.484C140.902 129.559 140.789 129.484 140.789 129.341V125.906C140.795 125.821 140.82 125.738 140.863 125.664C140.906 125.589 140.965 125.526 141.037 125.479L141.697 125.096C141.832 124.984 141.944 125.081 141.944 125.239Z" fill="white"/>
<path d="M151.05 119.944V123.379C151.045 123.464 151.02 123.548 150.977 123.622C150.934 123.696 150.874 123.759 150.802 123.806L150.142 124.189C150.007 124.271 149.895 124.189 149.895 124.046V120.611C149.9 120.526 149.925 120.443 149.968 120.368C150.011 120.294 150.071 120.231 150.142 120.184L150.802 119.801C150.945 119.734 151.05 119.786 151.05 119.944Z" fill="white"/>
<path d="M151.59 119.666V123.034C151.59 123.281 151.725 123.334 151.89 123.139L154.995 119.554C155.16 119.366 155.085 119.209 154.837 119.209H152.047C151.926 119.209 151.81 119.257 151.724 119.343C151.638 119.429 151.59 119.545 151.59 119.666Z" fill="white"/>
<path d="M130.86 131.599V135.034C130.855 135.119 130.829 135.202 130.786 135.277C130.744 135.351 130.684 135.414 130.613 135.461L129.953 135.844C129.818 135.919 129.705 135.844 129.705 135.701V132.266C129.71 132.181 129.735 132.097 129.778 132.023C129.821 131.949 129.881 131.886 129.953 131.839L130.62 131.456C130.755 131.374 130.86 131.441 130.86 131.599Z" fill="white"/>
<path d="M129.271 135.934V132.431C129.271 132.161 129.128 132.101 128.948 132.304L125.633 136.054C125.453 136.256 125.528 136.421 125.798 136.421H128.798C128.925 136.418 129.045 136.364 129.133 136.273C129.222 136.182 129.271 136.061 129.271 135.934Z" fill="white"/>
<path opacity="0.3" d="M124.29 146.884L156.772 128.134C157.305 127.826 157.74 128.044 157.74 128.621C157.716 128.946 157.615 129.26 157.447 129.539C157.279 129.818 157.048 130.053 156.772 130.226L124.29 148.976C123.757 149.284 123.322 149.066 123.322 148.489C123.348 148.164 123.448 147.85 123.616 147.572C123.784 147.293 124.015 147.058 124.29 146.884Z" fill="white"/>
<path d="M124.29 146.884L148.68 132.807C149.212 132.499 149.647 132.717 149.647 133.294C149.623 133.619 149.523 133.933 149.355 134.212C149.187 134.491 148.956 134.726 148.68 134.899L124.29 148.984C123.757 149.292 123.322 149.074 123.322 148.497C123.347 148.171 123.447 147.855 123.615 147.575C123.783 147.295 124.014 147.059 124.29 146.884Z" fill="#3BADD4"/>
<!-- Code injected by live-server -->
<script type="text/javascript">
	// <![CDATA[  <-- For SVG support
	if ('WebSocket' in window) {
		(function () {
			function refreshCSS() {
				var sheets = [].slice.call(document.getElementsByTagName("link"));
				var head = document.getElementsByTagName("head")[0];
				for (var i = 0; i < sheets.length; ++i) {
					var elem = sheets[i];
					var parent = elem.parentElement || head;
					parent.removeChild(elem);
					var rel = elem.rel;
					if (elem.href && typeof rel != "string" || rel.length == 0 || rel.toLowerCase() == "stylesheet") {
						var url = elem.href.replace(/(&|\?)_cacheOverride=\d+/, '');
						elem.href = url + (url.indexOf('?') >= 0 ? '&' : '?') + '_cacheOverride=' + (new Date().valueOf());
					}
					parent.appendChild(elem);
				}
			}
			var protocol = window.location.protocol === 'http:' ? 'ws://' : 'wss://';
			var address = protocol + window.location.host + window.location.pathname + '/ws';
			var socket = new WebSocket(address);
			socket.onmessage = function (msg) {
				if (msg.data == 'reload') window.location.reload();
				else if (msg.data == 'refreshcss') refreshCSS();
			};
			if (sessionStorage && !sessionStorage.getItem('IsThisFirstTime_Log_From_LiveServer')) {
				console.log('Live reload enabled.');
				sessionStorage.setItem('IsThisFirstTime_Log_From_LiveServer', true);
			}
		})();
	}
	else {
		console.error('Upgrade your browser. This Browser is NOT supported WebSocket for Live-Reloading.');
	}
	// ]]>
</script></svg>
