<svg width="375" height="375" viewBox="0 0 375 375" fill="none" xmlns="http://www.w3.org/2000/svg">
<path d="M279.367 21.3526L275.437 62.7676C275.333 63.4409 275.493 64.1283 275.882 64.6871C276.272 65.2458 276.862 65.6328 277.53 65.7676L343.845 75.7501C344.549 75.817 345.251 75.6019 345.796 75.1519C346.342 74.702 346.687 74.054 346.755 73.3501L351.585 41.3776C351.718 40.687 351.574 39.9717 351.183 39.3865C350.793 38.8013 350.189 38.3931 349.5 38.2501L308.67 32.3776C308.337 32.3273 308.019 32.207 307.735 32.0248C307.452 31.8425 307.211 31.6023 307.027 31.3201L301.117 22.4626C300.936 22.1807 300.698 21.9402 300.417 21.7567C300.137 21.5732 299.821 21.4508 299.49 21.3976L282.3 18.7876C281.937 18.7559 281.572 18.7978 281.226 18.9108C280.88 19.0237 280.561 19.2055 280.287 19.4451C280.013 19.6846 279.79 19.9771 279.632 20.3049C279.474 20.6327 279.384 20.9891 279.367 21.3526Z" fill="#EBEBEB"/>
<path d="M352.744 33.7308L280.283 22.7852L272.992 71.055L345.452 82.0007L352.744 33.7308Z" fill="#F5F5F5"/>
<path d="M273.864 26.2502L271.786 77.4227C271.749 77.8366 271.866 78.2496 272.115 78.5821C272.365 78.9145 272.728 79.1428 273.136 79.2227L343.756 89.9027C344.183 89.9415 344.609 89.8191 344.951 89.5596C345.292 89.3 345.524 88.9221 345.601 88.5002L356.761 38.7077C356.826 38.4795 356.843 38.2405 356.812 38.0054C356.78 37.7703 356.701 37.5441 356.579 37.3409C356.456 37.1377 356.294 36.9618 356.101 36.8241C355.907 36.6863 355.688 36.5897 355.456 36.5402L275.754 24.5102C275.513 24.4905 275.271 24.5209 275.043 24.5994C274.815 24.6779 274.605 24.8028 274.428 24.9663C274.25 25.1297 274.108 25.3282 274.011 25.5492C273.914 25.7702 273.864 26.0089 273.864 26.2502Z" fill="#EBEBEB"/>
<path d="M162.684 279.75L153.751 308.475C153.586 308.949 153.61 309.469 153.818 309.925C154.026 310.382 154.403 310.741 154.869 310.927L202.681 328.927C202.926 329.013 203.185 329.048 203.444 329.033C203.702 329.017 203.955 328.951 204.188 328.837C204.421 328.724 204.629 328.565 204.8 328.371C204.971 328.176 205.103 327.95 205.186 327.705L213.436 305.79C213.535 305.549 213.586 305.29 213.585 305.029C213.584 304.769 213.531 304.511 213.43 304.27C213.329 304.03 213.182 303.812 212.996 303.628C212.81 303.445 212.59 303.3 212.349 303.202L182.874 292.327C182.634 292.24 182.416 292.104 182.232 291.927C182.049 291.75 181.905 291.536 181.809 291.3L178.704 284.04C178.606 283.808 178.463 283.598 178.283 283.423C178.102 283.248 177.888 283.111 177.654 283.02L165.256 278.355C164.996 278.265 164.72 278.229 164.445 278.252C164.171 278.274 163.904 278.353 163.662 278.485C163.42 278.616 163.208 278.796 163.039 279.014C162.871 279.232 162.75 279.483 162.684 279.75Z" fill="#EBEBEB"/>
<path d="M215.413 300.569L163.174 280.892L150.714 313.971L202.953 333.648L215.413 300.569Z" fill="#F5F5F5"/>
<path d="M157.869 282.293L148.869 318.293C148.789 318.591 148.822 318.908 148.96 319.184C149.098 319.461 149.332 319.677 149.619 319.793L200.514 339C200.815 339.106 201.145 339.094 201.437 338.966C201.729 338.837 201.962 338.603 202.089 338.31L217.651 304.778C217.729 304.621 217.774 304.45 217.784 304.275C217.793 304.101 217.766 303.926 217.705 303.762C217.644 303.598 217.549 303.449 217.428 303.323C217.306 303.197 217.16 303.097 216.999 303.03L159.534 281.378C159.364 281.321 159.185 281.299 159.007 281.315C158.829 281.331 158.657 281.384 158.5 281.47C158.344 281.556 158.207 281.673 158.098 281.815C157.989 281.956 157.911 282.119 157.869 282.293Z" fill="#EBEBEB"/>
<path d="M32.7757 39.0003L34.7857 71.5953C34.8201 72.1544 35.0667 72.6793 35.4751 73.0626C35.8836 73.446 36.423 73.6589 36.9832 73.6578H95.6481C96.2329 73.6578 96.7938 73.4255 97.2073 73.012C97.6208 72.5985 97.8531 72.0376 97.8531 71.4528V46.0878C97.8532 45.7944 97.7947 45.504 97.6811 45.2335C97.5675 44.963 97.401 44.7179 97.1915 44.5125C96.9819 44.3072 96.7335 44.1457 96.4608 44.0376C96.1881 43.9294 95.8965 43.8768 95.6031 43.8828L59.5281 44.1153C58.9577 44.1167 58.409 43.8962 57.9981 43.5003L51.7506 37.3053C51.338 36.9011 50.7833 36.6748 50.2057 36.6753H34.9732C34.6732 36.6737 34.3761 36.7338 34.1003 36.8517C33.8246 36.9697 33.5759 37.143 33.3699 37.361C33.1639 37.579 33.0048 37.837 32.9026 38.119C32.8004 38.401 32.7572 38.7009 32.7757 39.0003Z" fill="#EBEBEB"/>
<path d="M97.8525 40.0352H33.75V78.3377H97.8525V40.0352Z" fill="#F5F5F5"/>
<path d="M28.6512 43.5001L33.5412 83.4451C33.5834 83.7891 33.7501 84.1057 34.0099 84.3351C34.2698 84.5645 34.6046 84.6908 34.9512 84.6901H97.4187C97.7754 84.6894 98.119 84.555 98.3814 84.3134C98.6439 84.0718 98.8062 83.7405 98.8362 83.3851L102.001 43.4101C102.012 43.2177 101.984 43.0251 101.919 42.844C101.853 42.6629 101.751 42.4971 101.619 42.3567C101.487 42.2163 101.328 42.1043 101.151 42.0275C100.974 41.9507 100.784 41.9107 100.591 41.9101H30.0912C29.8877 41.9053 29.6856 41.9444 29.4986 42.0248C29.3116 42.1051 29.1441 42.2248 29.0075 42.3756C28.8708 42.5265 28.7683 42.705 28.7068 42.899C28.6454 43.0931 28.6264 43.298 28.6512 43.5001Z" fill="#EBEBEB"/>
<path d="M39.6079 224.37C39.6079 224.37 34.8604 224.025 35.2954 234.69C35.432 240.165 35.9331 245.624 36.7954 251.032C36.7954 251.032 36.6604 253.395 34.8229 252.93C32.9854 252.465 29.5729 250.17 27.8479 251.887C26.1229 253.605 26.7154 256.387 29.0554 259.627C31.3954 262.867 36.2854 270.105 36.7504 270.75C37.2154 271.395 37.3504 272.61 36.0529 272.49C34.7554 272.37 25.9954 269.407 24.8029 273.645C23.6104 277.882 31.6429 285.795 32.4979 286.68C33.3529 287.565 33.4054 288.112 33.0529 288.645C32.7004 289.177 29.8579 287.895 27.3304 287.145C24.8029 286.395 21.7429 285.99 21.2779 288.487C20.8129 290.985 24.3379 298.342 37.5004 306.045L43.8454 309.21L49.8454 305.377C62.2504 296.4 64.9954 288.75 64.2829 286.312C63.5704 283.875 60.5704 284.587 58.1329 285.562C55.6954 286.537 52.9804 288.105 52.5829 287.61C52.1854 287.115 52.1704 286.552 52.9354 285.592C53.7004 284.632 60.8704 276 59.2879 271.882C57.7054 267.765 49.2904 271.605 48.0379 271.882C46.7854 272.16 46.8079 270.907 47.1754 270.225C47.5429 269.542 51.6754 261.825 53.6704 258.382C55.6654 254.94 56.0254 252.157 54.0904 250.56C52.1554 248.962 49.0279 251.655 47.2504 252.3C45.4729 252.945 45.0979 250.605 45.0979 250.605C45.4254 245.136 45.3878 239.651 44.9854 234.187C44.3554 223.537 39.5404 224.437 39.5404 224.437" fill="#EBEBEB"/>
<path d="M39.9824 233.917C39.9824 233.917 39.9824 233.992 39.9824 234.142C39.9824 234.292 39.9824 234.517 40.0349 234.795C40.0349 235.38 40.1324 236.227 40.1999 237.315C40.3499 239.497 40.5374 242.662 40.7474 246.577C41.1824 254.407 41.6924 265.222 42.2474 277.17C42.8024 289.117 43.2524 299.94 43.6424 307.762C43.8374 311.67 44.0024 314.835 44.1149 317.032C44.1674 318.12 44.2049 318.967 44.2349 319.552C44.2349 319.837 44.2349 320.055 44.2349 320.212V320.437C44.2349 320.437 44.2349 320.355 44.2349 320.212C44.2349 320.07 44.2349 319.837 44.1899 319.56C44.1449 318.967 44.0924 318.12 44.0174 317.04C43.8749 314.85 43.6874 311.685 43.4699 307.77C43.0349 299.947 42.5249 289.132 41.9699 277.177C41.4149 265.222 40.9724 254.415 40.5824 246.585C40.3799 242.685 40.2224 239.52 40.1099 237.315C40.0574 236.235 40.0124 235.387 39.9824 234.795C39.9824 234.517 39.9824 234.3 39.9824 234.142V233.917Z" fill="#E0E0E0"/>
<path d="M32.5586 255.3C32.5586 255.3 32.7161 255.405 32.9561 255.63C33.1961 255.855 33.5411 256.185 33.9611 256.598C34.8011 257.423 35.9261 258.6 37.1411 259.92L40.2461 263.318C40.6211 263.723 40.9361 264.068 41.1911 264.345C41.4461 264.623 41.5361 264.72 41.5211 264.735C41.3782 264.638 41.2451 264.528 41.1236 264.405C40.8836 264.188 40.5386 263.858 40.1261 263.438C39.2936 262.598 38.1836 261.405 36.9686 260.085L33.8411 256.718L32.8886 255.698C32.7637 255.578 32.653 255.445 32.5586 255.3Z" fill="#E0E0E0"/>
<path d="M42.151 264.525C42.106 264.48 44.401 262.05 47.3335 259.095C50.266 256.14 52.6435 253.793 52.6885 253.845C52.7335 253.898 50.4385 256.32 47.506 259.268C44.5735 262.215 42.196 264.57 42.151 264.525Z" fill="#E0E0E0"/>
<path d="M42.127 282.908C42.2628 282.798 42.4113 282.705 42.5695 282.63L43.807 281.933C44.857 281.348 46.297 280.53 47.857 279.57C49.417 278.61 50.8045 277.695 51.802 277.028L52.987 276.24C53.1284 276.137 53.2791 276.046 53.437 275.97C53.437 275.97 53.3095 276.105 53.0395 276.315C52.7695 276.525 52.387 276.818 51.8995 277.17C50.9245 277.875 49.552 278.813 47.9845 279.773C46.417 280.733 44.9845 281.535 43.8895 282.083C43.3495 282.36 42.9145 282.57 42.607 282.713C42.4564 282.799 42.295 282.865 42.127 282.908Z" fill="#E0E0E0"/>
<path d="M31.6133 276.473C31.7677 276.527 31.916 276.597 32.0558 276.683L33.2033 277.32C34.1708 277.868 35.4983 278.64 36.9533 279.51C38.4083 280.38 39.7208 281.175 40.6658 281.76C41.1383 282.053 41.5133 282.293 41.7758 282.465C41.9176 282.543 42.0487 282.639 42.1658 282.75C42.0105 282.701 41.8619 282.633 41.7233 282.548C41.4533 282.398 41.0558 282.18 40.5758 281.903C39.6083 281.355 38.2883 280.583 36.8258 279.72C35.3633 278.858 34.0583 278.055 33.0758 277.47C32.6033 277.178 32.2283 276.938 31.9658 276.765C31.8373 276.682 31.719 276.584 31.6133 276.473Z" fill="#E0E0E0"/>
<path d="M29.5273 292.703C29.7237 292.773 29.9122 292.863 30.0898 292.973L31.5898 293.79C32.8348 294.488 34.5448 295.463 36.4198 296.558C38.2948 297.653 39.9898 298.65 41.2123 299.385L42.6448 300.263C42.8254 300.364 42.9962 300.482 43.1548 300.615C42.9614 300.544 42.7755 300.453 42.5998 300.345L41.0998 299.535C39.8623 298.838 38.1523 297.855 36.2773 296.768C34.4023 295.68 32.6998 294.675 31.4998 293.94L30.0598 293.055C29.8694 292.959 29.6907 292.84 29.5273 292.703Z" fill="#E0E0E0"/>
<path d="M42.8555 300.338C43.0263 300.195 43.2124 300.072 43.4105 299.97L44.9105 299.025C46.2155 298.238 48.008 297.135 49.958 295.86C51.908 294.585 53.6405 293.4 54.893 292.53L56.393 291.503C56.5724 291.37 56.7603 291.25 56.9555 291.143C56.8026 291.304 56.6343 291.449 56.453 291.578C56.1155 291.84 55.628 292.215 55.013 292.673C53.783 293.58 52.0655 294.795 50.108 296.07C48.1505 297.345 46.358 298.418 45.023 299.175L43.4405 300.053C43.2546 300.165 43.0588 300.261 42.8555 300.338Z" fill="#E0E0E0"/>
<path d="M52.3954 311.288H34.8379L40.5679 354.653H46.6654L52.3954 311.288Z" fill="#E0E0E0"/>
<path d="M35.752 316.62C35.752 316.62 35.752 316.68 35.842 316.77C35.9594 316.904 36.1056 317.009 36.2695 317.078C36.5754 317.183 36.9016 317.217 37.2227 317.177C37.5439 317.137 37.8516 317.023 38.122 316.845C38.827 316.455 39.4495 315.69 40.372 315.345C41.4271 315.008 42.5643 315.032 43.6045 315.413C44.6591 315.776 45.6663 316.265 46.6045 316.868C47.3891 317.36 48.206 317.798 49.0495 318.18C49.6246 318.437 50.2331 318.611 50.857 318.698C51.023 318.726 51.1912 318.738 51.3595 318.735C51.4189 318.747 51.48 318.747 51.5395 318.735C50.7063 318.597 49.8961 318.345 49.132 317.985C48.3094 317.581 47.5107 317.13 46.7395 316.635C45.792 316.004 44.7657 315.5 43.687 315.135C42.5897 314.734 41.3878 314.721 40.282 315.098C39.8106 315.284 39.3762 315.554 38.9995 315.893C38.6805 316.164 38.3449 316.414 37.9945 316.643C37.7479 316.813 37.4675 316.928 37.1723 316.98C36.8771 317.032 36.5743 317.019 36.2845 316.943C36.0904 316.865 35.9105 316.756 35.752 316.62Z" fill="#F5F5F5"/>
<path d="M36.3911 324.608C36.3911 324.608 36.5336 324.428 36.8036 324.135C37.2021 323.743 37.6805 323.441 38.2061 323.25C38.9882 322.965 39.8197 322.84 40.6511 322.883C41.6758 322.961 42.6951 323.098 43.7036 323.295C44.7333 323.499 45.7878 323.544 46.8311 323.43C47.6809 323.316 48.5095 323.078 49.2911 322.725C49.8214 322.488 50.3244 322.194 50.7911 321.848C50.9689 321.73 51.1281 321.585 51.2636 321.42C50.6151 321.843 49.9357 322.217 49.2311 322.538C48.4614 322.858 47.6513 323.07 46.8236 323.168C45.8041 323.261 44.7766 323.21 43.7711 323.018C42.752 322.811 41.7193 322.679 40.6811 322.62C39.8168 322.587 38.9552 322.738 38.1536 323.063C37.6121 323.28 37.1311 323.625 36.7511 324.068C36.6495 324.185 36.5615 324.313 36.4886 324.45C36.4186 324.55 36.3861 324.603 36.3911 324.608Z" fill="#F5F5F5"/>
<path d="M50.4012 328.883C50.261 328.765 50.0974 328.678 49.9212 328.628C49.4538 328.455 48.9636 328.351 48.4662 328.32C47.7315 328.271 46.9936 328.312 46.2687 328.44C45.4512 328.575 44.5737 328.8 43.6512 328.995C42.7938 329.199 41.915 329.3 41.0337 329.295C40.322 329.273 39.6203 329.121 38.9637 328.845C38.3636 328.568 37.8274 328.17 37.3887 327.675C37.4536 327.846 37.5532 328.002 37.6812 328.133C38.0132 328.509 38.4191 328.813 38.8737 329.025C39.5479 329.346 40.2801 329.527 41.0262 329.558C41.9293 329.58 42.8316 329.486 43.7112 329.28C44.6412 329.078 45.5112 328.845 46.3137 328.703C47.0161 328.554 47.7333 328.486 48.4512 328.5C49.1149 328.544 49.7702 328.672 50.4012 328.883Z" fill="#F5F5F5"/>
<path d="M37.9437 334.897C38.4786 334.661 39.0747 334.601 39.6462 334.725C40.2649 334.874 40.864 335.096 41.4312 335.385C42.1561 335.736 42.9389 335.952 43.7412 336.022C45.2082 336.151 46.6784 335.813 47.9412 335.055C48.3169 334.82 48.6686 334.549 48.9912 334.245C49.2012 334.02 49.3137 333.892 49.2987 333.877C48.8309 334.234 48.3453 334.567 47.8437 334.875C46.6023 335.561 45.1843 335.862 43.7712 335.737C42.1062 335.647 40.8312 334.65 39.6762 334.522C39.2337 334.449 38.78 334.488 38.3562 334.635C38.0562 334.755 37.9362 334.882 37.9437 334.897Z" fill="#F5F5F5"/>
<path d="M38.918 343.215C39.4335 343.239 39.9474 343.141 40.418 342.93C41.303 342.63 42.398 341.955 43.673 341.43C44.2637 341.185 44.894 341.051 45.533 341.033C46.0524 341.035 46.5647 341.153 47.033 341.378C47.4587 341.608 47.8297 341.928 48.1205 342.315C48.1205 342.315 48.1205 342.165 47.9555 341.948C47.7428 341.637 47.4603 341.38 47.1305 341.198C46.6418 340.931 46.0969 340.785 45.5405 340.77C44.8641 340.772 44.1943 340.904 43.568 341.16C42.248 341.685 41.1905 342.383 40.343 342.713C39.4955 343.043 38.9105 343.17 38.918 343.215Z" fill="#F5F5F5"/>
<path d="M39.75 347.093C40.1007 347.266 40.4746 347.387 40.86 347.453C41.7752 347.674 42.7051 347.829 43.6425 347.918C44.5915 348.018 45.5468 348.045 46.5 348C46.892 348.012 47.2837 347.967 47.6625 347.865C47.6625 347.775 45.885 347.865 43.71 347.633C41.535 347.4 39.8025 347.01 39.75 347.093Z" fill="#F5F5F5"/>
<path d="M322.328 53.8574H73.4551V272.722H322.328V53.8574Z" fill="white"/>
<path d="M322.327 272.723C322.327 271.335 322.267 185.588 322.162 53.8576L322.327 54.0226L73.4996 54.0526L73.6946 53.8576C73.6946 133.403 73.6946 208.298 73.6946 272.723L73.5221 272.55L322.395 272.723L73.5221 272.895H73.3496V272.723C73.3496 208.298 73.3496 133.403 73.3496 53.8576V53.6626H73.4996H322.35H322.5V53.8276C322.395 185.595 322.335 271.335 322.327 272.723Z" fill="#263238"/>
<path d="M126.922 109.83V149.085H174.637V109.83C174.637 108.933 174.281 108.073 173.646 107.438C173.012 106.804 172.151 106.448 171.254 106.448H130.312C129.867 106.447 129.426 106.534 129.015 106.703C128.604 106.873 128.23 107.122 127.915 107.436C127.6 107.75 127.351 108.123 127.18 108.534C127.01 108.945 126.922 109.385 126.922 109.83Z" fill="#3BADD4"/>
<path d="M117.346 177L128.003 147.683L174.638 149.078L167.686 175.815C167.551 176.33 167.247 176.785 166.822 177.106C166.398 177.427 165.878 177.596 165.346 177.585L153.271 177.33L151.283 180.143C151.028 180.509 150.685 180.804 150.285 181C149.885 181.197 149.441 181.289 148.996 181.268L119.806 180.038C119.437 180.019 119.077 179.923 118.748 179.756C118.42 179.589 118.13 179.355 117.898 179.068C117.665 178.781 117.496 178.449 117.401 178.093C117.306 177.737 117.287 177.364 117.346 177Z" fill="#3BADD4"/>
<path d="M129.48 113.355V117.375V144.075L171.42 146.385L171.233 113.355H129.48Z" fill="#F5F5F5"/>
<path d="M129.48 113.355H129.668H130.238H132.488L141 113.25L171.218 113.167H171.39V113.34C171.443 122.917 171.51 133.815 171.585 145.335C171.585 145.68 171.585 146.032 171.585 146.37V146.572H171.375L129.443 144.225H129.293V144.075C129.293 134.76 129.345 127.08 129.36 121.717C129.36 119.055 129.36 116.962 129.405 115.515C129.405 114.817 129.405 114.277 129.405 113.895C129.405 113.512 129.405 113.355 129.405 113.355C129.405 113.355 129.405 113.557 129.405 113.925C129.405 114.292 129.405 114.847 129.405 115.552C129.405 116.985 129.405 119.062 129.45 121.717C129.45 127.08 129.495 134.76 129.518 144.075L129.368 143.917L171.308 146.167L171.105 146.362C171.105 146.025 171.105 145.68 171.105 145.327C171.045 133.815 170.993 122.91 170.948 113.332L171.12 113.512L141.015 113.422L132.45 113.377H130.2H129.608L129.48 113.355Z" fill="#263238"/>
<path d="M131.678 121.02C131.715 120 131.678 115.605 131.678 115.605C143.4 115.605 156.533 115.65 168.255 115.605C168.585 121.41 168.653 129.24 169.005 135.045" fill="#EBEBEB"/>
<path d="M168.982 135.052C168.947 134.933 168.93 134.809 168.929 134.685C168.929 134.407 168.877 134.055 168.847 133.62C168.779 132.69 168.712 131.325 168.637 129.607C168.472 126.172 168.382 121.312 168.074 115.627L168.254 115.792H157.004C146.504 115.792 137.219 115.792 131.699 115.702L131.804 115.59C131.804 117.27 131.767 118.59 131.752 119.58C131.752 120.015 131.752 120.367 131.752 120.637C131.76 120.76 131.76 120.883 131.752 121.005C131.734 120.883 131.734 120.759 131.752 120.637C131.752 120.367 131.752 120.015 131.752 119.58C131.752 118.612 131.752 117.27 131.699 115.59V115.5H131.812C137.332 115.447 146.602 115.417 157.117 115.425H168.367H168.539V115.597C168.817 121.297 168.862 126.157 168.959 129.592C169.004 131.28 169.042 132.637 169.072 133.605C169.072 134.047 169.072 134.4 169.072 134.67C169.051 134.799 169.02 134.927 168.982 135.052Z" fill="#E0E0E0"/>
<path d="M123.074 121.155L131.722 146.385H171.419L165.487 121.02L123.074 121.155Z" fill="white"/>
<path d="M123.074 121.155H123.261H123.846H126.156L134.879 121.08L165.486 120.885H165.629V121.02L171.329 145.358C171.411 145.703 171.494 146.048 171.569 146.385L171.629 146.625H171.381L131.684 146.588H131.571V146.483C128.961 138.758 126.824 132.428 125.324 128.01C124.574 125.835 124.026 124.133 123.636 122.955C123.449 122.393 123.306 121.95 123.201 121.643C123.096 121.335 123.066 121.2 123.066 121.2L123.239 121.665L123.711 123C124.124 124.185 124.724 125.895 125.489 128.07C126.989 132.45 129.201 138.728 131.864 146.378L131.714 146.273L171.411 146.235L171.216 146.475C171.141 146.138 171.059 145.793 170.976 145.448L165.299 121.103L165.479 121.245H134.999H126.224H123.876H123.261C123.196 121.222 123.133 121.192 123.074 121.155Z" fill="#263238"/>
<g opacity="0.3">
<path opacity="0.3" d="M171.367 146.91C171.22 146.82 171.053 146.766 170.881 146.753C170.709 146.74 170.536 146.768 170.377 146.835C154.84 150.921 140.024 157.374 126.45 165.968L120.885 172.418C121.59 173.52 123.097 173.715 124.402 173.805L143.107 175.02C147.457 175.305 151.807 175.59 156.165 175.575C158.752 175.575 161.58 175.358 163.462 173.588C164.502 172.472 165.283 171.14 165.75 169.688C168.521 162.66 170.464 155.333 171.54 147.855C171.588 147.695 171.597 147.526 171.567 147.362C171.537 147.198 171.469 147.043 171.367 146.91Z" fill="black"/>
</g>
<path d="M131.721 148.38L120.629 172.373L162.284 173.205L171.419 146.385L131.721 148.38Z" fill="#F5F5F5"/>
<path d="M131.721 148.38C131.781 148.37 131.842 148.37 131.901 148.38L132.449 148.335L134.594 148.208L142.724 147.75L171.404 146.25H171.666L171.584 146.505C168.831 154.613 165.734 163.755 162.464 173.325L162.419 173.46H162.269L120.621 172.5H120.389L120.486 172.283C123.906 164.963 126.711 158.97 128.661 154.785C129.629 152.73 130.394 151.117 130.911 150.007L131.504 148.763C131.639 148.485 131.714 148.357 131.714 148.357C131.714 148.357 131.654 148.515 131.534 148.8C131.414 149.085 131.204 149.55 130.964 150.075L128.774 154.913L120.749 172.433L120.614 172.215L162.261 173.01L162.074 173.145L171.224 146.325L171.404 146.565L142.791 147.922L134.631 148.283L132.464 148.365H131.894L131.721 148.38Z" fill="#263238"/>
<path d="M131.541 146.385L119.504 159.638L160.881 159.953L171.231 146.385H131.541Z" fill="#FAFAFA"/>
<path d="M131.542 146.385C131.601 146.378 131.662 146.378 131.722 146.385H132.284H134.467L142.717 146.333L171.269 146.258H171.644L171.419 146.558C168.202 150.773 164.707 155.363 161.077 160.133L161.017 160.208H159.659L119.504 159.75H119.182L119.399 159.51L128.249 149.873L130.664 147.27L131.294 146.603C131.36 146.521 131.435 146.448 131.519 146.385L131.317 146.64L130.702 147.338L128.347 150L119.609 159.75L119.504 159.51L159.622 159.758H160.882L160.724 159.833C164.369 155.07 167.864 150.488 171.082 146.273L171.232 146.573L142.732 146.498L134.482 146.445H132.277H131.707L131.542 146.385Z" fill="#263238"/>
<path d="M130.237 134.835L126.682 123.758H163.567L168.734 144.008" fill="#F5F5F5"/>
<path d="M168.749 144C168.692 143.88 168.65 143.754 168.621 143.625C168.539 143.348 168.441 142.988 168.314 142.53L167.196 138.375L163.401 123.795L163.581 123.93H149.774L126.696 123.885L126.831 123.69L129.374 131.813C129.651 132.75 129.876 133.485 130.041 134.025L130.206 134.61C130.232 134.675 130.247 134.743 130.251 134.813C130.215 134.752 130.187 134.686 130.169 134.618C130.109 134.468 130.041 134.28 129.959 134.055L129.209 131.858C128.571 129.915 127.664 127.163 126.546 123.78L126.486 123.593H126.689L149.766 123.54H163.574H163.709V123.675C165.209 129.623 166.461 134.678 167.361 138.293C167.789 140.055 168.111 141.465 168.374 142.47C168.486 142.935 168.569 143.303 168.629 143.58C168.683 143.716 168.723 143.856 168.749 144Z" fill="#263238"/>
<path d="M152.129 132.75C151.583 132.244 150.943 131.849 150.246 131.588C148.866 131.168 147.374 131.85 146.264 132.78C145.154 133.71 144.254 134.88 143.076 135.72L156.014 135.93L152.129 132.75Z" fill="white"/>
<path d="M158.903 128.88C158.438 128.183 156.9 127.32 155.903 127.965C155.578 128.083 155.289 128.283 155.064 128.546C154.839 128.809 154.686 129.126 154.62 129.465C154.588 129.957 154.711 130.447 154.97 130.866C155.23 131.286 155.614 131.614 156.069 131.804C156.524 131.995 157.027 132.039 157.508 131.93C157.989 131.822 158.424 131.565 158.753 131.198C159.018 130.876 159.174 130.479 159.201 130.063C159.228 129.647 159.124 129.233 158.903 128.88Z" fill="white"/>
<path d="M131.541 146.385L119.129 134.835L159.749 135.165L171.419 146.385H131.541Z" fill="#FAFAFA"/>
<path d="M131.542 146.385C131.607 146.379 131.673 146.379 131.737 146.385H132.315H134.565L142.852 146.333L171.45 146.258L171.315 146.58L159.645 135.33L159.78 135.39H159.03L119.13 135L119.227 134.76L128.25 143.25L130.702 145.575L131.34 146.19C131.415 146.26 131.486 146.335 131.55 146.415C131.468 146.362 131.392 146.299 131.325 146.228C131.16 146.085 130.942 145.898 130.672 145.65L128.182 143.4L119.04 134.978L118.777 134.738H119.137L159 135H159.832L159.885 135.053L171.547 146.303L171.877 146.625H171.42L142.762 146.55L134.512 146.498H132.315H131.752C131.677 146.472 131.606 146.434 131.542 146.385Z" fill="#263238"/>
<path d="M156.39 139.275C156.39 139.38 150.39 139.47 143.078 139.47C135.765 139.47 129.75 139.38 129.75 139.275C129.75 139.17 135.712 139.08 143.062 139.08C150.412 139.08 156.39 139.163 156.39 139.275Z" fill="#263238"/>
<path d="M159.337 142.02C159.337 142.125 153.375 142.215 146.025 142.215C138.675 142.215 132.75 142.125 132.75 142.02C132.75 141.915 138.705 141.825 146.062 141.825C153.42 141.825 159.337 141.915 159.337 142.02Z" fill="#263238"/>
<path d="M162 144.668C162 144.773 156.037 144.863 148.687 144.863C141.337 144.863 135.367 144.773 135.367 144.668C135.367 144.563 141.33 144.473 148.687 144.473C156.045 144.473 162 144.555 162 144.668Z" fill="#263238"/>
<path d="M158.662 155.25C158.662 155.355 152.512 155.445 144.922 155.445C137.332 155.445 131.182 155.355 131.182 155.25C131.182 155.145 137.332 155.055 144.922 155.055C152.512 155.055 158.662 155.168 158.662 155.25Z" fill="#263238"/>
<path d="M161.791 152.153C161.791 152.258 155.641 152.348 148.051 152.348C140.461 152.348 134.311 152.258 134.311 152.153C134.311 152.048 140.461 151.958 148.051 151.958C155.641 151.958 161.791 152.04 161.791 152.153Z" fill="#263238"/>
<path d="M323.054 76.3049C323.054 76.4099 267.794 76.4999 199.649 76.4999C131.504 76.4999 76.2363 76.4099 76.2363 76.3049C76.2363 76.1999 131.481 76.1099 199.649 76.1099C267.816 76.1099 323.054 76.1999 323.054 76.3049Z" fill="#263238"/>
<path d="M90.3963 66.0599C90.3963 66.5658 90.2463 67.0602 89.9652 67.4808C89.6842 67.9014 89.2848 68.2292 88.8175 68.4228C88.3501 68.6163 87.8359 68.667 87.3398 68.5683C86.8437 68.4696 86.388 68.226 86.0303 67.8684C85.6727 67.5107 85.4291 67.055 85.3304 66.5589C85.2317 66.0628 85.2824 65.5485 85.4759 65.0812C85.6695 64.6139 85.9973 64.2145 86.4179 63.9335C86.8385 63.6524 87.3329 63.5024 87.8388 63.5024C88.517 63.5024 89.1676 63.7719 89.6472 64.2515C90.1268 64.7311 90.3963 65.3816 90.3963 66.0599Z" fill="#3BADD4"/>
<path d="M98.783 66.0599C98.783 66.5658 98.633 67.0602 98.352 67.4808C98.0709 67.9014 97.6715 68.2292 97.2042 68.4228C96.7369 68.6163 96.2226 68.667 95.7265 68.5683C95.2304 68.4696 94.7747 68.226 94.417 67.8684C94.0594 67.5107 93.8158 67.055 93.7171 66.5589C93.6184 66.0628 93.6691 65.5485 93.8627 65.0812C94.0562 64.6139 94.384 64.2145 94.8046 63.9335C95.2252 63.6524 95.7196 63.5024 96.2255 63.5024C96.9038 63.5024 97.5543 63.7719 98.0339 64.2515C98.5135 64.7311 98.783 65.3816 98.783 66.0599Z" fill="#3BADD4"/>
<path d="M107.168 66.0599C107.168 66.5658 107.018 67.0602 106.737 67.4808C106.456 67.9014 106.056 68.2292 105.589 68.4228C105.122 68.6163 104.607 68.667 104.111 68.5683C103.615 68.4696 103.159 68.226 102.802 67.8684C102.444 67.5107 102.201 67.055 102.102 66.5589C102.003 66.0628 102.054 65.5485 102.247 65.0812C102.441 64.6139 102.769 64.2145 103.189 63.9335C103.61 63.6524 104.104 63.5024 104.61 63.5024C105.289 63.5024 105.939 63.7719 106.419 64.2515C106.898 64.7311 107.168 65.3816 107.168 66.0599Z" fill="#3BADD4"/>
<path d="M185.415 70.5601V66.6676L183.51 69.8701H182.835L180.93 66.7501V70.5601H179.52V64.0801H180.75L183.18 68.1076L185.565 64.0801H186.795V70.5601H185.415Z" fill="#263238"/>
<path d="M193.207 65.5801L190.958 70.8301C190.47 72.0376 189.788 72.3976 188.888 72.3976C188.394 72.421 187.906 72.2814 187.5 72.0001L188.025 70.9726C188.255 71.1644 188.543 71.2727 188.842 71.2801C189.24 71.2801 189.465 71.1076 189.66 70.6651V70.6201L187.5 65.5801H189L190.402 68.9551L191.805 65.5801H193.207Z" fill="#263238"/>
<path d="M200.639 65.2501V66.9601H203.639V68.1676H200.639V70.5301H199.139V64.0801H204.036V65.2501H200.639Z" fill="#263238"/>
<path d="M204.682 64.0799C204.684 63.9665 204.71 63.8549 204.757 63.7519C204.805 63.6489 204.873 63.5567 204.957 63.4808C205.041 63.405 205.14 63.3472 205.248 63.3109C205.355 63.2746 205.469 63.2606 205.582 63.2699C205.69 63.2575 205.801 63.2672 205.906 63.2986C206.01 63.33 206.108 63.3823 206.192 63.4524C206.276 63.5225 206.345 63.6089 206.395 63.7065C206.445 63.804 206.474 63.9106 206.482 64.0199C206.453 64.2386 206.346 64.4395 206.181 64.5851C206.015 64.7306 205.802 64.8109 205.582 64.8109C205.361 64.8109 205.148 64.7306 204.983 64.5851C204.817 64.4395 204.71 64.2386 204.682 64.0199V64.0799ZM204.862 65.5799H206.302V70.5599H204.862V65.5799Z" fill="#263238"/>
<path d="M207.645 63.6899H209.092V70.5599H207.645V63.6899Z" fill="#263238"/>
<path d="M215.286 68.4749H211.536C211.613 68.7856 211.799 69.0581 212.061 69.2416C212.323 69.4251 212.643 69.5071 212.961 69.4724C213.191 69.4817 213.419 69.4439 213.633 69.3613C213.848 69.2788 214.043 69.1532 214.206 68.9924L214.956 69.8249C214.694 70.1024 214.374 70.3188 214.019 70.4587C213.664 70.5987 213.282 70.6589 212.901 70.6349C211.176 70.6349 210.059 69.5474 210.059 68.0699C210.054 67.7241 210.121 67.3811 210.254 67.0619C210.387 66.7428 210.584 66.4542 210.832 66.2139C211.081 65.9736 211.376 65.7868 211.7 65.6649C212.023 65.5429 212.368 65.4885 212.714 65.5049C213.058 65.4867 213.402 65.5409 213.724 65.6639C214.047 65.7869 214.339 65.976 214.584 66.2191C214.828 66.4622 215.019 66.7538 215.144 67.0752C215.269 67.3966 215.325 67.7405 215.309 68.0849C215.316 68.1974 215.294 68.3549 215.286 68.4749ZM211.499 67.6349H213.951C213.901 67.3465 213.75 67.0851 213.526 66.8967C213.301 66.7084 213.018 66.6052 212.725 66.6052C212.432 66.6052 212.149 66.7084 211.924 66.8967C211.7 67.0851 211.549 67.3465 211.499 67.6349Z" fill="#263238"/>
<path d="M215.797 70.0952L216.277 69.0602C216.802 69.3712 217.4 69.5368 218.009 69.5402C218.677 69.5402 218.924 69.3602 218.924 69.0827C218.924 68.2727 215.924 69.0827 215.924 67.1102C215.924 66.1727 216.779 65.5052 218.227 65.5052C218.893 65.4922 219.552 65.6415 220.147 65.9402L219.667 66.9677C219.228 66.719 218.731 66.5897 218.227 66.5927C217.582 66.5927 217.304 66.7952 217.304 67.0577C217.304 67.9127 220.304 67.0577 220.304 69.0452C220.304 69.9752 219.442 70.6352 217.957 70.6352C217.202 70.6499 216.456 70.4635 215.797 70.0952Z" fill="#263238"/>
<path d="M310.754 95.625C310.893 95.6052 311.031 95.5777 311.167 95.5425C311.363 95.4777 311.544 95.3711 311.695 95.23C311.847 95.0889 311.966 94.9166 312.044 94.725C312.138 94.4348 312.169 94.128 312.134 93.825C312.134 93.48 312.134 93.075 312.134 92.7C312.134 91.89 312.134 90.9525 312.134 89.9025C312.134 88.8525 312.134 87.6525 312.134 86.4C312.134 86.0775 312.134 85.74 312.134 85.425C312.101 85.1063 311.958 84.8091 311.729 84.585C311.49 84.3566 311.175 84.2255 310.844 84.2175H309.742H299.579L240.727 84.2775C240.415 84.2782 240.115 84.3958 239.886 84.6068C239.657 84.8178 239.515 85.1071 239.489 85.4175V93.8625C239.455 94.1746 239.512 94.4899 239.654 94.77C239.8 95.0328 240.038 95.2329 240.322 95.3325C240.466 95.3821 240.619 95.405 240.772 95.4H259.979L286.432 95.445L304.274 95.505H309.119H310.379H310.814H310.379H309.119H304.274L286.432 95.565L259.979 95.61H244.349H240.749C240.556 95.6101 240.363 95.5797 240.179 95.52C239.802 95.3878 239.486 95.1207 239.294 94.77C239.119 94.4306 239.046 94.0476 239.084 93.6675V91.8C239.084 90.3975 239.084 88.9875 239.084 87.57C239.084 86.82 239.084 86.1375 239.084 85.4175C239.121 85.0102 239.308 84.6313 239.609 84.3541C239.91 84.077 240.303 83.9214 240.712 83.9175L299.564 83.9775H309.727H310.829C311.211 83.9767 311.578 84.1213 311.857 84.3818C312.135 84.6424 312.304 84.9993 312.329 85.38C312.329 85.725 312.329 86.04 312.329 86.37C312.329 87.645 312.329 88.815 312.329 89.8725C312.329 90.93 312.329 91.86 312.329 92.67C312.329 93.075 312.329 93.42 312.329 93.795C312.361 94.1101 312.32 94.4283 312.209 94.725C312.126 94.9232 311.999 95.1002 311.838 95.243C311.677 95.3858 311.486 95.4907 311.279 95.55C311.114 95.6202 310.933 95.646 310.754 95.625Z" fill="#E0E0E0"/>
<path d="M243.75 91.3424L243.945 90.9374C244.287 91.2123 244.714 91.3606 245.153 91.3574C245.79 91.3574 246.06 91.1099 246.06 90.7949C246.06 89.8949 243.81 90.4649 243.81 89.0999C243.81 88.5299 244.245 88.0499 245.213 88.0499C245.627 88.0468 246.035 88.1584 246.39 88.3724L246.218 88.7924C245.927 88.6099 245.593 88.5088 245.25 88.4999C244.628 88.4999 244.358 88.7624 244.358 89.0774C244.358 89.9774 246.608 89.4149 246.608 90.7574C246.608 91.3199 246.158 91.8074 245.19 91.8074C244.67 91.8291 244.159 91.6641 243.75 91.3424Z" fill="#E0E0E0"/>
<path d="M249.794 90.5399H247.544C247.574 90.7788 247.696 90.9966 247.883 91.1477C248.071 91.2987 248.309 91.3712 248.549 91.3499C248.699 91.3553 248.848 91.3286 248.986 91.2717C249.125 91.2148 249.249 91.1289 249.352 91.0199L249.629 91.3424C249.427 91.5589 249.165 91.7106 248.877 91.7785C248.589 91.8464 248.287 91.8274 248.009 91.7239C247.732 91.6204 247.491 91.4371 247.317 91.197C247.144 90.957 247.045 90.6709 247.034 90.3749C247.027 90.1888 247.058 90.0031 247.125 89.8293C247.193 89.6556 247.295 89.4974 247.425 89.3646C247.556 89.2318 247.712 89.1272 247.885 89.0572C248.058 88.9871 248.243 88.9532 248.429 88.9574C248.616 88.9528 248.801 88.9872 248.974 89.0584C249.147 89.1296 249.303 89.2359 249.432 89.3708C249.561 89.5056 249.66 89.6658 249.724 89.8413C249.788 90.0168 249.814 90.2037 249.802 90.3899C249.803 90.44 249.8 90.4902 249.794 90.5399ZM247.544 90.1799H249.322C249.303 89.9585 249.2 89.7527 249.034 89.6049C248.868 89.4571 248.651 89.3784 248.429 89.3849C248.207 89.3766 247.991 89.4549 247.826 89.6033C247.661 89.7517 247.56 89.9584 247.544 90.1799Z" fill="#E0E0E0"/>
<path d="M252.622 90.0827V91.7627H252.15V91.3952C252.043 91.5332 251.903 91.642 251.743 91.7115C251.583 91.7809 251.408 91.8089 251.235 91.7927C250.605 91.7927 250.207 91.4552 250.207 90.9752C250.207 90.4952 250.5 90.1652 251.325 90.1652H252.12V90.0677C252.12 89.6402 251.872 89.3927 251.37 89.3927C251.051 89.3872 250.741 89.4933 250.492 89.6927L250.282 89.3177C250.613 89.0713 251.017 88.9444 251.43 88.9577C251.586 88.9328 251.746 88.9441 251.897 88.9908C252.049 89.0375 252.187 89.1183 252.302 89.227C252.418 89.3356 252.506 89.4693 252.562 89.6177C252.617 89.766 252.638 89.9251 252.622 90.0827ZM252.12 90.9152V90.5252H251.37C250.875 90.5252 250.732 90.7202 250.732 90.9527C250.732 91.1852 250.957 91.4027 251.34 91.4027C251.504 91.4112 251.667 91.369 251.806 91.2818C251.946 91.1946 252.055 91.0666 252.12 90.9152Z" fill="#E0E0E0"/>
<path d="M255.053 88.9578V89.4453H254.941C254.818 89.4376 254.695 89.4571 254.581 89.5024C254.467 89.5477 254.365 89.6177 254.281 89.7073C254.197 89.7968 254.134 89.9039 254.096 90.0206C254.059 90.1374 254.047 90.2611 254.063 90.3828V91.7703H253.561V88.9953H254.041V89.4603C254.145 89.2893 254.295 89.1513 254.474 89.0624C254.653 88.9734 254.854 88.9372 255.053 88.9578Z" fill="#E0E0E0"/>
<path d="M255.389 90.3752C255.384 90.1806 255.42 89.9872 255.495 89.8075C255.57 89.6278 255.682 89.4659 255.823 89.3322C255.965 89.1985 256.133 89.0961 256.316 89.0315C256.5 88.967 256.695 88.9419 256.889 88.9577C257.114 88.9432 257.339 88.9908 257.538 89.0953C257.738 89.1998 257.905 89.3572 258.022 89.5502L257.639 89.7977C257.559 89.6724 257.448 89.57 257.316 89.5003C257.185 89.4307 257.038 89.3962 256.889 89.4002C256.631 89.4002 256.383 89.503 256.2 89.6858C256.017 89.8687 255.914 90.1166 255.914 90.3752C255.914 90.6338 256.017 90.8818 256.2 91.0647C256.383 91.2475 256.631 91.3502 256.889 91.3502C257.038 91.3558 257.186 91.3219 257.317 91.2521C257.449 91.1824 257.56 91.0791 257.639 90.9527L258.022 91.1927C257.906 91.3872 257.739 91.546 257.54 91.6519C257.34 91.7577 257.115 91.8065 256.889 91.7927C256.695 91.8086 256.5 91.7834 256.316 91.7189C256.133 91.6544 255.965 91.552 255.823 91.4183C255.682 91.2846 255.57 91.1226 255.495 90.9429C255.42 90.7632 255.384 90.5698 255.389 90.3752Z" fill="#E0E0E0"/>
<path d="M261.24 90.1651V91.7626H260.737V90.2176C260.737 89.6776 260.46 89.4076 259.987 89.4076C259.865 89.3992 259.743 89.4176 259.63 89.4615C259.516 89.5054 259.413 89.5738 259.329 89.6618C259.244 89.7498 259.18 89.8553 259.141 89.9708C259.102 90.0862 259.089 90.2089 259.102 90.3301V91.7626H258.6V87.8701H259.102V89.3701C259.222 89.229 259.374 89.1176 259.544 89.0447C259.715 88.9719 259.9 88.9395 260.085 88.9501C260.245 88.9376 260.406 88.961 260.555 89.0186C260.705 89.0761 260.841 89.1664 260.951 89.2827C261.062 89.3991 261.145 89.5387 261.195 89.6914C261.245 89.844 261.26 90.0059 261.24 90.1651Z" fill="#E0E0E0"/>
<path d="M261.938 91.4324C261.939 91.363 261.961 91.2956 262.001 91.2387C262.04 91.1817 262.096 91.1377 262.16 91.1121C262.225 91.0866 262.295 91.0807 262.363 91.0951C262.431 91.1096 262.493 91.1437 262.542 91.1933C262.59 91.2429 262.623 91.3057 262.636 91.3739C262.649 91.442 262.642 91.5125 262.615 91.5765C262.588 91.6405 262.543 91.6951 262.485 91.7335C262.427 91.7719 262.359 91.7924 262.29 91.7924C262.243 91.7924 262.197 91.7831 262.153 91.7649C262.11 91.7467 262.071 91.7201 262.038 91.6865C262.005 91.653 261.979 91.6132 261.962 91.5696C261.945 91.526 261.937 91.4793 261.938 91.4324Z" fill="#E0E0E0"/>
<path d="M263.123 91.4324C263.122 91.3848 263.131 91.3375 263.148 91.2934C263.166 91.2492 263.193 91.2091 263.226 91.1755C263.26 91.1419 263.3 91.1154 263.344 91.0977C263.388 91.0799 263.436 91.0713 263.483 91.0723C263.583 91.0723 263.678 91.1119 263.748 91.1822C263.819 91.2525 263.858 91.3479 263.858 91.4473C263.858 91.5468 263.819 91.6422 263.748 91.7125C263.678 91.7828 263.583 91.8224 263.483 91.8224C263.433 91.8237 263.383 91.8143 263.337 91.7948C263.29 91.7752 263.249 91.746 263.215 91.7091C263.18 91.6721 263.155 91.6283 263.139 91.5806C263.123 91.5329 263.118 91.4823 263.123 91.4324Z" fill="#E0E0E0"/>
<path d="M264.315 91.4324C264.313 91.3848 264.322 91.3375 264.34 91.2934C264.358 91.2492 264.384 91.2091 264.418 91.1755C264.451 91.1419 264.491 91.1154 264.536 91.0977C264.58 91.0799 264.627 91.0713 264.675 91.0723C264.774 91.0723 264.869 91.1119 264.94 91.1822C265.01 91.2525 265.05 91.3479 265.05 91.4473C265.05 91.5468 265.01 91.6422 264.94 91.7125C264.869 91.7828 264.774 91.8224 264.675 91.8224C264.624 91.8237 264.574 91.8143 264.528 91.7948C264.482 91.7752 264.44 91.746 264.406 91.7091C264.372 91.6721 264.346 91.6283 264.33 91.5806C264.315 91.5329 264.309 91.4823 264.315 91.4324Z" fill="#E0E0E0"/>
<path d="M112.095 165.293C112.016 165.137 111.946 164.977 111.885 164.813C111.758 164.498 111.563 164.063 111.345 163.418C110.895 162.203 110.295 160.418 109.673 158.168C107.97 152.328 107.288 146.239 107.655 140.168C107.912 136.843 108.598 133.566 109.695 130.418C110.593 127.838 111.81 125.382 113.318 123.105C114.332 121.572 115.498 120.145 116.798 118.845C117.24 118.373 117.638 118.058 117.893 117.825C118.016 117.701 118.151 117.59 118.298 117.495C118.194 117.637 118.076 117.768 117.945 117.885C117.713 118.133 117.33 118.463 116.903 118.95C115.656 120.282 114.534 121.726 113.55 123.263C112.088 125.536 110.907 127.979 110.033 130.538C108.964 133.678 108.296 136.942 108.045 140.25C107.692 146.271 108.331 152.309 109.935 158.123C110.528 160.373 111.09 162.143 111.495 163.373C111.683 163.958 111.84 164.43 111.96 164.79C112.021 164.953 112.067 165.121 112.095 165.293Z" fill="#263238"/>
<path d="M227.639 114.3V153.547H275.346V114.3C275.346 113.403 274.99 112.543 274.355 111.908C273.721 111.274 272.861 110.917 271.964 110.917H230.999C230.105 110.921 229.249 111.28 228.619 111.914C227.989 112.548 227.637 113.406 227.639 114.3Z" fill="#3BADD4"/>
<g opacity="0.3">
<path opacity="0.3" d="M227.639 114.3V153.547H275.346V114.3C275.346 113.403 274.99 112.543 274.355 111.908C273.721 111.274 272.861 110.917 271.964 110.917H230.999C230.105 110.921 229.249 111.28 228.619 111.914C227.989 112.548 227.637 113.406 227.639 114.3Z" fill="black"/>
</g>
<path d="M229.875 132.232L230.19 117.817H271.942V126.045" fill="#F5F5F5"/>
<path d="M271.942 126.045C271.931 125.858 271.931 125.67 271.942 125.482C271.942 125.085 271.942 124.545 271.942 123.862C271.942 122.415 271.905 120.367 271.882 117.825L272.01 117.952L248.01 118.02L230.227 117.982L230.392 117.825C230.272 122.145 230.167 125.737 230.092 128.325C230.047 129.555 230.01 130.53 229.987 131.242C229.987 131.557 229.987 131.805 229.942 131.992C229.955 132.08 229.955 132.168 229.942 132.255C229.931 132.168 229.931 132.08 229.942 131.992C229.942 131.79 229.942 131.535 229.942 131.242C229.942 130.53 229.942 129.555 229.942 128.325C229.98 125.767 230.04 122.175 230.107 117.825V117.667H230.265H248.047L272.047 117.735H272.182V117.87C272.182 120.412 272.137 122.46 272.13 123.907C272.13 124.59 272.13 125.13 272.092 125.527C272.056 125.704 272.006 125.877 271.942 126.045Z" fill="#263238"/>
<path d="M269.392 113.925H232.912V117.818H269.392V113.925Z" fill="#F5F5F5"/>
<path d="M232.913 113.925H233.085H233.61H235.68L243.39 113.865L269.385 113.783H269.58V117.87L269.378 118.073H257.753H247.455L232.913 117.998H232.83V117.923C232.83 116.663 232.845 115.688 232.875 114.998C232.875 114.69 232.875 114.45 232.875 114.248C232.862 114.168 232.862 114.087 232.875 114.008C232.875 114.008 232.875 114.105 232.875 114.278C232.875 114.45 232.875 114.72 232.875 115.028C232.875 115.71 232.875 116.67 232.928 117.908L232.845 117.818L247.388 117.743H257.685H269.31C269.228 117.833 269.513 117.555 269.123 117.938V113.925L269.318 114.12L243.465 114.038L235.778 114H233.663H233.108L232.913 113.925Z" fill="#263238"/>
<path d="M273.63 163.373C273.63 163.485 264.517 163.568 253.275 163.568C242.032 163.568 232.912 163.485 232.912 163.373C232.912 163.26 242.025 163.178 253.275 163.178C264.525 163.178 273.63 163.268 273.63 163.373Z" fill="#263238"/>
<path d="M223.965 125.145L227.64 153.548H275.348V126.045H253.68L249.48 122.348H226.425C226.073 122.348 225.725 122.423 225.404 122.569C225.083 122.714 224.796 122.926 224.564 123.191C224.331 123.455 224.157 123.767 224.054 124.104C223.951 124.441 223.921 124.796 223.965 125.145Z" fill="#3BADD4"/>
<path d="M262.215 137.168C262.215 137.273 256.965 137.363 250.545 137.363C244.125 137.363 238.883 137.273 238.883 137.168C238.883 137.063 244.133 136.973 250.545 136.973C256.958 136.973 262.215 137.063 262.215 137.168Z" fill="#263238"/>
<path d="M262.215 139.965C262.215 140.07 256.965 140.16 250.545 140.16C244.125 140.16 238.883 140.07 238.883 139.965C238.883 139.86 244.133 139.77 250.545 139.77C256.958 139.77 262.215 139.853 262.215 139.965Z" fill="#263238"/>
<path d="M119.504 199.552V238.807H167.249V199.552C167.249 198.655 166.893 197.795 166.258 197.161C165.624 196.526 164.764 196.17 163.866 196.17H122.886C121.989 196.17 121.129 196.526 120.495 197.161C119.86 197.795 119.504 198.655 119.504 199.552Z" fill="#3BADD4"/>
<g opacity="0.3">
<path opacity="0.3" d="M119.504 199.552V238.807H167.249V199.552C167.249 198.655 166.893 197.795 166.258 197.161C165.624 196.526 164.764 196.17 163.866 196.17H122.886C121.989 196.17 121.129 196.526 120.495 197.161C119.86 197.795 119.504 198.655 119.504 199.552Z" fill="black"/>
</g>
<path d="M121.74 217.493L122.063 203.078H163.808V211.305" fill="#F5F5F5"/>
<path d="M163.806 211.305C163.793 211.118 163.793 210.93 163.806 210.742C163.806 210.337 163.806 209.805 163.769 209.122C163.769 207.675 163.769 205.627 163.709 203.077L163.836 203.212L139.836 203.272H122.061L122.219 203.115C122.099 207.435 121.994 211.027 121.919 213.615C121.874 214.845 121.836 215.82 121.814 216.532C121.814 216.84 121.814 217.095 121.814 217.282C121.814 217.47 121.814 217.545 121.776 217.545C121.765 217.458 121.765 217.37 121.776 217.282C121.776 217.08 121.776 216.825 121.776 216.532C121.776 215.827 121.776 214.845 121.776 213.615C121.821 211.065 121.874 207.472 121.941 203.115V202.957H122.106L139.881 202.92L163.881 202.987H164.016V203.115C164.016 205.665 163.971 207.712 163.956 209.16C163.956 209.842 163.956 210.375 163.956 210.78C163.925 210.96 163.875 211.136 163.806 211.305Z" fill="#263238"/>
<path d="M161.257 199.185H124.777V203.078H161.257V199.185Z" fill="#F5F5F5"/>
<path d="M124.778 199.185C124.778 199.185 124.83 199.185 124.95 199.185H125.475H127.545L135.255 199.125L161.258 199.042H161.453V203.13C161.063 203.527 161.333 203.242 161.243 203.325H149.618H139.328L124.778 203.242H124.695V203.16C124.695 201.907 124.733 200.91 124.74 200.242C124.74 199.935 124.74 199.695 124.74 199.492C124.733 199.413 124.733 199.332 124.74 199.252C124.746 199.342 124.746 199.433 124.74 199.522C124.74 199.71 124.74 199.957 124.74 200.272C124.74 200.955 124.74 201.915 124.785 203.145L124.703 203.062L139.253 202.987H149.543H161.25C161.168 203.077 161.46 202.8 161.07 203.182V199.29L161.265 199.485L135.405 199.402L127.65 199.342H125.535H124.98L124.778 199.185Z" fill="#263238"/>
<path d="M165.502 248.633C165.502 248.738 156.382 248.828 145.14 248.828C133.897 248.828 124.777 248.738 124.777 248.633C124.777 248.528 133.89 248.438 145.14 248.438C156.39 248.438 165.502 248.528 165.502 248.633Z" fill="#263238"/>
<path d="M115.829 210.405L119.504 238.807H167.249V211.305H145.544L141.344 207.607H118.296C117.943 207.607 117.594 207.681 117.272 207.826C116.95 207.971 116.663 208.183 116.429 208.448C116.196 208.713 116.021 209.024 115.918 209.362C115.814 209.699 115.784 210.055 115.829 210.405Z" fill="#3BADD4"/>
<path d="M154.088 222.427C154.088 222.532 148.838 222.622 142.418 222.622C135.998 222.622 130.748 222.532 130.748 222.427C130.748 222.322 135.998 222.232 142.418 222.232C148.838 222.232 154.088 222.322 154.088 222.427Z" fill="#263238"/>
<path d="M154.088 225.217C154.088 225.33 148.838 225.42 142.418 225.42C135.998 225.42 130.748 225.33 130.748 225.217C130.748 225.105 135.998 225.022 142.418 225.022C148.838 225.022 154.088 225.112 154.088 225.217Z" fill="#263238"/>
<path d="M233.564 199.583V238.83H281.249V199.583C281.249 198.686 280.893 197.825 280.259 197.191C279.624 196.557 278.764 196.2 277.867 196.2H236.917C236.025 196.208 235.172 196.568 234.545 197.201C233.917 197.835 233.564 198.691 233.564 199.583Z" fill="#3BADD4"/>
<g opacity="0.3">
<path opacity="0.3" d="M233.564 199.583V238.83H281.249V199.583C281.249 198.686 280.893 197.825 280.259 197.191C279.624 196.557 278.764 196.2 277.867 196.2H236.917C236.025 196.208 235.172 196.568 234.545 197.201C233.917 197.835 233.564 198.691 233.564 199.583Z" fill="black"/>
</g>
<path d="M235.807 217.515L236.122 203.107H277.874V211.327" fill="#F5F5F5"/>
<path d="M277.875 211.327C277.846 211.141 277.834 210.953 277.837 210.765C277.837 210.367 277.837 209.827 277.8 209.145C277.8 207.697 277.8 205.65 277.747 203.107L277.875 203.235L253.875 203.302L236.122 203.25L236.287 203.092C236.16 207.412 236.062 211.005 235.987 213.555C235.942 214.785 235.905 215.767 235.875 216.472C235.875 216.787 235.875 217.035 235.837 217.222C235.845 217.31 235.845 217.398 235.837 217.485C235.828 217.398 235.828 217.31 235.837 217.222C235.837 217.02 235.837 216.765 235.837 216.472C235.837 215.76 235.837 214.785 235.837 213.555C235.875 210.997 235.927 207.405 235.995 203.055V202.897H236.152H253.935L277.935 202.957H278.062V203.092C278.062 205.635 278.017 207.682 278.002 209.13C278.002 209.812 278.002 210.352 278.002 210.75C277.977 210.946 277.934 211.139 277.875 211.327Z" fill="#263238"/>
<path d="M275.318 199.208H238.838V203.1H275.318V199.208Z" fill="#F5F5F5"/>
<path d="M238.836 199.207H239.009H239.541H241.611L249.321 199.147L275.316 199.065H275.511V203.152C275.121 203.55 275.399 203.265 275.309 203.355H263.684H253.386L238.836 203.28H238.754V203.197C238.754 201.937 238.791 200.947 238.806 200.272C238.806 199.965 238.806 199.725 238.806 199.522C238.806 199.32 238.806 199.282 238.806 199.282C238.815 199.372 238.815 199.463 238.806 199.552C238.806 199.747 238.806 199.995 238.806 200.302C238.806 200.982 238.821 201.942 238.851 203.182L238.769 203.1L253.319 203.017H263.616H275.241C275.159 203.1 275.444 202.822 275.054 203.205V199.312L275.249 199.507L249.396 199.425L241.634 199.365H239.526H238.971L238.836 199.207Z" fill="#263238"/>
<path d="M279.563 248.655C279.563 248.767 270.443 248.85 259.2 248.85C247.958 248.85 238.838 248.767 238.838 248.655C238.838 248.542 247.958 248.46 259.2 248.46C270.443 248.46 279.563 248.55 279.563 248.655Z" fill="#263238"/>
<path d="M229.898 210.427L233.566 238.83H281.251V211.327H259.613L255.406 207.63H232.358C232.005 207.629 231.656 207.704 231.335 207.849C231.013 207.994 230.726 208.206 230.493 208.471C230.26 208.735 230.087 209.047 229.984 209.385C229.881 209.722 229.852 210.078 229.898 210.427Z" fill="#3BADD4"/>
<path d="M268.147 222.45C268.147 222.562 262.897 222.645 256.477 222.645C250.057 222.645 244.807 222.562 244.807 222.45C244.807 222.337 250.057 222.255 256.477 222.255C262.897 222.255 268.147 222.345 268.147 222.45Z" fill="#263238"/>
<path d="M268.147 225.248C268.147 225.353 262.897 225.443 256.477 225.443C250.057 225.443 244.807 225.353 244.807 225.248C244.807 225.143 250.057 225.053 256.477 225.053C262.897 225.053 268.147 225.135 268.147 225.248Z" fill="#263238"/>
<path d="M104.655 136.59C104.623 136.324 104.623 136.054 104.655 135.788C104.663 135.053 104.71 134.32 104.797 133.59C105.086 131.182 105.681 128.82 106.567 126.563C107.46 124.304 108.642 122.171 110.085 120.218C110.517 119.626 110.98 119.058 111.472 118.515C111.639 118.303 111.834 118.114 112.05 117.953C112.102 117.998 111.352 118.86 110.302 120.383C107.569 124.341 105.773 128.871 105.052 133.628C104.775 135.45 104.73 136.598 104.655 136.59Z" fill="#263238"/>
<path d="M107.047 133.665C107.092 133.702 106.867 134.055 106.477 134.602L105.765 135.562C105.622 135.742 105.487 135.93 105.337 136.11L105.112 136.402L104.992 136.552L104.932 136.627V136.665H104.625C104.012 135.997 103.547 135.207 103.26 134.347C103.101 134.006 103.036 133.628 103.072 133.252C103.514 134.393 104.134 135.456 104.91 136.402H104.625V136.365L104.685 136.29L104.805 136.14L105.037 135.855L105.487 135.315L106.237 134.407C106.71 133.927 107.01 133.635 107.047 133.665Z" fill="#263238"/>
<path d="M263.633 168.683C263.633 168.788 257.91 168.878 250.883 168.878C243.855 168.878 238.133 168.788 238.133 168.683C238.133 168.578 243.848 168.488 250.883 168.488C257.918 168.488 263.633 168.578 263.633 168.683Z" fill="#E0E0E0"/>
<path d="M270.188 253.17C270.188 253.275 264.473 253.365 257.438 253.365C250.403 253.365 244.688 253.275 244.688 253.17C244.688 253.065 250.403 252.975 257.438 252.975C264.473 252.975 270.188 253.065 270.188 253.17Z" fill="#E0E0E0"/>
<path d="M150.787 254.528C150.787 254.633 145.072 254.723 138.037 254.723C131.002 254.723 125.287 254.633 125.287 254.528C125.287 254.423 131.002 254.333 138.037 254.333C145.072 254.333 150.787 254.423 150.787 254.528Z" fill="#E0E0E0"/>
<path d="M50.4311 195C49.6811 198.307 45.9311 200.032 43.6211 202.5C41.3111 204.967 37.9061 207 34.6586 206.055C32.5211 205.417 30.9086 203.572 29.9861 201.555C27.8261 196.83 28.8536 191.287 30.4736 186.345C32.0936 181.402 34.2836 176.527 34.3736 171.345L45.2561 174.997L47.9411 171.697C47.9411 171.697 51.0011 192.592 50.4311 195Z" fill="#FFBE9D"/>
<path d="M92.8203 166.867C92.8203 166.867 99.4053 193.23 105.69 197.1C113.648 201.99 118.298 196.17 118.298 196.17L130.748 173.377L122.25 171.255L114 181.68L108.225 165.885L92.8203 166.867Z" fill="#FFBE9D"/>
<path d="M83.2503 276.48C83.2503 277.365 84.3003 290.4 84.3003 290.4C83.0648 294.498 82.3591 298.737 82.2003 303.015C81.9153 315.172 82.0278 341.362 82.0278 341.362H95.0103V339.862C95.0103 339.862 101.85 294.165 101.61 289.687L100.703 272.7L83.2428 276.45" fill="#FFBE9D"/>
<path d="M72.6895 256.23L51.082 259.882C51.082 259.882 53.2645 265.8 53.422 266.377C53.992 268.492 55.237 273.96 54.502 279.082C53.572 285.615 52.747 293.542 53.1595 297.27C53.572 300.997 57.6595 340.282 57.6595 340.282L70.537 340.68L73.6645 268.365L72.6895 256.23Z" fill="#FFBE9D"/>
<path d="M63.661 100.373L63.541 139.283L80.251 140.078L80.731 130.613C80.731 130.613 86.6635 131.79 88.1935 126.285C89.1685 122.768 88.9435 95.5801 88.9435 95.5801L63.661 100.373Z" fill="#FFBE9D"/>
<path d="M91.1099 98.3247C88.4774 99.0747 87.9074 103.372 87.9074 103.372L83.7824 112.5C81.6824 110.85 78.8624 110.947 78.3224 114.637C77.9399 117.307 81.2549 117.847 81.2549 117.847C79.3274 121.132 78.0149 123.787 75.2024 126.915C72.2024 130.297 70.4549 130.665 67.1549 130.665H63.5174C63.5174 130.665 61.7324 124.882 58.4399 110.415C54.7499 94.3947 73.7474 96.4572 77.2499 92.3622C82.9949 85.6947 99.3974 95.9472 91.1099 98.3247Z" fill="#263238"/>
<path d="M58.7842 111.952C55.7092 109.882 55.4318 104.107 57.2243 100.635C58.1463 98.9074 59.5074 97.4536 61.1704 96.4199C62.8335 95.3863 64.7396 94.8094 66.6967 94.7473C67.2204 94.7817 67.7459 94.7233 68.2492 94.5748C68.9368 94.2105 69.5124 93.6661 69.9142 92.9998C72.6592 89.4223 75.3592 85.9123 80.4817 85.9123C81.6119 85.8607 82.7326 86.1396 83.7067 86.7148C84.6107 87.3363 85.2895 88.2334 85.6417 89.2723C86.5834 88.7689 87.5943 88.4075 88.6417 88.1998C89.1663 88.1004 89.7062 88.1159 90.2241 88.2454C90.742 88.3749 91.2257 88.6152 91.6417 88.9498C92.0499 89.2954 92.3217 89.775 92.4083 90.3028C92.4949 90.8306 92.3906 91.3719 92.1142 91.8298C92.9768 91.8183 93.8153 92.1136 94.4802 92.6631C95.1452 93.2126 95.5931 93.9806 95.7442 94.8298C96.0217 96.5398 93.5692 97.7398 93.3142 97.8748C93.3142 97.8748 94.6567 100.687 91.4542 102.375C90.1642 103.057 88.4542 102.24 88.2967 102.142" fill="#263238"/>
<path d="M70.972 115.688C71.2823 117.671 70.8265 119.698 69.697 121.357C69.5845 121.297 70.117 120.105 70.447 118.553C70.777 117 70.8445 115.695 70.972 115.688Z" fill="#455A64"/>
<path d="M72.9901 113.782C73.1309 115.691 72.7743 117.603 71.9551 119.332C72.0227 118.392 72.1784 117.461 72.4201 116.55C72.5234 115.611 72.7142 114.685 72.9901 113.782Z" fill="#455A64"/>
<path d="M78.7505 107.362C78.7505 107.415 78.3155 107.76 77.7155 108.465C76.9491 109.393 76.3432 110.442 75.923 111.57C75.5058 112.709 75.1724 113.877 74.9255 115.065C74.8534 115.581 74.7121 116.086 74.5055 116.565C74.4759 116.062 74.5163 115.557 74.6255 115.065C74.7952 113.836 75.0969 112.629 75.5255 111.465C75.9547 110.288 76.6267 109.215 77.498 108.315C77.8258 107.894 78.2575 107.566 78.7505 107.362Z" fill="#455A64"/>
<path d="M81.113 102.99C81.3056 103.308 81.4164 103.668 81.4355 104.04C81.5566 104.926 81.5082 105.827 81.293 106.695C81.0718 107.563 80.6902 108.382 80.168 109.11C79.7555 109.657 79.418 109.92 79.418 109.86C80.0537 108.832 80.5576 107.728 80.918 106.575C81.383 104.647 81.0005 103.005 81.113 102.99Z" fill="#455A64"/>
<path d="M61.1855 112.702C61.133 112.807 60.6155 112.627 60.0454 112.312C59.4754 111.997 59.0554 111.645 59.1079 111.562C59.1604 111.48 59.6779 111.637 60.2554 111.952C60.8329 112.267 61.2455 112.605 61.1855 112.702Z" fill="#455A64"/>
<path d="M69.2552 108.547C69.3178 109.155 69.1461 109.764 68.7752 110.25C68.2652 111.105 67.5677 111.547 67.5002 111.457C67.4327 111.367 67.9427 110.82 68.4152 110.032C68.8877 109.245 69.1352 108.525 69.2552 108.547Z" fill="#455A64"/>
<path d="M71.7313 107.25C71.7143 107.99 71.4503 108.703 70.9813 109.275C70.3138 110.287 69.4813 110.835 69.4062 110.775C69.7817 110.183 70.1899 109.612 70.6288 109.065C70.9614 108.439 71.3295 107.833 71.7313 107.25Z" fill="#455A64"/>
<path d="M84.0594 90.9225C84.0594 90.9225 83.7444 90.6825 83.1444 90.345C82.2846 89.8766 81.3257 89.6196 80.3469 89.595C78.9018 89.5594 77.4771 89.9423 76.2445 90.6975C74.7556 91.6726 73.5501 93.023 72.7494 94.6125C72.1399 95.767 71.6643 96.9874 71.332 98.25L71.2644 98.49L71.0395 98.3775C69.8815 97.7701 68.5969 97.4438 67.2895 97.425C66.2702 97.3982 65.2544 97.5531 64.2895 97.8825C63.4228 98.2058 62.5931 98.6206 61.8145 99.12C61.9734 98.9279 62.1605 98.761 62.3695 98.625C62.9309 98.2142 63.5468 97.8835 64.1995 97.6425C65.1986 97.2646 66.2588 97.0739 67.3269 97.08C68.6924 97.0742 70.0387 97.4012 71.2494 98.0325L70.957 98.16C71.2907 96.8586 71.7739 95.6002 72.3969 94.41C73.2339 92.7613 74.5012 91.3697 76.0644 90.3825C77.3665 89.6051 78.87 89.2318 80.3844 89.31C81.3996 89.3541 82.3863 89.6589 83.2494 90.195C83.4814 90.3424 83.6975 90.5133 83.8944 90.705C83.9994 90.84 84.0669 90.915 84.0594 90.9225Z" fill="#455A64"/>
<path d="M92.8349 93.0372C92.8349 93.0372 93.2999 92.9172 93.7949 93.4722C93.9366 93.6404 94.0434 93.8351 94.109 94.045C94.1747 94.2549 94.1979 94.4757 94.1774 94.6947C94.1356 94.9854 94.0263 95.2623 93.8583 95.5032C93.6903 95.7442 93.4682 95.9424 93.2099 96.0822C92.5941 96.4268 91.8708 96.5259 91.1849 96.3597C90.4264 96.1665 89.7146 95.8221 89.0924 95.3472C88.4382 94.8397 87.7545 94.3713 87.0449 93.9447C86.273 93.5274 85.4404 93.2338 84.5774 93.0747C82.897 92.7748 81.1686 92.8933 79.5449 93.4197C78.2051 93.8528 76.9401 94.4903 75.7949 95.3097C74.7527 96.0955 73.7514 96.934 72.7949 97.8222C72.9798 97.5231 73.2016 97.2485 73.4549 97.0047C74.1031 96.2947 74.8162 95.6469 75.5849 95.0697C76.7186 94.2004 77.9848 93.5192 79.3349 93.0522C81.0227 92.4752 82.8304 92.3409 84.5849 92.6622C85.4904 92.8284 86.3638 93.1372 87.1724 93.5772C87.8969 94.012 88.591 94.4957 89.2499 95.0247C89.8257 95.4797 90.4859 95.8162 91.1924 96.0147C91.7954 96.1801 92.4388 96.1104 92.9924 95.8197C93.2187 95.7081 93.4163 95.5458 93.5698 95.3455C93.7233 95.1452 93.8285 94.9123 93.8774 94.6647C93.9302 94.3036 93.8453 93.936 93.6397 93.6345C93.4342 93.3331 93.1228 93.1199 92.7674 93.0372H92.8349Z" fill="#455A64"/>
<path d="M49.2226 224.347C49.2226 224.347 48.6076 240.39 49.2226 245.265C49.8376 250.14 48.9526 279.615 48.9526 279.615C48.9526 279.615 71.58 286.2 77.6775 278.392C77.6775 278.392 75.21 242.58 74.9625 241.605C74.715 240.63 72.7125 216.225 72.7125 216.225L49.2226 224.347Z" fill="#263238"/>
<path d="M100.837 216.225C102.165 220.372 104.985 235.995 104.985 235.995V277.395C104.985 277.395 85.38 284.482 77.565 280.972L72.75 239.407V217.867L88.875 211.59L100.837 216.225Z" fill="#263238"/>
<path d="M88.388 244.995C88.0867 245.033 87.7819 245.033 87.4805 244.995C86.8955 244.995 86.048 244.897 84.998 244.815L76.8455 244.065L68.6855 243.315L66.2105 243.09C65.9072 243.075 65.6059 243.033 65.3105 242.962C65.6145 242.927 65.9216 242.927 66.2255 242.962C66.8105 242.962 67.658 243.015 68.708 243.075C70.8005 243.195 73.688 243.412 76.8755 243.712C80.063 244.012 82.943 244.327 85.028 244.56L87.4956 244.86C87.7966 244.877 88.0953 244.923 88.388 244.995Z" fill="#455A64"/>
<path d="M73.7028 243.69C73.8003 243.69 74.7528 252.015 75.8178 262.312C76.8828 272.61 77.6703 280.965 77.5653 280.972C77.4603 280.98 76.5228 272.647 75.4503 262.35C74.3778 252.052 73.5978 243.697 73.7028 243.69Z" fill="#455A64"/>
<path d="M73.9885 243.465C73.3031 244.229 72.5332 244.914 71.6935 245.505C70.9252 246.19 70.0765 246.779 69.166 247.26C69.8531 246.506 70.6229 245.831 71.461 245.25C72.2276 244.554 73.0764 243.955 73.9885 243.465Z" fill="#455A64"/>
<path d="M104.4 233.287C103.845 233.081 103.32 232.801 102.84 232.455C101.635 231.681 100.51 230.789 99.4802 229.792C98.4668 228.785 97.5526 227.682 96.7502 226.5C96.3883 226.029 96.0907 225.512 95.8652 224.962C96.2636 225.395 96.6295 225.856 96.9602 226.342C97.8129 227.461 98.7454 228.516 99.7502 229.5C100.77 230.475 101.855 231.38 102.998 232.207C103.492 232.532 103.961 232.893 104.4 233.287Z" fill="#455A64"/>
<path d="M72.9527 239.737C72.9527 239.737 72.8102 239.565 72.6152 239.205C72.4202 238.845 72.1727 238.327 71.8652 237.66C71.1402 235.921 70.6095 234.107 70.2827 232.252C69.9587 230.396 69.8455 228.509 69.9452 226.627C69.9692 226.057 70.0243 225.489 70.1102 224.925C70.1248 224.715 70.1677 224.508 70.2377 224.31C70.2977 224.31 70.2377 225.202 70.2002 226.635C70.1837 228.497 70.3343 230.357 70.6502 232.192C70.9755 234.024 71.4624 235.824 72.1052 237.57C72.6302 238.905 73.0052 239.715 72.9527 239.737Z" fill="#455A64"/>
<path d="M96.796 182.325C96.601 181.732 94.4185 169.245 94.4185 169.245L110.476 168.847C110.476 168.847 103.426 141.307 99.586 139.275C93.631 136.125 80.5435 135.742 80.5435 135.742H63.691C63.691 135.742 45.061 140.895 41.686 146.445L29.791 169.312L45.256 174.99L47.941 171.69L50.611 195C50.611 195 49.021 216 49.021 219.18C49.021 222.36 49.2235 224.332 49.2235 224.332C49.2235 224.332 84.2485 214.822 92.776 217.582C101.304 220.342 102.571 222.952 102.571 222.952C102.571 222.952 103.321 213.607 101.356 210.037L96.796 182.325Z" fill="#455A64"/>
<path d="M48.316 174.99C48.256 174.99 48.0985 173.88 47.7385 172.095C47.2701 169.771 46.6462 167.481 45.871 165.24C45.0818 163.005 44.155 160.821 43.096 158.7C42.7135 157.95 42.391 157.297 42.121 156.772C41.9812 156.537 41.8704 156.285 41.791 156.022C41.9694 156.221 42.1231 156.44 42.2485 156.675C42.5185 157.102 42.8935 157.747 43.3285 158.55C44.4605 160.651 45.426 162.838 46.216 165.09C47.009 167.355 47.6062 169.683 48.001 172.05C48.151 172.95 48.2485 173.685 48.286 174.195C48.3242 174.458 48.3342 174.725 48.316 174.99Z" fill="#263238"/>
<path d="M81.4267 183.75C81.4179 183.872 81.3874 183.991 81.3367 184.103C81.2542 184.365 81.1417 184.68 81.0142 185.07C80.8867 185.46 80.6917 186 80.4517 186.57C80.2117 187.14 79.9717 187.83 79.6342 188.558C79.0117 190.02 78.1867 191.722 77.1817 193.567C76.0775 195.564 74.8735 197.504 73.5742 199.38C72.1792 201.36 70.7317 203.167 69.3592 204.757C67.9867 206.347 66.6442 207.69 65.4892 208.777C64.9192 209.34 64.3717 209.805 63.9067 210.225C63.4417 210.645 63.0142 210.975 62.6692 211.275L61.8667 211.905C61.6867 212.047 61.5817 212.122 61.5742 212.107C61.6446 212.012 61.7279 211.926 61.8217 211.852L62.5717 211.162C62.9017 210.87 63.3217 210.51 63.7567 210.075C64.1917 209.64 64.7467 209.16 65.3017 208.575C66.4342 207.472 67.7242 206.1 69.0967 204.517C70.4692 202.935 71.8792 201.128 73.2667 199.155C74.6542 197.183 75.8542 195.21 76.8817 193.388C77.9092 191.565 78.7417 189.877 79.3942 188.437C79.7392 187.725 80.0017 187.057 80.2567 186.48C80.5117 185.902 80.7142 185.4 80.8717 184.98L81.2617 184.035C81.3082 183.935 81.3634 183.84 81.4267 183.75Z" fill="#263238"/>
<path d="M94.5533 150.127C94.6208 150.127 94.3658 151.23 94.1783 153.022C93.9689 155.361 93.8988 157.71 93.9683 160.057C94.0358 162.81 94.2083 165.307 94.3583 167.1C94.4258 167.94 94.4858 168.652 94.5308 169.23C94.5671 169.491 94.5671 169.756 94.5308 170.017C94.4461 169.774 94.3883 169.523 94.3583 169.267C94.2758 168.765 94.1783 168.037 94.0658 167.137C93.8558 165.345 93.6383 162.847 93.5783 160.08C93.499 157.718 93.6043 155.353 93.8933 153.007C94.0358 152.107 94.1558 151.387 94.2908 150.9C94.3427 150.632 94.431 150.372 94.5533 150.127Z" fill="#263238"/>
<g opacity="0.3">
<path opacity="0.3" d="M43.9434 160.62C43.9434 160.62 44.9484 170.205 45.2559 174.99L47.9409 171.69C47.9409 171.69 45.3084 161.82 43.9434 160.62Z" fill="black"/>
</g>
<g opacity="0.3">
<path opacity="0.3" d="M68.686 194.475C66.7688 197.554 65.1705 200.821 63.916 204.225C69.3285 199.809 73.5901 194.147 76.336 187.725C73.111 189 70.501 191.55 68.686 194.475Z" fill="black"/>
</g>
<path d="M33.3078 214.043C33.131 214.089 32.9462 214.097 32.7662 214.065C32.5861 214.033 32.4151 213.963 32.2648 213.859C32.1144 213.755 31.9884 213.62 31.8953 213.462C31.8022 213.305 31.7442 213.129 31.7253 212.948L28.3803 181.26C28.2793 180.33 28.5151 179.395 29.045 178.624C29.5748 177.854 30.3635 177.299 31.2678 177.06L48.0003 172.56L50.7903 196.958L49.5453 209.805L33.3078 214.043Z" fill="#3BADD4"/>
<g opacity="0.3">
<path opacity="0.3" d="M49.5455 209.805C48.5105 207.795 48.9155 205.425 49.148 203.175C50.2505 192.81 45.7505 182.738 48.0005 172.56C48.0005 172.56 50.2505 191.955 50.7905 196.958L49.5455 209.805Z" fill="black"/>
</g>
<path d="M48.1726 175.417C48.0158 175.488 47.8525 175.543 47.6851 175.582L46.2676 175.987L41.0176 177.39L37.4026 178.335L35.3851 178.86C34.6778 178.987 33.9993 179.241 33.3826 179.61C32.7556 180.02 32.2237 180.56 31.8226 181.192C31.3935 181.84 31.1833 182.607 31.2226 183.382C31.3126 185.022 31.4076 186.717 31.5076 188.467C31.8676 195.412 32.1976 201.697 32.4451 206.31C32.5426 208.56 32.6251 210.39 32.6776 211.717C32.6776 212.325 32.6776 212.812 32.7226 213.217C32.7406 213.39 32.7406 213.563 32.7226 213.735C32.6807 213.568 32.658 213.397 32.6551 213.225C32.6551 212.85 32.5876 212.362 32.5351 211.725C32.4451 210.405 32.3251 208.567 32.1751 206.325C31.9051 201.712 31.5301 195.427 31.1251 188.482C31.0301 186.737 30.9376 185.042 30.8476 183.397C30.8104 182.547 31.0441 181.707 31.5151 180.997C31.944 180.316 32.5176 179.737 33.1951 179.302C33.5229 179.094 33.8757 178.928 34.2451 178.807C34.6126 178.68 34.9576 178.612 35.3101 178.522L37.3276 178.012L40.9576 177.112L46.2076 175.83L47.6401 175.5C47.8144 175.455 47.9928 175.427 48.1726 175.417Z" fill="#263238"/>
<path d="M49.8967 188.527C49.3762 188.798 48.8247 189.005 48.2542 189.142C47.2267 189.472 45.7867 189.892 44.1892 190.282C42.5917 190.672 41.1292 190.995 40.0642 191.19C39.4952 191.334 38.9111 191.409 38.3242 191.415C38.8647 191.19 39.428 191.024 40.0042 190.92L44.0917 189.9L48.1792 188.88C48.7372 188.7 49.3131 188.582 49.8967 188.527Z" fill="#263238"/>
<path d="M50.1754 191.287C49.0865 191.854 47.9223 192.263 46.7179 192.502C45.5418 192.868 44.3193 193.062 43.0879 193.08C44.243 192.684 45.4231 192.366 46.6204 192.127C47.7842 191.764 48.9721 191.483 50.1754 191.287Z" fill="#263238"/>
<path d="M117 191.91C116.755 190.152 116.371 188.417 115.853 186.72C114.893 183.945 113.783 181.8 113.91 181.74C114.238 182.153 114.51 182.606 114.72 183.09C115.31 184.217 115.812 185.388 116.22 186.592C116.638 187.805 116.907 189.065 117.023 190.342C117.103 190.862 117.096 191.392 117 191.91Z" fill="#EB996E"/>
<path d="M122.25 171.255C122.25 171.255 120.622 161.19 121.5 159.6L128.115 151.35C128.115 151.35 129.247 152.902 128.775 154.29C128.261 155.469 127.606 156.582 126.825 157.605C126.825 157.605 130.575 157.507 131.67 158.857C132.098 159.709 132.341 160.642 132.382 161.595C132.411 162.015 132.273 162.429 132 162.75L131.055 163.912C132.892 171.69 130.56 173.557 130.56 173.557L122.25 171.255Z" fill="#FFBE9D"/>
<path d="M129.75 157.92C129.75 157.965 129.57 158.137 129.262 158.43C128.857 158.773 128.538 159.207 128.332 159.697C128.135 160.207 127.987 160.734 127.89 161.272C127.8 161.685 127.845 161.925 127.792 161.947C127.74 161.97 127.597 161.7 127.612 161.242C127.636 160.664 127.755 160.094 127.965 159.555C128.191 159.001 128.584 158.532 129.09 158.212C129.427 157.965 129.69 157.875 129.75 157.92Z" fill="#EB996E"/>
<path d="M121.23 161.445C121.23 161.167 120.997 161.445 120.75 161.535C120.461 161.759 120.238 162.057 120.105 162.397C119.732 163.526 119.704 164.74 120.022 165.885C120.352 167.43 121.282 168.315 122.07 169.687" fill="#FFBE9D"/>
<path d="M127.058 157.5C127.156 157.597 126.383 158.25 125.723 159.27C125.45 159.691 125.264 160.163 125.176 160.657C125.116 161.04 125.138 161.287 125.086 161.302C125.033 161.317 124.906 161.07 124.898 160.635C124.913 160.074 125.084 159.528 125.393 159.06C125.691 158.601 126.06 158.193 126.488 157.852C126.803 157.613 127.021 157.5 127.058 157.5Z" fill="#EB996E"/>
<path d="M122.07 168.142C121.905 167.762 121.794 167.361 121.74 166.95C121.583 166.2 121.373 165.172 121.223 164.017C120.96 162.618 120.995 161.179 121.328 159.795C121.433 159.795 121.29 161.677 121.613 163.965C121.935 166.252 122.205 168.127 122.07 168.142Z" fill="#EB996E"/>
<path d="M131.669 159.045C131.722 159.045 131.932 159.427 132.142 160.132C132.267 160.543 132.362 160.961 132.427 161.385C132.535 161.933 132.472 162.501 132.247 163.012C132.122 163.287 131.929 163.525 131.684 163.702C131.565 163.789 131.434 163.857 131.294 163.905C131.203 163.925 131.108 163.925 131.017 163.905C130.962 163.892 130.911 163.868 130.865 163.835C130.82 163.801 130.783 163.759 130.754 163.71C130.594 163.297 130.483 162.867 130.424 162.427C130.325 162.039 130.325 161.631 130.424 161.242C130.549 161.611 130.64 161.99 130.694 162.375C130.788 162.769 130.914 163.155 131.069 163.53C131.069 163.53 131.069 163.53 131.182 163.53C131.282 163.496 131.376 163.446 131.459 163.38C131.647 163.234 131.794 163.043 131.887 162.825C132.086 162.383 132.149 161.892 132.067 161.415C132.014 160.95 131.939 160.53 131.872 160.177C131.765 159.808 131.697 159.428 131.669 159.045Z" fill="#EB996E"/>
<path d="M81.9746 340.14V355.027L111.84 354.577C111.622 351.577 95.3021 345.84 95.3021 345.84L95.6321 340.14H81.9746Z" fill="#3BADD4"/>
<g opacity="0.6">
<path opacity="0.6" d="M86.8361 344.497C86.5399 344.604 86.2929 344.816 86.1411 345.092C85.9893 345.368 85.9431 345.69 86.0111 345.997C86.0826 346.295 86.2676 346.554 86.5267 346.718C86.7858 346.881 87.0986 346.938 87.3986 346.875C87.7091 346.759 87.9674 346.536 88.126 346.245C88.2845 345.954 88.3325 345.616 88.2611 345.292C88.2105 345.141 88.1303 345.002 88.0253 344.882C87.9203 344.762 87.7925 344.665 87.6494 344.595C87.5063 344.525 87.3508 344.485 87.1918 344.476C87.0329 344.467 86.8737 344.489 86.7236 344.542" fill="white"/>
</g>
<path d="M81.9746 355.027L82.0271 352.462L110.64 352.987C110.64 352.987 111.975 353.58 111.84 354.577L81.9746 355.027Z" fill="#263238"/>
<path d="M95.3026 346.133C95.3026 346.283 94.5526 346.365 93.8626 346.883C93.1726 347.4 92.7826 348.045 92.6476 347.985C92.5126 347.925 92.7151 347.033 93.5851 346.433C94.4551 345.833 95.3326 345.99 95.3026 346.133Z" fill="#263238"/>
<path d="M99.2398 347.505C99.2398 347.655 98.6473 347.932 98.1598 348.592C97.6723 349.252 97.5373 349.942 97.4098 349.942C97.2823 349.942 97.1548 349.065 97.7773 348.255C98.3998 347.445 99.2323 347.362 99.2398 347.505Z" fill="#263238"/>
<path d="M101.002 351.3C100.875 351.337 100.657 350.55 101.002 349.717C101.347 348.885 102.037 348.517 102.105 348.645C102.172 348.772 101.752 349.23 101.46 349.935C101.167 350.64 101.152 351.285 101.002 351.3Z" fill="#263238"/>
<path d="M95.0095 341.895C94.9495 342.037 94.2595 341.835 93.457 341.895C92.6545 341.955 91.957 342.247 91.957 342.12C91.957 341.992 92.4895 341.43 93.457 341.37C94.4245 341.31 95.0845 341.775 95.0095 341.895Z" fill="#263238"/>
<path d="M95.176 346.11C95.2586 345.812 95.279 345.501 95.236 345.195C95.1747 344.357 94.9011 343.55 94.441 342.847C94.1326 342.367 93.7355 341.949 93.271 341.617C93.1337 341.5 92.9674 341.421 92.7893 341.389C92.6113 341.358 92.428 341.374 92.2585 341.437C92.0817 341.534 91.9337 341.676 91.8297 341.849C91.7256 342.021 91.6691 342.218 91.666 342.42C91.7134 343.196 91.9894 343.94 92.4592 344.559C92.929 345.179 93.5716 345.645 94.306 345.9C95.0242 346.129 95.7948 346.136 96.5173 345.921C97.2398 345.705 97.8805 345.277 98.356 344.692C98.5945 344.426 98.778 344.115 98.896 343.777C98.9562 343.582 98.9562 343.373 98.896 343.177C98.86 343.082 98.8048 342.994 98.7339 342.921C98.663 342.847 98.5777 342.789 98.4835 342.75C98.1706 342.663 97.8366 342.695 97.546 342.84C97.3059 342.958 97.073 343.091 96.8485 343.237C96.1734 343.691 95.5906 344.269 95.131 344.94C94.9473 345.178 94.8076 345.447 94.7185 345.735C95.3247 344.854 96.0873 344.091 96.9685 343.485C97.3735 343.252 97.8985 342.922 98.3185 343.072C98.506 343.147 98.581 343.365 98.491 343.627C98.3836 343.906 98.2231 344.16 98.0185 344.377C97.5844 344.891 97.0086 345.265 96.3629 345.453C95.7173 345.641 95.0305 345.635 94.3885 345.435C93.7502 345.209 93.1885 344.808 92.768 344.277C92.3474 343.746 92.0851 343.108 92.011 342.435C92.0103 342.305 92.043 342.178 92.1061 342.065C92.1692 341.952 92.2605 341.857 92.371 341.79C92.4845 341.753 92.6055 341.747 92.7224 341.77C92.8392 341.794 92.9481 341.847 93.0385 341.925C93.4727 342.224 93.851 342.597 94.156 343.027C94.6051 343.681 94.9024 344.426 95.026 345.21C95.1535 345.75 95.1385 346.102 95.176 346.11Z" fill="#263238"/>
<path d="M70.4327 339.877L71.0402 344.512L70.6352 354.96L57.0227 355.29L56.5352 344.512L57.1127 339.877H70.4327Z" fill="#3BADD4"/>
<path d="M63.9013 354.172C63.8188 354.172 64.0213 350.977 64.3438 347.032C64.6663 343.087 64.9963 339.885 65.0938 339.877C65.1913 339.87 64.9813 343.072 64.6588 347.017C64.3363 350.962 63.9838 354.172 63.9013 354.172Z" fill="#263238"/>
<path d="M70.6278 353.22L57.0078 353.505L57.0228 355.29L70.6353 354.96L70.6278 353.22Z" fill="#263238"/>
<path d="M57 347.25C57 347.25 57.0975 347.032 57.345 346.702C58.2576 345.531 59.4245 344.582 60.7575 343.927C61.7421 343.433 62.8285 343.177 63.93 343.177C64.9262 343.173 65.9125 343.375 66.8265 343.772C67.7406 344.168 68.5624 344.75 69.24 345.48C69.6422 345.93 69.9781 346.435 70.2375 346.98C70.3472 347.172 70.421 347.383 70.455 347.602C70.0347 346.931 69.5579 346.296 69.03 345.705C67.6731 344.361 65.8396 343.609 63.93 343.612C62.0224 343.671 60.193 344.384 58.7475 345.63C57.5775 346.5 57 347.25 57 347.25Z" fill="#263238"/>
<path d="M313.5 336.075C311.715 335.985 311.198 333.472 311.858 331.815C312.518 330.157 313.83 328.695 313.853 326.91C313.853 325.365 312.885 323.962 312.788 322.41C312.623 319.627 315.308 317.355 315.428 314.565C315.51 312.397 314.003 310.327 314.37 308.182C314.76 305.887 317.16 304.372 317.715 302.107C318.3 299.692 316.62 297.142 317.265 294.742C317.91 292.342 320.723 290.595 320.318 288.15C320.082 287.368 319.805 286.599 319.485 285.847C318.975 284.025 319.973 282.097 321.18 280.672C322.388 279.247 323.858 277.92 324.6 276.172C325.748 273.495 324.953 270.247 326.303 267.675C327.428 265.537 329.933 264.097 330.248 261.675C331.515 263.835 330.248 266.58 330.563 269.07C330.75 270.69 331.59 272.152 332.108 273.705C332.63 275.291 332.816 276.969 332.654 278.631C332.491 280.293 331.983 281.903 331.163 283.357C330.075 285.27 328.395 287.07 328.478 289.275C328.583 291.937 331.245 293.865 331.718 296.49C332.393 300.24 328.395 303.615 328.95 307.387C329.093 308.355 329.535 309.277 329.618 310.252C329.903 313.59 326.123 315.945 325.545 319.252C325.125 321.682 326.528 324.187 325.943 326.58C325.5 328.425 323.903 330.075 324.3 331.935C324.564 332.716 324.903 333.469 325.313 334.185C325.621 334.911 325.722 335.708 325.604 336.488C325.486 337.268 325.154 338 324.645 338.602C324.112 339.182 323.411 339.58 322.639 339.739C321.868 339.898 321.066 339.81 320.348 339.487" fill="#3BADD4"/>
<g opacity="0.5">
<path opacity="0.5" d="M325.334 334.207C324.925 333.492 324.585 332.738 324.322 331.957C323.924 330.097 325.522 328.447 325.964 326.602C326.549 324.21 325.147 321.705 325.567 319.275C326.144 315.982 329.924 313.627 329.639 310.275C329.557 309.3 329.114 308.377 328.972 307.41C328.417 303.66 332.414 300.262 331.739 296.512C331.267 293.887 328.604 291.96 328.499 289.297C328.417 287.092 330.097 285.292 331.184 283.38C332.001 281.928 332.507 280.322 332.67 278.664C332.833 277.006 332.649 275.333 332.129 273.75C331.612 272.197 330.772 270.75 330.584 269.115C330.299 266.625 331.536 263.865 330.269 261.72C329.954 264.12 327.449 265.56 326.324 267.72C324.974 270.292 325.769 273.547 324.622 276.217C323.872 277.95 322.372 279.217 321.202 280.717C320.032 282.217 318.997 284.07 319.507 285.892C319.826 286.644 320.104 287.413 320.339 288.195C320.744 290.64 317.924 292.395 317.287 294.787C316.649 297.18 318.322 299.737 317.737 302.152C317.182 304.402 314.782 305.902 314.392 308.227C314.024 310.372 315.532 312.442 315.449 314.61C315.329 317.4 312.644 319.672 312.809 322.455C312.907 324 313.889 325.402 313.874 326.955C313.874 328.74 312.539 330.21 311.879 331.86C311.219 333.51 311.737 336.03 313.522 336.12L320.369 339.555C321.088 339.877 321.889 339.965 322.661 339.806C323.432 339.648 324.134 339.25 324.667 338.67C325.184 338.063 325.522 337.323 325.64 336.534C325.758 335.745 325.652 334.939 325.334 334.207Z" fill="white"/>
</g>
<path d="M323.016 332.58C322.542 331.785 322.302 330.872 322.326 329.947C322.506 328.927 324.231 328.027 324.659 326.302C325.214 324.052 324.216 320.092 324.659 317.835C325.236 314.76 328.409 312.742 328.281 309.69C328.244 308.79 328.371 306.39 328.281 305.505C327.944 302.07 330.966 299.76 330.531 296.347C330.201 294 327.749 291.172 327.749 288.75C327.749 286.732 329.196 284.962 330.156 283.125C331.609 280.378 331.996 277.192 331.244 274.177C330.869 272.782 330.216 271.492 330.111 270.015C329.954 267.765 331.064 265.132 330.111 263.227C329.774 265.477 327.659 266.94 326.654 268.987C325.454 271.44 326.009 274.38 324.981 276.915C324.306 278.565 323.046 279.847 321.981 281.265C320.916 282.682 320.054 284.505 320.414 286.147C320.658 286.823 320.866 287.511 321.036 288.21C321.291 290.46 318.906 292.237 318.299 294.48C317.691 296.722 319.004 298.98 318.441 301.23C317.909 303.352 315.831 306.24 315.441 308.385C315.074 310.38 316.881 311.677 316.739 313.687C316.559 316.26 313.979 319.372 314.031 321.937C314.031 323.355 315.246 323.812 315.186 325.237C315.111 326.872 313.739 330.135 313.139 331.702C312.817 332.41 312.688 333.19 312.763 333.964C312.838 334.738 313.115 335.479 313.566 336.112L321.216 339.862C324.584 338.25 324.434 334.92 323.016 332.58Z" fill="#3BADD4"/>
<path d="M328.155 274.83C328.162 274.887 328.162 274.945 328.155 275.002V275.497C328.155 275.94 328.155 276.585 328.08 277.41C328.007 278.425 327.774 279.422 327.39 280.365C326.77 281.556 325.996 282.66 325.087 283.65C324.601 284.239 324.232 284.916 324 285.645C323.755 286.435 323.66 287.264 323.722 288.09C323.805 289.822 324.337 291.615 324.585 293.58C324.739 294.592 324.706 295.624 324.487 296.625C324.357 297.15 324.155 297.654 323.887 298.125C323.594 298.556 323.326 299.004 323.085 299.467C322.739 300.471 322.724 301.559 323.04 302.572C323.145 303.112 323.265 303.66 323.332 304.23C323.396 304.801 323.381 305.379 323.287 305.947C323.074 307.059 322.721 308.14 322.237 309.165C321.778 310.138 321.382 311.14 321.052 312.165C320.761 313.154 320.672 314.192 320.79 315.217C320.933 316.223 320.968 317.241 320.895 318.255C320.722 319.211 320.395 320.133 319.927 320.985C319.503 321.768 319.181 322.602 318.967 323.467C318.645 325.155 319.125 326.775 319.087 328.275C318.998 329.617 318.702 330.937 318.21 332.19C317.855 333.129 317.603 334.105 317.46 335.1C317.384 335.726 317.451 336.362 317.655 336.96C317.812 337.365 317.925 337.56 317.91 337.575C317.787 337.387 317.681 337.189 317.595 336.982C317.361 336.379 317.274 335.728 317.34 335.085C317.465 334.079 317.701 333.09 318.045 332.137C318.519 330.9 318.797 329.597 318.87 328.275C318.87 327.525 318.765 326.775 318.682 325.965C318.568 325.117 318.58 324.258 318.72 323.415C319.05 321.645 320.347 320.122 320.617 318.217C320.687 317.216 320.647 316.21 320.497 315.217C320.375 314.155 320.466 313.078 320.767 312.052C321.352 309.967 322.62 308.07 323.017 305.865C323.105 305.321 323.118 304.769 323.055 304.222C322.995 303.682 322.875 303.142 322.77 302.602C322.443 301.525 322.467 300.372 322.837 299.31C323.085 298.836 323.36 298.378 323.662 297.937C323.917 297.501 324.109 297.032 324.232 296.542C324.447 295.577 324.483 294.58 324.337 293.602C324.097 291.675 323.587 289.852 323.497 288.097C323.442 287.24 323.546 286.381 323.805 285.562C324.054 284.812 324.44 284.115 324.945 283.507C325.853 282.539 326.632 281.458 327.262 280.29C327.662 279.37 327.915 278.393 328.012 277.395C328.11 276.57 328.125 275.895 328.147 275.49C328.147 275.287 328.147 275.122 328.147 274.995C328.144 274.939 328.146 274.884 328.155 274.83Z" fill="#263238"/>
<path d="M302.595 336.945C300.105 337.312 298.688 333.945 299.153 331.5C299.618 329.055 301.035 326.632 300.57 324.157C300.173 322.012 298.425 320.332 297.87 318.217C296.873 314.407 299.978 310.53 299.37 306.637C298.898 303.6 296.243 301.147 296.16 298.08C296.07 294.787 298.98 292.035 299.123 288.742C299.273 285.24 296.258 282.157 296.483 278.662C296.708 275.167 300.143 271.972 298.913 268.695C298.508 267.615 297.645 266.767 297.12 265.732C295.928 263.347 296.783 260.445 298.05 258.097C299.318 255.75 301.013 253.552 301.568 250.942C302.423 246.93 300.435 242.647 301.568 238.71C302.543 235.44 305.618 232.755 305.4 229.35C307.748 231.99 306.78 236.137 307.86 239.505C308.565 241.695 310.11 243.495 311.273 245.505C312.426 247.561 313.14 249.836 313.368 252.183C313.597 254.53 313.335 256.899 312.6 259.14C311.618 262.087 309.788 265.05 310.508 268.072C311.378 271.732 315.6 273.675 316.973 277.177C318.93 282.195 314.318 287.962 316.118 293.04C316.583 294.345 317.445 295.492 317.835 296.827C319.14 301.372 314.543 305.67 314.648 310.395C314.73 313.875 317.355 316.957 317.213 320.437C317.093 323.115 315.345 325.837 316.395 328.305C316.845 329.377 317.768 330.172 318.42 331.132C319.044 332.055 319.4 333.133 319.45 334.246C319.501 335.359 319.243 336.464 318.705 337.44C318.131 338.394 317.267 339.142 316.24 339.573C315.212 340.005 314.074 340.098 312.99 339.84" fill="#3BADD4"/>
<g opacity="0.5">
<path opacity="0.5" d="M318.457 331.125C317.805 330.165 316.882 329.37 316.432 328.297C315.382 325.83 317.13 323.107 317.25 320.43C317.392 316.95 314.767 313.867 314.685 310.387C314.58 305.662 319.185 301.387 317.872 296.82C317.482 295.485 316.62 294.337 316.155 293.032C314.355 287.955 318.967 282.187 317.01 277.17C315.637 273.667 311.415 271.725 310.545 268.065C309.795 265.065 311.655 262.065 312.637 259.132C313.373 256.892 313.634 254.522 313.406 252.175C313.177 249.828 312.463 247.554 311.31 245.497C310.17 243.495 308.602 241.695 307.897 239.497C306.817 236.13 307.785 231.997 305.437 229.342C305.655 232.747 302.58 235.432 301.605 238.702C300.442 242.64 302.43 246.952 301.605 250.935C301.05 253.545 299.355 255.742 298.087 258.09C296.82 260.437 295.965 263.34 297.157 265.725C297.682 266.76 298.545 267.607 298.95 268.687C300.18 271.965 296.752 275.167 296.52 278.655C296.287 282.142 299.31 285.232 299.16 288.735C299.017 292.027 296.107 294.78 296.197 298.072C296.28 301.14 298.935 303.592 299.407 306.63C300.007 310.522 296.902 314.4 297.907 318.21C298.462 320.325 300.21 322.005 300.607 324.15C301.072 326.625 299.655 329.017 299.19 331.492C298.725 333.967 300.142 337.305 302.632 336.937L313.065 339.825C314.149 340.083 315.287 339.99 316.314 339.558C317.342 339.127 318.205 338.38 318.78 337.425C319.311 336.447 319.561 335.341 319.504 334.229C319.447 333.118 319.085 332.044 318.457 331.125Z" fill="white"/>
</g>
<path d="M314.789 329.505C314.107 328.755 313.132 327.09 313.117 326.04C313.117 324.585 315.232 322.868 315.367 320.355C315.524 317.1 313.049 311.88 313.019 308.633C313.019 304.215 316.837 300.54 315.817 296.348C315.517 295.118 315.067 291.765 314.669 290.558C313.259 285.893 316.814 281.865 315.269 277.26C314.189 274.043 310.019 270.848 309.322 267.458C308.767 264.66 310.289 261.81 311.122 259.013C312.385 254.808 312.048 250.286 310.177 246.315C309.269 244.485 308.017 242.873 307.462 240.855C306.622 237.75 307.462 233.828 305.564 231.458C305.707 234.638 303.179 237.278 302.354 240.383C301.364 244.133 302.939 248.04 302.204 251.828C301.724 254.295 300.329 256.425 299.264 258.675C298.199 260.925 297.479 263.685 298.432 265.868C298.844 266.813 299.542 267.563 299.857 268.56C300.824 271.56 298.004 274.71 297.779 277.988C297.554 281.265 299.984 284.025 299.827 287.31C299.677 290.393 297.577 294.96 297.622 298.035C297.659 300.908 300.517 302.213 300.869 305.025C301.327 308.648 298.619 313.665 299.369 317.19C299.797 319.14 301.559 319.44 301.867 321.435C302.219 323.73 301.207 328.628 300.802 330.96C300.546 332.03 300.578 333.149 300.894 334.202C301.21 335.256 301.8 336.207 302.602 336.96L314.249 340.11C318.517 336.915 317.399 332.363 314.789 329.505Z" fill="#3BADD4"/>
<path d="M306.096 248.092C306.372 249.276 306.572 250.476 306.696 251.685C306.869 253.107 306.816 254.547 306.539 255.952C306.341 256.827 306.033 257.674 305.624 258.472C305.204 259.327 304.701 260.19 304.244 261.12C303.726 262.076 303.396 263.122 303.269 264.202C303.149 265.372 303.246 266.555 303.554 267.69C304.139 270.067 305.369 272.415 306.254 275.055C306.739 276.408 306.973 277.839 306.944 279.277C306.906 280.024 306.762 280.761 306.516 281.467C306.225 282.149 305.975 282.848 305.766 283.56C305.414 285 305.961 286.5 306.554 287.91C306.854 288.622 307.176 289.35 307.416 290.107C307.655 290.881 307.794 291.683 307.829 292.492C307.829 294.085 307.633 295.672 307.244 297.217C306.883 298.699 306.612 300.202 306.434 301.717C306.362 302.451 306.362 303.189 306.434 303.922C306.519 304.642 306.67 305.352 306.884 306.045C307.36 307.393 307.689 308.788 307.866 310.207C307.881 311.572 307.684 312.931 307.281 314.235C306.908 315.453 306.686 316.712 306.621 317.985C306.66 319.161 306.87 320.326 307.244 321.442C307.59 322.487 307.882 323.548 308.121 324.622C308.297 325.612 308.345 326.62 308.264 327.622C308.204 328.567 308.084 329.452 307.979 330.277C307.747 331.677 307.672 333.098 307.754 334.515C307.824 335.408 308.093 336.274 308.541 337.05C308.871 337.56 309.096 337.8 309.081 337.8C308.86 337.569 308.662 337.318 308.489 337.05C308.012 336.276 307.72 335.404 307.634 334.5C307.534 333.073 307.594 331.639 307.814 330.225C307.911 329.4 308.016 328.515 308.069 327.577C308.142 326.592 308.087 325.601 307.904 324.63C307.665 323.565 307.37 322.513 307.019 321.48C306.629 320.343 306.409 319.155 306.366 317.955C306.423 316.67 306.642 315.397 307.019 314.167C307.414 312.89 307.604 311.559 307.581 310.222C307.406 308.826 307.079 307.453 306.606 306.127C306.139 304.699 305.971 303.191 306.111 301.695C306.285 300.164 306.558 298.646 306.929 297.15C307.307 295.629 307.498 294.067 307.499 292.5C307.469 291.72 307.335 290.949 307.101 290.205C306.869 289.455 306.554 288.75 306.254 288.03C305.938 287.303 305.687 286.55 305.504 285.78C305.312 285.018 305.299 284.222 305.466 283.455C305.673 282.733 305.924 282.024 306.216 281.332C306.449 280.652 306.588 279.943 306.629 279.225C306.659 277.823 306.433 276.428 305.961 275.107C305.099 272.497 303.869 270.127 303.284 267.712C302.973 266.547 302.882 265.334 303.014 264.135C303.149 263.03 303.492 261.961 304.026 260.985C304.499 260.047 305.009 259.192 305.429 258.352C305.837 257.569 306.144 256.737 306.344 255.877C306.632 254.489 306.703 253.065 306.554 251.655C306.449 250.492 306.299 249.592 306.209 248.985L306.104 248.295C306.096 248.228 306.094 248.16 306.096 248.092Z" fill="#263238"/>
<path d="M301.034 338.587C299.616 339.285 298.124 337.56 297.921 335.992C297.719 334.425 298.109 332.715 297.351 331.32C296.699 330.112 295.326 329.445 294.591 328.32C293.256 326.235 294.366 323.31 293.249 321.097C292.379 319.372 290.316 318.412 289.679 316.597C288.989 314.64 290.196 312.435 289.679 310.432C289.086 308.31 286.679 307.05 286.146 304.912C285.614 302.775 287.039 300.202 285.674 298.477C285.153 297.973 284.604 297.497 284.031 297.052C282.854 295.852 282.801 293.947 283.109 292.297C283.416 290.647 284.009 289.005 283.859 287.34C283.589 284.767 281.571 282.592 281.511 280.012C281.459 277.867 282.779 275.662 281.991 273.667C283.904 274.792 284.129 277.462 285.426 279.27C286.274 280.447 287.556 281.22 288.629 282.202C289.716 283.21 290.582 284.432 291.172 285.791C291.762 287.151 292.063 288.618 292.056 290.1C292.056 292.057 291.516 294.18 292.529 295.852C293.759 297.87 296.661 298.222 298.161 300.052C300.299 302.677 298.656 307.02 300.711 309.712C301.244 310.402 301.986 310.92 302.474 311.647C304.131 314.115 302.211 317.572 303.224 320.385C303.936 322.447 306.111 323.79 306.696 325.897C307.146 327.517 306.621 329.49 307.724 330.765C308.268 331.254 308.858 331.688 309.486 332.062C310.042 332.498 310.467 333.079 310.712 333.741C310.957 334.403 311.013 335.12 310.874 335.812C310.715 336.495 310.343 337.11 309.812 337.567C309.281 338.024 308.618 338.3 307.919 338.355" fill="#3BADD4"/>
<g opacity="0.5">
<path opacity="0.5" d="M309.404 332.032C308.776 331.658 308.186 331.223 307.642 330.735C306.539 329.46 307.064 327.487 306.614 325.867C306.029 323.76 303.854 322.417 303.142 320.355C302.159 317.542 304.079 314.085 302.392 311.617C301.904 310.867 301.162 310.372 300.629 309.682C298.574 306.99 300.217 302.647 298.079 300.022C296.579 298.192 293.677 297.84 292.447 295.822C291.434 294.15 291.959 292.027 291.974 290.07C291.981 288.588 291.68 287.12 291.09 285.761C290.5 284.401 289.634 283.179 288.547 282.172C287.474 281.19 286.192 280.417 285.344 279.24C284.047 277.432 283.844 274.74 281.909 273.637C282.697 275.632 281.377 277.837 281.429 279.982C281.489 282.562 283.507 284.737 283.777 287.31C283.949 288.975 283.357 290.617 283.027 292.267C282.697 293.917 282.772 295.822 283.949 297.022C284.522 297.467 285.071 297.943 285.592 298.447C286.957 300.172 285.532 302.745 286.064 304.882C286.597 307.02 289.004 308.28 289.589 310.402C290.144 312.405 288.937 314.61 289.627 316.567C290.264 318.382 292.327 319.342 293.197 321.067C294.314 323.317 293.197 326.205 294.539 328.29C295.289 329.445 296.647 330.112 297.299 331.29C298.049 332.685 297.674 334.387 297.869 335.962C298.064 337.537 299.564 339.255 300.982 338.557L307.784 338.265C308.483 338.21 309.146 337.933 309.677 337.476C310.209 337.019 310.581 336.405 310.739 335.722C310.872 335.044 310.819 334.342 310.583 333.692C310.348 333.042 309.941 332.468 309.404 332.032Z" fill="white"/>
</g>
<path d="M306.899 331.77C306.192 331.349 305.619 330.735 305.249 330C304.949 329.13 305.902 327.697 305.489 326.167C304.949 324.187 302.489 321.54 301.814 319.605C300.937 316.965 302.564 314.025 301.117 311.715C300.697 311.032 299.759 309.12 299.309 308.467C297.562 305.947 298.912 302.85 297.097 300.39C295.829 298.672 292.702 297.57 291.644 295.672C290.774 294.112 291.134 292.11 291.089 290.272C291.038 287.514 289.97 284.873 288.089 282.855C287.108 282.031 286.211 281.111 285.412 280.11C284.309 278.415 284.047 275.91 282.457 274.86C283.162 276.727 282.157 278.805 282.262 280.822C282.389 283.245 284.092 285.322 284.384 287.7C284.579 289.267 284.152 290.812 283.949 292.365C283.747 293.917 283.852 295.71 284.842 296.827C285.269 297.315 285.832 297.63 286.214 298.162C287.377 299.775 286.297 302.205 286.792 304.207C287.287 306.21 289.282 307.395 289.792 309.39C290.294 311.265 289.927 314.407 290.542 316.237C291.119 317.947 293.084 318.18 293.842 319.792C294.809 321.87 294.149 325.402 295.297 327.36C295.927 328.447 297.044 328.29 297.614 329.422C298.267 330.727 298.604 333.847 298.814 335.325C298.873 336.015 299.111 336.677 299.506 337.246C299.901 337.814 300.438 338.269 301.064 338.565L308.639 338.205C310.559 335.49 308.999 333 306.899 331.77Z" fill="#3BADD4"/>
<path d="M285.958 284.73C285.989 284.771 286.016 284.813 286.041 284.857C286.101 284.955 286.168 285.082 286.258 285.24C286.446 285.577 286.731 286.08 287.008 286.74C287.392 287.558 287.645 288.431 287.758 289.327C287.789 290.521 287.666 291.713 287.391 292.875C287.264 293.541 287.264 294.226 287.391 294.892C287.547 295.61 287.831 296.294 288.231 296.91C289.041 298.207 290.226 299.377 291.276 300.795C291.83 301.516 292.249 302.332 292.513 303.202C292.639 303.662 292.697 304.137 292.686 304.612C292.645 305.074 292.63 305.537 292.641 306C292.806 306.922 293.261 307.768 293.938 308.415C294.261 308.79 294.591 309.165 294.883 309.57C295.178 309.993 295.417 310.452 295.596 310.935C295.908 311.89 296.1 312.88 296.166 313.883C296.234 314.84 296.361 315.791 296.548 316.732C296.748 317.624 297.126 318.466 297.658 319.207C298.207 319.927 298.675 320.704 299.053 321.525C299.332 322.344 299.477 323.202 299.481 324.068C299.49 324.858 299.598 325.644 299.803 326.408C300.283 327.847 301.348 328.905 301.971 330.082C302.494 331.168 302.841 332.33 302.998 333.525C303.132 334.404 303.359 335.266 303.673 336.098C303.883 336.619 304.209 337.086 304.626 337.463C304.918 337.71 305.091 337.815 305.083 337.83C304.905 337.741 304.737 337.632 304.581 337.508C304.139 337.141 303.79 336.676 303.561 336.15C303.213 335.316 302.961 334.446 302.811 333.555C302.642 332.392 302.295 331.261 301.783 330.202C301.168 329.062 300.081 328.02 299.533 326.497C298.986 324.975 299.376 323.235 298.783 321.645C298.406 320.849 297.946 320.095 297.411 319.395C296.854 318.625 296.458 317.75 296.248 316.822C295.798 314.947 295.971 312.922 295.303 311.062C295.134 310.605 294.908 310.172 294.628 309.772C294.343 309.382 294.021 309.022 293.698 308.64C292.98 307.941 292.502 307.033 292.333 306.045C292.322 305.57 292.337 305.094 292.378 304.62C292.39 304.175 292.337 303.73 292.221 303.3C291.971 302.461 291.569 301.676 291.036 300.982C290.023 299.587 288.831 298.41 288.036 297.067C287.625 296.423 287.335 295.709 287.181 294.96C287.05 294.269 287.05 293.559 287.181 292.867C287.469 291.725 287.608 290.55 287.593 289.372C287.501 288.487 287.27 287.622 286.911 286.807C286.633 286.132 286.371 285.622 286.198 285.307L286.003 284.917C285.973 284.775 285.951 284.73 285.958 284.73Z" fill="#263238"/>
<path d="M290.158 332.595L293.106 338.58H329.001L333.043 332.595H290.158Z" fill="#455A64"/>
<path d="M293.961 336.517L299.338 355.072L323.511 355.087L328.386 336.555L293.961 336.517Z" fill="#455A64"/>
<path d="M328.838 338.542C328.838 338.625 320.828 338.692 310.95 338.692C301.073 338.692 293.062 338.625 293.062 338.542C293.062 338.46 301.073 338.385 310.95 338.385C320.828 338.385 328.838 338.452 328.838 338.542Z" fill="#263238"/>
<path d="M331.725 355.088C331.725 355.2 265.267 355.283 183.307 355.283C101.347 355.283 34.8672 355.2 34.8672 355.088C34.8672 354.975 101.317 354.893 183.307 354.893C265.297 354.893 331.725 354.983 331.725 355.088Z" fill="#263238"/>
</svg>
