<svg width="392" height="392" viewBox="0 0 392 392" fill="none" xmlns="http://www.w3.org/2000/svg">
<path d="M193.647 380.005C295.223 380.005 377.566 330.723 377.566 269.931C377.566 209.139 295.223 159.857 193.647 159.857C92.0717 159.857 9.72852 209.139 9.72852 269.931C9.72852 330.723 92.0717 380.005 193.647 380.005Z" fill="#F5F5F5"/>
<path d="M226.216 220.892L222.884 218.971C221.618 218.325 220.217 217.989 218.796 217.989C217.374 217.989 215.973 218.325 214.707 218.971L38.7852 320.538C36.5351 321.84 36.5351 323.964 38.7852 325.242L42.1094 327.163C43.3767 327.805 44.7773 328.14 46.1979 328.14C47.6186 328.14 49.0192 327.805 50.2865 327.163L103.732 296.352L127.51 310.08C133.641 313.615 143.669 313.615 149.8 310.08L186.648 288.794C191.885 285.768 191.885 280.821 186.648 277.818L161.27 263.11L226.216 225.611C228.466 224.31 228.466 222.185 226.216 220.892Z" fill="#E0E0E0"/>
<path d="M290.237 345.611C308.598 356.21 338.359 356.21 356.712 345.611C375.066 335.011 375.073 317.834 356.712 307.234C338.351 296.634 308.598 296.634 290.237 307.234C271.875 317.834 271.883 335.011 290.237 345.611Z" fill="#E0E0E0"/>
<path d="M110.403 67.7847L113.358 65.9972C113.333 65.7917 113.32 65.5849 113.319 65.3778V63.9196C113.397 62.506 113.806 61.1305 114.515 59.9047C115.223 58.6788 116.21 57.637 117.396 56.8636C117.749 56.6276 118.146 56.4645 118.564 56.3837C118.981 56.303 119.41 56.3062 119.826 56.3932C120.195 52.7005 122.758 48.5532 125.879 46.7186C129.242 44.7743 131.978 46.3501 131.978 50.2388V52.4261C131.965 53.4916 131.79 54.5488 131.461 55.5621L135.632 53.1317C136.886 52.4105 137.897 52.9906 137.897 54.4332C137.855 55.2189 137.628 55.9835 137.234 56.6647C136.841 57.3459 136.291 57.9245 135.632 58.3532L110.387 73.0061C109.14 73.7274 108.129 73.1472 108.129 71.7047C108.173 70.9186 108.402 70.154 108.797 69.4729C109.192 68.7918 109.742 68.2135 110.403 67.7847Z" fill="#EBEBEB"/>
<path d="M85.0956 61.8262L81.9596 63.0179V56.1971C81.9596 50.7875 77.6476 49.4939 72.9593 52.1908C68.318 54.88 64.5234 61.4734 64.5234 66.883V67.8708C63.8664 67.6694 63.1721 67.6197 62.4931 67.7257C61.814 67.8316 61.1679 68.0903 60.6034 68.4824C58.8266 69.6395 57.3481 71.1997 56.2882 73.0362C55.2283 74.8726 54.617 76.9333 54.5039 79.0507V79.4976L50.1762 81.9907C49.0056 82.7531 48.0313 83.7809 47.3325 84.9905C46.6337 86.2002 46.23 87.5576 46.1543 88.9526C46.1543 91.5163 47.9575 92.5512 50.1762 91.3046L85.0956 71.1088C86.2643 70.345 87.2367 69.3167 87.9341 68.1072C88.6315 66.8977 89.0342 65.541 89.1097 64.1468C89.1097 61.5832 87.3143 60.5404 85.0956 61.8262Z" fill="#EBEBEB"/>
<path d="M150.223 304.584L180.729 286.944C183.865 285.125 185.433 282.749 185.433 280.374C185.433 277.998 185.433 276.125 185.433 276.125L156.731 259.841C155.847 259.264 155.112 258.487 154.585 257.573C154.058 256.659 153.754 255.634 153.697 254.58V216.948L100.447 247.744V285.376C100.505 286.429 100.811 287.453 101.34 288.366C101.868 289.279 102.605 290.054 103.489 290.629L127.464 304.584C133.744 308.214 143.936 308.214 150.223 304.584Z" fill="#263238"/>
<path opacity="0.15" d="M113.234 292.032V296.258L103.489 290.629C102.605 290.052 101.87 289.276 101.343 288.362C100.816 287.447 100.512 286.422 100.455 285.368V247.744L110.608 241.888C110.812 244.467 111.047 247.133 111.251 249.728L104.14 253.844V283.228C104.194 284.28 104.496 285.305 105.022 286.218C105.548 287.131 106.283 287.906 107.166 288.481L113.234 292.032Z" fill="black"/>
<path d="M104.115 283.252C104.173 284.306 104.478 285.332 105.007 286.246C105.535 287.16 106.272 287.936 107.157 288.512L127.447 300.343C133.719 303.981 143.911 303.981 150.222 300.343L180.736 282.711C187.008 279.081 187.008 273.193 180.736 269.563L160.422 257.717C159.538 257.142 158.803 256.367 158.275 255.454C157.748 254.541 157.444 253.517 157.388 252.464V223.087L104.076 253.867L104.115 283.252Z" fill="#455A64"/>
<path opacity="0.3" d="M166.616 261.3L160.43 257.725C159.546 257.15 158.81 256.375 158.283 255.462C157.756 254.549 157.452 253.524 157.396 252.472V223.087L104.084 253.867V283.252C104.141 284.306 104.447 285.332 104.975 286.246C105.504 287.16 106.241 287.936 107.126 288.512L113.202 292.025L166.616 261.3Z" fill="black"/>
<path d="M40.659 306.442C41.8091 306.999 43.0742 307.277 44.3518 307.254C45.6294 307.23 46.8836 306.907 48.0129 306.309L223.292 205.11C224.395 204.39 225.313 203.42 225.971 202.278C226.629 201.137 227.009 199.856 227.078 198.54V38.855C227.034 37.5776 226.688 36.3288 226.07 35.2102C225.451 34.0917 224.577 33.1351 223.519 32.4184C222.369 31.8617 221.104 31.5837 219.826 31.6068C218.549 31.63 217.294 31.9536 216.165 32.5517L40.8942 133.743C39.7877 134.466 38.8675 135.44 38.2082 136.585C37.5489 137.731 37.1691 139.016 37.0996 140.336V300.005C37.1453 301.283 37.4914 302.531 38.1098 303.649C38.7282 304.768 39.6016 305.724 40.659 306.442Z" fill="#455A64"/>
<path d="M48.0133 306.301L223.292 205.11C224.397 204.388 225.316 203.417 225.975 202.274C226.634 201.132 227.015 199.85 227.087 198.532V38.8473C227.087 36.4247 225.385 35.4447 223.292 36.6599L48.0133 137.851C46.9095 138.571 45.9909 139.541 45.3317 140.683C44.6725 141.824 44.2912 143.105 44.2188 144.421V304.114C44.2187 306.544 45.92 307.508 48.0133 306.301Z" fill="#37474F"/>
<path d="M49.2363 279.19V146.114C49.2805 145.303 49.5167 144.514 49.9257 143.812C50.3346 143.11 50.9045 142.515 51.5883 142.076L219.725 44.9857C221.019 44.2017 222.077 44.8445 222.077 46.3341V179.41C222.032 180.222 221.796 181.012 221.387 181.716C220.978 182.419 220.409 183.015 219.725 183.456L51.5648 280.538C50.279 281.283 49.2363 280.672 49.2363 279.19Z" fill="#3BADD4"/>
<path opacity="0.7" d="M49.2363 279.19V146.114C49.2805 145.303 49.5167 144.514 49.9257 143.812C50.3346 143.11 50.9045 142.515 51.5883 142.076L219.725 44.9857C221.019 44.2017 222.077 44.8445 222.077 46.3341V179.41C222.032 180.222 221.796 181.012 221.387 181.716C220.978 182.419 220.409 183.015 219.725 183.456L51.5648 280.538C50.279 281.283 49.2363 280.672 49.2363 279.19Z" fill="white"/>
<path d="M38.2208 136.565L45.3317 140.665C44.6588 141.808 44.274 143.096 44.2105 144.421V304.114C44.2105 306.317 45.708 307.555 48.0051 306.309C46.8776 306.912 45.6228 307.239 44.3442 307.262C43.0656 307.285 41.7998 307.004 40.6512 306.442C39.6052 305.821 38.7311 304.949 38.1081 303.904C37.4851 302.859 37.1331 301.675 37.084 300.46V140.336C37.1338 139.002 37.5252 137.704 38.2208 136.565Z" fill="#263238"/>
<path d="M132.323 247.54L140.908 242.609C141.692 242.17 142.304 242.484 142.304 243.315C142.268 243.782 142.123 244.235 141.881 244.637C141.638 245.038 141.305 245.378 140.908 245.627L132.323 250.551C131.539 250.998 130.936 250.684 130.936 249.845C130.969 249.379 131.112 248.927 131.353 248.526C131.594 248.126 131.926 247.788 132.323 247.54Z" fill="#3BADD4"/>
<path d="M90.0908 331.467L96.0727 328.01C96.0727 328.01 99.6399 313.2 98.2208 299.872C96.2216 281.142 83.8893 274.094 79.1853 275.709C74.4813 277.324 73.1407 282.765 80.8944 293.937C85.4573 300.515 91.1178 314.227 90.0908 331.467Z" fill="#3BADD4"/>
<g opacity="0.3">
<path opacity="0.3" d="M90.0908 331.467L96.0727 328.01C96.0727 328.01 99.6399 313.2 98.2208 299.872C96.2216 281.142 83.8893 274.094 79.1853 275.709C74.4813 277.324 73.1407 282.765 80.8944 293.937C85.4573 300.515 91.1178 314.227 90.0908 331.467Z" fill="white"/>
</g>
<path d="M92.568 324.192H92.5131C92.4591 324.183 92.4075 324.162 92.3615 324.133C92.3155 324.103 92.2759 324.064 92.2452 324.019C92.2144 323.973 92.1931 323.922 92.1826 323.869C92.1721 323.815 92.1725 323.759 92.1838 323.706C95.461 306.458 89.4242 287.015 81.9918 278.932C81.9525 278.894 81.9211 278.849 81.8997 278.799C81.8782 278.749 81.8672 278.696 81.8672 278.641C81.8672 278.587 81.8782 278.533 81.8997 278.484C81.9211 278.434 81.9525 278.389 81.9918 278.351C82.0304 278.313 82.0763 278.282 82.1267 278.261C82.1772 278.24 82.2312 278.229 82.2858 278.229C82.3405 278.229 82.3945 278.24 82.445 278.261C82.4954 278.282 82.5413 278.313 82.5798 278.351C90.1925 286.576 96.339 306.309 93.0149 323.823C93.0011 323.93 92.9473 324.028 92.8643 324.096C92.7813 324.164 92.6754 324.199 92.568 324.192Z" fill="white"/>
<path d="M75.0137 340.17C74.1199 340.625 71.7444 338.602 71.0937 338.092C69.9517 337.227 69.0525 336.082 68.483 334.768C67.8446 333.286 67.6856 331.641 68.0282 330.064C68.2073 329.23 68.4458 328.41 68.7417 327.61L69.5257 325.258C69.8463 324.497 70.009 323.678 70.0039 322.851C69.8706 321.189 68.4359 319.958 67.1894 318.931C65.7703 317.755 64.3121 316.219 64.4218 314.227C64.6083 312.694 65.2975 311.266 66.3818 310.166C67.3932 309.014 68.5692 308.002 69.5178 306.779C70.2366 305.929 70.6432 304.858 70.6703 303.745C70.609 303.061 70.4146 302.395 70.098 301.785C69.3589 300.507 68.7269 299.169 68.2086 297.787C67.793 296.376 67.9498 294.651 69.0788 293.71C69.5815 293.374 70.1461 293.141 70.7397 293.025C71.3333 292.909 71.944 292.913 72.5362 293.036C73.6634 293.224 74.7346 293.66 75.6722 294.314C78.7377 296.227 80.3762 300.045 83.622 301.558C84.9256 302.041 86.2584 302.442 87.6126 302.757C88.2918 302.917 88.9298 303.218 89.485 303.641C90.0401 304.064 90.5 304.599 90.8348 305.211C91.9402 307.72 89.5098 310.629 90.2468 313.271C90.8897 315.623 93.0849 316.603 94.2373 318.759C94.7003 319.701 94.8513 320.767 94.6685 321.801C94.4762 323.559 93.9577 325.266 93.1398 326.834C92.2285 328.443 91.2205 329.996 90.1213 331.483C90.1213 331.483 75.1548 340.099 75.0137 340.17Z" fill="#3BADD4"/>
<g opacity="0.65">
<path opacity="0.65" d="M75.0137 340.17C74.1199 340.625 71.7444 338.602 71.0937 338.092C69.9517 337.227 69.0525 336.082 68.483 334.768C67.8446 333.286 67.6856 331.641 68.0282 330.064C68.2073 329.23 68.4458 328.41 68.7417 327.61L69.5257 325.258C69.8463 324.497 70.009 323.678 70.0039 322.851C69.8706 321.189 68.4359 319.958 67.1894 318.931C65.7703 317.755 64.3121 316.219 64.4218 314.227C64.6083 312.694 65.2975 311.266 66.3818 310.166C67.3932 309.014 68.5692 308.002 69.5178 306.779C70.2366 305.929 70.6432 304.858 70.6703 303.745C70.609 303.061 70.4146 302.395 70.098 301.785C69.3589 300.507 68.7269 299.169 68.2086 297.787C67.793 296.376 67.9498 294.651 69.0788 293.71C69.5815 293.374 70.1461 293.141 70.7397 293.025C71.3333 292.909 71.944 292.913 72.5362 293.036C73.6634 293.224 74.7346 293.66 75.6722 294.314C78.7377 296.227 80.3762 300.045 83.622 301.558C84.9256 302.041 86.2584 302.442 87.6126 302.757C88.2918 302.917 88.9298 303.218 89.485 303.641C90.0401 304.064 90.5 304.599 90.8348 305.211C91.9402 307.72 89.5098 310.629 90.2468 313.271C90.8897 315.623 93.0849 316.603 94.2373 318.759C94.7003 319.701 94.8513 320.767 94.6685 321.801C94.4762 323.559 93.9577 325.266 93.1398 326.834C92.2285 328.443 91.2205 329.996 90.1213 331.483C90.1213 331.483 75.1548 340.099 75.0137 340.17Z" fill="white"/>
</g>
<path d="M83.684 335.654C83.6317 335.65 83.5808 335.636 83.5341 335.612C83.4875 335.588 83.4462 335.555 83.4126 335.515C83.3789 335.474 83.3537 335.428 83.3384 335.378C83.3231 335.328 83.3179 335.275 83.3233 335.223C84.7502 319.684 78.2822 302.122 73.2019 296.854C73.1652 296.818 73.136 296.774 73.1161 296.726C73.0962 296.679 73.0859 296.627 73.0859 296.576C73.0859 296.524 73.0962 296.473 73.1161 296.425C73.136 296.377 73.1652 296.334 73.2019 296.297C73.2765 296.225 73.3763 296.185 73.4802 296.185C73.5841 296.185 73.6839 296.225 73.7585 296.297C78.9408 301.668 85.5185 319.527 84.0916 335.286C84.0856 335.388 84.0394 335.484 83.9632 335.553C83.8869 335.622 83.7867 335.658 83.684 335.654Z" fill="white"/>
<path d="M82.14 316.485C82.1011 316.493 82.0612 316.493 82.0224 316.485C78.3834 315.3 74.6272 314.512 70.819 314.133C70.7675 314.129 70.7172 314.115 70.6712 314.092C70.6251 314.068 70.5841 314.036 70.5506 313.997C70.5171 313.957 70.4917 313.912 70.4759 313.862C70.46 313.813 70.4541 313.761 70.4584 313.71C70.4622 313.658 70.4766 313.607 70.5006 313.561C70.5247 313.515 70.5579 313.474 70.5982 313.441C70.6386 313.408 70.6852 313.383 70.7353 313.369C70.7854 313.355 70.8379 313.351 70.8896 313.357C74.7697 313.746 78.5952 314.561 82.2968 315.787C82.3938 315.826 82.4723 315.9 82.516 315.995C82.5598 316.09 82.5655 316.198 82.532 316.297C82.4933 316.364 82.4351 316.418 82.3652 316.452C82.2952 316.485 82.2167 316.497 82.14 316.485Z" fill="white"/>
<path d="M294.047 42.6731C294.038 42.5268 294.012 42.3821 293.969 42.2419C293.977 42.2273 293.981 42.2112 293.981 42.1948C293.981 42.1785 293.977 42.1623 293.969 42.1478C293.95 42.0052 293.913 41.8656 293.859 41.7323C293.799 41.5208 293.706 41.3199 293.585 41.1364C293.548 41.0464 293.495 40.964 293.428 40.8934C293.393 40.8295 293.348 40.7713 293.295 40.7209C293.205 40.6076 293.102 40.505 292.989 40.4152C292.864 40.326 292.73 40.2499 292.589 40.1878C292.073 39.9944 291.518 39.9297 290.972 39.9994C290.425 40.069 289.904 40.271 289.453 40.5876L129.862 132.668C127.283 134.15 125.158 137.788 125.158 142.994V290.017C125.157 290.582 125.305 291.136 125.588 291.625C125.87 292.114 126.276 292.52 126.765 292.802C127.254 293.083 127.809 293.231 128.374 293.229C128.938 293.227 129.492 293.077 129.98 292.793L289.398 200.704C290.765 199.818 291.903 198.622 292.72 197.213C293.537 195.805 294.011 194.223 294.102 192.597V43.2532C294.071 43.0572 294.063 42.8534 294.047 42.6731Z" fill="#FAFAFA"/>
<path d="M291.468 40.6815C291.739 40.6738 292.007 40.7302 292.252 40.8461C292.328 40.8758 292.399 40.9153 292.464 40.9637H292.511C292.569 41.0099 292.621 41.0625 292.668 41.1205L292.73 41.2067L292.785 41.2851L292.824 41.3322V41.3949L292.879 41.4811C292.957 41.599 293.015 41.7288 293.052 41.8653C293.067 41.9063 293.08 41.9482 293.091 41.9907V42.0535L293.185 42.3514C293.209 42.4333 293.225 42.5173 293.232 42.6023C293.232 42.7669 293.232 42.9472 293.232 43.1197V192.574C293.141 194.064 292.704 195.512 291.957 196.805C291.21 198.097 290.173 199.198 288.928 200.022L129.541 292.142C129.169 292.365 128.743 292.482 128.31 292.479C127.658 292.477 127.033 292.217 126.571 291.755C126.11 291.294 125.85 290.669 125.848 290.017V142.993C125.848 137.694 128.075 134.518 130.152 133.319L289.767 41.2067C290.279 40.8878 290.865 40.7068 291.468 40.6815ZM291.468 39.8975C290.734 39.9236 290.021 40.1427 289.398 40.5325L129.862 132.668C127.283 134.15 125.158 137.788 125.158 142.993V290.017C125.158 290.439 125.241 290.857 125.403 291.247C125.564 291.637 125.801 291.991 126.1 292.29C126.398 292.588 126.753 292.825 127.143 292.987C127.533 293.148 127.95 293.231 128.373 293.231C128.925 293.226 129.466 293.074 129.941 292.792L289.398 200.704C290.765 199.817 291.903 198.622 292.72 197.213C293.537 195.804 294.011 194.223 294.102 192.597V43.253C294.102 43.057 294.102 42.8531 294.102 42.6728C294.093 42.5266 294.067 42.3819 294.024 42.2416C294.032 42.2271 294.035 42.211 294.035 42.1946C294.035 42.1782 294.032 42.1621 294.024 42.1475C294.005 42.005 293.968 41.8653 293.914 41.732C293.854 41.5206 293.761 41.3196 293.64 41.1362C293.603 41.0461 293.55 40.9637 293.483 40.8931C293.448 40.8292 293.403 40.7711 293.35 40.7207C293.26 40.6073 293.157 40.5047 293.044 40.4149C292.919 40.3258 292.785 40.2496 292.644 40.1875C292.309 40.0279 291.941 39.9474 291.57 39.9523L291.468 39.8975Z" fill="#E0E0E0"/>
<path d="M171.288 129.736L277.723 68.2783V73.2175L171.288 134.667C170.284 135.248 169.469 134.769 169.469 133.617V132.888C169.5 132.256 169.682 131.641 169.998 131.093C170.314 130.545 170.756 130.08 171.288 129.736Z" fill="#E0E0E0"/>
<path d="M286.269 63.3472L279.824 67.0634V72.0026L286.269 68.2786C286.796 67.9347 287.236 67.4718 287.552 66.9271C287.867 66.3824 288.051 65.7712 288.088 65.1426V64.4135C288.088 63.2375 287.272 62.7671 286.269 63.3472Z" fill="#E0E0E0"/>
<path d="M283.134 68.8351C283.006 68.8367 282.881 68.8013 282.773 68.7331C282.615 68.6195 282.49 68.4662 282.41 68.2886C282.33 68.111 282.298 67.9155 282.318 67.7218C282.325 67.2972 282.431 66.88 282.628 66.5041C282.826 66.1282 283.109 65.8041 283.455 65.5579C283.583 65.4716 283.732 65.421 283.887 65.4114C284.041 65.4017 284.195 65.4334 284.333 65.5031C284.49 65.6177 284.615 65.7713 284.694 65.9486C284.774 66.1259 284.806 66.3209 284.788 66.5144C284.783 66.9394 284.678 67.3572 284.48 67.7334C284.283 68.1096 283.999 68.4335 283.651 68.6783C283.495 68.7744 283.317 68.8285 283.134 68.8351ZM283.965 65.7931C283.854 65.7992 283.747 65.8314 283.651 65.8872C283.362 66.0999 283.126 66.3757 282.96 66.6937C282.795 67.0116 282.704 67.3633 282.695 67.7218C282.68 67.8486 282.697 67.977 282.743 68.0959C282.79 68.2147 282.865 68.3204 282.961 68.4039C283.041 68.44 283.129 68.454 283.216 68.4443C283.303 68.4346 283.385 68.4017 283.455 68.349C283.744 68.1363 283.98 67.8605 284.146 67.5425C284.312 67.2246 284.403 66.8729 284.412 66.5144C284.426 66.3876 284.409 66.2592 284.363 66.1403C284.316 66.0215 284.242 65.9157 284.145 65.8323C284.089 65.8039 284.027 65.7903 283.965 65.7931Z" fill="#FAFAFA"/>
<path d="M285.134 68.5057C285.095 68.5157 285.055 68.5157 285.016 68.5057L284.177 67.8707C284.144 67.8344 284.125 67.7868 284.125 67.7374C284.125 67.6879 284.144 67.6403 284.177 67.6041C284.191 67.584 284.209 67.567 284.23 67.554C284.251 67.5411 284.274 67.5326 284.298 67.5289C284.322 67.5252 284.347 67.5265 284.371 67.5327C284.395 67.5389 284.417 67.5499 284.436 67.5649L285.283 68.1999C285.316 68.2362 285.335 68.2838 285.335 68.3332C285.335 68.3826 285.316 68.4303 285.283 68.4665C285.263 68.4841 285.239 68.4968 285.213 68.5036C285.187 68.5104 285.16 68.5111 285.134 68.5057Z" fill="#FAFAFA"/>
<path d="M129.862 132.668C127.283 134.15 125.158 137.788 125.158 142.994V290.017C125.157 290.582 125.305 291.136 125.588 291.625C125.87 292.114 126.276 292.52 126.765 292.801C127.254 293.083 127.809 293.23 128.374 293.229C128.938 293.227 129.492 293.077 129.98 292.792L165.424 272.33V126.396L165.479 112.112L129.862 132.668Z" fill="#F0F0F0"/>
<path d="M164.703 113.421L164.64 126.396V271.899L129.611 292.142C129.24 292.365 128.814 292.482 128.38 292.479C127.728 292.477 127.103 292.217 126.642 291.756C126.181 291.294 125.921 290.669 125.919 290.017V142.994C125.919 137.694 128.145 134.519 130.223 133.319L164.719 113.421H164.703ZM165.503 112.112L129.901 132.668C127.322 134.15 125.197 137.788 125.197 142.994V290.017C125.197 290.439 125.28 290.857 125.442 291.247C125.603 291.637 125.84 291.992 126.139 292.29C126.437 292.589 126.792 292.825 127.182 292.987C127.572 293.148 127.99 293.232 128.412 293.232C128.964 293.226 129.505 293.074 129.98 292.792L165.424 272.33V126.396L165.479 112.112H165.503Z" fill="#E0E0E0"/>
<path d="M139.262 150.065L157.968 139.27C158.627 138.893 159.16 139.199 159.16 139.96V141.528C159.138 141.941 159.018 142.343 158.811 142.701C158.604 143.06 158.315 143.364 157.968 143.59L139.262 154.37C138.603 154.746 138.07 154.44 138.07 153.68V152.112C138.095 151.701 138.215 151.302 138.422 150.947C138.629 150.591 138.917 150.289 139.262 150.065Z" fill="#E0E0E0"/>
<path d="M134.346 154.283V155.851C134.323 156.264 134.203 156.666 133.996 157.025C133.789 157.383 133.501 157.687 133.154 157.913L132.676 158.203C132.017 158.587 131.484 158.274 131.484 157.513V155.945C131.507 155.531 131.627 155.128 131.834 154.769C132.041 154.409 132.329 154.103 132.676 153.876L133.154 153.586C133.813 153.209 134.346 153.523 134.346 154.283Z" fill="#3BADD4"/>
<path d="M139.262 158.642L157.968 147.846C158.627 147.47 159.16 147.776 159.16 148.536V150.104C159.138 150.518 159.018 150.92 158.811 151.278C158.604 151.636 158.315 151.941 157.968 152.166L139.262 162.962C138.603 163.338 138.07 163.032 138.07 162.272V160.704C138.092 160.291 138.212 159.889 138.419 159.53C138.626 159.172 138.915 158.868 139.262 158.642Z" fill="#E0E0E0"/>
<path d="M134.346 162.86V164.428C134.324 164.841 134.204 165.244 133.997 165.602C133.79 165.96 133.501 166.264 133.154 166.49L132.676 166.78C132.017 167.164 131.484 166.858 131.484 166.098V164.53C131.507 164.116 131.627 163.713 131.834 163.353C132.041 162.994 132.329 162.688 132.676 162.46L133.154 162.17C133.813 161.786 134.346 162.1 134.346 162.86Z" fill="#3BADD4"/>
<path d="M139.262 167.219L157.968 156.424C158.627 156.047 159.16 156.353 159.16 157.113V158.681C159.138 159.095 159.018 159.497 158.811 159.855C158.604 160.214 158.315 160.518 157.968 160.743L139.262 171.539C138.603 171.915 138.07 171.61 138.07 170.849V169.281C138.092 168.868 138.212 168.466 138.419 168.107C138.626 167.749 138.915 167.445 139.262 167.219Z" fill="#E0E0E0"/>
<path d="M134.346 171.437V173.005C134.324 173.418 134.204 173.821 133.997 174.179C133.79 174.537 133.501 174.842 133.154 175.067L132.676 175.357C132.017 175.741 131.484 175.436 131.484 174.675V173.107C131.507 172.693 131.627 172.29 131.834 171.93C132.041 171.571 132.329 171.265 132.676 171.037L133.154 170.747C133.813 170.371 134.346 170.677 134.346 171.437Z" fill="#3BADD4"/>
<path d="M139.262 195.663L157.968 184.867C158.627 184.491 159.16 184.796 159.16 185.557V187.125C159.138 187.538 159.018 187.94 158.811 188.299C158.604 188.657 158.315 188.961 157.968 189.187L139.262 199.982C138.603 200.359 138.07 200.053 138.07 199.293V197.725C138.092 197.311 138.212 196.909 138.419 196.551C138.626 196.192 138.915 195.888 139.262 195.663Z" fill="#E0E0E0"/>
<path d="M134.346 199.92V201.488C134.324 201.901 134.204 202.303 133.997 202.662C133.79 203.02 133.501 203.324 133.154 203.55L132.676 203.84C132.017 204.224 131.484 203.918 131.484 203.158V201.59C131.507 201.175 131.627 200.772 131.834 200.413C132.041 200.053 132.329 199.748 132.676 199.52L133.154 199.23C133.813 198.814 134.346 199.136 134.346 199.92Z" fill="#3BADD4"/>
<path d="M139.262 203.26L157.968 192.464C158.627 192.088 159.16 192.394 159.16 193.154V194.722C159.138 195.135 159.018 195.537 158.811 195.896C158.604 196.254 158.315 196.558 157.968 196.784L139.262 207.58C138.603 207.956 138.07 207.65 138.07 206.89V205.322C138.092 204.908 138.212 204.506 138.419 204.148C138.626 203.79 138.915 203.485 139.262 203.26Z" fill="#E0E0E0"/>
<path d="M134.346 207.478V209.046C134.324 209.459 134.204 209.861 133.997 210.22C133.79 210.578 133.501 210.882 133.154 211.108L132.676 211.398C132.017 211.782 131.484 211.476 131.484 210.716V209.148C131.507 208.733 131.627 208.33 131.834 207.971C132.041 207.611 132.329 207.306 132.676 207.078L133.154 206.788C133.813 206.411 134.346 206.717 134.346 207.478Z" fill="#3BADD4"/>
<path d="M139.262 210.896L157.968 200.1C158.627 199.724 159.16 200.03 159.16 200.79V202.358C159.138 202.771 159.018 203.174 158.811 203.532C158.604 203.89 158.315 204.195 157.968 204.42L139.262 215.216C138.603 215.592 138.07 215.286 138.07 214.526V212.958C138.092 212.545 138.212 212.142 138.419 211.784C138.626 211.426 138.915 211.121 139.262 210.896Z" fill="#E0E0E0"/>
<path d="M134.346 215.074V216.642C134.324 217.056 134.204 217.458 133.997 217.816C133.79 218.174 133.501 218.479 133.154 218.704L132.676 218.994C132.017 219.379 131.484 219.073 131.484 218.312V216.744C131.507 216.33 131.627 215.927 131.834 215.568C132.041 215.208 132.329 214.902 132.676 214.675L133.154 214.384C133.813 214.032 134.346 214.314 134.346 215.074Z" fill="#3BADD4"/>
<path d="M138.941 176.094V178.776L141.262 176.094H138.941Z" fill="#3BADD4"/>
<path d="M142.688 175.545C142.688 176.039 143.04 176.243 143.472 175.984L158.368 167.407C158.597 167.256 158.787 167.053 158.923 166.815C159.06 166.577 159.138 166.309 159.152 166.035C159.152 165.533 158.799 165.33 158.368 165.581L143.472 174.205C143.246 174.352 143.057 174.549 142.921 174.782C142.785 175.015 142.705 175.276 142.688 175.545Z" fill="#E0E0E0"/>
<path d="M138.941 180.398V183.08L141.262 180.398H138.941Z" fill="#3BADD4"/>
<path d="M142.688 179.849C142.688 180.343 143.04 180.539 143.472 180.288L158.368 171.696C158.597 171.545 158.787 171.342 158.923 171.103C159.06 170.865 159.138 170.598 159.152 170.324C159.152 169.822 158.799 169.618 158.368 169.869L143.472 178.493C143.243 178.642 143.054 178.842 142.917 179.078C142.781 179.313 142.702 179.578 142.688 179.849Z" fill="#E0E0E0"/>
<path d="M138.941 184.703V187.376L141.262 184.703H138.941Z" fill="#3BADD4"/>
<path d="M142.688 184.154C142.688 184.647 143.04 184.843 143.472 184.593L158.368 176.016C158.596 175.864 158.786 175.66 158.922 175.422C159.058 175.184 159.136 174.918 159.152 174.644C159.152 174.142 158.799 173.938 158.368 174.189L143.472 182.813C143.246 182.96 143.057 183.158 142.921 183.39C142.785 183.623 142.705 183.885 142.688 184.154Z" fill="#E0E0E0"/>
<path d="M138.941 189.006V191.68L141.262 189.006H138.941Z" fill="#3BADD4"/>
<path d="M142.688 188.458C142.688 188.952 143.04 189.148 143.472 188.897L158.368 180.32C158.596 180.168 158.786 179.965 158.922 179.727C159.058 179.488 159.136 179.222 159.152 178.948C159.152 178.446 158.799 178.242 158.368 178.493L143.472 187.117C143.245 187.263 143.055 187.461 142.919 187.694C142.783 187.927 142.704 188.188 142.688 188.458Z" fill="#E0E0E0"/>
<path d="M292.542 40.1563C292.026 39.9629 291.471 39.8982 290.924 39.9679C290.378 40.0376 289.856 40.2395 289.406 40.5562L129.862 132.668C128.496 133.553 127.358 134.747 126.54 136.155C125.723 137.562 125.249 139.142 125.158 140.767V149.838L119.191 146.333V137.372C119.281 135.752 119.751 134.175 120.565 132.771C121.378 131.366 122.511 130.174 123.872 129.289L283.424 37.1771C284.757 36.3931 285.956 36.3931 286.818 36.9027C287.681 37.4123 291.546 39.631 292.542 40.1563Z" fill="#3BADD4"/>
<path d="M294.063 43.2216C294.063 40.2737 291.962 39.0742 289.359 40.5638L129.862 132.668C128.495 133.552 127.357 134.746 126.539 136.153C125.722 137.561 125.248 139.142 125.158 140.767V149.846L294.063 52.3552V43.2216Z" fill="#3BADD4"/>
<g opacity="0.2">
<path opacity="0.2" d="M289.391 40.5562L129.862 132.668C128.492 133.53 127.36 134.721 126.57 136.134L120.635 132.7C121.405 131.303 122.52 130.126 123.873 129.281L283.425 37.1771C283.911 36.8242 284.484 36.6114 285.082 36.5616C285.681 36.5118 286.282 36.6271 286.819 36.8949C287.658 37.4123 291.523 39.6154 292.527 40.1485C292.01 39.9555 291.455 39.8917 290.908 39.9628C290.362 40.0339 289.841 40.2376 289.391 40.5562Z" fill="white"/>
</g>
<path opacity="0.15" d="M119.207 146.357V137.372C119.267 135.707 119.758 134.086 120.634 132.668L126.584 136.095C125.722 137.493 125.241 139.093 125.189 140.736V149.815L119.207 146.357Z" fill="black"/>
<path d="M275.639 52.826C274.659 53.3904 273.859 55.076 273.859 56.5892C273.859 58.1023 274.643 58.8628 275.639 58.2983C276.635 57.7338 277.411 56.0482 277.411 54.5351C277.411 53.022 276.619 52.2615 275.639 52.826Z" fill="#37474F"/>
<path d="M282.036 49.1253C281.048 49.6898 280.256 51.3754 280.256 52.8885C280.256 54.4016 281.04 55.1621 282.036 54.5976C283.031 54.0331 283.807 52.3475 283.807 50.8344C283.807 49.3213 283.023 48.5608 282.036 49.1253Z" fill="#37474F"/>
<path d="M288.426 45.4246C287.446 45.9969 286.654 47.6747 286.654 49.1878C286.654 50.7009 287.438 51.4614 288.426 50.8969C289.414 50.3324 290.206 48.6468 290.206 47.1337C290.206 45.6206 289.414 44.8601 288.426 45.4246Z" fill="#37474F"/>
<path d="M126.616 292.706L121.693 289.86C121.036 289.481 120.474 288.957 120.05 288.328C119.626 287.699 119.352 286.982 119.247 286.23C119.235 286.006 119.235 285.781 119.247 285.556V146.341L125.221 149.838V290.017C125.222 290.185 125.235 290.353 125.26 290.519C125.273 290.61 125.294 290.699 125.323 290.785C125.315 290.824 125.315 290.864 125.323 290.903C125.349 291.002 125.383 291.1 125.425 291.193C125.424 291.206 125.424 291.219 125.425 291.232L125.589 291.577C125.652 291.687 125.731 291.797 125.801 291.899C125.857 291.978 125.917 292.054 125.981 292.126C126.23 292.411 126.527 292.65 126.859 292.832L126.616 292.706Z" fill="#E0E0E0"/>
<path d="M178.298 351.781C177.343 351.803 176.398 351.579 175.554 351.13L141.905 331.71L143.606 330.722L141.199 328.59C141.113 328.512 141.046 328.414 141.005 328.305C140.964 328.196 140.95 328.078 140.964 327.963C140.983 327.837 141.032 327.718 141.107 327.615C141.182 327.513 141.281 327.43 141.395 327.375L156.432 318.688C156.842 318.478 157.319 318.439 157.757 318.578L161.575 320.013C161.683 320.049 161.796 320.063 161.909 320.055C162.022 320.047 162.133 320.017 162.234 319.966L190.67 303.549L190.866 303.666L223.88 322.725C224.202 322.911 224.469 323.178 224.654 323.5C224.838 323.823 224.934 324.189 224.93 324.56C224.933 324.931 224.837 325.297 224.651 325.618C224.464 325.939 224.196 326.205 223.872 326.387L181.034 351.13C180.192 351.575 179.251 351.799 178.298 351.781ZM143.473 331.71L175.93 350.448C176.661 350.81 177.466 350.999 178.282 350.999C179.099 350.999 179.903 350.81 180.634 350.448L223.48 325.705C223.682 325.589 223.85 325.421 223.966 325.22C224.083 325.018 224.145 324.789 224.145 324.556C224.145 324.323 224.083 324.094 223.966 323.893C223.85 323.691 223.682 323.524 223.48 323.408L190.67 304.466L162.642 320.656C162.441 320.763 162.221 320.828 161.995 320.847C161.768 320.866 161.54 320.838 161.325 320.765L157.499 319.331C157.391 319.296 157.277 319.283 157.164 319.293C157.051 319.302 156.941 319.334 156.84 319.386L141.795 328.065L144.21 330.197C144.296 330.276 144.362 330.373 144.403 330.482C144.444 330.591 144.458 330.709 144.445 330.824C144.423 330.949 144.373 331.067 144.298 331.169C144.223 331.271 144.126 331.354 144.014 331.412L143.473 331.71Z" fill="#E0E0E0"/>
<path d="M197.57 351.796C196.613 351.81 195.669 351.581 194.826 351.13L161.153 331.71L162.862 330.722L160.447 328.59C160.361 328.512 160.294 328.414 160.253 328.305C160.213 328.196 160.198 328.078 160.212 327.963C160.234 327.838 160.284 327.72 160.359 327.618C160.434 327.516 160.531 327.433 160.643 327.375L175.688 318.688C176.096 318.479 176.569 318.439 177.005 318.578L180.823 320.013C181.043 320.085 181.282 320.068 181.49 319.966L209.918 303.549L210.122 303.666L235.413 318.304L235.021 318.986L209.933 304.497L181.89 320.656C181.689 320.763 181.469 320.828 181.243 320.847C181.016 320.866 180.788 320.838 180.573 320.765L176.755 319.331C176.534 319.261 176.295 319.281 176.088 319.386L161.051 328.065L163.458 330.205C163.544 330.281 163.611 330.378 163.652 330.486C163.693 330.593 163.707 330.71 163.693 330.824C163.674 330.95 163.625 331.069 163.55 331.171C163.475 331.274 163.376 331.356 163.262 331.412L162.744 331.718L195.218 350.448C195.949 350.81 196.754 350.999 197.57 350.999C198.386 350.999 199.191 350.81 199.922 350.448L235.39 329.962L235.782 330.652L200.314 351.13C199.47 351.581 198.526 351.81 197.57 351.796Z" fill="#3BADD4"/>
<path d="M243.966 332.416C240.621 332.484 237.313 331.699 234.355 330.134C231.697 328.566 230.254 326.528 230.286 324.309C230.317 322.091 231.791 320.099 234.409 318.586C239.717 315.521 248.357 315.521 253.665 318.586C256.314 320.115 257.765 322.169 257.757 324.364C257.749 326.559 256.275 328.614 253.617 330.134C250.644 331.695 247.324 332.48 243.966 332.416ZM234.754 329.445C239.819 332.369 248.082 332.369 253.225 329.445C255.625 328.073 256.957 326.269 256.965 324.364C256.973 322.459 255.664 320.648 253.273 319.268C248.177 316.328 239.897 316.328 234.801 319.268C232.449 320.64 231.109 322.404 231.077 324.325C231.046 326.246 232.355 328.065 234.754 329.445Z" fill="#3BADD4"/>
<path d="M248.403 327.711C248.266 327.712 248.131 327.677 248.011 327.61L239.246 322.545C239.157 322.493 239.078 322.425 239.015 322.343C238.952 322.261 238.906 322.168 238.879 322.068C238.852 321.968 238.845 321.864 238.858 321.762C238.871 321.659 238.905 321.56 238.956 321.471C239.008 321.381 239.076 321.303 239.158 321.24C239.24 321.177 239.333 321.13 239.433 321.103C239.533 321.076 239.637 321.069 239.739 321.083C239.842 321.096 239.941 321.129 240.03 321.181L248.803 326.238C248.893 326.289 248.972 326.359 249.036 326.441C249.099 326.524 249.145 326.619 249.171 326.719C249.197 326.82 249.203 326.925 249.189 327.028C249.174 327.131 249.139 327.23 249.085 327.319C249.016 327.439 248.917 327.538 248.797 327.607C248.677 327.676 248.542 327.712 248.403 327.711Z" fill="#3BADD4"/>
<path d="M239.638 327.712C239.462 327.716 239.289 327.661 239.148 327.555C239.007 327.45 238.906 327.3 238.86 327.129C238.815 326.959 238.828 326.778 238.898 326.617C238.968 326.455 239.091 326.321 239.246 326.238L248.011 321.181C248.1 321.129 248.199 321.095 248.301 321.081C248.403 321.066 248.507 321.073 248.607 321.099C248.707 321.125 248.8 321.171 248.882 321.233C248.964 321.296 249.033 321.374 249.085 321.463C249.139 321.552 249.174 321.651 249.188 321.755C249.203 321.858 249.197 321.962 249.171 322.063C249.145 322.164 249.099 322.258 249.035 322.341C248.972 322.424 248.893 322.493 248.803 322.545L240.03 327.61C239.911 327.677 239.775 327.713 239.638 327.712Z" fill="#3BADD4"/>
<path d="M127.714 112.433C128.498 112.927 132.222 115.044 133.155 115.522C132.66 115.341 132.129 115.284 131.607 115.355C131.085 115.426 130.588 115.623 130.16 115.93L67.9183 151.884C66.6275 152.732 65.5551 153.872 64.7881 155.213C64.0211 156.553 63.5813 158.056 63.5043 159.598V230.441C63.4722 231.721 63.9453 232.963 64.8215 233.898C64.9257 233.996 65.0356 234.088 65.1507 234.172C61.5992 231.648 57.8831 231.687 57.8125 227.203V156.36C57.8994 154.816 58.3476 153.313 59.121 151.973C59.8944 150.633 60.9715 149.494 62.2656 148.646L124.507 112.692C124.972 112.371 125.513 112.179 126.076 112.133C126.639 112.088 127.204 112.191 127.714 112.433Z" fill="#263238"/>
<path d="M132.143 115.318C131.438 115.344 130.752 115.552 130.152 115.922L67.9178 151.876C66.6297 152.727 65.5592 153.868 64.7926 155.208C64.026 156.548 63.5846 158.049 63.5039 159.591V230.433C63.5039 232.675 64.7505 234.588 66.4909 234.588C67.0112 234.574 67.5188 234.425 67.9649 234.157L130.277 198.179C131.561 197.336 132.63 196.202 133.396 194.871C134.163 193.539 134.606 192.046 134.691 190.512L134.605 118.533C134.605 116.518 133.601 115.397 132.143 115.397V115.318Z" fill="#37474F"/>
<path d="M130.144 115.922L67.9254 151.876C66.6168 152.696 65.5377 153.834 64.7894 155.185L59.1289 151.908C59.8774 150.572 60.9575 149.451 62.2649 148.654L124.507 112.7C124.97 112.366 125.515 112.164 126.085 112.117C126.654 112.07 127.225 112.179 127.737 112.433C128.521 112.927 132.237 115.028 133.17 115.569C132.676 115.373 132.14 115.303 131.612 115.364C131.084 115.426 130.58 115.618 130.144 115.922Z" fill="#455A64"/>
<path d="M83.4102 156.353V198.689C83.4102 200.626 84.7665 201.41 86.4442 200.445L123.104 179.277C123.985 178.704 124.719 177.933 125.247 177.024C125.775 176.116 126.083 175.097 126.146 174.048V131.712C126.146 129.776 124.79 128.992 123.112 129.956L86.4521 151.124C85.5711 151.696 84.8368 152.468 84.3085 153.376C83.7801 154.285 83.4724 155.304 83.4102 156.353Z" fill="#3BADD4"/>
<path opacity="0.3" d="M109.29 149.148C109.29 147.212 107.926 146.428 106.248 147.392L83.4102 160.579V198.681C83.4102 200.618 84.7665 201.402 86.4442 200.437L109.282 187.25L109.29 149.148Z" fill="black"/>
<path d="M72.0195 176.086V218.422C72.0195 220.359 73.3759 221.143 75.0536 220.178L111.713 199.01C112.598 198.434 113.333 197.657 113.86 196.743C114.388 195.829 114.692 194.803 114.748 193.75V151.414C114.748 149.477 113.391 148.693 111.713 149.658L75.0536 170.826C74.1704 171.403 73.4354 172.18 72.9083 173.093C72.3812 174.007 72.0767 175.033 72.0195 176.086Z" fill="#3BADD4"/>
<path opacity="0.3" d="M72.0195 176.086V218.422C72.0195 220.359 73.3759 221.143 75.0536 220.178L111.713 199.01C112.598 198.434 113.333 197.657 113.86 196.743C114.388 195.829 114.692 194.803 114.748 193.75V151.414C114.748 149.477 113.391 148.693 111.713 149.658L75.0536 170.826C74.1704 171.403 73.4354 172.18 72.9083 173.093C72.3812 174.007 72.0767 175.033 72.0195 176.086Z" fill="white"/>
<path d="M106.201 181.551V177.27C106.201 176.486 105.66 176.18 104.993 176.572L97.655 180.806V172.339C97.655 171.555 97.114 171.249 96.4398 171.633L92.7393 173.773C92.3858 174.003 92.0915 174.314 91.8804 174.679C91.6692 175.044 91.5472 175.453 91.5241 175.875V184.342L84.1937 188.575C83.8398 188.805 83.5451 189.115 83.3339 189.48C83.1227 189.845 83.0009 190.255 82.9785 190.676V194.957C82.9785 195.741 83.5195 196.039 84.1937 195.655L91.5241 191.421V199.92C91.5241 200.704 92.0729 201.01 92.7393 200.618L96.4398 198.485C96.7939 198.254 97.0885 197.942 97.2997 197.576C97.5108 197.21 97.6326 196.798 97.655 196.376V187.885L104.993 183.652C105.344 183.42 105.636 183.109 105.845 182.744C106.055 182.379 106.177 181.971 106.201 181.551Z" fill="white"/>
<path d="M154.863 209.022L150.527 206.521V251.194L154.863 253.687L163.26 236.063L175.208 229.171L154.863 209.022Z" fill="#E0E0E0"/>
<path d="M154.864 254.063C154.796 254.063 154.729 254.047 154.668 254.016L150.34 251.515C150.284 251.482 150.237 251.436 150.204 251.379C150.171 251.323 150.153 251.259 150.152 251.194V206.506C150.154 206.44 150.172 206.375 150.205 206.317C150.238 206.26 150.284 206.211 150.34 206.176C150.4 206.146 150.466 206.129 150.533 206.129C150.599 206.129 150.665 206.146 150.725 206.176L155.052 208.677L155.123 208.732L175.468 228.928C175.509 228.97 175.541 229.02 175.56 229.076C175.579 229.132 175.585 229.191 175.577 229.25C175.571 229.306 175.552 229.361 175.52 229.408C175.489 229.456 175.447 229.496 175.397 229.524L163.551 236.36L155.233 253.851C155.21 253.898 155.178 253.939 155.139 253.973C155.1 254.007 155.055 254.032 155.005 254.047C154.96 254.065 154.912 254.07 154.864 254.063ZM150.944 250.974L154.723 253.162L162.955 235.914C162.987 235.845 163.039 235.788 163.104 235.749L174.621 229.101L154.629 209.328L150.913 207.18L150.944 250.974Z" fill="#455A64"/>
<path d="M154.863 209.022V253.687L163.26 236.063L175.208 229.171L154.863 209.022Z" fill="#FAFAFA"/>
<path d="M154.863 254.063H154.777C154.692 254.045 154.617 253.999 154.562 253.932C154.508 253.865 154.479 253.781 154.479 253.695V209.007C154.477 208.932 154.498 208.858 154.538 208.794C154.579 208.731 154.638 208.681 154.707 208.652C154.776 208.622 154.853 208.614 154.927 208.629C155.001 208.643 155.068 208.679 155.122 208.732L175.466 228.928C175.508 228.97 175.54 229.02 175.559 229.076C175.578 229.132 175.584 229.191 175.576 229.25C175.57 229.306 175.55 229.361 175.519 229.409C175.488 229.456 175.445 229.496 175.396 229.524L163.55 236.361L155.231 253.852C155.199 253.921 155.147 253.978 155.081 254.016C155.015 254.054 154.939 254.07 154.863 254.063ZM155.239 209.924V252.017L162.922 235.898C162.954 235.829 163.006 235.772 163.071 235.733L174.588 229.085L155.239 209.924Z" fill="#455A64"/>
<path d="M142.523 206.443L138.195 203.942V248.614L142.523 251.107L150.927 233.483L162.868 226.584L142.523 206.443Z" fill="#263238"/>
<path d="M142.523 206.443V251.107L150.928 233.483L162.868 226.584L142.523 206.443Z" fill="#455A64"/>
<path d="M236.768 217.615C236.707 217.615 236.646 217.598 236.594 217.566C236.541 217.535 236.499 217.489 236.47 217.435C236.424 217.354 236.411 217.259 236.435 217.17C236.458 217.08 236.516 217.004 236.595 216.956L238.414 215.906C238.495 215.859 238.592 215.846 238.682 215.871C238.773 215.895 238.85 215.954 238.896 216.035C238.943 216.116 238.956 216.213 238.932 216.303C238.907 216.394 238.848 216.471 238.767 216.517L236.948 217.568C236.893 217.599 236.831 217.615 236.768 217.615ZM234.243 216.98C234.197 216.981 234.152 216.973 234.109 216.956C234.066 216.939 234.027 216.914 233.994 216.882C233.962 216.85 233.935 216.811 233.918 216.769C233.9 216.726 233.891 216.681 233.891 216.635C233.887 216.617 233.887 216.598 233.891 216.58V214.51C233.891 214.417 233.928 214.327 233.994 214.261C234.06 214.195 234.15 214.158 234.243 214.158C234.337 214.158 234.427 214.195 234.493 214.261C234.559 214.327 234.596 214.417 234.596 214.51V216.619C234.596 216.715 234.558 216.807 234.491 216.874C234.423 216.942 234.331 216.98 234.236 216.98H234.243ZM241.629 214.808C241.55 214.811 241.473 214.788 241.41 214.741C241.347 214.694 241.302 214.628 241.282 214.552C241.262 214.476 241.268 214.396 241.3 214.324C241.332 214.253 241.387 214.194 241.456 214.158L243.275 213.107C243.315 213.083 243.358 213.068 243.404 213.061C243.45 213.054 243.496 213.057 243.541 213.069C243.585 213.08 243.627 213.101 243.664 213.129C243.7 213.157 243.731 213.192 243.753 213.232C243.799 213.313 243.812 213.408 243.788 213.497C243.765 213.587 243.707 213.663 243.628 213.711L241.801 214.761C241.747 214.795 241.685 214.814 241.621 214.816L241.629 214.808ZM246.482 212.009C246.42 212.009 246.36 211.992 246.308 211.961C246.255 211.929 246.212 211.883 246.184 211.829C246.138 211.749 246.125 211.654 246.149 211.564C246.172 211.475 246.23 211.398 246.309 211.351L248.136 210.3C248.176 210.272 248.222 210.252 248.27 210.243C248.319 210.233 248.369 210.234 248.417 210.245C248.465 210.256 248.51 210.276 248.55 210.306C248.589 210.335 248.622 210.373 248.646 210.415C248.67 210.458 248.685 210.506 248.69 210.555C248.695 210.604 248.689 210.654 248.674 210.7C248.658 210.747 248.633 210.79 248.6 210.826C248.566 210.863 248.526 210.892 248.481 210.912L246.662 211.962C246.605 211.995 246.54 212.011 246.474 212.009H246.482ZM234.243 211.359C234.15 211.359 234.06 211.322 233.994 211.255C233.928 211.189 233.891 211.099 233.891 211.006V208.905C233.891 208.811 233.928 208.721 233.994 208.655C234.06 208.589 234.15 208.552 234.243 208.552C234.337 208.552 234.427 208.589 234.493 208.655C234.559 208.721 234.596 208.811 234.596 208.905V211.006C234.596 211.053 234.587 211.099 234.569 211.143C234.55 211.186 234.524 211.225 234.49 211.258C234.457 211.291 234.417 211.317 234.373 211.334C234.329 211.351 234.283 211.36 234.236 211.359H234.243ZM251.342 209.203C251.281 209.202 251.221 209.185 251.168 209.155C251.114 209.125 251.069 209.082 251.037 209.03C250.991 208.949 250.98 208.853 251.005 208.764C251.03 208.674 251.089 208.598 251.17 208.552L252.989 207.501C253.068 207.469 253.156 207.466 253.237 207.493C253.318 207.52 253.386 207.575 253.429 207.649C253.472 207.723 253.487 207.81 253.471 207.893C253.455 207.977 253.409 208.053 253.342 208.105L251.515 209.156C251.46 209.188 251.398 209.204 251.335 209.203H251.342ZM256.203 206.404C256.141 206.405 256.079 206.389 256.025 206.357C255.971 206.325 255.927 206.279 255.898 206.224C255.852 206.143 255.839 206.048 255.862 205.959C255.886 205.869 255.944 205.793 256.023 205.745L257.85 204.695C257.89 204.666 257.936 204.647 257.984 204.637C258.032 204.628 258.082 204.628 258.13 204.639C258.178 204.65 258.224 204.671 258.263 204.7C258.303 204.73 258.336 204.767 258.36 204.81C258.384 204.853 258.399 204.9 258.404 204.949C258.409 204.998 258.403 205.048 258.387 205.095C258.372 205.141 258.347 205.184 258.313 205.221C258.28 205.257 258.24 205.286 258.195 205.306L256.368 206.357C256.315 206.387 256.256 206.403 256.195 206.404H256.203ZM234.251 205.753C234.158 205.753 234.068 205.716 234.002 205.65C233.936 205.584 233.898 205.494 233.898 205.4V203.299C233.898 203.206 233.936 203.116 234.002 203.05C234.068 202.984 234.158 202.946 234.251 202.946C234.345 202.946 234.435 202.984 234.501 203.05C234.567 203.116 234.604 203.206 234.604 203.299V205.408C234.603 205.455 234.593 205.501 234.574 205.544C234.554 205.587 234.527 205.626 234.492 205.658C234.458 205.69 234.418 205.715 234.374 205.732C234.33 205.748 234.283 205.755 234.236 205.753H234.251ZM261.064 203.597C260.989 203.594 260.917 203.566 260.859 203.519C260.8 203.472 260.758 203.408 260.739 203.335C260.72 203.262 260.724 203.186 260.752 203.116C260.779 203.046 260.828 202.986 260.892 202.946L262.71 201.896C262.751 201.872 262.795 201.856 262.841 201.849C262.887 201.843 262.935 201.845 262.98 201.857C263.025 201.869 263.067 201.889 263.105 201.917C263.142 201.946 263.173 201.981 263.197 202.021C263.242 202.102 263.253 202.198 263.228 202.288C263.203 202.377 263.144 202.453 263.063 202.499L261.244 203.55C261.192 203.58 261.132 203.596 261.072 203.597H261.064ZM265.925 200.798C265.863 200.797 265.802 200.78 265.748 200.748C265.695 200.717 265.65 200.672 265.619 200.618C265.574 200.537 265.562 200.441 265.587 200.351C265.612 200.262 265.672 200.186 265.752 200.14L267.571 199.089C267.652 199.044 267.748 199.032 267.838 199.057C267.927 199.082 268.003 199.142 268.05 199.222C268.095 199.303 268.108 199.398 268.085 199.487C268.061 199.577 268.003 199.653 267.924 199.701L266.097 200.751C266.041 200.785 265.975 200.801 265.909 200.798H265.925ZM234.251 200.14C234.158 200.14 234.068 200.102 234.002 200.036C233.936 199.97 233.898 199.88 233.898 199.787V197.686C233.898 197.639 233.908 197.594 233.925 197.551C233.943 197.508 233.969 197.469 234.002 197.436C234.035 197.404 234.073 197.378 234.116 197.36C234.159 197.342 234.205 197.333 234.251 197.333C234.298 197.333 234.344 197.342 234.386 197.36C234.429 197.378 234.468 197.404 234.501 197.436C234.534 197.469 234.56 197.508 234.577 197.551C234.595 197.594 234.604 197.639 234.604 197.686V199.787C234.604 199.835 234.595 199.882 234.576 199.926C234.557 199.969 234.53 200.009 234.495 200.042C234.461 200.075 234.42 200.101 234.375 200.117C234.331 200.134 234.283 200.142 234.236 200.14H234.251ZM270.786 197.991C270.724 197.993 270.663 197.977 270.609 197.947C270.555 197.917 270.511 197.873 270.48 197.819C270.434 197.739 270.421 197.644 270.445 197.554C270.468 197.465 270.526 197.388 270.605 197.341L272.432 196.29C272.471 196.265 272.515 196.249 272.561 196.242C272.607 196.234 272.654 196.237 272.699 196.249C272.743 196.26 272.785 196.281 272.822 196.31C272.858 196.339 272.888 196.375 272.91 196.416C272.956 196.497 272.967 196.593 272.942 196.682C272.917 196.772 272.858 196.848 272.777 196.894L270.958 197.944C270.901 197.977 270.836 197.993 270.77 197.991H270.786ZM275.639 195.193C275.577 195.193 275.517 195.176 275.465 195.144C275.412 195.112 275.369 195.067 275.341 195.012C275.317 194.973 275.301 194.929 275.295 194.883C275.288 194.838 275.291 194.791 275.302 194.747C275.314 194.702 275.335 194.66 275.363 194.624C275.391 194.587 275.426 194.557 275.466 194.534L277.285 193.483C277.366 193.437 277.462 193.424 277.553 193.448C277.643 193.473 277.72 193.532 277.767 193.613C277.814 193.694 277.827 193.79 277.802 193.881C277.778 193.971 277.719 194.048 277.638 194.095L275.819 195.146C275.762 195.188 275.694 195.212 275.623 195.216L275.639 195.193ZM234.251 194.534C234.158 194.534 234.068 194.497 234.002 194.431C233.936 194.365 233.898 194.275 233.898 194.181V192.08C233.898 191.987 233.936 191.897 234.002 191.831C234.068 191.765 234.158 191.727 234.251 191.727C234.345 191.727 234.435 191.765 234.501 191.831C234.567 191.897 234.604 191.987 234.604 192.08V194.181C234.604 194.229 234.595 194.276 234.576 194.32C234.557 194.364 234.53 194.403 234.495 194.436C234.461 194.469 234.42 194.495 234.375 194.512C234.331 194.529 234.283 194.536 234.236 194.534H234.251ZM280.068 191.892C280.014 191.906 279.958 191.906 279.904 191.892C279.863 191.871 279.826 191.843 279.796 191.808C279.766 191.773 279.744 191.732 279.73 191.688C279.716 191.644 279.711 191.598 279.715 191.552C279.72 191.507 279.733 191.462 279.755 191.422C279.995 190.975 280.129 190.478 280.147 189.971V189.548C280.159 189.464 280.201 189.388 280.265 189.333C280.329 189.278 280.411 189.247 280.496 189.247C280.58 189.247 280.662 189.278 280.726 189.333C280.79 189.388 280.832 189.464 280.844 189.548V189.971C280.83 190.591 280.669 191.198 280.374 191.743C280.34 191.795 280.291 191.837 280.234 191.863C280.178 191.889 280.115 191.899 280.053 191.892H280.068ZM234.236 188.944C234.143 188.944 234.055 188.908 233.989 188.844C233.923 188.779 233.885 188.691 233.883 188.599V186.49C233.883 186.397 233.92 186.307 233.986 186.241C234.052 186.175 234.142 186.137 234.236 186.137C234.329 186.137 234.419 186.175 234.485 186.241C234.551 186.307 234.588 186.397 234.588 186.49V188.599C234.586 188.691 234.548 188.779 234.482 188.844C234.416 188.908 234.328 188.944 234.236 188.944ZM280.492 186.38C280.398 186.38 280.308 186.343 280.242 186.277C280.176 186.211 280.139 186.121 280.139 186.028V183.927C280.131 183.876 280.135 183.825 280.149 183.776C280.163 183.728 280.187 183.682 280.22 183.644C280.253 183.605 280.294 183.575 280.341 183.553C280.387 183.532 280.437 183.521 280.488 183.521C280.538 183.521 280.589 183.532 280.635 183.553C280.681 183.575 280.722 183.605 280.755 183.644C280.788 183.682 280.813 183.728 280.827 183.776C280.841 183.825 280.844 183.876 280.837 183.927V186.028C280.831 186.117 280.791 186.201 280.725 186.262C280.66 186.323 280.573 186.357 280.484 186.357L280.492 186.38ZM234.236 183.339C234.142 183.339 234.052 183.301 233.986 183.235C233.92 183.169 233.883 183.079 233.883 182.986V180.885C233.883 180.791 233.92 180.701 233.986 180.635C234.052 180.569 234.142 180.532 234.236 180.532C234.329 180.532 234.419 180.569 234.485 180.635C234.551 180.701 234.588 180.791 234.588 180.885V182.986C234.582 183.075 234.543 183.159 234.477 183.22C234.412 183.281 234.325 183.315 234.236 183.315V183.339ZM280.492 180.767C280.4 180.767 280.312 180.731 280.248 180.666C280.183 180.601 280.147 180.514 280.147 180.422V178.313C280.159 178.23 280.201 178.153 280.265 178.098C280.329 178.043 280.411 178.013 280.496 178.013C280.58 178.013 280.662 178.043 280.726 178.098C280.79 178.153 280.832 178.23 280.844 178.313V180.422C280.836 180.513 280.794 180.597 280.725 180.657C280.656 180.717 280.567 180.748 280.476 180.743L280.492 180.767ZM234.236 177.733C234.142 177.733 234.052 177.696 233.986 177.63C233.92 177.563 233.883 177.474 233.883 177.38V175.279C233.883 175.185 233.92 175.096 233.986 175.03C234.052 174.963 234.142 174.926 234.236 174.926C234.329 174.926 234.419 174.963 234.485 175.03C234.551 175.096 234.588 175.185 234.588 175.279V177.38C234.582 177.47 234.543 177.553 234.477 177.615C234.412 177.676 234.325 177.71 234.236 177.709V177.733ZM280.492 175.161C280.399 175.159 280.312 175.121 280.247 175.055C280.183 174.989 280.147 174.901 280.147 174.809V172.707C280.139 172.657 280.142 172.606 280.157 172.557C280.171 172.508 280.195 172.463 280.228 172.425C280.261 172.386 280.302 172.356 280.348 172.334C280.395 172.313 280.445 172.302 280.496 172.302C280.546 172.302 280.596 172.313 280.643 172.334C280.689 172.356 280.73 172.386 280.763 172.425C280.796 172.463 280.82 172.508 280.834 172.557C280.849 172.606 280.852 172.657 280.844 172.707V174.809C280.838 174.901 280.796 174.987 280.727 175.049C280.659 175.11 280.568 175.142 280.476 175.138L280.492 175.161ZM234.236 172.119C234.142 172.119 234.052 172.082 233.986 172.016C233.92 171.95 233.883 171.86 233.883 171.767V169.666C233.883 169.572 233.92 169.482 233.986 169.416C234.052 169.35 234.142 169.313 234.236 169.313C234.329 169.313 234.419 169.35 234.485 169.416C234.551 169.482 234.588 169.572 234.588 169.666V171.767C234.582 171.856 234.543 171.94 234.477 172.001C234.412 172.062 234.325 172.096 234.236 172.096V172.119ZM280.492 169.556C280.399 169.554 280.312 169.516 280.247 169.45C280.183 169.384 280.147 169.295 280.147 169.203V167.102C280.139 167.052 280.142 167 280.157 166.952C280.171 166.903 280.195 166.858 280.228 166.819C280.261 166.781 280.302 166.75 280.348 166.729C280.395 166.708 280.445 166.697 280.496 166.697C280.546 166.697 280.596 166.708 280.643 166.729C280.689 166.75 280.73 166.781 280.763 166.819C280.796 166.858 280.82 166.903 280.834 166.952C280.849 167 280.852 167.052 280.844 167.102V169.203C280.838 169.295 280.796 169.381 280.727 169.443C280.659 169.505 280.568 169.537 280.476 169.532L280.492 169.556ZM234.236 166.514C234.142 166.514 234.052 166.477 233.986 166.411C233.92 166.344 233.883 166.255 233.883 166.161V164.06C233.883 163.966 233.92 163.877 233.986 163.81C234.052 163.744 234.142 163.707 234.236 163.707C234.329 163.707 234.419 163.744 234.485 163.81C234.551 163.877 234.588 163.966 234.588 164.06V166.161C234.582 166.251 234.543 166.334 234.477 166.395C234.412 166.457 234.325 166.491 234.236 166.49V166.514ZM280.492 163.942C280.399 163.942 280.311 163.906 280.245 163.842C280.179 163.777 280.141 163.69 280.139 163.597V161.504C280.139 161.411 280.176 161.321 280.242 161.255C280.308 161.188 280.398 161.151 280.492 161.151C280.585 161.151 280.675 161.188 280.741 161.255C280.807 161.321 280.844 161.411 280.844 161.504V163.613C280.833 163.701 280.788 163.781 280.72 163.838C280.652 163.895 280.565 163.924 280.476 163.919L280.492 163.942ZM234.236 160.9C234.143 160.9 234.055 160.864 233.989 160.8C233.923 160.735 233.885 160.648 233.883 160.555V158.447C233.883 158.353 233.92 158.263 233.986 158.197C234.052 158.131 234.142 158.094 234.236 158.094C234.329 158.094 234.419 158.131 234.485 158.197C234.551 158.263 234.588 158.353 234.588 158.447V160.555C234.581 160.644 234.54 160.725 234.475 160.785C234.409 160.844 234.324 160.877 234.236 160.877V160.9ZM280.492 158.337C280.398 158.337 280.308 158.3 280.242 158.233C280.176 158.167 280.139 158.078 280.139 157.984V155.859C280.139 155.766 280.176 155.676 280.242 155.61C280.308 155.544 280.398 155.507 280.492 155.507C280.585 155.507 280.675 155.544 280.741 155.61C280.807 155.676 280.844 155.766 280.844 155.859V157.96C280.844 158.008 280.835 158.055 280.816 158.099C280.797 158.143 280.77 158.183 280.736 158.216C280.701 158.249 280.66 158.274 280.616 158.291C280.571 158.308 280.524 158.315 280.476 158.313L280.492 158.337ZM234.236 155.295C234.142 155.295 234.052 155.258 233.986 155.192C233.92 155.125 233.883 155.036 233.883 154.942V152.841C233.883 152.747 233.92 152.658 233.986 152.591C234.052 152.525 234.142 152.488 234.236 152.488C234.329 152.488 234.419 152.525 234.485 152.591C234.551 152.658 234.588 152.747 234.588 152.841V154.942C234.582 155.031 234.543 155.115 234.477 155.176C234.412 155.238 234.325 155.272 234.236 155.271V155.295ZM280.492 152.731C280.398 152.731 280.308 152.694 280.242 152.628C280.176 152.562 280.139 152.472 280.139 152.378V150.277C280.131 150.227 280.135 150.176 280.149 150.127C280.163 150.078 280.187 150.033 280.22 149.995C280.253 149.956 280.294 149.925 280.341 149.904C280.387 149.883 280.437 149.872 280.488 149.872C280.538 149.872 280.589 149.883 280.635 149.904C280.681 149.925 280.722 149.956 280.755 149.995C280.788 150.033 280.813 150.078 280.827 150.127C280.841 150.176 280.844 150.227 280.837 150.277V152.378C280.831 152.469 280.79 152.554 280.722 152.615C280.655 152.677 280.567 152.71 280.476 152.708L280.492 152.731ZM234.236 149.689C234.142 149.689 234.052 149.652 233.986 149.586C233.92 149.52 233.883 149.43 233.883 149.336V147.235C233.883 147.142 233.92 147.052 233.986 146.986C234.052 146.92 234.142 146.883 234.236 146.883C234.329 146.883 234.419 146.92 234.485 146.986C234.551 147.052 234.588 147.142 234.588 147.235V149.336C234.582 149.426 234.543 149.51 234.477 149.571C234.412 149.632 234.325 149.666 234.236 149.666V149.689ZM280.492 147.118C280.398 147.118 280.308 147.081 280.242 147.014C280.176 146.948 280.139 146.858 280.139 146.765V144.664C280.131 144.614 280.135 144.562 280.149 144.514C280.163 144.465 280.187 144.42 280.22 144.381C280.253 144.343 280.294 144.312 280.341 144.291C280.387 144.27 280.437 144.259 280.488 144.259C280.538 144.259 280.589 144.27 280.635 144.291C280.681 144.312 280.722 144.343 280.755 144.381C280.788 144.42 280.813 144.465 280.827 144.514C280.841 144.562 280.844 144.614 280.837 144.664V146.765C280.831 146.856 280.79 146.941 280.722 147.002C280.655 147.063 280.567 147.096 280.476 147.094L280.492 147.118ZM234.236 144.076C234.143 144.076 234.055 144.04 233.989 143.975C233.923 143.911 233.885 143.823 233.883 143.731V141.622C233.883 141.528 233.92 141.439 233.986 141.372C234.052 141.306 234.142 141.269 234.236 141.269C234.329 141.269 234.419 141.306 234.485 141.372C234.551 141.439 234.588 141.528 234.588 141.622V143.731C234.581 143.819 234.54 143.901 234.475 143.96C234.409 144.02 234.324 144.053 234.236 144.052V144.076ZM280.492 141.512C280.398 141.512 280.308 141.475 280.242 141.409C280.176 141.343 280.139 141.253 280.139 141.159V139.058C280.131 139.008 280.135 138.957 280.149 138.908C280.163 138.859 280.187 138.814 280.22 138.776C280.253 138.737 280.294 138.706 280.341 138.685C280.387 138.664 280.437 138.653 280.488 138.653C280.538 138.653 280.589 138.664 280.635 138.685C280.681 138.706 280.722 138.737 280.755 138.776C280.788 138.814 280.813 138.859 280.827 138.908C280.841 138.957 280.844 139.008 280.837 139.058V141.12C280.839 141.168 280.831 141.217 280.814 141.262C280.796 141.307 280.77 141.348 280.736 141.383C280.702 141.417 280.662 141.444 280.617 141.463C280.572 141.481 280.524 141.49 280.476 141.489L280.492 141.512ZM235.059 138.651C234.983 138.65 234.908 138.625 234.847 138.58C234.772 138.524 234.723 138.44 234.71 138.348C234.696 138.255 234.72 138.161 234.777 138.086C235.078 137.67 235.459 137.318 235.898 137.051L236.509 136.698C236.589 136.652 236.685 136.64 236.774 136.663C236.863 136.687 236.94 136.744 236.987 136.824C237.011 136.863 237.027 136.907 237.033 136.953C237.04 136.998 237.037 137.045 237.026 137.089C237.014 137.134 236.993 137.176 236.965 137.212C236.937 137.249 236.902 137.279 236.862 137.302L236.25 137.655C235.894 137.874 235.585 138.161 235.341 138.502C235.305 138.545 235.259 138.579 235.207 138.6C235.155 138.622 235.099 138.631 235.043 138.627L235.059 138.651ZM280.484 135.899C280.392 135.899 280.305 135.862 280.24 135.798C280.175 135.733 280.139 135.645 280.139 135.554V133.445C280.151 133.361 280.193 133.285 280.257 133.23C280.322 133.175 280.403 133.144 280.488 133.144C280.572 133.144 280.654 133.175 280.718 133.23C280.782 133.285 280.824 133.361 280.837 133.445V135.554C280.829 135.645 280.786 135.729 280.717 135.789C280.648 135.849 280.559 135.88 280.468 135.875L280.484 135.899ZM239.716 135.601C239.653 135.602 239.591 135.586 239.537 135.554C239.483 135.522 239.439 135.476 239.41 135.42C239.364 135.34 239.351 135.245 239.375 135.156C239.398 135.066 239.456 134.99 239.535 134.942L241.362 133.892C241.442 133.846 241.537 133.833 241.627 133.857C241.716 133.88 241.793 133.938 241.84 134.017C241.887 134.099 241.9 134.195 241.876 134.286C241.853 134.376 241.795 134.454 241.715 134.503L239.904 135.53C239.844 135.564 239.776 135.58 239.708 135.577L239.716 135.601ZM244.569 132.794C244.494 132.791 244.422 132.763 244.363 132.716C244.305 132.669 244.263 132.605 244.244 132.532C244.224 132.459 244.229 132.383 244.256 132.313C244.284 132.243 244.333 132.183 244.396 132.143L246.215 131.085C246.296 131.038 246.393 131.025 246.483 131.05C246.573 131.074 246.651 131.133 246.697 131.214C246.744 131.295 246.757 131.392 246.732 131.482C246.708 131.573 246.649 131.65 246.568 131.696L244.749 132.747C244.69 132.771 244.625 132.78 244.561 132.771L244.569 132.794ZM280.476 130.293C280.382 130.293 280.293 130.256 280.226 130.19C280.16 130.124 280.123 130.034 280.123 129.94V127.792C280.123 127.699 280.16 127.609 280.226 127.543C280.293 127.476 280.382 127.439 280.476 127.439C280.569 127.439 280.659 127.476 280.725 127.543C280.792 127.609 280.829 127.699 280.829 127.792V129.893C280.832 129.942 280.825 129.991 280.808 130.037C280.792 130.083 280.765 130.126 280.731 130.161C280.697 130.196 280.657 130.224 280.611 130.243C280.566 130.262 280.517 130.271 280.468 130.27L280.476 130.293ZM249.43 129.987C249.368 129.986 249.308 129.97 249.255 129.94C249.201 129.91 249.156 129.867 249.124 129.815C249.078 129.734 249.067 129.638 249.092 129.548C249.117 129.459 249.176 129.383 249.257 129.337L251.076 128.286C251.115 128.262 251.159 128.247 251.205 128.24C251.25 128.233 251.297 128.236 251.342 128.248C251.386 128.26 251.428 128.28 251.464 128.308C251.501 128.336 251.531 128.371 251.554 128.411C251.6 128.492 251.613 128.587 251.589 128.676C251.566 128.766 251.508 128.842 251.429 128.89L249.602 129.94C249.545 129.964 249.483 129.973 249.422 129.964L249.43 129.987ZM254.29 127.188C254.233 127.184 254.178 127.166 254.13 127.134C254.082 127.102 254.042 127.059 254.016 127.008C253.97 126.928 253.957 126.833 253.981 126.743C254.004 126.654 254.062 126.577 254.141 126.53L255.96 125.479C256.042 125.433 256.138 125.42 256.229 125.444C256.319 125.467 256.397 125.525 256.446 125.605C256.47 125.645 256.485 125.689 256.491 125.735C256.497 125.781 256.494 125.828 256.481 125.872C256.469 125.917 256.447 125.958 256.419 125.995C256.39 126.031 256.354 126.061 256.313 126.083L254.494 127.141C254.428 127.17 254.354 127.179 254.282 127.165L254.29 127.188ZM280.476 124.687C280.382 124.687 280.293 124.65 280.226 124.584C280.16 124.518 280.123 124.428 280.123 124.335V122.234C280.123 122.14 280.16 122.05 280.226 121.984C280.293 121.918 280.382 121.881 280.476 121.881C280.569 121.881 280.659 121.918 280.725 121.984C280.792 122.05 280.829 122.14 280.829 122.234V124.335C280.821 124.424 280.779 124.507 280.712 124.567C280.645 124.627 280.558 124.658 280.468 124.656L280.476 124.687ZM259.143 124.382C259.082 124.381 259.022 124.364 258.969 124.334C258.915 124.304 258.87 124.261 258.838 124.209C258.792 124.127 258.78 124.03 258.805 123.939C258.83 123.848 258.89 123.771 258.971 123.723L260.79 122.673C260.871 122.627 260.967 122.616 261.056 122.641C261.146 122.666 261.222 122.725 261.268 122.806C261.314 122.886 261.326 122.981 261.303 123.071C261.28 123.16 261.222 123.237 261.142 123.284L259.316 124.335C259.259 124.359 259.197 124.367 259.135 124.358L259.143 124.382ZM264.004 121.575C263.942 121.576 263.881 121.561 263.828 121.531C263.774 121.5 263.729 121.456 263.698 121.403C263.652 121.322 263.64 121.227 263.663 121.138C263.687 121.048 263.744 120.972 263.824 120.924L265.65 119.874C265.69 119.851 265.734 119.836 265.779 119.831C265.824 119.825 265.87 119.828 265.914 119.84C265.958 119.852 266 119.873 266.036 119.901C266.072 119.929 266.102 119.963 266.125 120.003C266.147 120.043 266.162 120.086 266.168 120.132C266.174 120.177 266.17 120.223 266.158 120.267C266.146 120.311 266.126 120.352 266.098 120.388C266.07 120.425 266.035 120.455 265.995 120.477L264.208 121.52C264.139 121.541 264.065 121.541 263.996 121.52L264.004 121.575ZM280.468 119.074C280.376 119.074 280.287 119.038 280.221 118.973C280.155 118.909 280.117 118.821 280.115 118.729V116.62C280.115 116.527 280.152 116.437 280.219 116.371C280.285 116.304 280.375 116.267 280.468 116.267C280.562 116.267 280.651 116.304 280.718 116.371C280.784 116.437 280.821 116.527 280.821 116.62V118.729C280.813 118.817 280.772 118.899 280.707 118.959C280.642 119.018 280.556 119.051 280.468 119.051V119.074ZM268.849 118.776C268.787 118.775 268.726 118.758 268.673 118.726C268.619 118.695 268.575 118.65 268.543 118.596C268.498 118.515 268.487 118.419 268.512 118.329C268.537 118.24 268.596 118.164 268.677 118.118L270.496 117.067C270.576 117.021 270.671 117.008 270.76 117.032C270.85 117.055 270.926 117.113 270.974 117.192C270.998 117.232 271.013 117.276 271.02 117.321C271.026 117.367 271.024 117.413 271.012 117.458C271 117.503 270.98 117.544 270.952 117.581C270.924 117.617 270.889 117.648 270.848 117.671L269.03 118.729C268.972 118.751 268.91 118.759 268.849 118.753V118.776ZM273.71 115.969C273.648 115.971 273.587 115.955 273.534 115.925C273.48 115.895 273.435 115.85 273.404 115.797C273.358 115.715 273.345 115.619 273.368 115.528C273.392 115.438 273.45 115.36 273.53 115.311L275.356 114.26C275.397 114.232 275.443 114.212 275.491 114.203C275.539 114.193 275.589 114.194 275.637 114.205C275.685 114.216 275.73 114.236 275.77 114.266C275.81 114.295 275.842 114.333 275.867 114.375C275.891 114.418 275.906 114.466 275.911 114.515C275.915 114.564 275.91 114.614 275.894 114.66C275.879 114.707 275.853 114.75 275.82 114.786C275.787 114.823 275.746 114.852 275.701 114.872L273.882 115.922C273.828 115.944 273.769 115.952 273.71 115.946V115.969ZM280.343 113.484C280.273 113.484 280.205 113.463 280.148 113.424C280.091 113.385 280.046 113.329 280.021 113.265C279.833 112.818 279.363 112.755 278.822 113.069L278.743 113.116C278.703 113.14 278.659 113.155 278.613 113.162C278.566 113.169 278.519 113.166 278.474 113.154C278.429 113.143 278.386 113.122 278.349 113.094C278.312 113.066 278.281 113.031 278.257 112.99C278.234 112.95 278.219 112.906 278.213 112.86C278.207 112.814 278.21 112.767 278.222 112.723C278.235 112.678 278.256 112.636 278.285 112.6C278.314 112.564 278.35 112.534 278.39 112.512L278.469 112.465C278.64 112.329 278.84 112.233 279.053 112.186C279.267 112.138 279.488 112.141 279.701 112.192C279.913 112.244 280.111 112.343 280.28 112.483C280.448 112.622 280.582 112.799 280.672 112.998C280.705 113.084 280.704 113.18 280.667 113.266C280.63 113.351 280.562 113.418 280.476 113.453C280.433 113.467 280.387 113.47 280.343 113.461V113.484Z" fill="#3BADD4"/>
<path d="M234.235 159.826C234.174 159.826 234.115 159.81 234.063 159.779L232.236 158.729C232.156 158.681 232.099 158.605 232.075 158.515C232.052 158.426 232.064 158.331 232.11 158.25C232.156 158.17 232.233 158.11 232.322 158.085C232.412 158.06 232.507 158.072 232.589 158.117L234.415 159.152C234.497 159.2 234.556 159.277 234.581 159.368C234.606 159.459 234.594 159.556 234.549 159.638C234.519 159.696 234.474 159.744 234.419 159.777C234.363 159.81 234.3 159.827 234.235 159.826ZM229.374 157.02C229.314 157.019 229.254 157.002 229.202 156.972L227.359 155.922C227.288 155.872 227.238 155.796 227.218 155.711C227.199 155.626 227.212 155.536 227.255 155.46C227.298 155.384 227.368 155.326 227.451 155.299C227.534 155.271 227.624 155.275 227.704 155.31L229.531 156.369C229.61 156.416 229.668 156.493 229.692 156.582C229.715 156.672 229.702 156.767 229.656 156.847C229.628 156.897 229.587 156.939 229.537 156.969C229.488 156.999 229.432 157.017 229.374 157.02ZM224.521 154.213C224.458 154.213 224.396 154.197 224.341 154.166L222.522 153.115C222.441 153.069 222.382 152.993 222.357 152.904C222.332 152.814 222.344 152.718 222.389 152.637C222.412 152.597 222.444 152.561 222.481 152.533C222.518 152.505 222.56 152.484 222.606 152.473C222.651 152.461 222.698 152.458 222.744 152.465C222.79 152.472 222.835 152.488 222.875 152.512L224.694 153.562C224.757 153.602 224.806 153.662 224.834 153.731C224.861 153.801 224.866 153.878 224.846 153.951C224.827 154.023 224.785 154.088 224.727 154.135C224.668 154.182 224.596 154.209 224.521 154.213ZM219.66 151.406C219.597 151.41 219.534 151.394 219.48 151.359L217.661 150.308C217.621 150.286 217.586 150.255 217.558 150.219C217.53 150.182 217.509 150.14 217.498 150.096C217.486 150.051 217.483 150.005 217.49 149.959C217.496 149.914 217.512 149.87 217.536 149.83C217.583 149.751 217.66 149.693 217.749 149.67C217.839 149.646 217.934 149.659 218.014 149.705L219.833 150.755C219.896 150.795 219.946 150.855 219.973 150.925C220 150.995 220.005 151.071 219.986 151.144C219.966 151.217 219.924 151.281 219.866 151.328C219.807 151.375 219.736 151.403 219.66 151.406Z" fill="#3BADD4"/>
<path d="M279.887 104.014C283.94 101.662 287.225 103.575 287.225 108.255C287.225 112.935 283.94 118.635 279.887 120.971C275.834 123.308 272.541 121.418 272.541 116.738C272.541 112.057 275.818 106.358 279.887 104.014Z" fill="#FAFAFA"/>
<path d="M276.593 122.304C275.871 122.315 275.158 122.131 274.532 121.771C273.05 120.917 272.234 119.137 272.234 116.761C272.234 111.987 275.598 106.162 279.729 103.778C281.784 102.587 283.736 102.406 285.217 103.261C286.699 104.115 287.522 105.903 287.522 108.278C287.522 113.053 284.159 118.87 280.027 121.262C278.992 121.899 277.809 122.258 276.593 122.304ZM283.156 103.331C282.044 103.376 280.964 103.708 280.02 104.296C276.052 106.585 272.822 112.175 272.822 116.761C272.822 118.91 273.536 120.509 274.822 121.254C276.107 121.998 277.856 121.818 279.722 120.736C283.689 118.447 286.911 112.857 286.911 108.278C286.911 106.122 286.197 104.531 284.912 103.786C284.38 103.473 283.773 103.308 283.156 103.308V103.331Z" fill="#3BADD4"/>
<path d="M284.592 110.638V108.906C284.592 108.592 284.372 108.467 284.098 108.623L281.119 110.34V106.899C281.119 106.585 280.899 106.46 280.633 106.616L279.104 107.487C278.96 107.58 278.84 107.706 278.755 107.855C278.669 108.003 278.619 108.17 278.61 108.341V111.775L275.631 113.492C275.487 113.586 275.367 113.712 275.281 113.86C275.196 114.009 275.146 114.175 275.137 114.347V116.087C275.137 116.401 275.356 116.526 275.631 116.369L278.61 114.652V118.086C278.61 118.4 278.829 118.533 279.104 118.376L280.609 117.506C280.751 117.411 280.869 117.285 280.953 117.136C281.037 116.988 281.086 116.822 281.095 116.652V113.218L284.074 111.493C284.222 111.402 284.347 111.277 284.437 111.128C284.527 110.98 284.58 110.812 284.592 110.638Z" fill="#3BADD4"/>
<path d="M282.655 130.662V185.024C282.634 185.43 282.517 185.824 282.314 186.176C282.111 186.528 281.828 186.826 281.487 187.047L242.193 209.736C242.077 209.825 241.938 209.879 241.792 209.893C241.647 209.906 241.501 209.879 241.37 209.814L239.175 208.552C239.049 208.468 238.95 208.349 238.89 208.21C238.83 208.071 238.812 207.918 238.837 207.768V142.132C238.858 141.727 238.973 141.333 239.175 140.981C239.377 140.63 239.659 140.331 239.998 140.109L269.507 123.088L282.655 130.662Z" fill="#F0F0F0"/>
<path d="M243.22 143.316L239.12 141.058C238.938 141.388 238.836 141.755 238.822 142.132V207.76C238.796 207.91 238.814 208.063 238.874 208.202C238.934 208.341 239.033 208.46 239.159 208.544L241.354 209.807C241.485 209.872 241.631 209.899 241.777 209.885C241.922 209.871 242.061 209.817 242.177 209.728L243.204 209.14L243.22 143.316Z" fill="#E0E0E0"/>
<path d="M282.656 130.662V185.024C282.633 185.429 282.515 185.823 282.312 186.175C282.109 186.526 281.827 186.825 281.488 187.047L242.194 209.736C241.551 210.105 241.025 209.807 241.025 209.062V143.402C241.047 142.997 241.164 142.602 241.367 142.251C241.57 141.899 241.853 141.601 242.194 141.379L265.126 128.13L271.703 124.335L282.656 130.662Z" fill="#FAFAFA"/>
<path d="M271.703 125.001L282.076 130.999V185.024C282.055 185.328 281.965 185.623 281.813 185.886C281.66 186.15 281.45 186.375 281.198 186.545L241.904 209.234C241.832 209.278 241.752 209.305 241.668 209.313C241.668 209.313 241.613 209.226 241.613 209.062V143.402C241.634 143.099 241.723 142.805 241.874 142.541C242.025 142.278 242.233 142.052 242.484 141.881L265.416 128.631L271.688 125.001H271.703ZM271.688 124.335L265.11 128.13L242.178 141.379C241.838 141.601 241.555 141.899 241.352 142.251C241.149 142.602 241.032 142.997 241.01 143.402V209.03C241.01 209.556 241.276 209.862 241.66 209.862C241.844 209.856 242.023 209.802 242.178 209.705L281.456 187.016C281.796 186.793 282.078 186.495 282.281 186.143C282.484 185.792 282.601 185.398 282.624 184.993V130.662L271.648 124.335H271.688Z" fill="#E0E0E0"/>
<path d="M276.908 131.093C277.331 131.093 277.629 131.43 277.629 132.018V178.274C277.604 178.723 277.474 179.16 277.25 179.55C277.025 179.939 276.712 180.27 276.336 180.517L247.328 197.247C247.155 197.36 246.954 197.423 246.747 197.427C246.324 197.427 246.034 197.09 246.034 196.502V150.246C246.059 149.797 246.189 149.361 246.414 148.971C246.638 148.582 246.951 148.25 247.328 148.004L266.928 136.691L276.336 131.274C276.508 131.167 276.705 131.108 276.908 131.101V131.093ZM276.908 130.56C276.609 130.568 276.317 130.655 276.061 130.811L266.653 136.221L247.053 147.542C246.595 147.834 246.213 148.233 245.94 148.703C245.667 149.174 245.511 149.703 245.485 150.246V196.502C245.465 196.682 245.481 196.864 245.534 197.038C245.587 197.211 245.675 197.371 245.793 197.509C245.911 197.646 246.055 197.758 246.218 197.837C246.381 197.916 246.559 197.961 246.74 197.968C247.041 197.961 247.336 197.875 247.594 197.718L276.602 180.987C277.061 180.693 277.442 180.293 277.715 179.821C277.988 179.349 278.144 178.819 278.17 178.274V132.018C278.192 131.838 278.176 131.656 278.124 131.482C278.071 131.308 277.983 131.147 277.865 131.01C277.747 130.872 277.602 130.76 277.438 130.681C277.275 130.602 277.097 130.559 276.916 130.552L276.908 130.56Z" fill="#3BADD4"/>
<path d="M271.703 135.632V124.335L282.679 130.662L272.895 136.307C272.228 136.683 271.703 136.416 271.703 135.632Z" fill="#E0E0E0"/>
<path d="M251.97 165.511L271.719 153.994C272.152 153.722 272.515 153.353 272.779 152.916C273.043 152.479 273.201 151.986 273.24 151.477C273.24 150.567 272.558 150.223 271.719 150.693L251.962 162.202C251.529 162.474 251.167 162.845 250.904 163.283C250.641 163.722 250.485 164.216 250.449 164.727C250.449 165.652 251.131 165.997 251.97 165.511ZM271.719 157.984L251.962 169.501C251.529 169.773 251.167 170.144 250.904 170.582C250.641 171.021 250.485 171.515 250.449 172.026C250.449 172.927 251.131 173.272 251.97 172.81L271.719 161.293C272.153 161.021 272.517 160.651 272.781 160.212C273.045 159.773 273.202 159.279 273.24 158.768C273.24 157.843 272.558 157.498 271.719 157.984ZM271.719 165.267L251.962 176.784C251.529 177.055 251.166 177.423 250.903 177.861C250.64 178.298 250.485 178.792 250.449 179.301C250.449 180.211 251.131 180.555 251.97 180.085L271.719 168.56C272.153 168.291 272.517 167.922 272.782 167.485C273.046 167.047 273.203 166.553 273.24 166.044C273.24 165.126 272.558 164.781 271.719 165.267Z" fill="#3BADD4"/>
<path opacity="0.3" d="M251.97 165.511L271.719 153.994C272.152 153.722 272.515 153.353 272.779 152.916C273.043 152.479 273.201 151.986 273.24 151.477C273.24 150.567 272.558 150.223 271.719 150.693L251.962 162.202C251.529 162.474 251.167 162.845 250.904 163.283C250.641 163.722 250.485 164.216 250.449 164.727C250.449 165.652 251.131 165.997 251.97 165.511ZM271.719 157.984L251.962 169.501C251.529 169.773 251.167 170.144 250.904 170.582C250.641 171.021 250.485 171.515 250.449 172.026C250.449 172.927 251.131 173.272 251.97 172.81L271.719 161.293C272.153 161.021 272.517 160.651 272.781 160.212C273.045 159.773 273.202 159.279 273.24 158.768C273.24 157.843 272.558 157.498 271.719 157.984ZM271.719 165.267L251.962 176.784C251.529 177.055 251.166 177.423 250.903 177.861C250.64 178.298 250.485 178.792 250.449 179.301C250.449 180.211 251.131 180.555 251.97 180.085L271.719 168.56C272.153 168.291 272.517 167.922 272.782 167.485C273.046 167.047 273.203 166.553 273.24 166.044C273.24 165.126 272.558 164.781 271.719 165.267Z" fill="white"/>
<path d="M218.987 133.429V187.761C218.964 188.166 218.846 188.56 218.644 188.911C218.441 189.262 218.158 189.561 217.819 189.783L178.525 212.464C178.406 212.55 178.266 212.602 178.12 212.616C177.974 212.629 177.827 212.604 177.694 212.543L175.507 211.281C175.381 211.196 175.282 211.078 175.222 210.939C175.162 210.799 175.144 210.646 175.169 210.497V144.899C175.191 144.495 175.307 144.101 175.509 143.75C175.71 143.399 175.992 143.099 176.33 142.877L205.839 125.84L218.987 133.429Z" fill="#F0F0F0"/>
<path d="M179.536 146.083L175.459 143.825C175.273 144.153 175.168 144.522 175.154 144.899V210.536C175.134 210.686 175.155 210.838 175.216 210.976C175.277 211.114 175.375 211.233 175.499 211.32L177.686 212.582C177.818 212.649 177.966 212.676 178.113 212.663C178.26 212.649 178.4 212.594 178.517 212.504L179.536 211.916V146.083Z" fill="#E0E0E0"/>
<path d="M218.988 133.429V187.761C218.965 188.166 218.847 188.559 218.644 188.911C218.441 189.262 218.159 189.561 217.82 189.783L178.526 212.464C177.883 212.833 177.357 212.535 177.357 211.79V146.169C177.379 145.764 177.496 145.37 177.699 145.018C177.902 144.667 178.185 144.368 178.526 144.147L201.489 130.928L208.059 127.134L218.988 133.429Z" fill="#FAFAFA"/>
<path d="M208.027 127.792L218.408 133.79V187.784C218.385 188.087 218.294 188.382 218.142 188.645C217.99 188.908 217.781 189.134 217.529 189.305L178.235 211.994C178.162 212.039 178.078 212.066 177.992 212.072C177.948 211.997 177.929 211.909 177.937 211.822V146.169C177.958 145.866 178.048 145.571 178.201 145.307C178.353 145.044 178.563 144.818 178.816 144.648L201.748 131.399L208.02 127.769L208.027 127.792ZM208.02 127.103L201.489 130.928L178.557 144.178C178.217 144.4 177.934 144.698 177.731 145.05C177.528 145.401 177.411 145.795 177.389 146.201V211.829C177.389 212.355 177.655 212.66 178.039 212.66C178.223 212.655 178.401 212.601 178.557 212.504L217.851 189.815C218.19 189.592 218.473 189.293 218.675 188.942C218.878 188.591 218.996 188.197 219.019 187.792V133.461L208.043 127.134L208.02 127.103Z" fill="#E0E0E0"/>
<path d="M213.248 133.861C213.671 133.861 213.961 134.198 213.961 134.786V181.042C213.936 181.491 213.806 181.928 213.582 182.317C213.357 182.707 213.044 183.038 212.668 183.284L183.66 200.015C183.486 200.126 183.285 200.188 183.079 200.195C182.656 200.195 182.366 199.858 182.366 199.27V153.014C182.391 152.565 182.521 152.128 182.746 151.739C182.97 151.349 183.283 151.018 183.66 150.772L203.26 139.459L212.668 134.041C212.843 133.936 213.043 133.876 213.248 133.869V133.861ZM213.248 133.328C212.948 133.335 212.656 133.422 212.401 133.579L202.993 138.988L183.393 150.309C182.935 150.602 182.554 151.001 182.281 151.471C182.008 151.942 181.852 152.471 181.825 153.014V199.27C181.804 199.45 181.821 199.632 181.874 199.805C181.927 199.978 182.015 200.139 182.133 200.276C182.25 200.414 182.395 200.526 182.558 200.605C182.721 200.684 182.898 200.729 183.079 200.736C183.379 200.729 183.671 200.642 183.926 200.485L212.934 183.755C213.393 183.46 213.774 183.06 214.047 182.588C214.32 182.117 214.476 181.586 214.502 181.042V134.786C214.523 134.606 214.506 134.424 214.453 134.251C214.4 134.077 214.312 133.917 214.194 133.78C214.077 133.642 213.932 133.53 213.769 133.451C213.606 133.372 213.429 133.327 213.248 133.32V133.328Z" fill="#3BADD4"/>
<path d="M208.035 138.4V127.103L219.011 133.429L209.227 139.074C208.545 139.451 208.035 139.145 208.035 138.4Z" fill="#E0E0E0"/>
<path d="M188.294 168.278L208.051 156.801C208.484 156.53 208.847 156.161 209.111 155.724C209.376 155.286 209.533 154.793 209.572 154.284C209.572 153.375 208.89 153.03 208.051 153.5L188.294 165.009C187.861 165.281 187.497 165.651 187.234 166.09C186.971 166.528 186.816 167.023 186.781 167.534C186.781 168.42 187.455 168.765 188.294 168.278ZM208.051 160.752L188.294 172.269C187.861 172.54 187.497 172.911 187.234 173.349C186.971 173.788 186.816 174.283 186.781 174.793C186.781 175.695 187.455 176.04 188.294 175.577L208.051 164.061C208.485 163.789 208.849 163.418 209.113 162.98C209.377 162.541 209.535 162.047 209.572 161.536C209.572 160.611 208.89 160.274 208.051 160.721V160.752ZM208.051 168.035L188.294 179.537C187.86 179.805 187.496 180.174 187.233 180.612C186.97 181.049 186.815 181.544 186.781 182.053C186.781 182.963 187.455 183.308 188.294 182.837L208.051 171.32C208.485 171.051 208.849 170.682 209.114 170.245C209.378 169.807 209.535 169.313 209.572 168.804C209.572 167.894 208.89 167.549 208.051 168.035Z" fill="#3BADD4"/>
<path opacity="0.3" d="M188.294 168.278L208.051 156.801C208.484 156.53 208.847 156.161 209.111 155.724C209.376 155.286 209.533 154.793 209.572 154.284C209.572 153.375 208.89 153.03 208.051 153.5L188.294 165.009C187.861 165.281 187.497 165.651 187.234 166.09C186.971 166.528 186.816 167.023 186.781 167.534C186.781 168.42 187.455 168.765 188.294 168.278ZM208.051 160.752L188.294 172.269C187.861 172.54 187.497 172.911 187.234 173.349C186.971 173.788 186.816 174.283 186.781 174.793C186.781 175.695 187.455 176.04 188.294 175.577L208.051 164.061C208.485 163.789 208.849 163.418 209.113 162.98C209.377 162.541 209.535 162.047 209.572 161.536C209.572 160.611 208.89 160.274 208.051 160.721V160.752ZM208.051 168.035L188.294 179.537C187.86 179.805 187.496 180.174 187.233 180.612C186.97 181.049 186.815 181.544 186.781 182.053C186.781 182.963 187.455 183.308 188.294 182.837L208.051 171.32C208.485 171.051 208.849 170.682 209.114 170.245C209.378 169.807 209.535 169.313 209.572 168.804C209.572 167.894 208.89 167.549 208.051 168.035Z" fill="white"/>
<path d="M304.6 313.067C304.662 316.469 304.929 321.417 304.6 322.828C304.27 324.239 298.602 325.619 294.164 325.823C289.727 326.026 284.388 325.36 284.067 328.496C283.745 331.632 286.528 333.725 288.567 334.666C292.024 336.273 295.881 335.921 299.276 335.45C302.671 334.98 304.482 335.309 308.065 336.187C311.648 337.065 313.67 336.524 315.199 335.756C317.473 334.619 316.869 330.738 316.069 328.214C315.27 325.689 315.356 323.377 315.654 319.872C315.952 316.368 316.955 311.248 316.955 311.248L304.6 313.067Z" fill="#FFBDA7"/>
<path d="M316.069 328.151C316.069 328.151 316.069 329.225 313.717 329.719C311.365 330.213 307.54 330.08 304.835 330.26C300.781 330.519 297.708 330.981 293.075 330.26C288.998 329.617 289.155 326.387 292.824 325.87C288.716 325.94 284.349 325.658 284.059 328.465C283.737 331.601 286.52 333.694 288.559 334.635C292.016 336.242 295.874 335.889 299.268 335.419C302.663 334.948 304.474 335.278 308.057 336.156C311.64 337.034 313.663 336.493 315.191 335.725C317.473 334.556 316.869 330.676 316.069 328.151Z" fill="#455A64"/>
<path d="M346.731 304.623C348.636 307.383 351.772 312.604 352.219 313.898C352.666 315.192 353.05 320.06 352.219 321.495C351.027 322.365 349.161 322.867 347.57 323.651C345.265 324.788 344.771 326.677 346.276 328.12C348.37 330.135 351.764 330.37 353.803 330.252C356.782 329.798 356.986 326.466 357.409 323.51C357.833 320.554 357.354 314.76 359.597 311.193C361.839 307.626 365.798 307.273 366.315 308.481C366.072 306.685 365.077 306.638 362.936 305.423C360.796 304.208 358.922 304.247 357.738 301.432C356.327 298.1 355.049 294.125 355.049 294.125L346.731 304.623Z" fill="#FFBDA7"/>
<path d="M350.918 330.307C353.05 330.66 354.556 330.66 358.342 328.802C361.62 327.195 362.451 326.513 362.952 325.627C363.736 324.215 362.89 320.734 363.572 317.74C364.079 315.629 364.804 313.577 365.736 311.617C366.48 309.798 366.425 309.014 366.308 308.481C366.049 307.344 363.736 307.203 361.533 308.481C359.33 309.758 357.903 312.197 357.174 318.006C356.445 323.816 357.566 330.166 350.918 330.307Z" fill="#263238"/>
<path d="M366.308 308.481C366.057 306.685 365.437 306.419 363.297 305.211C362.513 304.757 361.729 304.427 360.984 304.067C358.907 303.675 355.637 305.305 355.496 309.664C355.355 314.023 356.077 319.551 354.767 321.597C353.646 323.345 351.812 323.228 352.235 321.495C349.287 322.577 348.276 322.593 346.614 323.502C344.701 324.553 344.058 327.289 345.83 328.386C348.168 329.979 351.016 330.644 353.819 330.252C356.798 329.797 357.002 326.465 357.425 323.51C357.848 320.554 357.37 314.76 359.612 311.193C361.855 307.626 365.79 307.328 366.308 308.481Z" fill="#455A64"/>
<path d="M347.312 306.356C347.312 306.356 336.501 290.48 330.731 280.194C326.458 272.589 326.074 271.115 325.023 266.137C322.773 255.451 322.248 252.942 322.248 252.942L318.892 274.533C319.433 276.885 320.515 281.519 320.554 284.247C320.525 289.577 320.093 294.897 319.261 300.162C318.479 306.096 317.382 311.985 315.976 317.802C315.137 318.382 312.699 318.5 310.582 318.429C308.52 318.304 306.481 317.922 304.514 317.293C304.514 317.293 302.75 291.852 302.342 284.851C301.848 276.454 301.676 273.153 301.409 268.544C300.994 261.197 299.998 250.566 300.28 237.066C300.845 210.222 306.826 197.968 306.826 197.968L337.12 193.758C339.637 202.805 344.866 203.856 345.415 216.204C345.54 219.003 344.059 224.569 344.004 228.912C343.847 243.024 342.585 265.18 342.585 265.18C345.909 268.246 348.347 271.021 350.644 278.132C352.04 282.452 355.137 293.396 356.446 297.834C352.612 297.834 347.25 304.623 347.312 306.356Z" fill="#455A64"/>
<path d="M316.658 213.444L317.442 213.318C318.148 218.187 319.308 223.706 319.943 224.138C321.056 224.922 325.18 225.517 326.105 225.282C327.031 225.047 327.854 224.294 329.5 222.06C330.653 220.492 330.527 219.512 330.284 217.356C330.182 216.572 330.065 215.647 329.994 214.502L330.778 214.447C330.849 215.561 330.958 216.462 331.06 217.254C331.335 219.41 331.499 220.704 330.143 222.546C328.363 224.961 327.47 225.792 326.294 226.074C326.124 226.115 325.951 226.136 325.776 226.137C324.145 226.215 320.602 225.564 319.504 224.82C318.305 223.989 317.019 215.906 316.658 213.444Z" fill="#37474F"/>
<path d="M304.255 212.73L305.039 212.958C302.742 221.198 303.244 228.748 307.352 231.045C308.136 225.478 309.155 219.724 310.605 213.569L311.389 213.758C306.685 233.585 306.152 249.202 306.756 267.963C307.211 282.263 308.12 306.834 308.543 318.241L307.72 318.1C307.297 306.63 306.395 282.216 305.941 267.995C305.533 255.286 305.666 244.02 307.234 231.931C302.53 229.524 301.793 221.566 304.255 212.73Z" fill="#37474F"/>
<path d="M345.054 220.124C344.55 220.607 343.941 220.967 343.274 221.174C341.996 221.229 339.879 219.41 339.276 218.038C338.992 217.234 338.82 216.396 338.766 215.545C338.643 214.3 338.417 213.068 338.092 211.86L338.876 211.625C339.215 212.876 339.451 214.153 339.581 215.443C339.627 216.213 339.777 216.972 340.028 217.701C340.538 218.861 342.38 220.382 343.243 220.343C344.017 219.96 344.707 219.427 345.273 218.775C345.195 219.151 345.116 219.708 345.054 220.124Z" fill="#37474F"/>
<path d="M349.835 302.083C350.024 301.863 350.22 301.652 350.416 301.44C345.241 292.416 334.132 272.683 333.168 267.893C331.897 261.762 329.71 241.197 329.616 230.135H328.832C328.918 241.237 331.113 261.895 332.391 268.057C333.387 273.075 344.7 293.13 349.835 302.083Z" fill="#37474F"/>
<path d="M333.985 210.222C336.039 213.491 337.285 219.23 334.636 225.517L333.891 225.196C336.415 219.198 335.239 213.757 333.295 210.669L333.985 210.222Z" fill="#37474F"/>
<path d="M322.225 252.942L325.517 230.308C325.517 230.308 334.039 229.116 335.215 221.12C335.419 225.824 333.53 229.94 328.238 232.096L324.004 252.989L325 266.098L322.225 252.942Z" fill="#37474F"/>
<path d="M339.677 157.192C345.165 158.502 348.183 160.03 350.449 167.525C352.597 174.581 356.196 186.6 357.144 191.681C357.599 194.158 357.811 196.518 354.369 197.953C346.592 201.245 339.089 203.55 339.089 203.55L336.055 194.37L344.365 190.214L342.295 183.519L339.677 157.192Z" fill="#FFBDA7"/>
<path d="M344.365 190.23C345.069 191.821 346.276 193.137 347.799 193.978C345.768 194.221 343.793 192.104 343.275 190.771L344.365 190.23Z" fill="#F0997A"/>
<path d="M340.068 157.129C342.53 157.576 345.901 158.094 348.363 161.833C350.825 165.573 354.823 178.611 354.823 178.611C354.823 178.611 352.871 181.041 347.767 182.406C342.663 183.77 340.515 182.609 340.515 182.609L336.705 170.128L340.068 157.129Z" fill="#3BADD4"/>
<path opacity="0.2" d="M340.068 157.129C342.53 157.576 345.901 158.094 348.363 161.833C350.825 165.573 354.823 178.611 354.823 178.611C354.823 178.611 352.871 181.041 347.767 182.406C342.663 183.77 340.515 182.609 340.515 182.609L336.705 170.128L340.068 157.129Z" fill="black"/>
<path d="M312.896 129.744C311.931 128.459 312.072 126.53 312.762 125.04C313.452 123.551 314.785 122.1 318.478 120.509C322.868 118.619 334.848 117.373 339.442 125.385C340.124 126.585 327.603 147.776 327.847 152.284C325.103 148.945 316.087 137.271 316.087 137.271C313.836 136.118 312.488 135.178 312.167 132.951C312.07 131.832 312.325 130.711 312.896 129.744Z" fill="#263238"/>
<path d="M314.205 135.961C314.205 135.961 310.708 140.861 311.022 141.3C311.711 141.931 312.453 142.5 313.241 143.002L314.205 135.961Z" fill="#F0997A"/>
<path d="M318.768 126.891C316.596 127.737 314.652 129.243 313.672 133.798C313.413 134.989 314.237 136.706 313.672 138.282C311.32 145.025 313.123 150.912 314.37 152.277C315.209 153.194 319.905 153.907 322.429 153.39C325.565 152.747 332.543 150.191 336.102 145.55C340.281 140.117 341.708 132.512 337.717 129.141C332.135 124.413 321.089 125.989 318.768 126.891Z" fill="#FFBDA7"/>
<path d="M333.82 149.313L334.212 156.165C338.022 158.384 330.151 161.285 321.801 157.733L321.197 151.555L333.82 149.313Z" fill="#FFBDA7"/>
<path d="M321.481 154.354C321.63 155.922 321.787 158.274 319.333 158.964C317.02 159.575 313.288 159.96 309.65 161.316C309.65 161.316 322.759 163.386 329.642 162.249C336.526 161.112 337.718 156.69 337.718 156.69C335.24 156.353 334.205 155.906 334.111 154.338L321.481 154.354Z" fill="#FFBDA7"/>
<path d="M314.629 152.465C315.687 153.155 318.079 153.774 321.403 153.554L321.254 151.837C320.209 152.171 319.135 152.41 318.047 152.551C316.91 152.693 315.758 152.664 314.629 152.465Z" fill="#F0997A"/>
<path d="M315.483 129.141C315.153 132.12 316.964 133.202 318.258 133.884C317.671 134.949 317.399 136.159 317.474 137.373C317.662 138.941 318.156 140.195 319.614 140.807C320.5 141.175 320.798 140.807 321.182 140.101C321.715 139.105 322.405 137.576 324.585 138.031C327.086 138.556 327.486 142.406 325.831 144.789C325.511 145.295 325.072 145.716 324.553 146.015C324.034 146.314 323.451 146.483 322.852 146.506C322.527 146.474 322.212 146.375 321.927 146.214C321.642 146.054 321.394 145.835 321.198 145.573C321.198 145.573 321.127 148.897 325.251 151.171C325.251 151.171 329.383 153.899 333.875 152.904C336.024 150.846 338.06 148.673 339.975 146.396C345.11 139.999 346.184 127.855 338.407 125.08C338.038 124.954 331.657 123.339 328.105 123.849C317.192 125.44 315.538 128.623 315.483 129.141Z" fill="#263238"/>
<path d="M339.473 125.44C340.696 125.44 344.404 127.33 344.389 135.562C344.389 141.128 343.048 148.568 341.253 152.026C336.486 157.279 322.687 158.298 316.588 156.079C320.508 154.268 321.245 149.36 321.229 145.558C323.032 148.286 326.333 148.937 330.331 146.93C334.33 144.923 339.473 125.44 339.473 125.44Z" fill="#263238"/>
<path d="M345.024 164.005C343.879 158.447 340.869 157.239 339.536 156.996L336.07 156.393C336.07 157.051 336.541 158.627 330.394 159.395C326.474 159.889 319.614 158.878 319.614 158.878C316.99 159.303 314.393 159.884 311.837 160.618C307.846 161.755 305.745 166.412 303.135 172.566C301.081 177.427 301.849 182.374 305.526 185.996C305.638 189.03 305.565 192.067 305.306 195.091C303.756 200.972 302.831 207 302.547 213.076C302.547 213.076 304.899 215.271 323.581 214.855C338.054 214.526 344.749 208.058 344.749 208.058C344.334 205.902 342.821 201.269 340.085 194.072C340.414 187.031 347.493 176.04 345.024 164.005Z" fill="#3BADD4"/>
<path d="M279.928 178.603C279.928 178.603 259.356 174.511 258.18 173.664C257.184 172.943 256.863 171.759 256.361 170.7C255.768 169.498 255.002 168.388 254.087 167.408C253.507 166.749 252.802 166.185 252.253 165.503C251.704 164.82 251.539 164.076 251.045 163.433C250.552 162.79 249.893 163.252 249.579 163.872C249.238 164.778 249.263 165.782 249.65 166.671C249.799 167.063 249.932 167.455 250.089 167.855C250.27 168.205 250.415 168.572 250.52 168.952C250.571 169.148 250.555 169.355 250.473 169.54C250.254 169.909 249.556 169.666 249.25 169.54C247.174 168.703 245.291 167.452 243.715 165.863C243.041 165.181 242.508 164.413 241.786 163.778C241.125 163.178 240.377 162.681 239.568 162.304C239.027 162.033 238.42 161.924 237.819 161.99C236.933 162.319 237.921 163.739 238.156 164.217C238.447 164.741 238.588 165.335 238.564 165.934C238.531 166.286 238.568 166.641 238.673 166.979C238.778 167.316 238.949 167.63 239.176 167.902C239.692 168.479 240.077 169.161 240.305 169.901C240.32 170.162 240.32 170.424 240.305 170.685C240.382 171.497 240.711 172.264 241.245 172.88C241.765 173.443 242.061 174.176 242.076 174.942C242.257 176.682 244.076 177.96 245.432 178.791C247.005 179.725 248.685 180.467 250.434 181.002C251.375 181.308 252.284 181.692 253.225 181.974C254.166 182.257 254.934 182.39 255.757 182.703C257.709 183.448 272.856 189.219 278.893 190.888C281.872 191.712 282.672 192.456 286.866 190.269C294.416 186.349 301.809 183.629 306.153 180.971C312.103 177.325 314.628 175.287 315.443 171.406C317.317 162.406 311.39 160.744 311.39 160.744C309.218 161.3 308.097 161.802 301.488 165.628C294.432 169.72 279.928 178.603 279.928 178.603Z" fill="#FFBDA7"/>
<path d="M311.39 160.759C307.745 161.175 305.848 162.178 301.802 164.726C297.757 167.274 290.865 171.735 290.865 171.735C291.328 175.784 293.006 179.597 295.679 182.672C298.925 186.38 301.559 186.075 301.559 186.075C301.559 186.075 312.433 178.078 314.628 174.997C316.824 171.916 318.454 162.68 311.39 160.759Z" fill="#3BADD4"/>
<path opacity="0.2" d="M311.39 160.759C307.745 161.175 305.848 162.178 301.802 164.726C297.757 167.274 290.865 171.735 290.865 171.735C291.328 175.784 293.006 179.597 295.679 182.672C298.925 186.38 301.559 186.075 301.559 186.075C301.559 186.075 312.433 178.078 314.628 174.997C316.824 171.916 318.454 162.68 311.39 160.759Z" fill="black"/>
<path d="M329.642 105.401L327.588 101.552L329.242 96.7929V93.8843L324.193 96.7929V99.7094L326.365 103.465C326.396 103.524 326.45 103.569 326.514 103.59L329.642 105.401Z" fill="#3BADD4"/>
<path opacity="0.2" d="M329.642 105.401L327.588 101.552L329.242 96.7929V93.8843L324.193 96.7929V99.7094L326.365 103.465C326.396 103.524 326.45 103.569 326.514 103.59L329.642 105.401Z" fill="black"/>
<path d="M341.686 70.7326C341.658 70.2075 341.507 69.6964 341.244 69.2412C340.981 68.786 340.614 68.3997 340.172 68.114L338.942 67.4241C338.472 67.1882 337.954 67.0654 337.428 67.0654C336.903 67.0654 336.385 67.1882 335.915 67.4241L317.037 78.3217C316.596 78.6083 316.23 78.9949 315.967 79.4499C315.704 79.9049 315.552 80.4155 315.523 80.9402V101.716C315.551 102.241 315.702 102.752 315.965 103.208C316.228 103.663 316.595 104.049 317.037 104.335L318.307 105.056C318.775 105.296 319.294 105.42 319.82 105.42C320.346 105.42 320.864 105.296 321.333 105.056L327.401 101.552L329.565 105.299C329.597 105.351 329.643 105.394 329.698 105.421C329.753 105.449 329.815 105.46 329.876 105.454C329.937 105.449 329.995 105.426 330.044 105.389C330.093 105.352 330.131 105.302 330.153 105.244L332.419 98.6273L340.196 94.1271C340.637 93.8414 341.005 93.4551 341.268 92.9999C341.531 92.5447 341.682 92.0336 341.709 91.5086L341.686 70.7326Z" fill="#3BADD4"/>
<path d="M336.861 84.9544V82.6024C336.861 82.1791 336.556 82.0066 336.187 82.2183L332.142 84.5703V79.8663C332.142 79.4429 331.844 79.2626 331.475 79.4821L329.429 80.6581C329.235 80.7857 329.073 80.9572 328.957 81.1588C328.842 81.3603 328.775 81.5863 328.763 81.8184V86.5224L324.717 88.8744C324.52 88.9997 324.356 89.1705 324.239 89.3724C324.121 89.5743 324.054 89.8015 324.043 90.0347V92.3867C324.043 92.8101 324.341 92.9826 324.717 92.7709L328.763 90.4189V95.1229C328.763 95.5541 329.061 95.7266 329.429 95.5071L331.475 94.3311C331.67 94.2035 331.831 94.032 331.947 93.8304C332.063 93.6288 332.129 93.4029 332.142 93.1707V88.4667L336.187 86.1147C336.383 85.988 336.546 85.8169 336.663 85.6153C336.78 85.4137 336.848 85.1872 336.861 84.9544Z" fill="#FAFAFA"/>
<path opacity="0.2" d="M315.522 101.716C315.549 102.241 315.7 102.752 315.963 103.208C316.226 103.663 316.593 104.049 317.035 104.335L318.305 105.056C318.731 105.272 319.198 105.395 319.675 105.417C320.152 105.439 320.628 105.358 321.072 105.182C320.359 105.448 319.818 105.048 319.818 104.186V83.4099C319.833 82.8838 319.984 82.3706 320.257 81.9203L315.953 79.4507C315.684 79.9026 315.533 80.4148 315.514 80.9403L315.522 101.716Z" fill="black"/>
<path opacity="0.3" d="M341.637 70.3014C341.457 69.6585 340.853 69.4546 340.171 69.8545L321.284 80.7521C320.837 81.0274 320.472 81.4172 320.226 81.881L315.953 79.4585C316.202 78.9943 316.57 78.6047 317.019 78.3295L335.914 67.4241C336.383 67.1882 336.901 67.0654 337.427 67.0654C337.952 67.0654 338.47 67.1882 338.94 67.4241L340.171 68.1375C340.548 68.3808 340.873 68.6978 341.125 69.0697C341.377 69.4415 341.551 69.8605 341.637 70.3014Z" fill="white"/>
</svg>
