<svg width="500" height="500" viewBox="0 0 500 500" fill="none" xmlns="http://www.w3.org/2000/svg">
<path d="M500 382.4H0V382.65H500V382.4Z" fill="#EBEBEB"/>
<path d="M449.899 398.49H416.779V398.74H449.899V398.49Z" fill="#EBEBEB"/>
<path d="M331.219 401.21H322.529V401.46H331.219V401.21Z" fill="#EBEBEB"/>
<path d="M415.78 389.21H396.59V389.46H415.78V389.21Z" fill="#EBEBEB"/>
<path d="M95.6509 390.89H52.4609V391.14H95.6509V390.89Z" fill="#EBEBEB"/>
<path d="M110.891 390.89H104.561V391.14H110.891V390.89Z" fill="#EBEBEB"/>
<path d="M225.151 395.11H131.471V395.36H225.151V395.11Z" fill="#EBEBEB"/>
<path d="M237.001 337.8H43.9109C42.3983 337.797 40.9485 337.195 39.8798 336.124C38.8112 335.053 38.2109 333.603 38.2109 332.09V60.66C38.2241 59.156 38.8301 57.718 39.8974 56.6582C40.9646 55.5985 42.4069 55.0026 43.9109 55H237.001C238.515 55 239.968 55.6016 241.039 56.6724C242.109 57.7433 242.711 59.1956 242.711 60.71V332.09C242.711 333.604 242.109 335.057 241.039 336.128C239.968 337.198 238.515 337.8 237.001 337.8ZM43.9109 55.2C42.4646 55.2026 41.0784 55.7791 40.0566 56.8027C39.0348 57.8264 38.4609 59.2136 38.4609 60.66V332.09C38.4609 333.536 39.0348 334.924 40.0566 335.947C41.0784 336.971 42.4646 337.547 43.9109 337.55H237.001C238.448 337.547 239.835 336.971 240.859 335.948C241.882 334.924 242.458 333.537 242.461 332.09V60.66C242.458 59.2127 241.882 57.8255 240.859 56.8021C239.835 55.7787 238.448 55.2026 237.001 55.2H43.9109Z" fill="#EBEBEB"/>
<path d="M453.31 337.8H260.21C258.696 337.797 257.246 337.195 256.175 336.125C255.105 335.054 254.503 333.604 254.5 332.09V60.66C254.516 59.1551 255.124 57.7171 256.193 56.6576C257.262 55.5981 258.705 55.0025 260.21 55H453.31C454.812 55.0052 456.252 55.6022 457.317 56.6617C458.382 57.7212 458.987 59.1578 459 60.66V332.09C459 333.601 458.401 335.05 457.335 336.121C456.268 337.191 454.821 337.795 453.31 337.8ZM260.21 55.2C258.763 55.2026 257.375 55.7787 256.352 56.8021C255.329 57.8255 254.753 59.2127 254.75 60.66V332.09C254.753 333.537 255.329 334.924 256.352 335.948C257.375 336.971 258.763 337.547 260.21 337.55H453.31C454.757 337.547 456.145 336.971 457.168 335.948C458.191 334.924 458.767 333.537 458.77 332.09V60.66C458.767 59.2127 458.191 57.8255 457.168 56.8021C456.145 55.7787 454.757 55.2026 453.31 55.2H260.21Z" fill="#EBEBEB"/>
<path d="M222.73 231.37V119.24L78.4305 119.24V231.37H222.73Z" fill="#E0E0E0"/>
<path d="M220.73 121.24H80.4297V229.37H220.73V121.24Z" fill="#EBEBEB"/>
<path d="M108.58 134.53H92.2305V157.64H108.58V134.53Z" fill="#F5F5F5"/>
<path d="M129.88 141.35H112.67V166.09H129.88V141.35Z" fill="#F5F5F5"/>
<path d="M110.569 193.946L93.5059 191.702L90.2809 216.231L107.344 218.474L110.569 193.946Z" fill="#F5F5F5"/>
<path d="M152.511 191.7H135.301V216.44H152.511V191.7Z" fill="#F5F5F5"/>
<path d="M131.95 189.09H114.74V213.83H131.95V189.09Z" fill="#F5F5F5"/>
<path d="M182.1 136.21H171.42V146.89H182.1V136.21Z" fill="#F5F5F5"/>
<path d="M197.617 139.459L187.643 135.642L183.826 145.616L193.8 149.433L197.617 139.459Z" fill="#F5F5F5"/>
<path d="M176.13 138.19C176.478 138.19 176.76 137.908 176.76 137.56C176.76 137.212 176.478 136.93 176.13 136.93C175.782 136.93 175.5 137.212 175.5 137.56C175.5 137.908 175.782 138.19 176.13 138.19Z" fill="#E0E0E0"/>
<path d="M188.431 138.19C188.779 138.19 189.061 137.908 189.061 137.56C189.061 137.212 188.779 136.93 188.431 136.93C188.083 136.93 187.801 137.212 187.801 137.56C187.801 137.908 188.083 138.19 188.431 138.19Z" fill="#E0E0E0"/>
<path d="M121.901 143.16C121.903 143.285 121.867 143.408 121.799 143.513C121.731 143.618 121.634 143.7 121.519 143.749C121.404 143.798 121.277 143.812 121.154 143.789C121.031 143.766 120.918 143.707 120.829 143.619C120.74 143.531 120.679 143.419 120.653 143.297C120.628 143.174 120.64 143.047 120.688 142.931C120.735 142.816 120.816 142.717 120.92 142.647C121.023 142.577 121.146 142.54 121.271 142.54C121.436 142.54 121.595 142.605 121.713 142.721C121.83 142.837 121.898 142.995 121.901 143.16Z" fill="#E0E0E0"/>
<path d="M101 136.21C101 136.335 100.963 136.457 100.893 136.561C100.824 136.665 100.725 136.746 100.609 136.793C100.493 136.84 100.366 136.852 100.244 136.827C100.121 136.802 100.009 136.741 99.9212 136.652C99.8335 136.563 99.7743 136.45 99.7511 136.327C99.728 136.204 99.7419 136.077 99.7911 135.962C99.8403 135.847 99.9226 135.749 100.028 135.681C100.132 135.613 100.255 135.578 100.38 135.58C100.546 135.583 100.703 135.65 100.819 135.768C100.935 135.886 101 136.045 101 136.21Z" fill="#E0E0E0"/>
<path d="M94.5402 194.1C94.8881 194.1 95.1702 193.818 95.1702 193.47C95.1702 193.122 94.8881 192.84 94.5402 192.84C94.1922 192.84 93.9102 193.122 93.9102 193.47C93.9102 193.818 94.1922 194.1 94.5402 194.1Z" fill="#E0E0E0"/>
<path d="M124 190.51C124 190.634 123.963 190.756 123.894 190.86C123.825 190.963 123.726 191.044 123.611 191.092C123.496 191.14 123.37 191.152 123.247 191.128C123.125 191.103 123.013 191.043 122.925 190.955C122.837 190.867 122.777 190.755 122.752 190.633C122.728 190.511 122.741 190.384 122.788 190.269C122.836 190.154 122.917 190.055 123.02 189.986C123.124 189.917 123.246 189.88 123.37 189.88C123.537 189.88 123.698 189.946 123.816 190.064C123.934 190.183 124 190.343 124 190.51Z" fill="#E0E0E0"/>
<path d="M144.53 192.85C144.53 192.975 144.492 193.097 144.423 193.201C144.353 193.305 144.254 193.385 144.138 193.433C144.023 193.48 143.895 193.492 143.773 193.467C143.65 193.442 143.538 193.381 143.451 193.292C143.363 193.203 143.304 193.089 143.28 192.966C143.257 192.844 143.271 192.717 143.32 192.602C143.37 192.487 143.452 192.389 143.557 192.321C143.662 192.253 143.785 192.218 143.91 192.22C143.992 192.22 144.073 192.236 144.149 192.268C144.225 192.3 144.294 192.346 144.352 192.405C144.409 192.464 144.455 192.533 144.485 192.609C144.516 192.686 144.531 192.768 144.53 192.85Z" fill="#E0E0E0"/>
<path d="M209.8 169.64H175.51V191.13H209.8V169.64Z" fill="#E0E0E0"/>
<path d="M198.049 194.1H168.119V217.73H198.049V194.1Z" fill="#E0E0E0"/>
<path d="M154.295 109.586C162.251 107.708 167.178 99.7373 165.3 91.7821C163.422 83.8268 155.451 78.8999 147.496 80.7775C139.541 82.6551 134.614 90.6262 136.492 98.5815C138.369 106.537 146.34 111.464 154.295 109.586Z" fill="#E0E0E0"/>
<path d="M152.916 107.58C159.774 106.467 164.431 100.005 163.317 93.1469C162.204 86.289 155.742 81.6319 148.884 82.7451C142.026 83.8583 137.369 90.3202 138.482 97.1782C139.596 104.036 146.058 108.693 152.916 107.58Z" fill="#F0F0F0"/>
<path d="M151.49 86.54V95.34L157.32 92.04" fill="#F0F0F0"/>
<path d="M151.49 86.54V95.34L157.32 92.04" stroke="#E0E0E0" stroke-width="2" stroke-linecap="round" stroke-linejoin="round"/>
<path d="M90.8493 363C91.0194 362.654 91.103 362.272 91.093 361.887C91.083 361.502 90.9796 361.125 90.7917 360.789C90.6038 360.452 90.3371 360.167 90.0145 359.956C89.6918 359.746 89.3229 359.616 88.9393 359.58C89.2651 358.595 89.2847 357.535 88.9955 356.538C88.7063 355.542 88.1218 354.657 87.3193 354C87.1269 353.822 86.8806 353.713 86.6193 353.69C86.3365 353.72 86.0705 353.839 85.8593 354.03L81.3893 357.24C81.0307 357.456 80.729 357.754 80.5093 358.11C79.5893 359.88 82.8893 362.11 81.5093 363.61C81.1193 364.03 80.5093 364.12 80.0093 364.42C78.9493 365.09 78.8193 366.55 78.3193 367.7C77.8193 368.85 76.0993 369.75 75.4393 368.7C75.9293 367.59 74.4393 366.64 73.2493 366.5C72.0593 366.36 70.7993 366.3 70.1293 365.17C68.4293 366.66 64.6193 362.51 64.6993 360.83C64.028 360.954 63.4117 361.283 62.9353 361.772C62.4589 362.261 62.1459 362.886 62.0393 363.56C61.8474 364.941 61.8005 366.339 61.8993 367.73C61.8993 370.44 60.9793 373.1 61.0293 375.81C61.0293 377.92 61.8793 380.26 63.8093 381.11C64.7698 381.454 65.7923 381.59 66.8093 381.51L88.8093 381.37C89.3394 381.411 89.8716 381.322 90.3593 381.11C91.3593 380.6 91.5593 379.29 91.6493 378.18C92.0493 373.4 92.4426 368.62 92.8293 363.84L90.8493 363Z" fill="#E0E0E0"/>
<path d="M92.14 339.78H58L58.28 343.22L58.48 345.69L59.01 352.09L59.3 355.77L59.7 360.67L59.86 362.77L59.92 363.4L60.12 365.87L60.39 369.25L60.56 371.35L60.74 373.48L61 376L61.15 377.87L61.32 379.97L61.39 380.89H92.66L92.73 379.97L92.9 377.88L93.05 375.99L93.25 373.53L93.43 371.4L93.6 369.3L93.87 365.91L94.07 363.45L94.12 362.82L94.29 360.72L94.69 355.82L95 352.1L95.52 345.69L95.72 343.22L96 339.78H92.14ZM94.14 342.04L93.48 341.38H94.2L94.14 342.04ZM94 344.13V345L90.9 348L87.4 344.5L90.53 341.36H91.27L94 344.13ZM93.12 355.05L90.88 357.29L87.38 353.78L90.88 350.29L93.3 352.71L93.12 355.05ZM60.65 352.71L63.07 350.29L66.57 353.78L63.07 357.29L60.84 355.05L60.65 352.71ZM89.75 349.15L86.25 352.65L82.74 349.15L86.25 345.65L89.75 349.15ZM84.24 341.38H88.24L86.24 343.38L84.24 341.38ZM85.11 353.78L81.61 357.29L78.11 353.78L81.61 350.29L85.11 353.78ZM73.5 358.42L77 354.92L80.5 358.42L77 361.92L73.5 358.42ZM75.86 363.05L72.36 366.56L68.86 363.06L72.37 359.56L75.86 363.05ZM81.63 359.56L85.13 363.06L81.63 366.56L78.13 363.05L81.63 359.56ZM77 352.65L73.5 349.15L77 345.65L80.5 349.15L77 352.65ZM75.86 353.78L72.37 357.29L68.86 353.78L72.37 350.29L75.86 353.78ZM67.72 352.65L64.23 349.15L67.72 345.65L71.23 349.15L67.72 352.65ZM67.72 354.92L71.23 358.42L67.72 361.92L64.23 358.42L67.72 354.92ZM71.23 367.69L67.72 371.19L64.23 367.69L67.72 364.19L71.23 367.69ZM72.36 368.82L75.86 372.33L72.37 375.83L68.86 372.33L72.36 368.82ZM73.5 367.69L77 364.19L80.5 367.69L77 371.19L73.5 367.69ZM81.63 368.82L85.13 372.33L81.63 375.83L78.13 372.33L81.63 368.82ZM86.27 373.46L89.77 376.96L87.5 379.23H85L82.76 377L86.27 373.46ZM82.76 367.69L86.27 364.19L89.77 367.69L86.27 371.19L82.76 367.69ZM82.76 358.42L86.27 354.92L89.77 358.42L86.27 361.92L82.76 358.42ZM85.13 344.52L81.63 348.02L78.13 344.52L81.26 341.38H82L85.13 344.52ZM77 343.38L75 341.38H79L77 343.38ZM75.86 344.52L72.37 348L68.86 344.5L72 341.38H72.73L75.86 344.52ZM69.73 341.38L67.73 343.38L65.73 341.38H69.73ZM63.46 341.38L66.59 344.52L63.09 348.02L60 345L59.94 344.17L62.68 341.42L63.46 341.38ZM60.46 341.38L59.81 342.03L59.75 341.38H60.46ZM60.24 347.43L62 349.15L60.54 350.61L60.24 347.43ZM61.24 359.18L61.1 357.52L62 358.42L61.24 359.18ZM61.4 361.29L63.13 359.56L66.63 363.06L63.13 366.56L61.72 365.14L61.4 361.29ZM61.93 367.77V367.61L62.01 367.69L61.94 367.77H61.93ZM62.54 375.23L62.09 369.86L63.09 368.86L66.59 372.37L63.09 375.86L62.5 375.27L62.54 375.23ZM62.86 379.23L62.79 378.43L63.13 378.09L64.27 379.23H62.86ZM64.23 377L67.72 373.5L71.23 377L69 379.23H66.49L64.23 377ZM71.23 379.27L72.37 378.13L73.5 379.27H71.23ZM75.76 379.27L73.5 377L77 373.5L80.5 377L78.23 379.27H75.76ZM80.5 379.27L81.63 378.13L82.77 379.27H80.5ZM91.17 379.27H89.76L90.9 378.13L91.24 378.47L91.17 379.27ZM91.5 375.27L90.9 375.86L87.4 372.37L90.9 368.86L91.9 369.86L91.5 375.27ZM92.12 367.65V367.81L92.05 367.73L92.14 367.65H92.12ZM92.32 365.18L90.9 366.6L87.4 363.1L90.9 359.6L92.63 361.33L92.32 365.18ZM92.8 359.23L92.03 358.46L92.94 357.56L92.8 359.23ZM93.8 347.47L93.54 350.66L92 349.15L93.73 347.43L93.8 347.47Z" fill="#E6E6E6"/>
<path d="M57.4702 342.81H96.5202C97.4259 342.81 98.1602 342.076 98.1602 341.17V339.99C98.1602 339.084 97.4259 338.35 96.5202 338.35H57.4702C56.5644 338.35 55.8302 339.084 55.8302 339.99V341.17C55.8302 342.076 56.5644 342.81 57.4702 342.81Z" fill="#F0F0F0"/>
<path d="M93.4709 378.44H60.5209C59.6151 378.44 58.8809 379.174 58.8809 380.08V381.26C58.8809 382.166 59.6151 382.9 60.5209 382.9H93.4709C94.3766 382.9 95.1109 382.166 95.1109 381.26V380.08C95.1109 379.174 94.3766 378.44 93.4709 378.44Z" fill="#F0F0F0"/>
<path d="M411.19 347L421.82 316.36C421.82 316.36 407.08 327.29 407.17 315.17C407.26 303.05 413.89 312.47 416.17 307.99C418.45 303.51 409.63 303.56 412.73 296.77C415.83 289.98 424.65 300.41 426.2 294.4C427.75 288.39 430.2 285.33 436.66 285.87C436.66 285.87 440.13 293.78 435.88 299.49C431.63 305.2 446.4 300.63 444.88 306.38C443.36 312.13 438.44 317.15 436.27 313.1C434.1 309.05 431.34 316.81 435.05 318.81C438.76 320.81 430.2 329.47 428.32 324.93C427.012 321.91 425.393 319.035 423.49 316.35L413.7 349.13L411.19 347Z" fill="#EBEBEB"/>
<path d="M400.23 347.22L388.23 327.63C388.23 327.63 400.08 332.96 398.18 324.63C396.28 316.3 393.13 323.77 390.86 321.02C388.59 318.27 394.72 316.97 391.55 312.74C388.38 308.51 383.85 317.06 381.86 313.14C379.87 309.22 377.7 307.47 373.34 308.81C373.34 308.81 372.13 314.81 375.94 318.12C379.75 321.43 368.83 320.5 370.74 324.25C372.65 328 376.82 330.73 377.74 327.6C378.66 324.47 381.74 329.42 379.44 331.37C377.14 333.32 384.44 338.01 385.03 334.58C385.463 332.296 386.134 330.064 387.03 327.92L398.76 349.12L400.23 347.22Z" fill="#E6E6E6"/>
<path d="M408.309 347.41L402.819 315.85C402.819 315.85 415.449 328.85 417.289 317.02C419.129 305.19 411.169 313.31 409.639 308.58C408.109 303.85 416.719 305.3 414.779 298.19C412.839 291.08 402.579 299.84 402.019 293.73C401.459 287.62 399.529 284.24 393.179 283.73C393.179 283.73 388.539 290.89 391.779 297.14C395.019 303.39 381.339 296.57 381.889 302.42C382.439 308.27 386.449 313.94 389.209 310.34C391.969 306.74 393.419 314.74 389.489 316.1C385.559 317.46 392.489 327.26 395.079 323.1C396.832 320.362 398.866 317.815 401.149 315.5L405.479 349.02L408.309 347.41Z" fill="#F5F5F5"/>
<path d="M415.1 382.9H396.26C395.626 382.899 395.017 382.656 394.557 382.221C394.096 381.786 393.818 381.192 393.78 380.56L391.78 348.06C391.759 347.721 391.809 347.381 391.925 347.061C392.041 346.741 392.221 346.449 392.454 346.201C392.687 345.954 392.969 345.757 393.281 345.623C393.593 345.488 393.93 345.419 394.27 345.42H417.1C417.44 345.419 417.776 345.488 418.089 345.623C418.401 345.757 418.683 345.954 418.916 346.201C419.149 346.449 419.329 346.741 419.445 347.061C419.561 347.381 419.61 347.721 419.59 348.06L417.59 380.56C417.549 381.193 417.269 381.787 416.807 382.222C416.345 382.656 415.734 382.899 415.1 382.9Z" fill="#EBEBEB"/>
<path d="M419.351 344.09H391.791C390.421 344.09 389.311 345.2 389.311 346.57V346.6C389.311 347.97 390.421 349.08 391.791 349.08H419.351C420.72 349.08 421.831 347.97 421.831 346.6V346.57C421.831 345.2 420.72 344.09 419.351 344.09Z" fill="#F5F5F5"/>
<path d="M249.999 427.56C357.082 427.56 443.889 422.492 443.889 416.24C443.889 409.988 357.082 404.92 249.999 404.92C142.917 404.92 56.1094 409.988 56.1094 416.24C56.1094 422.492 142.917 427.56 249.999 427.56Z" fill="#F5F5F5"/>
<path d="M378.089 187.54H390.089C390.089 175.76 386.409 158.62 376.019 149.09C364.879 138.89 339.329 140.94 336.449 141.21L337.569 153.16C346.389 152.35 362.439 152.93 367.909 157.94C375.999 165.31 378.089 180 378.089 187.54Z" fill="#263238"/>
<g opacity="0.2">
<path opacity="0.2" d="M378.089 187.54H390.089C390.089 175.76 386.409 158.62 376.019 149.09C364.879 138.89 339.329 140.94 336.449 141.21L337.569 153.16C346.389 152.35 362.439 152.93 367.909 157.94C375.999 165.31 378.089 180 378.089 187.54Z" fill="white"/>
</g>
<path d="M378.09 187.54H390.09V186.99L378.09 187.09V187.54Z" fill="#263238"/>
<path d="M377.73 181.62L389.66 180.26C389.7 180.64 389.74 181.01 389.78 181.37L377.83 182.54C377.8 182.24 377.77 181.93 377.73 181.62ZM376.85 176.15L388.59 173.67C388.67 174.04 388.74 174.4 388.81 174.76L377 177.05L376.85 176.15ZM375.45 170.85L386.86 167.16C386.98 167.52 387.09 167.88 387.2 168.24L375.72 171.71L375.45 170.85ZM373.5 165.85L384.35 160.72L384.83 161.77L373.83 166.65C373.75 166.41 373.62 166.15 373.5 165.88V165.85ZM371 161.46L380.83 154.58L381.51 155.58L371.51 162.15L371 161.46ZM367.9 157.9L375.9 148.96L376.04 149.09L376.85 149.85L368.42 158.4L367.9 157.9ZM364.38 155.8L369 144.74C369.4 144.9 369.78 145.07 370.16 145.25L365 156.11L364.38 155.8ZM359.55 154.3L362.2 142.59L363.33 142.86L360.4 154.5L359.55 154.3ZM354.16 153.4L355.53 141.48L356.64 141.61L355 153.51L354.16 153.4ZM348.5 152.97L348.99 140.97L350 141L349.39 153L348.5 152.97ZM342.5 140.91H343.56L343.7 152.91H342.7L342.5 140.91Z" fill="#263238"/>
<path d="M337.569 153.16L337.969 153.13L337.039 141.16L336.449 141.21L337.569 153.16Z" fill="#263238"/>
<path d="M260.449 187.54H248.449C248.449 175.76 252.139 158.62 262.529 149.09C273.659 138.89 299.219 140.94 302.089 141.21L300.999 153.16C292.169 152.35 276.119 152.93 270.659 157.94C262.599 165.31 260.449 180 260.449 187.54Z" fill="#263238"/>
<g opacity="0.2">
<path opacity="0.2" d="M260.449 187.54H248.449C248.449 175.76 252.139 158.62 262.529 149.09C273.659 138.89 299.219 140.94 302.089 141.21L300.999 153.16C292.169 152.35 276.119 152.93 270.659 157.94C262.599 165.31 260.449 180 260.449 187.54Z" fill="white"/>
</g>
<path d="M260.449 187.54H248.449V186.99L260.449 187.09V187.54Z" fill="#263238"/>
<path d="M260.71 182.54L248.77 181.37C248.77 181.01 248.84 180.64 248.89 180.26L260.81 181.62C260.77 181.93 260.74 182.24 260.71 182.54ZM261.51 177.05L249.74 174.76C249.81 174.4 249.88 174.04 249.96 173.67L261.7 176.15C261.63 176.45 261.57 176.75 261.51 177.05ZM262.83 171.71L251.34 168.24C251.45 167.88 251.56 167.52 251.68 167.16L263.1 170.85L262.83 171.71ZM264.68 166.71L253.68 161.83C253.826 161.477 253.986 161.127 254.16 160.78L265.01 165.91C264.92 166.15 264.8 166.41 264.68 166.68V166.71ZM267.12 162.18L257.12 155.61C257.34 155.28 257.56 154.94 257.79 154.61L267.63 161.49L267.12 162.18ZM270.12 158.43L261.7 149.88C261.96 149.62 262.23 149.37 262.5 149.12L262.65 148.99L270.65 157.93L270.12 158.43ZM273.48 156.14L268.36 145.28C268.74 145.1 269.13 144.93 269.52 144.77L274.18 155.83L273.48 156.14ZM278.15 154.53L275.22 142.89L276.36 142.62L279 154.3L278.15 154.53ZM283.48 153.53L282 141.61L283.11 141.48L284.47 153.4L283.48 153.53ZM289.1 153.03L288.48 141.03L289.56 140.98L290.05 152.98L289.1 153.03ZM295.81 152.93H294.81L294.94 140.93H296.01L295.81 152.93Z" fill="#263238"/>
<path d="M300.98 153.16L300.58 153.13L301.51 141.16L302.09 141.21L300.98 153.16Z" fill="#263238"/>
<path d="M254.22 185C262.37 185 270.187 188.238 275.95 194.001C281.713 199.764 284.95 207.58 284.95 215.73V238.3H223.49V215.76C223.486 211.722 224.278 207.723 225.821 203.991C227.363 200.259 229.626 196.868 232.48 194.011C235.334 191.154 238.723 188.888 242.453 187.342C246.184 185.796 250.182 185 254.22 185Z" fill="#3BADD4"/>
<path opacity="0.8" d="M254.22 185C262.37 185 270.187 188.238 275.95 194.001C281.713 199.764 284.95 207.58 284.95 215.73V238.3H223.49V215.76C223.486 211.722 224.278 207.723 225.821 203.991C227.363 200.259 229.626 196.868 232.48 194.011C235.334 191.154 238.723 188.888 242.453 187.342C246.184 185.796 250.182 185 254.22 185Z" fill="white"/>
<path d="M285.37 240.63H223.07V419.19H285.37V240.63Z" fill="#263238"/>
<path opacity="0.4" d="M285.37 240.63H223.07V419.19H285.37V240.63Z" fill="white"/>
<path d="M286.78 243H221.66C221.354 243 221.051 242.94 220.768 242.823C220.486 242.706 220.229 242.534 220.013 242.318C219.796 242.101 219.625 241.844 219.507 241.562C219.39 241.279 219.33 240.976 219.33 240.67C219.329 240.363 219.388 240.059 219.505 239.775C219.621 239.492 219.793 239.233 220.009 239.016C220.225 238.799 220.483 238.626 220.766 238.508C221.049 238.391 221.353 238.33 221.66 238.33H286.78C287.399 238.333 287.992 238.58 288.428 239.019C288.865 239.458 289.11 240.051 289.11 240.67C289.11 241.288 288.865 241.881 288.428 242.318C287.991 242.755 287.398 243 286.78 243Z" fill="#263238"/>
<path opacity="0.2" d="M286.78 243H221.66C221.354 243 221.051 242.94 220.768 242.823C220.486 242.706 220.229 242.534 220.013 242.318C219.796 242.101 219.625 241.844 219.507 241.562C219.39 241.279 219.33 240.976 219.33 240.67C219.329 240.363 219.388 240.059 219.505 239.775C219.621 239.492 219.793 239.233 220.009 239.016C220.225 238.799 220.483 238.626 220.766 238.508C221.049 238.391 221.353 238.33 221.66 238.33H286.78C287.399 238.333 287.992 238.58 288.428 239.019C288.865 239.458 289.11 240.051 289.11 240.67C289.11 241.288 288.865 241.881 288.428 242.318C287.991 242.755 287.398 243 286.78 243Z" fill="white"/>
<path d="M271.999 204.45V228C272.001 228.637 271.774 229.253 271.359 229.736C270.944 230.219 270.369 230.536 269.739 230.63C269.606 230.64 269.472 230.64 269.339 230.63H239.109C238.404 230.63 237.727 230.35 237.228 229.851C236.73 229.352 236.449 228.675 236.449 227.97V204.45C236.446 204.047 236.539 203.65 236.719 203.29C236.935 202.838 237.273 202.457 237.696 202.19C238.119 201.922 238.609 201.78 239.109 201.78H250.999C251.562 201.784 252.112 201.609 252.568 201.28C253.025 200.951 253.365 200.485 253.539 199.95C253.713 199.415 254.051 198.949 254.505 198.619C254.96 198.288 255.507 198.11 256.069 198.11H262.379C262.942 198.108 263.49 198.286 263.945 198.617C264.4 198.947 264.737 199.414 264.909 199.95C265.085 200.484 265.425 200.949 265.882 201.278C266.338 201.607 266.887 201.783 267.449 201.78H269.379C270.079 201.793 270.745 202.08 271.235 202.579C271.725 203.079 271.999 203.75 271.999 204.45Z" fill="#3BADD4"/>
<path opacity="0.3" d="M269.729 205.57V230.57H239.109C238.404 230.57 237.727 230.29 237.228 229.791C236.73 229.292 236.449 228.616 236.449 227.91V204.45C236.446 204.047 236.539 203.65 236.719 203.29H267.449C268.054 203.29 268.634 203.53 269.061 203.958C269.489 204.385 269.729 204.965 269.729 205.57Z" fill="white"/>
<path d="M263.97 184.76H244.47C243.851 184.76 243.35 185.259 243.35 185.875C243.35 186.491 243.851 186.99 244.47 186.99H263.97C264.588 186.99 265.09 186.491 265.09 185.875C265.09 185.259 264.588 184.76 263.97 184.76Z" fill="#263238"/>
<path d="M384.22 185C392.37 185 400.187 188.238 405.95 194.001C411.713 199.764 414.95 207.58 414.95 215.73V238.3H353.49V215.76C353.486 211.722 354.278 207.723 355.821 203.991C357.363 200.259 359.626 196.868 362.48 194.011C365.334 191.154 368.723 188.888 372.453 187.342C376.184 185.796 380.182 185 384.22 185Z" fill="#3BADD4"/>
<path opacity="0.8" d="M384.22 185C392.37 185 400.187 188.238 405.95 194.001C411.713 199.764 414.95 207.58 414.95 215.73V238.3H353.49V215.76C353.486 211.722 354.278 207.723 355.821 203.991C357.363 200.259 359.626 196.868 362.48 194.011C365.334 191.154 368.723 188.888 372.453 187.342C376.184 185.796 380.182 185 384.22 185Z" fill="white"/>
<path d="M415.37 240.63H353.07V419.19H415.37V240.63Z" fill="#263238"/>
<path opacity="0.4" d="M415.37 240.63H353.07V419.18H415.37V240.63Z" fill="white"/>
<path d="M416.78 243H351.66C351.042 243 350.45 242.755 350.013 242.318C349.576 241.881 349.33 241.288 349.33 240.67C349.329 240.363 349.388 240.059 349.505 239.775C349.621 239.492 349.793 239.233 350.009 239.016C350.225 238.799 350.483 238.626 350.766 238.508C351.049 238.391 351.353 238.33 351.66 238.33H416.78C417.399 238.333 417.992 238.58 418.428 239.019C418.865 239.458 419.11 240.051 419.11 240.67C419.11 240.976 419.05 241.279 418.933 241.562C418.816 241.844 418.644 242.101 418.428 242.318C418.211 242.534 417.954 242.706 417.672 242.823C417.389 242.94 417.086 243 416.78 243Z" fill="#263238"/>
<path opacity="0.2" d="M416.78 243H351.66C351.042 243 350.45 242.755 350.013 242.318C349.576 241.881 349.33 241.288 349.33 240.67C349.329 240.363 349.388 240.059 349.505 239.775C349.621 239.492 349.793 239.233 350.009 239.016C350.225 238.799 350.483 238.626 350.766 238.508C351.049 238.391 351.353 238.33 351.66 238.33H416.78C417.399 238.333 417.992 238.58 418.428 239.019C418.865 239.458 419.11 240.051 419.11 240.67C419.11 240.976 419.05 241.279 418.933 241.562C418.816 241.844 418.644 242.101 418.428 242.318C418.211 242.534 417.954 242.706 417.672 242.823C417.389 242.94 417.086 243 416.78 243Z" fill="white"/>
<path d="M401.999 204.45V228C402.001 228.637 401.774 229.253 401.359 229.736C400.944 230.219 400.369 230.536 399.739 230.63C399.606 230.64 399.472 230.64 399.339 230.63H369.109C368.76 230.63 368.414 230.561 368.091 230.427C367.769 230.294 367.475 230.098 367.228 229.851C366.981 229.604 366.785 229.311 366.652 228.988C366.518 228.665 366.449 228.319 366.449 227.97V204.45C366.446 204.047 366.539 203.65 366.719 203.29C366.935 202.838 367.273 202.457 367.696 202.19C368.119 201.922 368.609 201.78 369.109 201.78H380.999C381.562 201.784 382.112 201.609 382.568 201.28C383.025 200.951 383.365 200.485 383.539 199.95C383.713 199.415 384.051 198.949 384.505 198.619C384.96 198.288 385.507 198.11 386.069 198.11H392.379C392.942 198.108 393.49 198.286 393.945 198.617C394.4 198.947 394.737 199.414 394.909 199.95C395.085 200.484 395.425 200.949 395.882 201.278C396.338 201.607 396.887 201.783 397.449 201.78H399.379C400.079 201.793 400.745 202.08 401.235 202.579C401.725 203.079 401.999 203.75 401.999 204.45Z" fill="#3BADD4"/>
<path opacity="0.5" d="M401.999 204.45V228C402.001 228.637 401.774 229.253 401.359 229.736C400.944 230.219 400.369 230.536 399.739 230.63C399.606 230.64 399.472 230.64 399.339 230.63H369.109C368.76 230.63 368.414 230.561 368.091 230.427C367.769 230.294 367.475 230.098 367.228 229.851C366.981 229.604 366.785 229.311 366.652 228.988C366.518 228.665 366.449 228.319 366.449 227.97V204.45C366.446 204.047 366.539 203.65 366.719 203.29C366.935 202.838 367.273 202.457 367.696 202.19C368.119 201.922 368.609 201.78 369.109 201.78H380.999C381.562 201.784 382.112 201.609 382.568 201.28C383.025 200.951 383.365 200.485 383.539 199.95C383.713 199.415 384.051 198.949 384.505 198.619C384.96 198.288 385.507 198.11 386.069 198.11H392.379C392.942 198.108 393.49 198.286 393.945 198.617C394.4 198.947 394.737 199.414 394.909 199.95C395.085 200.484 395.425 200.949 395.882 201.278C396.338 201.607 396.887 201.783 397.449 201.78H399.379C400.079 201.793 400.745 202.08 401.235 202.579C401.725 203.079 401.999 203.75 401.999 204.45Z" fill="white"/>
<path d="M401.999 204.45V228C402.001 228.637 401.774 229.253 401.359 229.736C400.944 230.219 400.369 230.536 399.739 230.63C399.606 230.64 399.472 230.64 399.339 230.63H369.109C368.76 230.63 368.414 230.561 368.091 230.427C367.769 230.294 367.475 230.098 367.228 229.851C366.981 229.604 366.785 229.311 366.652 228.988C366.518 228.665 366.449 228.319 366.449 227.97V204.45C366.446 204.047 366.539 203.65 366.719 203.29C366.935 202.838 367.273 202.457 367.696 202.19C368.119 201.922 368.609 201.78 369.109 201.78H380.999C381.562 201.784 382.112 201.609 382.568 201.28C383.025 200.951 383.365 200.485 383.539 199.95C383.713 199.415 384.051 198.949 384.505 198.619C384.96 198.288 385.507 198.11 386.069 198.11H392.379C392.942 198.108 393.49 198.286 393.945 198.617C394.4 198.947 394.737 199.414 394.909 199.95C395.085 200.484 395.425 200.949 395.882 201.278C396.338 201.607 396.887 201.783 397.449 201.78H399.379C400.079 201.793 400.745 202.08 401.235 202.579C401.725 203.079 401.999 203.75 401.999 204.45V204.45Z" stroke="#3BADD4" stroke-width="0.5" stroke-linecap="round" stroke-linejoin="round" stroke-dasharray="3.06 2.04"/>
<path d="M399.729 205.57V230.57H369.109C368.76 230.57 368.414 230.501 368.091 230.368C367.769 230.234 367.475 230.038 367.228 229.791C366.981 229.544 366.785 229.251 366.652 228.928C366.518 228.605 366.449 228.259 366.449 227.91V204.45C366.446 204.047 366.539 203.65 366.719 203.29H397.449C398.054 203.29 398.634 203.53 399.061 203.958C399.489 204.385 399.729 204.965 399.729 205.57V205.57Z" stroke="#3BADD4" stroke-width="0.5" stroke-linecap="round" stroke-linejoin="round" stroke-dasharray="3 2"/>
<path opacity="0.3" d="M399.729 205.57V230.57H369.109C368.76 230.57 368.414 230.501 368.091 230.368C367.769 230.234 367.475 230.038 367.228 229.791C366.981 229.544 366.785 229.251 366.652 228.928C366.518 228.605 366.449 228.259 366.449 227.91V204.45C366.446 204.047 366.539 203.65 366.719 203.29H397.449C398.054 203.29 398.634 203.53 399.061 203.958C399.489 204.385 399.729 204.965 399.729 205.57Z" fill="white"/>
<path d="M393.97 184.76H374.47C373.851 184.76 373.35 185.259 373.35 185.875C373.35 186.491 373.851 186.99 374.47 186.99H393.97C394.588 186.99 395.09 186.491 395.09 185.875C395.09 185.259 394.588 184.76 393.97 184.76Z" fill="#263238"/>
<path opacity="0.3" d="M402.637 273H366.353C365.782 273 365.215 272.716 364.687 272.164C364.159 271.611 363.679 270.802 363.275 269.782C362.871 268.762 362.55 267.55 362.331 266.217C362.113 264.884 362 263.455 362 262.013C362 259.096 362.458 256.299 363.274 254.234C364.091 252.17 365.198 251.007 366.353 251H402.637C403.794 251 404.904 252.16 405.722 254.226C406.54 256.291 407 259.092 407 262.013C406.997 264.929 406.536 267.724 405.719 269.783C404.901 271.843 403.792 273 402.637 273Z" fill="white"/>
<path opacity="0.3" d="M272.647 273H236.363C235.208 273 234.099 271.843 233.281 269.783C232.464 267.724 232.003 264.929 232 262.013C232 259.092 232.46 256.291 233.278 254.226C234.096 252.16 235.206 251 236.363 251H272.647C273.802 251.007 274.909 252.17 275.726 254.234C276.542 256.299 277 259.096 277 262.013C277 263.455 276.887 264.884 276.669 266.217C276.45 267.55 276.129 268.762 275.725 269.782C275.321 270.802 274.841 271.611 274.313 272.164C273.785 272.716 273.218 273 272.647 273Z" fill="white"/>
<path opacity="0.2" d="M274.201 339.18H235.041V401.21H274.201V339.18Z" fill="black"/>
<path opacity="0.2" d="M404.201 339.18H365.041V401.21H404.201V339.18Z" fill="black"/>
<path d="M404.52 229C404.522 229.942 404.244 230.863 403.723 231.647C403.201 232.431 402.458 233.043 401.589 233.405C400.719 233.767 399.762 233.862 398.838 233.68C397.914 233.497 397.064 233.045 396.398 232.379C395.731 231.714 395.277 230.866 395.092 229.942C394.908 229.019 395.001 228.061 395.361 227.191C395.721 226.32 396.331 225.576 397.114 225.053C397.897 224.529 398.818 224.25 399.76 224.25C401.021 224.25 402.23 224.75 403.122 225.641C404.015 226.531 404.517 227.739 404.52 229Z" fill="#3BADD4"/>
<path d="M399.76 226.44V231.49" stroke="white" stroke-linecap="round" stroke-linejoin="round"/>
<path d="M402.28 228.96H397.24" stroke="white" stroke-linecap="round" stroke-linejoin="round"/>
<path d="M339.48 133.07H334.67V120.6L339.48 123.6V133.07Z" fill="#263238"/>
<path d="M295.781 130.22H342.571C343.449 130.22 344.29 130.569 344.911 131.19C345.532 131.81 345.881 132.652 345.881 133.53V419.18H292.471V133.53C292.471 132.652 292.819 131.81 293.44 131.19C294.061 130.569 294.903 130.22 295.781 130.22Z" fill="#263238"/>
<path opacity="0.4" d="M295.781 130.22H342.571C343.449 130.22 344.29 130.569 344.911 131.19C345.532 131.81 345.881 132.652 345.881 133.53V419.18H292.471V133.53C292.471 132.652 292.819 131.81 293.44 131.19C294.061 130.569 294.903 130.22 295.781 130.22Z" fill="white"/>
<path opacity="0.8" d="M315.001 147.19C315.003 148.322 314.669 149.429 314.041 150.371C313.414 151.313 312.521 152.047 311.476 152.482C310.431 152.916 309.281 153.031 308.171 152.811C307.061 152.592 306.04 152.048 305.239 151.248C304.438 150.449 303.893 149.429 303.671 148.32C303.45 147.21 303.562 146.059 303.995 145.013C304.428 143.968 305.161 143.074 306.102 142.445C307.043 141.816 308.149 141.48 309.281 141.48C310.796 141.48 312.249 142.081 313.322 143.152C314.394 144.222 314.998 145.675 315.001 147.19Z" fill="white"/>
<path opacity="0.8" d="M309.291 151.26C311.539 151.26 313.361 149.438 313.361 147.19C313.361 144.942 311.539 143.12 309.291 143.12C307.043 143.12 305.221 144.942 305.221 147.19C305.221 149.438 307.043 151.26 309.291 151.26Z" fill="white"/>
<path d="M321.61 144.74H319.18V147.17H321.61V144.74Z" fill="white"/>
<path d="M326 144.74H323.57V147.17H326V144.74Z" fill="white"/>
<path d="M330.391 144.74H327.961V147.17H330.391V144.74Z" fill="white"/>
<path d="M334.78 144.74H332.35V147.17H334.78V144.74Z" fill="white"/>
<path d="M321.61 148.74H319.18V151.17H321.61V148.74Z" fill="white"/>
<path d="M326 148.74H323.57V151.17H326V148.74Z" fill="white"/>
<path d="M330.391 148.74H327.961V151.17H330.391V148.74Z" fill="white"/>
<path d="M334.78 148.74H332.35V151.17H334.78V148.74Z" fill="white"/>
<path opacity="0.2" d="M312.94 161.29H305.03C304.229 161.29 303.58 161.939 303.58 162.74V177.64C303.58 178.441 304.229 179.09 305.03 179.09H312.94C313.741 179.09 314.39 178.441 314.39 177.64V162.74C314.39 161.939 313.741 161.29 312.94 161.29Z" fill="black"/>
<path opacity="0.2" d="M320.47 179.09C320.146 179.09 319.836 178.962 319.607 178.733C319.379 178.504 319.25 178.194 319.25 177.87V162.5C319.253 162.178 319.382 161.87 319.611 161.644C319.839 161.417 320.148 161.29 320.47 161.29C320.791 161.29 321.099 161.418 321.326 161.644C321.553 161.871 321.68 162.179 321.68 162.5V177.87C321.68 178.192 321.553 178.501 321.326 178.729C321.1 178.958 320.792 179.087 320.47 179.09Z" fill="black"/>
<path d="M320.47 166.93C320.918 166.93 321.28 166.567 321.28 166.12C321.28 165.673 320.918 165.31 320.47 165.31C320.023 165.31 319.66 165.673 319.66 166.12C319.66 166.567 320.023 166.93 320.47 166.93Z" fill="white"/>
<path opacity="0.2" d="M324.78 179.09C324.458 179.087 324.151 178.958 323.924 178.729C323.697 178.501 323.57 178.192 323.57 177.87V162.5C323.57 162.179 323.698 161.871 323.925 161.644C324.152 161.418 324.459 161.29 324.78 161.29C325.102 161.29 325.411 161.417 325.639 161.644C325.868 161.87 325.998 162.178 326 162.5V177.87C326 178.194 325.872 178.504 325.643 178.733C325.414 178.962 325.104 179.09 324.78 179.09Z" fill="black"/>
<path d="M324.781 176.93C325.228 176.93 325.591 176.567 325.591 176.12C325.591 175.673 325.228 175.31 324.781 175.31C324.333 175.31 323.971 175.673 323.971 176.12C323.971 176.567 324.333 176.93 324.781 176.93Z" fill="white"/>
<path opacity="0.2" d="M329.101 179.09C328.777 179.09 328.467 178.962 328.238 178.733C328.009 178.504 327.881 178.194 327.881 177.87V162.5C327.883 162.178 328.013 161.87 328.242 161.644C328.47 161.417 328.779 161.29 329.101 161.29C329.422 161.29 329.73 161.418 329.956 161.644C330.183 161.871 330.311 162.179 330.311 162.5V177.87C330.311 178.192 330.184 178.501 329.957 178.729C329.73 178.958 329.423 179.087 329.101 179.09Z" fill="black"/>
<path d="M329.101 169.93C329.548 169.93 329.911 169.567 329.911 169.12C329.911 168.673 329.548 168.31 329.101 168.31C328.654 168.31 328.291 168.673 328.291 169.12C328.291 169.567 328.654 169.93 329.101 169.93Z" fill="white"/>
<path opacity="0.2" d="M333.409 179.09C333.087 179.087 332.78 178.958 332.553 178.729C332.326 178.501 332.199 178.192 332.199 177.87V162.5C332.199 162.179 332.327 161.871 332.554 161.644C332.781 161.418 333.088 161.29 333.409 161.29C333.731 161.29 334.04 161.417 334.268 161.644C334.497 161.87 334.627 162.178 334.629 162.5V177.87C334.629 178.194 334.501 178.504 334.272 178.733C334.043 178.962 333.733 179.09 333.409 179.09Z" fill="black"/>
<path d="M333.41 166.93C333.857 166.93 334.22 166.567 334.22 166.12C334.22 165.673 333.857 165.31 333.41 165.31C332.962 165.31 332.6 165.673 332.6 166.12C332.6 166.567 332.962 166.93 333.41 166.93Z" fill="white"/>
<path opacity="0.3" d="M325.59 189.77H303.58V204.14H325.59V189.77Z" fill="white"/>
<path opacity="0.3" d="M332.201 191.72C332.21 192.118 332.102 192.509 331.888 192.844C331.674 193.18 331.366 193.444 331.001 193.603C330.637 193.762 330.233 193.809 329.842 193.737C329.451 193.666 329.09 193.48 328.805 193.202C328.52 192.924 328.325 192.568 328.243 192.179C328.162 191.79 328.199 191.385 328.348 191.017C328.498 190.648 328.754 190.333 329.084 190.111C329.414 189.889 329.803 189.77 330.201 189.77C330.722 189.77 331.224 189.974 331.597 190.338C331.971 190.702 332.188 191.198 332.201 191.72Z" fill="white"/>
<path d="M346.52 105.67C346.52 104.227 345.947 102.844 344.927 101.823C343.907 100.803 342.523 100.23 341.08 100.23C339.637 100.23 338.254 100.803 337.233 101.823C336.213 102.844 335.64 104.227 335.64 105.67C335.206 105.366 334.69 105.202 334.16 105.2C333.547 105.204 332.956 105.429 332.495 105.833C332.034 106.237 331.735 106.794 331.651 107.401C331.567 108.009 331.705 108.626 332.039 109.14C332.373 109.654 332.881 110.03 333.47 110.2C333.122 110.842 332.937 111.56 332.93 112.29C332.92 112.946 333.052 113.596 333.317 114.196C333.582 114.796 333.973 115.332 334.464 115.767C334.955 116.201 335.535 116.525 336.163 116.715C336.791 116.904 337.452 116.956 338.102 116.867C338.751 116.777 339.374 116.548 339.927 116.195C340.48 115.842 340.95 115.374 341.305 114.822C341.66 114.271 341.892 113.649 341.984 113C342.077 112.35 342.027 111.689 341.84 111.06C343.139 110.877 344.328 110.23 345.188 109.24C346.048 108.249 346.521 106.982 346.52 105.67Z" fill="#3BADD4"/>
<path opacity="0.8" d="M346.52 105.67C346.52 104.227 345.947 102.844 344.927 101.823C343.907 100.803 342.523 100.23 341.08 100.23C339.637 100.23 338.254 100.803 337.233 101.823C336.213 102.844 335.64 104.227 335.64 105.67C335.206 105.366 334.69 105.202 334.16 105.2C333.547 105.204 332.956 105.429 332.495 105.833C332.034 106.237 331.735 106.794 331.651 107.401C331.567 108.009 331.705 108.626 332.039 109.14C332.373 109.654 332.881 110.03 333.47 110.2C333.122 110.842 332.937 111.56 332.93 112.29C332.92 112.946 333.052 113.596 333.317 114.196C333.582 114.796 333.973 115.332 334.464 115.767C334.955 116.201 335.535 116.525 336.163 116.715C336.791 116.904 337.452 116.956 338.102 116.867C338.751 116.777 339.374 116.548 339.927 116.195C340.48 115.842 340.95 115.374 341.305 114.822C341.66 114.271 341.892 113.649 341.984 113C342.077 112.35 342.027 111.689 341.84 111.06C343.139 110.877 344.328 110.23 345.188 109.24C346.048 108.249 346.521 106.982 346.52 105.67Z" fill="white"/>
<path opacity="0.2" d="M319.17 403.52C316.884 403.52 314.62 403.07 312.509 402.195C310.397 401.319 308.478 400.037 306.862 398.42C305.246 396.803 303.965 394.884 303.091 392.772C302.217 390.66 301.768 388.396 301.77 386.11V269.11C301.77 264.495 303.603 260.069 306.866 256.806C310.129 253.543 314.555 251.71 319.17 251.71C321.455 251.709 323.719 252.158 325.831 253.032C327.944 253.905 329.863 255.187 331.48 256.803C333.096 258.419 334.379 260.337 335.254 262.449C336.129 264.561 336.58 266.824 336.58 269.11V386.11C336.581 388.397 336.131 390.661 335.257 392.774C334.382 394.887 333.1 396.807 331.483 398.424C329.866 400.041 327.946 401.323 325.834 402.197C323.721 403.072 321.456 403.521 319.17 403.52Z" fill="black"/>
<path opacity="0.2" d="M415.37 419.18H353.07V353.78L415.37 419.18Z" fill="black"/>
<path opacity="0.2" d="M285.37 290.17H223.07V419.19H285.37V290.17Z" fill="black"/>
<path opacity="0.2" d="M292.471 290.17V419.18H345.881V346.23L292.471 290.17Z" fill="black"/>
<path d="M243.391 257.34C243.391 257.897 243.297 258.384 243.109 258.801C242.922 259.215 242.656 259.531 242.312 259.75C241.969 259.969 241.568 260.078 241.109 260.078C240.661 260.078 240.264 259.969 239.918 259.75C239.572 259.529 239.302 259.215 239.109 258.809C238.919 258.4 238.822 257.927 238.816 257.391V256.98C238.816 256.434 238.911 255.951 239.102 255.531C239.292 255.112 239.56 254.792 239.906 254.57C240.255 254.346 240.654 254.234 241.102 254.234C241.557 254.234 241.958 254.345 242.305 254.566C242.654 254.785 242.922 255.104 243.109 255.523C243.297 255.94 243.391 256.426 243.391 256.98V257.34ZM242.645 256.973C242.645 256.298 242.509 255.781 242.238 255.422C241.967 255.06 241.589 254.879 241.102 254.879C240.628 254.879 240.254 255.06 239.98 255.422C239.71 255.781 239.57 256.281 239.562 256.922V257.34C239.562 257.993 239.699 258.508 239.973 258.883C240.249 259.255 240.628 259.441 241.109 259.441C241.594 259.441 241.969 259.266 242.234 258.914C242.5 258.56 242.637 258.053 242.645 257.395V256.973ZM246.445 256.422C246.336 256.404 246.217 256.395 246.09 256.395C245.616 256.395 245.294 256.596 245.125 257V260H244.402V255.773H245.105L245.117 256.262C245.354 255.884 245.69 255.695 246.125 255.695C246.266 255.695 246.372 255.714 246.445 255.75V256.422ZM247.898 260H247.176V255.773H247.898V260ZM247.117 254.652C247.117 254.535 247.152 254.436 247.223 254.355C247.296 254.275 247.402 254.234 247.543 254.234C247.684 254.234 247.79 254.275 247.863 254.355C247.936 254.436 247.973 254.535 247.973 254.652C247.973 254.77 247.936 254.867 247.863 254.945C247.79 255.023 247.684 255.062 247.543 255.062C247.402 255.062 247.296 255.023 247.223 254.945C247.152 254.867 247.117 254.77 247.117 254.652ZM248.887 257.852C248.887 257.193 249.039 256.669 249.344 256.281C249.648 255.891 250.052 255.695 250.555 255.695C251.07 255.695 251.473 255.878 251.762 256.242L251.797 255.773H252.457V259.898C252.457 260.445 252.294 260.876 251.969 261.191C251.646 261.507 251.211 261.664 250.664 261.664C250.359 261.664 250.061 261.599 249.77 261.469C249.478 261.339 249.255 261.16 249.102 260.934L249.477 260.5C249.786 260.883 250.165 261.074 250.613 261.074C250.965 261.074 251.238 260.975 251.434 260.777C251.632 260.579 251.73 260.301 251.73 259.941V259.578C251.441 259.911 251.047 260.078 250.547 260.078C250.052 260.078 249.651 259.879 249.344 259.48C249.039 259.082 248.887 258.539 248.887 257.852ZM249.613 257.934C249.613 258.41 249.711 258.785 249.906 259.059C250.102 259.329 250.375 259.465 250.727 259.465C251.182 259.465 251.517 259.258 251.73 258.844V256.914C251.509 256.51 251.177 256.309 250.734 256.309C250.383 256.309 250.108 256.445 249.91 256.719C249.712 256.992 249.613 257.397 249.613 257.934ZM254.336 260H253.613V255.773H254.336V260ZM253.555 254.652C253.555 254.535 253.59 254.436 253.66 254.355C253.733 254.275 253.84 254.234 253.98 254.234C254.121 254.234 254.228 254.275 254.301 254.355C254.374 254.436 254.41 254.535 254.41 254.652C254.41 254.77 254.374 254.867 254.301 254.945C254.228 255.023 254.121 255.062 253.98 255.062C253.84 255.062 253.733 255.023 253.66 254.945C253.59 254.867 253.555 254.77 253.555 254.652ZM256.18 255.773L256.203 256.305C256.526 255.898 256.948 255.695 257.469 255.695C258.362 255.695 258.812 256.199 258.82 257.207V260H258.098V257.203C258.095 256.898 258.025 256.673 257.887 256.527C257.751 256.382 257.539 256.309 257.25 256.309C257.016 256.309 256.81 256.371 256.633 256.496C256.456 256.621 256.318 256.785 256.219 256.988V260H255.496V255.773H256.18ZM262.52 260C262.478 259.917 262.444 259.768 262.418 259.555C262.082 259.904 261.681 260.078 261.215 260.078C260.798 260.078 260.456 259.961 260.188 259.727C259.922 259.49 259.789 259.19 259.789 258.828C259.789 258.388 259.956 258.047 260.289 257.805C260.625 257.56 261.096 257.438 261.703 257.438H262.406V257.105C262.406 256.853 262.331 256.652 262.18 256.504C262.029 256.353 261.806 256.277 261.512 256.277C261.254 256.277 261.038 256.342 260.863 256.473C260.689 256.603 260.602 256.76 260.602 256.945H259.875C259.875 256.734 259.949 256.531 260.098 256.336C260.249 256.138 260.452 255.982 260.707 255.867C260.965 255.753 261.247 255.695 261.555 255.695C262.042 255.695 262.423 255.818 262.699 256.062C262.975 256.305 263.118 256.639 263.129 257.066V259.012C263.129 259.4 263.178 259.708 263.277 259.938V260H262.52ZM261.32 259.449C261.547 259.449 261.762 259.391 261.965 259.273C262.168 259.156 262.315 259.004 262.406 258.816V257.949H261.84C260.954 257.949 260.512 258.208 260.512 258.727C260.512 258.953 260.587 259.13 260.738 259.258C260.889 259.385 261.083 259.449 261.32 259.449ZM265.047 260H264.324V254H265.047V260ZM243.805 267.195C243.734 267.797 243.512 268.262 243.137 268.59C242.764 268.915 242.268 269.078 241.648 269.078C240.977 269.078 240.438 268.837 240.031 268.355C239.628 267.874 239.426 267.229 239.426 266.422V265.875C239.426 265.346 239.52 264.882 239.707 264.48C239.897 264.079 240.165 263.772 240.512 263.559C240.858 263.342 241.259 263.234 241.715 263.234C242.319 263.234 242.803 263.404 243.168 263.742C243.533 264.078 243.745 264.544 243.805 265.141H243.051C242.986 264.688 242.844 264.359 242.625 264.156C242.409 263.953 242.105 263.852 241.715 263.852C241.236 263.852 240.859 264.029 240.586 264.383C240.315 264.737 240.18 265.241 240.18 265.895V266.445C240.18 267.062 240.309 267.553 240.566 267.918C240.824 268.283 241.185 268.465 241.648 268.465C242.065 268.465 242.384 268.371 242.605 268.184C242.829 267.993 242.978 267.664 243.051 267.195H243.805ZM244.527 266.848C244.527 266.434 244.608 266.061 244.77 265.73C244.934 265.4 245.16 265.145 245.449 264.965C245.741 264.785 246.073 264.695 246.445 264.695C247.021 264.695 247.486 264.895 247.84 265.293C248.197 265.691 248.375 266.221 248.375 266.883V266.934C248.375 267.345 248.296 267.715 248.137 268.043C247.98 268.368 247.755 268.622 247.461 268.805C247.169 268.987 246.833 269.078 246.453 269.078C245.88 269.078 245.415 268.879 245.059 268.48C244.704 268.082 244.527 267.555 244.527 266.898V266.848ZM245.254 266.934C245.254 267.402 245.362 267.779 245.578 268.062C245.797 268.346 246.089 268.488 246.453 268.488C246.82 268.488 247.112 268.345 247.328 268.059C247.544 267.77 247.652 267.366 247.652 266.848C247.652 266.384 247.542 266.009 247.32 265.723C247.102 265.434 246.81 265.289 246.445 265.289C246.089 265.289 245.801 265.431 245.582 265.715C245.363 265.999 245.254 266.405 245.254 266.934ZM249.965 264.773L249.988 265.305C250.311 264.898 250.733 264.695 251.254 264.695C252.147 264.695 252.598 265.199 252.605 266.207V269H251.883V266.203C251.88 265.898 251.81 265.673 251.672 265.527C251.536 265.382 251.324 265.309 251.035 265.309C250.801 265.309 250.595 265.371 250.418 265.496C250.241 265.621 250.103 265.785 250.004 265.988V269H249.281V264.773H249.965ZM254.676 263.75V264.773H255.465V265.332H254.676V267.953C254.676 268.122 254.711 268.25 254.781 268.336C254.852 268.419 254.971 268.461 255.141 268.461C255.224 268.461 255.339 268.445 255.484 268.414V269C255.294 269.052 255.109 269.078 254.93 269.078C254.607 269.078 254.363 268.98 254.199 268.785C254.035 268.59 253.953 268.312 253.953 267.953V265.332H253.184V264.773H253.953V263.75H254.676ZM258.066 269.078C257.493 269.078 257.027 268.891 256.668 268.516C256.309 268.138 256.129 267.634 256.129 267.004V266.871C256.129 266.452 256.208 266.078 256.367 265.75C256.529 265.419 256.753 265.161 257.039 264.977C257.328 264.789 257.641 264.695 257.977 264.695C258.526 264.695 258.953 264.876 259.258 265.238C259.562 265.6 259.715 266.118 259.715 266.793V267.094H256.852C256.862 267.51 256.983 267.848 257.215 268.105C257.449 268.361 257.746 268.488 258.105 268.488C258.361 268.488 258.577 268.436 258.754 268.332C258.931 268.228 259.086 268.09 259.219 267.918L259.66 268.262C259.306 268.806 258.775 269.078 258.066 269.078ZM257.977 265.289C257.685 265.289 257.44 265.396 257.242 265.609C257.044 265.82 256.922 266.117 256.875 266.5H258.992V266.445C258.971 266.078 258.872 265.794 258.695 265.594C258.518 265.391 258.279 265.289 257.977 265.289ZM261.238 264.773L261.262 265.305C261.585 264.898 262.007 264.695 262.527 264.695C263.421 264.695 263.871 265.199 263.879 266.207V269H263.156V266.203C263.154 265.898 263.083 265.673 262.945 265.527C262.81 265.382 262.598 265.309 262.309 265.309C262.074 265.309 261.868 265.371 261.691 265.496C261.514 265.621 261.376 265.785 261.277 265.988V269H260.555V264.773H261.238ZM265.949 263.75V264.773H266.738V265.332H265.949V267.953C265.949 268.122 265.984 268.25 266.055 268.336C266.125 268.419 266.245 268.461 266.414 268.461C266.497 268.461 266.612 268.445 266.758 268.414V269C266.568 269.052 266.383 269.078 266.203 269.078C265.88 269.078 265.637 268.98 265.473 268.785C265.309 268.59 265.227 268.312 265.227 267.953V265.332H264.457V264.773H265.227V263.75H265.949Z" fill="#2F3A40"/>
<path d="M368.695 257.465C368.052 257.28 367.583 257.053 367.289 256.785C366.997 256.514 366.852 256.181 366.852 255.785C366.852 255.337 367.03 254.967 367.387 254.676C367.746 254.382 368.212 254.234 368.785 254.234C369.176 254.234 369.523 254.31 369.828 254.461C370.135 254.612 370.372 254.82 370.539 255.086C370.708 255.352 370.793 255.642 370.793 255.957H370.039C370.039 255.613 369.93 255.344 369.711 255.148C369.492 254.951 369.184 254.852 368.785 254.852C368.415 254.852 368.126 254.934 367.918 255.098C367.712 255.259 367.609 255.484 367.609 255.773C367.609 256.005 367.707 256.202 367.902 256.363C368.1 256.522 368.435 256.668 368.906 256.801C369.38 256.934 369.75 257.081 370.016 257.242C370.284 257.401 370.482 257.587 370.609 257.801C370.74 258.014 370.805 258.266 370.805 258.555C370.805 259.016 370.625 259.385 370.266 259.664C369.906 259.94 369.426 260.078 368.824 260.078C368.434 260.078 368.069 260.004 367.73 259.855C367.392 259.704 367.13 259.499 366.945 259.238C366.763 258.978 366.672 258.682 366.672 258.352H367.426C367.426 258.695 367.552 258.967 367.805 259.168C368.06 259.366 368.4 259.465 368.824 259.465C369.22 259.465 369.523 259.384 369.734 259.223C369.945 259.061 370.051 258.841 370.051 258.562C370.051 258.284 369.953 258.069 369.758 257.918C369.562 257.764 369.208 257.613 368.695 257.465ZM372.441 260H371.719V255.773H372.441V260ZM371.66 254.652C371.66 254.535 371.695 254.436 371.766 254.355C371.839 254.275 371.945 254.234 372.086 254.234C372.227 254.234 372.333 254.275 372.406 254.355C372.479 254.436 372.516 254.535 372.516 254.652C372.516 254.77 372.479 254.867 372.406 254.945C372.333 255.023 372.227 255.062 372.086 255.062C371.945 255.062 371.839 255.023 371.766 254.945C371.695 254.867 371.66 254.77 371.66 254.652ZM374.281 255.773L374.301 256.242C374.611 255.878 375.029 255.695 375.555 255.695C376.146 255.695 376.548 255.922 376.762 256.375C376.902 256.172 377.085 256.008 377.309 255.883C377.535 255.758 377.802 255.695 378.109 255.695C379.036 255.695 379.508 256.186 379.523 257.168V260H378.801V257.211C378.801 256.909 378.732 256.684 378.594 256.535C378.456 256.384 378.224 256.309 377.898 256.309C377.63 256.309 377.408 256.389 377.23 256.551C377.053 256.71 376.951 256.924 376.922 257.195V260H376.195V257.23C376.195 256.616 375.895 256.309 375.293 256.309C374.819 256.309 374.495 256.51 374.32 256.914V260H373.598V255.773H374.281ZM384.188 257.934C384.188 258.577 384.04 259.095 383.746 259.488C383.452 259.882 383.053 260.078 382.551 260.078C382.038 260.078 381.634 259.915 381.34 259.59V261.625H380.617V255.773H381.277L381.312 256.242C381.607 255.878 382.016 255.695 382.539 255.695C383.047 255.695 383.448 255.887 383.742 256.27C384.039 256.652 384.188 257.185 384.188 257.867V257.934ZM383.465 257.852C383.465 257.375 383.363 256.999 383.16 256.723C382.957 256.447 382.678 256.309 382.324 256.309C381.887 256.309 381.559 256.503 381.34 256.891V258.91C381.556 259.296 381.887 259.488 382.332 259.488C382.678 259.488 382.953 259.352 383.156 259.078C383.362 258.802 383.465 258.393 383.465 257.852ZM385.895 260H385.172V254H385.895V260ZM387.84 260H387.117V255.773H387.84V260ZM387.059 254.652C387.059 254.535 387.094 254.436 387.164 254.355C387.237 254.275 387.344 254.234 387.484 254.234C387.625 254.234 387.732 254.275 387.805 254.355C387.878 254.436 387.914 254.535 387.914 254.652C387.914 254.77 387.878 254.867 387.805 254.945C387.732 255.023 387.625 255.062 387.484 255.062C387.344 255.062 387.237 255.023 387.164 254.945C387.094 254.867 387.059 254.77 387.059 254.652ZM389.242 260V256.332H388.574V255.773H389.242V255.414C389.242 254.943 389.376 254.576 389.645 254.312C389.915 254.049 390.297 253.918 390.789 253.918C391.081 253.918 391.449 253.997 391.895 254.156L391.773 254.766C391.448 254.635 391.138 254.57 390.844 254.57C390.534 254.57 390.31 254.641 390.172 254.781C390.036 254.919 389.969 255.128 389.969 255.406V255.773H390.832V256.332H389.969V260H389.242ZM392.254 260H391.527V255.773H392.254V260ZM395.184 260.078C394.611 260.078 394.145 259.891 393.785 259.516C393.426 259.138 393.246 258.634 393.246 258.004V257.871C393.246 257.452 393.326 257.078 393.484 256.75C393.646 256.419 393.87 256.161 394.156 255.977C394.445 255.789 394.758 255.695 395.094 255.695C395.643 255.695 396.07 255.876 396.375 256.238C396.68 256.6 396.832 257.118 396.832 257.793V258.094H393.969C393.979 258.51 394.1 258.848 394.332 259.105C394.566 259.361 394.863 259.488 395.223 259.488C395.478 259.488 395.694 259.436 395.871 259.332C396.048 259.228 396.203 259.09 396.336 258.918L396.777 259.262C396.423 259.806 395.892 260.078 395.184 260.078ZM395.094 256.289C394.802 256.289 394.557 256.396 394.359 256.609C394.161 256.82 394.039 257.117 393.992 257.5H396.109V257.445C396.089 257.078 395.99 256.794 395.812 256.594C395.635 256.391 395.396 256.289 395.094 256.289ZM397.496 257.852C397.496 257.203 397.65 256.682 397.957 256.289C398.264 255.893 398.667 255.695 399.164 255.695C399.659 255.695 400.051 255.865 400.34 256.203V254H401.062V260H400.398L400.363 259.547C400.074 259.901 399.672 260.078 399.156 260.078C398.667 260.078 398.267 259.878 397.957 259.477C397.65 259.076 397.496 258.552 397.496 257.906V257.852ZM398.219 257.934C398.219 258.413 398.318 258.788 398.516 259.059C398.714 259.329 398.987 259.465 399.336 259.465C399.794 259.465 400.129 259.259 400.34 258.848V256.906C400.124 256.508 399.792 256.309 399.344 256.309C398.99 256.309 398.714 256.445 398.516 256.719C398.318 256.992 398.219 257.397 398.219 257.934ZM376.367 269V265.332H375.699V264.773H376.367V264.34C376.367 263.887 376.488 263.536 376.73 263.289C376.973 263.042 377.315 262.918 377.758 262.918C377.924 262.918 378.09 262.94 378.254 262.984L378.215 263.57C378.092 263.547 377.962 263.535 377.824 263.535C377.59 263.535 377.409 263.604 377.281 263.742C377.154 263.878 377.09 264.073 377.09 264.328V264.773H377.992V265.332H377.09V269H376.367ZM378.602 266.848C378.602 266.434 378.682 266.061 378.844 265.73C379.008 265.4 379.234 265.145 379.523 264.965C379.815 264.785 380.147 264.695 380.52 264.695C381.095 264.695 381.56 264.895 381.914 265.293C382.271 265.691 382.449 266.221 382.449 266.883V266.934C382.449 267.345 382.37 267.715 382.211 268.043C382.055 268.368 381.829 268.622 381.535 268.805C381.243 268.987 380.908 269.078 380.527 269.078C379.954 269.078 379.49 268.879 379.133 268.48C378.779 268.082 378.602 267.555 378.602 266.898V266.848ZM379.328 266.934C379.328 267.402 379.436 267.779 379.652 268.062C379.871 268.346 380.163 268.488 380.527 268.488C380.895 268.488 381.186 268.345 381.402 268.059C381.618 267.77 381.727 267.366 381.727 266.848C381.727 266.384 381.616 266.009 381.395 265.723C381.176 265.434 380.884 265.289 380.52 265.289C380.163 265.289 379.875 265.431 379.656 265.715C379.438 265.999 379.328 266.405 379.328 266.934ZM385.398 265.422C385.289 265.404 385.171 265.395 385.043 265.395C384.569 265.395 384.247 265.596 384.078 266V269H383.355V264.773H384.059L384.07 265.262C384.307 264.884 384.643 264.695 385.078 264.695C385.219 264.695 385.326 264.714 385.398 264.75V265.422ZM386.746 264.773L386.766 265.242C387.076 264.878 387.493 264.695 388.02 264.695C388.611 264.695 389.013 264.922 389.227 265.375C389.367 265.172 389.549 265.008 389.773 264.883C390 264.758 390.267 264.695 390.574 264.695C391.501 264.695 391.973 265.186 391.988 266.168V269H391.266V266.211C391.266 265.909 391.197 265.684 391.059 265.535C390.921 265.384 390.689 265.309 390.363 265.309C390.095 265.309 389.872 265.389 389.695 265.551C389.518 265.71 389.415 265.924 389.387 266.195V269H388.66V266.23C388.66 265.616 388.359 265.309 387.758 265.309C387.284 265.309 386.96 265.51 386.785 265.914V269H386.062V264.773H386.746Z" fill="#2F3A40"/>
<path d="M222.28 288.4H198V287.47H203.48C203.847 287.468 204.202 287.336 204.482 287.099C204.762 286.861 204.949 286.532 205.01 286.17L207.46 271.59L207.94 268.72H216.25L223.67 286.24C223.77 286.473 223.811 286.727 223.79 286.979C223.769 287.232 223.686 287.476 223.549 287.689C223.411 287.902 223.224 288.078 223.003 288.202C222.782 288.326 222.533 288.394 222.28 288.4Z" fill="#3BADD4"/>
<path opacity="0.4" d="M222.28 288.4H198V287.47H203.48C203.847 287.468 204.202 287.336 204.482 287.099C204.762 286.861 204.949 286.532 205.01 286.17L207.46 271.59L207.94 268.72H216.25L223.67 286.24C223.77 286.473 223.811 286.727 223.79 286.979C223.769 287.232 223.686 287.476 223.549 287.689C223.411 287.902 223.224 288.078 223.003 288.202C222.782 288.326 222.533 288.394 222.28 288.4Z" fill="white"/>
<path opacity="0.2" d="M222.311 287.47H203.521C203.889 287.468 204.244 287.336 204.523 287.099C204.803 286.861 204.99 286.532 205.051 286.17L207.501 271.59H216.201L222.821 286.7C222.858 286.784 222.873 286.876 222.865 286.967C222.857 287.059 222.827 287.147 222.776 287.224C222.725 287.3 222.656 287.363 222.575 287.406C222.494 287.449 222.403 287.471 222.311 287.47Z" fill="black"/>
<path d="M235.32 274.09H186.83C186.721 274.093 186.612 274.071 186.513 274.025C186.413 273.979 186.326 273.911 186.257 273.826C186.188 273.741 186.14 273.641 186.116 273.534C186.093 273.427 186.094 273.316 186.12 273.21L193 236.78C193.051 236.547 193.176 236.336 193.356 236.179C193.536 236.022 193.762 235.928 194 235.91H242.49C242.599 235.905 242.708 235.926 242.807 235.97C242.907 236.015 242.995 236.082 243.064 236.167C243.133 236.251 243.181 236.351 243.205 236.457C243.228 236.564 243.227 236.674 243.2 236.78L236.31 273.21C236.262 273.443 236.139 273.655 235.961 273.814C235.783 273.972 235.558 274.069 235.32 274.09Z" fill="#3BADD4"/>
<path opacity="0.4" d="M235.32 274.09H186.83C186.721 274.093 186.612 274.071 186.513 274.025C186.413 273.979 186.326 273.911 186.257 273.826C186.188 273.741 186.14 273.641 186.116 273.534C186.093 273.427 186.094 273.316 186.12 273.21L193 236.78C193.051 236.547 193.176 236.336 193.356 236.179C193.536 236.022 193.762 235.928 194 235.91H242.49C242.599 235.905 242.708 235.926 242.807 235.97C242.907 236.015 242.995 236.082 243.064 236.167C243.133 236.251 243.181 236.351 243.205 236.457C243.228 236.564 243.227 236.674 243.2 236.78L236.31 273.21C236.262 273.443 236.139 273.655 235.961 273.814C235.783 273.972 235.558 274.069 235.32 274.09Z" fill="white"/>
<path d="M234.32 274.09H185.83C185.721 274.093 185.612 274.071 185.513 274.025C185.413 273.979 185.326 273.911 185.257 273.826C185.188 273.741 185.14 273.641 185.116 273.534C185.093 273.427 185.094 273.316 185.12 273.21L192 236.78C192.051 236.547 192.176 236.336 192.356 236.179C192.536 236.022 192.762 235.928 193 235.91H241.49C241.599 235.905 241.708 235.926 241.807 235.97C241.907 236.015 241.995 236.082 242.064 236.167C242.133 236.251 242.181 236.351 242.205 236.457C242.228 236.564 242.227 236.674 242.2 236.78L235.31 273.21C235.262 273.443 235.139 273.655 234.961 273.814C234.783 273.972 234.558 274.069 234.32 274.09Z" fill="#263238"/>
<path d="M233.67 271.86H187.32L193.69 238.14H240.05L233.67 271.86Z" fill="#3BADD4"/>
<path opacity="0.4" d="M225.361 262.21H197.361C196.865 262.22 196.385 262.383 195.985 262.676C195.586 262.97 195.287 263.38 195.131 263.85C195.069 264.054 195.06 264.27 195.103 264.478C195.146 264.686 195.24 264.881 195.377 265.044C195.514 265.206 195.689 265.332 195.887 265.41C196.085 265.488 196.299 265.516 196.511 265.49H224.511C225.008 265.484 225.492 265.323 225.893 265.029C226.295 264.735 226.594 264.323 226.751 263.85C226.81 263.646 226.818 263.43 226.773 263.222C226.729 263.013 226.633 262.819 226.496 262.657C226.358 262.495 226.182 262.369 225.984 262.291C225.786 262.213 225.572 262.185 225.361 262.21Z" fill="white"/>
<path d="M196.631 265C196.478 265.018 196.323 264.998 196.179 264.941C196.036 264.884 195.909 264.793 195.81 264.675C195.711 264.557 195.642 264.416 195.611 264.265C195.58 264.114 195.587 263.958 195.631 263.81C195.743 263.47 195.959 263.174 196.247 262.963C196.536 262.751 196.883 262.635 197.241 262.63H217.241C217.393 262.613 217.547 262.633 217.689 262.689C217.831 262.746 217.957 262.836 218.056 262.953C218.155 263.069 218.224 263.209 218.256 263.358C218.288 263.508 218.283 263.663 218.241 263.81C218.128 264.152 217.912 264.451 217.621 264.665C217.331 264.878 216.981 264.995 216.621 265H196.631Z" fill="white"/>
<path opacity="0.4" d="M210.861 243.08L210.531 244.8H206.941L204.211 258.92H215.891L216.421 256.21H219.001L221.541 243.08H210.861ZM215.081 257.93H205.401L207.751 245.79H210.341L208.341 256.21H215.441L215.081 257.93ZM217.371 249.77H215.371L214.991 251.77C214.96 251.908 214.885 252.032 214.776 252.122C214.668 252.213 214.532 252.265 214.391 252.27C214.328 252.274 214.265 252.263 214.208 252.238C214.15 252.213 214.1 252.174 214.06 252.125C214.021 252.075 213.994 252.018 213.982 251.956C213.97 251.894 213.973 251.83 213.991 251.77L214.371 249.77H212.371C212.308 249.774 212.245 249.763 212.188 249.738C212.13 249.713 212.08 249.674 212.04 249.625C212.001 249.575 211.974 249.518 211.962 249.456C211.95 249.394 211.953 249.33 211.971 249.27C212.002 249.135 212.076 249.014 212.183 248.925C212.289 248.836 212.422 248.785 212.561 248.78H214.561L214.951 246.78C214.984 246.644 215.06 246.522 215.168 246.434C215.277 246.345 215.411 246.295 215.551 246.29C215.613 246.286 215.674 246.297 215.731 246.322C215.787 246.347 215.837 246.385 215.876 246.433C215.915 246.481 215.942 246.537 215.955 246.597C215.968 246.658 215.967 246.72 215.951 246.78L215.561 248.78H217.561C217.622 248.779 217.683 248.791 217.738 248.816C217.794 248.842 217.842 248.88 217.881 248.927C217.92 248.974 217.947 249.03 217.961 249.089C217.975 249.149 217.975 249.211 217.961 249.27C217.932 249.407 217.859 249.531 217.752 249.621C217.645 249.712 217.511 249.764 217.371 249.77Z" fill="white"/>
<path d="M152.871 288.4V287.27L171.541 283.49H208.001C208.324 283.49 208.643 283.553 208.941 283.677C209.239 283.801 209.509 283.982 209.737 284.211C209.965 284.439 210.145 284.711 210.267 285.009C210.39 285.308 210.452 285.627 210.451 285.95C210.451 286.6 210.193 287.223 209.734 287.682C209.274 288.142 208.651 288.4 208.001 288.4H152.871Z" fill="#3BADD4"/>
<path opacity="0.4" d="M210.491 286C210.492 286.648 210.237 287.27 209.781 287.73C209.318 288.189 208.693 288.448 208.041 288.45H152.871V287.32L171.541 283.54H208.001C208.327 283.535 208.651 283.594 208.953 283.716C209.256 283.837 209.531 284.018 209.763 284.247C209.995 284.476 210.179 284.749 210.304 285.05C210.429 285.351 210.492 285.674 210.491 286Z" fill="white"/>
<path opacity="0.4" d="M210.491 286C210.492 286.648 210.237 287.27 209.781 287.73C209.318 288.189 208.693 288.448 208.041 288.45H185.871V287.32L204.541 283.54H208.001C208.327 283.535 208.651 283.594 208.953 283.716C209.256 283.837 209.531 284.018 209.763 284.247C209.995 284.476 210.179 284.749 210.304 285.05C210.429 285.351 210.492 285.674 210.491 286Z" fill="white"/>
<path d="M223.842 419.18H228.832L237.802 294.24H231.182L223.842 419.18Z" fill="#263238"/>
<path opacity="0.1" d="M223.83 419.18H228.83L237.37 300.45L237.81 294.44H231.18L230.82 300.45L223.83 419.18Z" fill="white"/>
<path opacity="0.2" d="M230.82 300.15H237.37L237.81 294.44H231.18L230.82 300.15Z" fill="black"/>
<path d="M187.181 419.18H192.181L192.991 294.24H186.361L187.181 419.18Z" fill="#263238"/>
<path opacity="0.1" d="M186.361 294.44L186.491 314.6L187.181 419.18H192.171L192.861 314.6L192.991 294.44H186.361Z" fill="white"/>
<path opacity="0.2" d="M186.361 294.44L186.491 314.83H192.861L192.991 294.44H186.361Z" fill="black"/>
<path d="M134.15 419.18H139.15L148.12 294.24H141.5L134.15 419.18Z" fill="#263238"/>
<path opacity="0.1" d="M134.15 419.18H139.15L147.68 300.45L148.12 294.44H141.5L141.14 300.45L134.15 419.18Z" fill="white"/>
<path opacity="0.2" d="M141.141 300.15H147.681L148.121 294.44H141.501L141.141 300.15Z" fill="black"/>
<path d="M280.97 419.18H285.97L278.63 294.24H272L280.97 419.18Z" fill="#263238"/>
<path opacity="0.1" d="M272 294.44L272.44 300.45L280.98 419.18H285.97L278.99 300.45L278.63 294.44H272Z" fill="white"/>
<path opacity="0.2" d="M278.63 294.44H272L272.44 300.15H278.99L278.63 294.44Z" fill="black"/>
<path d="M281.721 297.37H138.401C137.828 297.37 137.279 297.143 136.874 296.737C136.468 296.332 136.241 295.783 136.241 295.21V291.11H283.881V295.21C283.881 295.783 283.653 296.332 283.248 296.737C282.843 297.143 282.294 297.37 281.721 297.37Z" fill="#3BADD4"/>
<path opacity="0.4" d="M281.721 297.37H138.401C137.828 297.37 137.279 297.143 136.874 296.737C136.468 296.332 136.241 295.783 136.241 295.21V291.11H283.881V295.21C283.881 295.783 283.653 296.332 283.248 296.737C282.843 297.143 282.294 297.37 281.721 297.37Z" fill="white"/>
<path opacity="0.2" d="M136.241 294.24H283.881V291.11H136.241V294.24Z" fill="black"/>
<path d="M133.151 291.93H287.001C287.233 291.931 287.463 291.887 287.677 291.799C287.892 291.711 288.087 291.582 288.252 291.418C288.416 291.254 288.547 291.06 288.636 290.846C288.725 290.632 288.771 290.402 288.771 290.17C288.771 289.7 288.584 289.25 288.252 288.918C287.921 288.586 287.47 288.4 287.001 288.4H133.151C132.681 288.4 132.231 288.586 131.899 288.918C131.567 289.25 131.381 289.7 131.381 290.17C131.381 290.402 131.427 290.632 131.516 290.846C131.605 291.06 131.735 291.254 131.9 291.418C132.064 291.582 132.26 291.711 132.474 291.799C132.689 291.887 132.919 291.931 133.151 291.93Z" fill="#3BADD4"/>
<path opacity="0.4" d="M133.151 291.93H287.001C287.233 291.931 287.463 291.887 287.677 291.799C287.892 291.711 288.087 291.582 288.252 291.418C288.416 291.254 288.547 291.06 288.636 290.846C288.725 290.632 288.771 290.402 288.771 290.17C288.771 289.7 288.584 289.25 288.252 288.918C287.921 288.586 287.47 288.4 287.001 288.4H133.151C132.681 288.4 132.231 288.586 131.899 288.918C131.567 289.25 131.381 289.7 131.381 290.17C131.381 290.402 131.427 290.632 131.516 290.846C131.605 291.06 131.735 291.254 131.9 291.418C132.064 291.582 132.26 291.711 132.474 291.799C132.689 291.887 132.919 291.931 133.151 291.93Z" fill="white"/>
<path d="M144.818 281.88L151.818 282.88C153.41 282.394 155.044 282.059 156.698 281.88C158.498 281.726 160.308 281.726 162.108 281.88C162.108 281.88 165.268 283.06 165.268 286.1C165.268 286.1 157.888 288.1 155.048 286.89L144.828 286.1L144.818 281.88Z" fill="#EBB376"/>
<path d="M128.239 255.22C132.589 259.72 135.549 277.13 136.339 278.32C137.129 279.51 152.169 281.68 152.169 281.68C152.169 281.68 153.749 284.96 152.169 287.68C152.169 287.68 133.539 286.83 131.279 285.68C129.019 284.53 123.479 271.5 123.479 271.5C123.202 268.481 123.449 265.436 124.209 262.5C125.469 257 128.239 255.22 128.239 255.22Z" fill="#3BADD4"/>
<path opacity="0.6" d="M128.239 255.22C132.589 259.72 135.549 277.13 136.339 278.32C137.129 279.51 152.169 281.68 152.169 281.68C152.169 281.68 153.749 284.96 152.169 287.68C152.169 287.68 133.539 286.83 131.279 285.68C129.019 284.53 123.479 271.5 123.479 271.5C123.202 268.481 123.449 265.436 124.209 262.5C125.469 257 128.239 255.22 128.239 255.22Z" fill="white"/>
<path d="M169.238 282.6L176.238 283.6C177.831 283.119 179.465 282.784 181.118 282.6C182.919 282.452 184.728 282.452 186.528 282.6C186.528 282.6 189.698 283.79 189.698 286.82C189.698 286.82 182.308 288.82 179.478 287.62L169.258 286.82L169.238 282.6Z" fill="#EBB376"/>
<path d="M152.379 233.47H155.019C155.395 233.47 155.699 233.166 155.699 232.79V230.15C155.699 229.775 155.395 229.47 155.019 229.47H152.379C152.004 229.47 151.699 229.775 151.699 230.15V232.79C151.699 233.166 152.004 233.47 152.379 233.47Z" stroke="#263238" stroke-width="0.5" stroke-miterlimit="10"/>
<path d="M152.619 240.29C152.487 240.634 152.33 240.968 152.149 241.29C151.176 243.048 149.69 244.468 147.889 245.36C147.435 245.587 146.963 245.777 146.479 245.93C145.209 246.357 143.859 246.496 142.529 246.335C141.199 246.174 139.921 245.718 138.789 245C137.772 244.346 136.895 243.496 136.209 242.5C133.269 238.34 134.049 234.24 134.819 227.2C134.97 225.552 135.539 223.971 136.474 222.606C137.409 221.241 138.677 220.138 140.159 219.402C141.641 218.666 143.286 218.322 144.939 218.402C146.591 218.482 148.196 218.984 149.599 219.86C155.999 223.74 155.179 234.27 152.619 240.29Z" fill="#EBB376"/>
<path opacity="0.2" d="M147.889 245.31C147.435 245.537 146.963 245.727 146.479 245.88C145.209 246.307 143.859 246.446 142.529 246.285C141.198 246.124 139.921 245.668 138.789 244.95C139.241 244.163 139.792 243.437 140.429 242.79C143.106 242.895 145.697 243.77 147.889 245.31Z" fill="black"/>
<path d="M128.42 251.75C131.34 255.44 143.88 255.95 143.88 255.95C143.88 255.95 149.37 255.39 148.54 253.57C145.54 252.57 144.27 250.85 143.96 248.9C143.812 247.697 143.907 246.476 144.24 245.31C144.4 244.657 144.593 244.013 144.82 243.38L135.7 233.94C138.79 245 132.4 248.62 128.42 251.75Z" fill="#EBB376"/>
<path d="M152.8 219.14C150.15 215.65 148.12 216.47 148.12 216.47C146.36 213.47 137.56 214.11 133.35 217.47C129.14 220.83 128.05 226.71 128.72 231.2C129.72 237.75 134.37 244.11 134.37 244.11C139.68 245.11 143.94 243.57 144.05 240.79C144.16 238.01 146.76 235.79 146.76 235.79C149.39 236.44 151.47 233.4 151.47 233.4C151.47 233.4 154.16 230.6 153.09 227.12C152.02 223.64 155 222.09 152.8 219.14Z" fill="#263238"/>
<path d="M145.699 234.05C145.72 234.728 145.893 235.392 146.205 235.994C146.516 236.596 146.958 237.121 147.499 237.53C148.819 238.37 150.089 236.53 150.229 234.4C150.339 232.51 149.819 229.73 148.229 229.82C146.639 229.91 145.509 232.09 145.699 234.05Z" fill="#EBB376"/>
<path d="M150.239 233.78C150.239 233.78 150.029 239.78 148.619 242.32C147.209 244.86 147.469 245.62 145.299 246.18C145.299 246.18 146.679 247.73 147.769 247.4C148.859 247.07 148.539 246.14 149.529 246.08C150.519 246.02 152.159 245.19 151.899 244.18C151.639 243.17 151.419 242.91 152.649 241.92C153.879 240.93 154.179 238.92 153.399 238.14C153.106 237.914 152.764 237.761 152.401 237.691C152.038 237.622 151.664 237.638 151.309 237.74L151.039 233.29L150.239 233.78Z" fill="#263238"/>
<path d="M148.289 254.34C148.289 254.34 146.179 244.86 133.459 244.95L130.219 249.64L148.289 254.34Z" fill="#3BADD4"/>
<path opacity="0.8" d="M148.289 254.34C148.289 254.34 146.179 244.86 133.459 244.95L130.219 249.64L148.289 254.34Z" fill="white"/>
<path d="M125.908 411.88L133.218 412.01L136.858 395.15L129.558 395.03L125.908 411.88Z" fill="#EBB376"/>
<path opacity="0.2" d="M129.559 395.03L136.859 395.16L134.779 404.8L127.539 404.31L129.559 395.03Z" fill="black"/>
<path d="M149.4 370.62C146.614 381.34 143.054 391.844 138.75 402.05L125.41 401.05C125.41 401.05 130.88 379.67 132.87 360.05C134.09 348 134 338 130.45 337.23C128.22 336.74 123.01 336.76 116.34 336.91V312C135.07 315.84 153.7 323.1 155.12 328.92C157.1 337.15 153.64 354.49 149.4 370.62Z" fill="#3BADD4"/>
<path d="M124 401.66L139.88 402.71L142.21 395.85L124.72 395.03L124 401.66Z" fill="#3BADD4"/>
<path opacity="0.2" d="M124 401.66L139.88 402.71L142.21 395.85L124.72 395.03L124 401.66Z" fill="white"/>
<path d="M134.318 411.64H134.468C134.468 411.64 134.628 411.64 134.648 411.71C134.657 411.715 134.668 411.718 134.678 411.718C134.689 411.718 134.699 411.715 134.708 411.71C135.329 411.903 135.97 412.027 136.618 412.08C137.099 412.163 137.593 412.067 138.008 411.81C138.136 411.696 138.228 411.548 138.274 411.383C138.32 411.218 138.318 411.044 138.268 410.88C138.258 410.771 138.219 410.667 138.156 410.577C138.093 410.488 138.007 410.417 137.908 410.37C137.219 410.257 136.512 410.388 135.908 410.74C136.343 410.289 136.599 409.696 136.628 409.07C136.599 408.924 136.522 408.791 136.41 408.692C136.298 408.592 136.157 408.532 136.008 408.52C135.867 408.496 135.723 408.501 135.584 408.533C135.445 408.566 135.314 408.626 135.198 408.71C134.438 409.37 134.318 411.43 134.318 411.56V411.64ZM135.098 411.22L134.948 411.31C134.909 410.516 135.126 409.731 135.568 409.07C135.618 409.025 135.676 408.99 135.74 408.967C135.804 408.945 135.871 408.936 135.938 408.94H135.998C136.238 408.94 136.298 409.11 136.308 409.21C136.152 410.001 135.724 410.712 135.098 411.22ZM135.198 411.58C136.088 411.1 137.338 410.58 137.798 410.78C137.848 410.802 137.89 410.837 137.922 410.881C137.953 410.925 137.973 410.976 137.978 411.03C138.003 411.136 138.001 411.245 137.973 411.35C137.945 411.455 137.892 411.551 137.818 411.63C137.448 411.94 136.488 411.92 135.198 411.58Z" fill="#3BADD4"/>
<path d="M134.138 410.75L125.958 410.24C125.822 410.226 125.685 410.266 125.579 410.353C125.472 410.439 125.403 410.564 125.388 410.7L124.578 417.16C124.559 417.499 124.674 417.832 124.899 418.087C125.124 418.341 125.439 418.497 125.778 418.52C128.628 418.65 129.998 418.58 133.608 418.77C136.8 419.097 140.012 419.201 143.218 419.08C146.268 418.78 145.898 415.78 144.578 415.63C141.458 415.28 137.318 412.98 135.368 411.24C135.023 410.946 134.591 410.774 134.138 410.75Z" fill="#263238"/>
<path opacity="0.2" d="M149.4 370.62C144.4 367.46 138.59 363.75 132.87 360.09C134.09 348 134 338 130.45 337.23C128.22 336.74 123.01 336.76 116.34 336.91V312C135.07 315.84 153.7 323.1 155.12 328.92C157.1 337.15 153.64 354.49 149.4 370.62Z" fill="black"/>
<path d="M142.37 304.63L144.68 293.22C145.512 280.473 148.207 267.916 152.68 255.95C152.68 255.95 141.76 247.67 130.27 247.81C121.07 247.91 109.58 274.03 103.27 301.49L142.37 304.63Z" fill="#3BADD4"/>
<path opacity="0.9" d="M142.37 304.63L144.68 293.22C145.512 280.473 148.207 267.916 152.68 255.95C152.68 255.95 141.76 247.67 130.27 247.81C121.07 247.91 109.58 274.03 103.27 301.49L142.37 304.63Z" fill="white"/>
<path d="M152.65 256C157 260.5 159.97 277.91 160.76 279.09C161.55 280.27 176.58 282.46 176.58 282.46C176.58 282.46 178.16 285.74 176.58 288.46C176.58 288.46 157.95 287.61 155.7 286.46C153.45 285.31 147.89 272.28 147.89 272.28C147.619 269.26 147.866 266.217 148.62 263.28C149.88 257.68 152.65 256 152.65 256Z" fill="#3BADD4"/>
<path opacity="0.8" d="M152.65 256C157 260.5 159.97 277.91 160.76 279.09C161.55 280.27 176.58 282.46 176.58 282.46C176.58 282.46 178.16 285.74 176.58 288.46C176.58 288.46 157.95 287.61 155.7 286.46C153.45 285.31 147.89 272.28 147.89 272.28C147.619 269.26 147.866 266.217 148.62 263.28C149.88 257.68 152.65 256 152.65 256Z" fill="white"/>
<path d="M152.87 223.34C152.87 223.34 157.27 219.71 152.65 214.56C148.03 209.41 144.42 209.68 144.32 210.47C144.22 211.26 146.98 211.79 146.98 212.47C146.98 212.47 141.84 212.87 140.38 211.81C138.92 210.75 134.71 211.42 135.9 212.21C137.09 213 135.37 213.66 133.13 213.92C130.89 214.18 126.8 218.01 127.92 219.86C128.451 220.859 128.59 222.02 128.311 223.117C128.031 224.213 127.354 225.166 126.41 225.79C124.41 226.98 125.75 229.48 126.41 228.16C127.07 226.84 127.92 226.84 127.92 226.84C127.92 226.84 127.86 232.51 127.92 233.96C127.98 235.41 129.18 237.34 129.18 237.76C129.18 238.18 128.38 237.38 129.31 239.63C130.24 241.88 131.38 241.09 131.38 241.09C131.38 241.09 129.9 241.09 131.38 242.81C131.716 243.281 132.17 243.655 132.697 243.894C133.224 244.133 133.804 244.228 134.38 244.17C134.38 244.17 139.45 239.11 138.8 233.04C138.15 226.97 152.87 223.34 152.87 223.34Z" fill="#263238"/>
<path d="M168.639 411.88L175.949 412.01L179.589 395.15L172.289 395.03L168.639 411.88Z" fill="#EBB376"/>
<path opacity="0.2" d="M172.29 395.03L179.59 395.16L177.51 404.8L170.27 404.31L172.29 395.03Z" fill="black"/>
<path d="M142.099 309.59L143.269 300.15L105.099 293.87C105.099 293.87 92.6191 318.6 98.7291 330.72C104.329 341.84 163.989 335.22 173.179 337.23C182.369 339.24 168.179 401.03 168.179 401.03L181.519 402.03C181.519 402.03 202.129 346.43 197.889 328.94C195.999 321.33 164.549 311.23 142.099 309.59Z" fill="#3BADD4"/>
<path d="M166.729 401.66L182.609 402.71L184.939 395.85L167.449 395.03L166.729 401.66Z" fill="#3BADD4"/>
<path opacity="0.2" d="M166.729 401.66L182.609 402.71L184.939 395.85L167.449 395.03L166.729 401.66Z" fill="white"/>
<path d="M177.049 411.64H177.199C177.199 411.64 177.359 411.64 177.379 411.71C177.399 411.78 177.379 411.71 177.379 411.71C177.39 411.715 177.402 411.717 177.414 411.717C177.426 411.717 177.438 411.715 177.449 411.71C178.066 411.904 178.704 412.028 179.349 412.08C179.83 412.169 180.326 412.072 180.739 411.81C180.846 411.707 180.925 411.579 180.971 411.438C181.016 411.297 181.026 411.146 180.999 411C180.988 410.891 180.95 410.787 180.886 410.697C180.823 410.608 180.738 410.537 180.639 410.49C179.949 410.377 179.242 410.508 178.639 410.86C179.074 410.409 179.329 409.816 179.359 409.19C179.329 409.044 179.252 408.911 179.141 408.812C179.029 408.713 178.888 408.652 178.739 408.64C178.598 408.616 178.454 408.621 178.315 408.653C178.175 408.686 178.044 408.746 177.929 408.83C177.169 409.49 177.049 411.55 177.049 411.68V411.64ZM177.829 411.22L177.679 411.31C177.64 410.516 177.857 409.731 178.299 409.07C178.349 409.025 178.407 408.99 178.471 408.967C178.534 408.945 178.602 408.936 178.669 408.94H178.749C178.989 408.94 179.049 409.11 179.059 409.21C178.897 410.004 178.462 410.715 177.829 411.22ZM177.939 411.58C178.819 411.1 180.069 410.58 180.529 410.78C180.578 410.803 180.621 410.837 180.652 410.881C180.684 410.925 180.703 410.976 180.709 411.03C180.733 411.136 180.732 411.246 180.704 411.35C180.676 411.455 180.623 411.551 180.549 411.63C180.179 411.94 179.219 411.92 177.939 411.58Z" fill="#3BADD4"/>
<path d="M176.869 410.75L168.689 410.24C168.552 410.226 168.416 410.266 168.309 410.353C168.202 410.439 168.134 410.564 168.119 410.7L167.309 417.16C167.289 417.499 167.405 417.832 167.629 418.087C167.854 418.341 168.17 418.497 168.509 418.52C171.359 418.65 172.739 418.58 176.339 418.77C179.531 419.097 182.742 419.201 185.949 419.08C188.999 418.78 188.629 415.78 187.309 415.63C184.189 415.28 180.049 412.98 178.099 411.24C177.753 410.946 177.321 410.774 176.869 410.75Z" fill="#263238"/>
<path d="M103.699 298.17L121.389 300.48L121.959 297.88L104.239 295.3L103.699 298.17Z" fill="black"/>
<path d="M123.429 297.89L123.219 300.48L139.559 302.73V300.17L123.429 297.89Z" fill="black"/>
<path d="M140.578 300.31V302.73L142.948 303.05V300.71L140.578 300.31Z" fill="black"/>
<path d="M88.5994 329.29H160.849C162.947 329.29 164.959 330.123 166.443 331.607C167.926 333.09 168.759 335.102 168.759 337.2V341.43H80.6895V337.2C80.6895 335.102 81.5228 333.09 83.0062 331.607C84.4896 330.123 86.5016 329.29 88.5994 329.29Z" fill="#3BADD4"/>
<path d="M112.1 299.22H160.59C161.173 299.22 161.748 299.352 162.274 299.605C162.799 299.859 163.26 300.228 163.622 300.684C163.985 301.141 164.239 301.674 164.367 302.243C164.495 302.812 164.492 303.402 164.36 303.97L155.7 341.43H153.7L161.09 308.6C161.217 308.033 161.215 307.445 161.085 306.878C160.954 306.312 160.698 305.782 160.335 305.328C159.972 304.874 159.512 304.507 158.988 304.255C158.464 304.003 157.891 303.871 157.31 303.87H113.09L112.1 299.22Z" fill="#263238"/>
<path d="M130.45 342.74V374.39C130.45 374.878 130.256 375.346 129.911 375.691C129.566 376.036 129.098 376.23 128.61 376.23H120.85C120.362 376.23 119.894 376.036 119.549 375.691C119.204 375.346 119.01 374.878 119.01 374.39V342.74H130.45Z" fill="#263238"/>
<path d="M87.6189 415.82C87.6209 415.153 87.4249 414.5 87.0558 413.945C86.6867 413.389 86.1611 412.956 85.5455 412.699C84.9299 412.443 84.252 412.375 83.5976 412.503C82.9432 412.632 82.3418 412.953 81.8695 413.423C81.3972 413.894 81.0752 414.495 80.9444 415.149C80.8136 415.803 80.8797 416.481 81.1345 417.097C81.3892 417.714 81.8212 418.241 82.3756 418.611C82.93 418.982 83.5819 419.18 84.2489 419.18C84.691 419.181 85.129 419.095 85.5378 418.927C85.9466 418.759 86.3182 418.512 86.6312 418.199C86.9443 417.887 87.1927 417.516 87.3622 417.108C87.5317 416.7 87.6189 416.262 87.6189 415.82Z" fill="#263238"/>
<path opacity="0.2" d="M85.9284 415.82C85.9284 415.488 85.8298 415.163 85.6452 414.887C85.4606 414.61 85.1982 414.395 84.8913 414.268C84.5843 414.141 84.2465 414.108 83.9206 414.172C83.5947 414.237 83.2954 414.397 83.0604 414.632C82.8255 414.867 82.6655 415.167 82.6006 415.492C82.5358 415.818 82.5691 416.156 82.6962 416.463C82.8234 416.77 83.0387 417.032 83.315 417.217C83.5913 417.402 83.9161 417.5 84.2484 417.5C84.6939 417.5 85.1212 417.323 85.4363 417.008C85.7514 416.693 85.9284 416.266 85.9284 415.82Z" fill="white"/>
<path d="M168.56 415.82C168.56 415.155 168.363 414.506 167.994 413.953C167.624 413.401 167.1 412.97 166.486 412.716C165.872 412.461 165.196 412.395 164.544 412.525C163.893 412.654 163.294 412.974 162.824 413.444C162.354 413.914 162.034 414.513 161.904 415.164C161.775 415.816 161.841 416.492 162.096 417.106C162.35 417.72 162.781 418.244 163.333 418.614C163.886 418.983 164.535 419.18 165.2 419.18C165.641 419.181 166.079 419.095 166.487 418.927C166.895 418.758 167.266 418.511 167.579 418.199C167.891 417.887 168.138 417.516 168.307 417.107C168.475 416.699 168.561 416.262 168.56 415.82Z" fill="#263238"/>
<path opacity="0.2" d="M165.2 417.5C166.127 417.5 166.88 416.748 166.88 415.82C166.88 414.892 166.127 414.14 165.2 414.14C164.272 414.14 163.52 414.892 163.52 415.82C163.52 416.748 164.272 417.5 165.2 417.5Z" fill="white"/>
<path d="M127.509 401.07V364.89H121.939V401.07C100.279 401.62 87.1187 409.2 84.4787 410.86C84.325 410.951 84.1985 411.082 84.1123 411.238C84.0261 411.395 83.9834 411.572 83.9887 411.75V414.75C83.9913 415.03 84.1038 415.299 84.3021 415.497C84.5003 415.695 84.7684 415.808 85.0487 415.81C85.238 415.812 85.4244 415.763 85.5881 415.668C85.7518 415.573 85.8868 415.436 85.9787 415.27L87.2587 413C98.4808 409.422 110.162 407.488 121.939 407.26V413.2C121.939 413.566 122.084 413.917 122.343 414.176C122.602 414.435 122.953 414.58 123.319 414.58H126.129C126.495 414.58 126.846 414.435 127.105 414.176C127.363 413.917 127.509 413.566 127.509 413.2V407.26C139.285 407.488 150.967 409.422 162.189 413L163.479 415.25C163.565 415.418 163.698 415.557 163.861 415.653C164.024 415.749 164.21 415.796 164.399 415.79C164.68 415.79 164.949 415.678 165.148 415.48C165.347 415.281 165.459 415.011 165.459 414.73V411.73C165.464 411.552 165.421 411.375 165.335 411.218C165.249 411.062 165.122 410.931 164.969 410.84C162.339 409.2 149.169 401.62 127.509 401.07Z" fill="#263238"/>
<path d="M126.548 412.46H122.898V419.19H126.548V412.46Z" fill="#263238"/>
<path opacity="0.2" d="M130.45 342.74H119.01V355.89H130.45V342.74Z" fill="black"/>
<path d="M171.169 339.48V343.26C171.169 343.514 171.119 343.766 171.021 344.001C170.923 344.236 170.78 344.449 170.6 344.628C170.42 344.807 170.206 344.949 169.97 345.046C169.735 345.142 169.483 345.191 169.229 345.19H80.2289C79.975 345.191 79.7235 345.142 79.4887 345.046C79.2539 344.949 79.0407 344.807 78.8612 344.628C78.6817 344.448 78.5396 344.235 78.4431 344C78.3465 343.765 78.2975 343.514 78.2989 343.26V339.48C78.2989 339.226 78.3488 338.975 78.4458 338.741C78.5428 338.507 78.6849 338.294 78.8641 338.115C79.0433 337.936 79.2561 337.794 79.4903 337.697C79.7244 337.6 79.9754 337.55 80.2289 337.55H169.229C169.742 337.55 170.234 337.753 170.597 338.115C170.961 338.476 171.166 338.967 171.169 339.48Z" fill="#263238"/>
<path d="M130.219 341.43H78.2891C78.2891 341.43 61.7891 314 61.7891 268.65V252C61.7917 248.713 63.0993 245.561 65.4245 243.238C67.7496 240.915 70.9021 239.61 74.1891 239.61H96.1891C99.4086 239.608 102.502 240.86 104.815 243.1C107.128 245.34 108.478 248.392 108.579 251.61C109.239 275 112.679 325.6 130.219 341.43Z" fill="#263238"/>
<path opacity="0.2" d="M118.799 341.43H80.6391C79.9158 341.433 79.2057 341.236 78.5865 340.862C77.9674 340.489 77.4632 339.951 77.1291 339.31C73.3691 332.06 61.7891 306.64 61.7891 268.65V252C61.7891 248.714 63.0944 245.562 65.418 243.239C67.7416 240.915 70.893 239.61 74.1791 239.61H93.1791C96.3986 239.608 99.4924 240.86 101.805 243.1C104.118 245.34 105.468 248.392 105.569 251.61C106.139 272.48 108.949 315.08 122.049 335.22C122.445 335.817 122.673 336.509 122.71 337.224C122.747 337.939 122.592 338.651 122.26 339.285C121.928 339.92 121.431 340.454 120.823 340.831C120.214 341.208 119.515 341.415 118.799 341.43Z" fill="white"/>
<path opacity="0.2" d="M171.168 339.48V343.26C171.17 343.514 171.121 343.765 171.024 344C170.928 344.235 170.785 344.448 170.606 344.628C170.426 344.807 170.213 344.949 169.978 345.046C169.744 345.142 169.492 345.191 169.238 345.19H129.348C129.006 345.19 128.666 345.122 128.349 344.991C128.033 344.86 127.745 344.668 127.503 344.425C127.26 344.183 127.068 343.895 126.937 343.579C126.806 343.262 126.738 342.923 126.738 342.58V340.16C126.738 339.468 127.013 338.804 127.503 338.314C127.992 337.825 128.656 337.55 129.348 337.55H169.228C169.741 337.55 170.233 337.753 170.597 338.115C170.96 338.476 171.166 338.967 171.168 339.48Z" fill="black"/>
</svg>
