<svg width="266" height="250" viewBox="0 0 266 250" fill="none" xmlns="http://www.w3.org/2000/svg">
<path d="M5.74963 30.3754L62.1625 15.608C62.3789 15.5499 62.6094 15.5772 62.8063 15.6842C63.0033 15.7912 63.1516 15.9698 63.2206 16.183L74.3881 53.6306C74.421 53.7442 74.4306 53.8634 74.4164 53.9809C74.4022 54.0983 74.3645 54.2117 74.3054 54.3143C74.2464 54.4168 74.1672 54.5064 74.0727 54.5776C73.9783 54.6489 73.8704 54.7003 73.7556 54.7289L15.146 69.065C15.0342 69.0933 14.9179 69.099 14.8039 69.0818C14.6899 69.0646 14.5804 69.0248 14.4819 68.9649C14.3834 68.9049 14.2979 68.8259 14.2302 68.7326C14.1626 68.6392 14.1142 68.5333 14.0879 68.421L5.13432 31.4162C5.08299 31.1969 5.11833 30.9662 5.23297 30.7722C5.34762 30.5783 5.5327 30.4361 5.74963 30.3754Z" fill="#EBEBEB"/>
<path d="M4.93359 30.5938L26.7857 1.31773C27.237 0.710605 27.885 0.278952 28.6191 0.0964647C29.3533 -0.0860223 30.128 -0.00802841 30.811 0.317134L63.0141 15.3893" fill="#EBEBEB"/>
<path d="M8.41203 32.0078L5.10547 19.3681L56.5038 6.30859L59.9196 19.2933L39.6317 45.8436L8.41203 32.0078Z" fill="#FAFAFA"/>
<path d="M8.413 31.9912L8.98806 32.2384L10.65 32.9688L16.9756 35.7578L39.6787 45.7925H39.6212L59.9034 19.2365V19.2825C59.4203 17.4423 58.9028 15.4814 58.3852 13.5319C57.7412 11.0937 57.1086 8.67847 56.4875 6.32649L56.5508 6.36675L5.11219 19.3975V19.363C6.14729 23.3539 6.96962 26.5167 7.53317 28.6789C7.81495 29.76 8.02772 30.588 8.17148 31.1516C8.24624 31.4334 8.29799 31.6461 8.33825 31.7899L8.39 32.0084C8.39 32.0084 8.39 31.9394 8.3325 31.7957L8.15998 31.1631C8.01047 30.588 7.79195 29.7715 7.50442 28.6961C6.92936 26.5339 6.10704 23.3711 5.05469 19.3745L56.453 6.29199H56.4991V6.34375C57.1144 8.69572 57.7527 11.1052 58.391 13.5434C58.9143 15.5216 59.4261 17.4825 59.9091 19.294L39.6787 45.873H39.6442L16.9411 35.8153L10.6155 33.0033L8.95931 32.2672L8.413 31.9912Z" fill="#E0E0E0"/>
<path d="M45.5732 17.7875C45.5732 17.7875 39.8227 19.3517 32.7092 21.2378C25.5958 23.124 19.828 24.6019 19.8223 24.5732C19.8165 24.5444 25.5728 23.009 32.6805 21.1228C39.7882 19.2367 45.5617 17.7588 45.5732 17.7875Z" fill="#E0E0E0"/>
<path d="M51.571 22.5599C51.571 22.5886 43.802 24.6358 34.2101 27.1603C24.6182 29.6848 16.8377 31.663 16.8262 31.6342C16.8147 31.6055 24.5894 29.5583 34.1871 27.0338C43.7847 24.5093 51.5595 22.5311 51.571 22.5599Z" fill="#E0E0E0"/>
<path d="M53.0719 28.4769C53.0719 28.4769 45.6652 30.4608 36.5161 32.8415C27.367 35.2223 19.9373 37.166 19.9258 37.1085C19.9143 37.0509 27.3325 35.1245 36.4874 32.7438C45.6422 30.3631 53.0662 28.4481 53.0719 28.4769Z" fill="#E0E0E0"/>
<path d="M47.8789 35.3203H47.8271L47.6776 35.3606L47.1025 35.5273L44.9633 36.1024L37.8729 38.0288C35.1127 38.7764 32.6054 39.432 30.7882 39.8977L28.6375 40.4728L28.0625 40.6166L27.9072 40.6511H27.8555C27.8555 40.6511 27.8555 40.6511 27.9072 40.6511L28.0567 40.6108L28.6318 40.4498L30.7767 39.8747L37.8557 37.9713C40.6159 37.2237 43.1232 36.5682 44.9346 36.1024L47.091 35.5561L47.6661 35.4123L47.8156 35.3778L47.8789 35.3203Z" fill="#E0E0E0"/>
<path d="M42.5881 41.98C42.5881 41.98 40.9377 42.4515 38.8905 42.9748C36.8433 43.4981 35.1757 43.8949 35.1699 43.8662C35.1642 43.8374 36.8146 43.3946 38.8675 42.8713C40.9205 42.348 42.5824 41.9512 42.5881 41.98Z" fill="#E0E0E0"/>
<path d="M74.2629 54.4191C74.2036 54.4252 74.1439 54.4252 74.0846 54.4191L73.5728 54.2984L71.5947 53.8038L64.3432 51.9349L53.6012 49.1229L47.2756 47.4495L43.9173 46.5639L43.0662 46.3396C42.7787 46.2648 42.4912 46.1843 42.2094 46.1211C41.6415 46.0081 41.0597 45.9829 40.4842 46.0463C39.3232 46.1793 38.2341 46.6765 37.3732 47.4667L34.8372 49.8187L30.093 54.3444L22.0422 61.9983L16.5965 67.1393L15.1071 68.5252L14.7103 68.8817L14.5723 68.9967C14.5723 68.9967 14.6068 68.945 14.6873 68.8587L15.0611 68.4792L16.5102 67.0703L21.887 61.8603L29.9032 54.1546L34.6359 49.6117L37.1489 47.2137C38.0573 46.379 39.2068 45.8535 40.4325 45.7128C41.0443 45.6412 41.6637 45.6684 42.2669 45.7933C42.5717 45.8623 42.8419 45.9371 43.141 46.0118L43.992 46.2418C45.1422 46.5409 46.1715 47.1389 47.2699 47.4265C49.4666 48.0015 51.6633 48.2833 53.6817 48.8181L64.4122 51.6934L71.6349 53.6543L73.5958 54.2293L74.1076 54.3789C74.2112 54.4191 74.2687 54.4191 74.2629 54.4191Z" fill="#E0E0E0"/>
<path d="M23.2437 122.16C25.1397 121.668 26.85 120.632 28.1632 119.178C29.4765 117.725 30.3352 115.919 30.6331 113.983C31.5475 108.526 28.1489 103.408 23.0309 102.539C17.9129 101.671 13.0307 105.415 12.1049 110.855C11.7475 112.797 11.9734 114.802 12.7543 116.617C13.5352 118.432 14.836 119.974 16.4926 121.05C1.88618 120.86 0 136.467 0 136.467L33.6982 142.16C33.6982 142.16 37.0277 126.617 23.2437 122.16Z" fill="#EBEBEB"/>
<path d="M238.44 1.32381L182.354 22.8984L196.894 60.6993L252.981 39.1247L238.44 1.32381Z" fill="#EBEBEB"/>
<path d="M238.792 1.70898C238.709 1.95603 238.599 2.19322 238.464 2.4163L237.429 4.38874L233.53 11.5827L220.459 35.2922L220.35 35.4877L220.137 35.4187L219.62 35.2519L193.484 26.8964L185.582 24.3086L183.443 23.5726C183.19 23.4986 182.943 23.4023 182.707 23.285C182.969 23.3231 183.227 23.3847 183.478 23.469L185.651 24.1016L193.604 26.5283L219.787 34.7344L220.304 34.8954L219.982 35.0276L233.208 11.3929L237.234 4.27948C237.699 3.48015 238.073 2.84184 238.384 2.3588C238.504 2.13239 238.64 1.91519 238.792 1.70898Z" fill="#E0E0E0"/>
<path d="M197.242 61.0885C197.104 61.0367 199.324 54.2338 202.211 45.8898C205.098 37.5458 207.553 30.8234 207.697 30.8694C207.841 30.9154 205.615 37.724 202.728 46.0681C199.842 54.4121 197.392 61.1345 197.242 61.0885Z" fill="#E0E0E0"/>
<path d="M226.163 23.2269C226.238 23.1004 232.385 26.637 239.889 31.1339C247.394 35.6308 253.415 39.3802 253.334 39.5125C253.254 39.6447 247.112 36.1024 239.608 31.6055C232.103 27.1085 226.082 23.3649 226.163 23.2269Z" fill="#E0E0E0"/>
<path d="M222.721 87.7085L219.633 113.957L258.577 118.539L261.665 92.2905L222.721 87.7085Z" fill="#EBEBEB"/>
<path d="M261.766 92.6359C261.641 92.7508 261.504 92.8529 261.358 92.9407L260.162 93.763L255.728 96.7361L240.949 106.454L240.829 106.535L240.725 106.431L240.478 106.178L227.925 93.4122C226.349 91.7906 225.049 90.4622 224.152 89.5134L223.134 88.4438C223.012 88.3234 222.9 88.1925 222.801 88.0527C222.94 88.153 223.069 88.2666 223.186 88.392L224.25 89.4156L228.103 93.234L240.754 105.931L241.001 106.178H240.777L255.59 96.552L260.087 93.6768L261.324 92.9119C261.461 92.8048 261.61 92.7123 261.766 92.6359Z" fill="#E0E0E0"/>
<path d="M219.735 114.299C219.666 114.23 223.019 110.976 227.211 107.036C231.403 103.097 234.877 99.9575 234.946 100.027C235.015 100.096 231.662 103.35 227.47 107.295C223.278 111.24 219.799 114.374 219.735 114.299Z" fill="#E0E0E0"/>
<path d="M247.93 101.222C248.016 101.17 250.489 105.087 253.456 109.963C256.423 114.839 258.775 118.825 258.672 118.882C258.568 118.94 256.119 115.023 253.151 110.147C250.184 105.271 247.849 101.274 247.93 101.222Z" fill="#E0E0E0"/>
<path d="M249.972 195.117C252.893 193.611 256.326 193.392 259.563 193.967C261.289 194.255 263.117 194.778 264.302 196.083C265.487 197.389 265.711 199.689 264.354 200.816C263.543 201.483 262.416 201.587 261.363 201.569C258.827 201.541 256.015 201.098 253.991 202.622C252.841 203.49 252.065 204.922 250.685 205.365C249.993 205.525 249.268 205.455 248.62 205.167C247.972 204.879 247.435 204.387 247.091 203.766C246.431 202.497 246.285 201.023 246.682 199.649C246.843 198.691 247.224 197.783 247.795 196.997C248.366 196.211 249.111 195.567 249.972 195.117Z" fill="#EBEBEB"/>
<path d="M243.288 182.212C245.071 184.759 248.539 183.937 250.149 182.361C251.759 180.786 252.449 178.555 253.053 176.404C254.467 171.493 255.888 166.34 254.841 161.343C254.587 159.826 253.921 158.407 252.915 157.243C252.405 156.672 251.755 156.244 251.028 156.003C250.302 155.762 249.524 155.716 248.774 155.869C247.049 156.329 245.939 158.042 245.152 159.67C242.838 164.479 241.626 169.744 241.604 175.081C241.604 177.56 241.891 180.165 243.288 182.212Z" fill="#EBEBEB"/>
<path d="M238.389 185.87C240.327 183.57 240.689 180.218 239.833 177.342C238.976 174.467 237.026 172.012 234.778 170.01C232.139 167.659 229.066 165.846 225.732 164.674C224.441 164.151 223.052 163.914 221.661 163.978C220.967 164.018 220.293 164.228 219.698 164.589C219.104 164.95 218.607 165.451 218.251 166.048C217.296 167.86 218.211 170.074 219.194 171.862C220.936 175.036 222.924 178.068 225.14 180.931C226.923 183.231 228.958 185.491 231.673 186.526C234.387 187.561 237.21 187.429 238.648 185.531" fill="#EBEBEB"/>
<path d="M243.167 220.649C243.26 220.272 243.314 219.887 243.328 219.499C243.409 218.66 243.512 217.601 243.639 216.342C243.794 214.786 244.03 213.239 244.346 211.707C244.759 209.842 245.323 208.013 246.031 206.238C246.724 204.464 247.665 202.797 248.826 201.287C249.769 200.059 250.976 199.057 252.357 198.354C253.291 197.888 254.295 197.576 255.33 197.429C255.718 197.411 256.103 197.356 256.48 197.262C256.098 197.219 255.712 197.219 255.33 197.262C254.256 197.34 253.206 197.613 252.23 198.067C250.775 198.751 249.499 199.765 248.504 201.028C247.301 202.56 246.332 204.262 245.628 206.077C244.91 207.877 244.35 209.736 243.955 211.632C243.655 213.183 243.449 214.75 243.34 216.325C243.242 217.67 243.202 218.757 243.184 219.505C243.138 219.885 243.132 220.268 243.167 220.649Z" fill="#E0E0E0"/>
<path d="M243.387 218.217C243.42 218.039 243.43 217.857 243.416 217.676V216.141C243.416 214.807 243.416 212.88 243.479 210.499C243.6 205.732 244.008 200.603 244.801 193.374C245.555 186.577 246.561 178.664 247.625 173.523C247.849 172.373 248.079 171.304 248.298 170.378C248.516 169.452 248.677 168.653 248.873 168.014C249.068 167.376 249.137 166.916 249.229 166.519C249.281 166.347 249.312 166.17 249.321 165.99C249.245 166.153 249.184 166.323 249.137 166.496C249.022 166.882 248.873 167.37 248.689 167.968C248.505 168.566 248.292 169.395 248.056 170.315C247.82 171.235 247.544 172.304 247.274 173.454C245.959 179.531 244.97 185.674 244.313 191.856C243.513 199.102 243.163 205.698 243.128 210.476C243.099 212.863 243.128 214.795 243.209 216.129C243.249 216.756 243.278 217.279 243.306 217.665C243.308 217.851 243.335 218.037 243.387 218.217Z" fill="#E0E0E0"/>
<path d="M243.415 205.491C243.459 204.957 243.459 204.42 243.415 203.886C243.325 202.43 243.162 200.979 242.926 199.539C242.573 197.405 242.101 195.294 241.511 193.213C240.823 190.657 239.939 188.158 238.866 185.737C237.025 181.262 234.389 177.157 231.085 173.621C230.512 173.018 229.901 172.451 229.257 171.925C228.975 171.683 228.728 171.447 228.475 171.258L227.762 170.769C227.335 170.446 226.883 170.158 226.41 169.906C226.335 170.01 228.325 171.183 230.838 173.857C234.037 177.42 236.602 181.505 238.423 185.933C239.477 188.345 240.369 190.826 241.091 193.357C241.781 195.686 242.241 197.825 242.592 199.631C242.943 201.436 243.116 202.909 243.231 203.932C243.256 204.455 243.318 204.976 243.415 205.491Z" fill="#E0E0E0"/>
<path d="M231.119 227.935L232.396 245.399H254.829L256.105 227.935H231.119Z" fill="#E0E0E0"/>
<path d="M258.779 221.053H228.951V227.936H258.779V221.053Z" fill="#E0E0E0"/>
<path d="M228.951 244.732V246.642H230.354H258.29V244.732H228.951Z" fill="#EBEBEB"/>
<path d="M231.73 250L230.355 246.642H257.222L255.618 250H231.73Z" fill="#E0E0E0"/>
<path d="M255.693 233.646C255.661 233.703 255.624 233.757 255.583 233.807L255.25 234.25L253.944 235.923L253.887 235.998L253.829 235.918C253.007 234.767 251.909 233.267 250.621 231.478H250.805L247.642 235.952L247.544 236.096L247.429 235.964C246.279 234.572 244.997 233.088 243.68 231.501H243.898L243.691 231.766L240.339 235.964L240.229 236.107L240.126 235.958L236.963 231.484H237.147L233.248 235.923L233.179 235.998L233.127 235.912L231.908 233.859L231.598 233.318C231.559 233.256 231.526 233.191 231.5 233.123C231.5 233.123 231.552 233.175 231.632 233.295L231.977 233.819L233.26 235.831H233.133L236.969 231.34L237.067 231.225L237.153 231.352L240.344 235.803H240.132L243.473 231.593L243.68 231.334L243.789 231.202L243.898 231.334L247.636 235.803H247.423L250.621 231.352L250.713 231.219L250.805 231.352L253.944 235.843H253.829L255.192 234.215L255.555 233.79C255.641 233.686 255.687 233.64 255.693 233.646Z" fill="#F5F5F5"/>
<path d="M256.417 227.82C256.417 227.894 250.799 227.958 243.864 227.958C236.929 227.958 231.311 227.894 231.311 227.82C231.311 227.745 236.929 227.682 243.864 227.682C250.799 227.682 256.417 227.745 256.417 227.82Z" fill="#F5F5F5"/>
<path d="M257.554 246.826C257.554 246.906 251.441 246.969 243.908 246.969C236.375 246.969 230.262 246.906 230.262 246.826C230.262 246.745 236.369 246.688 243.908 246.688C251.447 246.688 257.554 246.751 257.554 246.826Z" fill="#F5F5F5"/>
<path d="M155.428 249.23L65.7191 249.276C62.2504 249.277 58.9231 247.901 56.4687 245.45C54.0144 242.999 52.6339 239.674 52.6309 236.205L52.5273 34.125C52.5258 32.1671 52.9101 30.2281 53.6581 28.4188C54.4061 26.6094 55.5033 24.9651 56.8869 23.5799C58.2706 22.1947 59.9136 21.0956 61.7221 20.3455C63.5306 19.5953 65.4691 19.2089 67.427 19.2081L155.479 19.1621C158.987 19.1621 162.351 20.5556 164.832 23.036C167.312 25.5164 168.706 28.8805 168.706 32.3884L168.815 235.854C168.812 239.403 167.4 242.805 164.89 245.313C162.379 247.821 158.976 249.23 155.428 249.23Z" fill="#455A64"/>
<path d="M54.4531 231.535L54.3496 36.9428C54.3572 32.7302 56.0356 28.6927 59.0165 25.7162C61.9974 22.7396 66.0373 21.0671 70.2499 21.0655L150.953 21.0195C153.042 21.018 155.111 21.4281 157.042 22.2265C158.973 23.0248 160.727 24.1956 162.206 25.6722C163.684 27.1487 164.857 28.902 165.657 30.8319C166.457 32.7618 166.87 34.8305 166.87 36.9198L166.974 231.512C166.976 233.602 166.565 235.671 165.767 237.602C164.969 239.532 163.798 241.287 162.321 242.765C160.845 244.243 159.091 245.416 157.162 246.216C155.232 247.017 153.163 247.429 151.074 247.43L70.3706 247.476C68.2782 247.477 66.2061 247.065 64.273 246.264C62.34 245.463 60.5839 244.288 59.1054 242.807C57.6269 241.327 56.4549 239.569 55.6566 237.635C54.8583 235.701 54.4493 233.628 54.4531 231.535Z" fill="#263238"/>
<path d="M102.263 28.2723C101.919 28.2723 101.59 28.1359 101.348 27.8933C101.105 27.6506 100.969 27.3215 100.969 26.9784C100.969 26.6352 101.105 26.3061 101.348 26.0635C101.59 25.8208 101.919 25.6845 102.263 25.6845H118.876C119.053 25.6727 119.23 25.6973 119.397 25.7569C119.564 25.8164 119.717 25.9096 119.846 26.0306C119.975 26.1517 120.079 26.298 120.149 26.4605C120.22 26.6231 120.256 26.7983 120.256 26.9755C120.256 27.1527 120.22 27.328 120.149 27.4905C120.079 27.6531 119.975 27.7994 119.846 27.9204C119.717 28.0414 119.564 28.1346 119.397 28.1942C119.23 28.2537 119.053 28.2783 118.876 28.2665L102.263 28.2723Z" fill="#455A64"/>
<path d="M93.3543 28.2772C93.0982 28.2783 92.8474 28.2034 92.6339 28.0619C92.4204 27.9205 92.2536 27.7188 92.1548 27.4825C92.056 27.2461 92.0296 26.9858 92.0789 26.7344C92.1281 26.4831 92.2509 26.252 92.4316 26.0705C92.6123 25.8889 92.8429 25.7651 93.094 25.7147C93.3452 25.6643 93.6056 25.6896 93.8424 25.7874C94.0791 25.8852 94.2815 26.051 94.424 26.2639C94.5664 26.4768 94.6424 26.7272 94.6424 26.9833C94.6424 27.3255 94.5069 27.6537 94.2655 27.8962C94.0241 28.1387 93.6965 28.2757 93.3543 28.2772Z" fill="#455A64"/>
<path d="M98.1102 28.2713C97.854 28.2725 97.6033 28.1976 97.3898 28.0561C97.1762 27.9146 97.0095 27.7129 96.9107 27.4766C96.8119 27.2403 96.7854 26.9799 96.8347 26.7286C96.884 26.4772 97.0068 26.2461 97.1875 26.0646C97.3682 25.8831 97.5987 25.7593 97.8499 25.7089C98.101 25.6585 98.3615 25.6838 98.5982 25.7815C98.835 25.8793 99.0374 26.0451 99.1798 26.258C99.3223 26.4709 99.3983 26.7213 99.3983 26.9775C99.3983 27.3196 99.2628 27.6478 99.0214 27.8903C98.78 28.1328 98.4523 28.2698 98.1102 28.2713Z" fill="#455A64"/>
<path d="M127.858 28.2538C127.602 28.2538 127.352 28.1777 127.139 28.0353C126.926 27.8929 126.76 27.6905 126.662 27.4537C126.565 27.2169 126.539 26.9565 126.59 26.7053C126.64 26.4542 126.764 26.2237 126.945 26.0429C127.127 25.8622 127.358 25.7395 127.609 25.6902C127.861 25.6409 128.121 25.6674 128.357 25.7662C128.594 25.865 128.795 26.0317 128.937 26.2452C129.078 26.4588 129.153 26.7095 129.152 26.9656C129.152 27.1353 129.119 27.3033 129.054 27.4599C128.988 27.6166 128.893 27.7588 128.773 27.8785C128.653 27.9982 128.51 28.093 128.353 28.1574C128.196 28.2218 128.028 28.2545 127.858 28.2538Z" fill="#455A64"/>
<path d="M123.102 28.2596C122.847 28.2596 122.596 28.1837 122.384 28.0416C122.171 27.8994 122.005 27.6973 121.907 27.4609C121.809 27.2245 121.784 26.9643 121.833 26.7133C121.883 26.4623 122.007 26.2318 122.188 26.0508C122.369 25.8699 122.599 25.7467 122.85 25.6967C123.101 25.6468 123.361 25.6724 123.598 25.7704C123.834 25.8683 124.036 26.0341 124.178 26.2469C124.32 26.4597 124.396 26.7098 124.396 26.9657C124.397 27.1359 124.364 27.3045 124.299 27.4618C124.235 27.6191 124.139 27.7621 124.019 27.8824C123.899 28.0027 123.756 28.0979 123.599 28.1627C123.441 28.2274 123.273 28.2604 123.102 28.2596Z" fill="#455A64"/>
<path d="M151.816 23.6602H136.175C135.437 23.6599 134.719 23.8983 134.129 24.3399C133.538 24.7815 133.106 25.4024 132.897 26.1099L131.62 30.4918C131.39 31.2844 130.908 31.9804 130.247 32.4752C129.586 32.9699 128.783 33.2365 127.957 33.2348H93.3046C92.4796 33.2354 91.6766 32.9691 91.0154 32.4758C90.3542 31.9824 89.8702 31.2885 89.6357 30.4976L88.3534 26.1157C88.1454 25.4083 87.7133 24.7875 87.1222 24.3468C86.5311 23.906 85.8129 23.6691 85.0756 23.6717H69.4226C66.1278 23.6656 62.9654 24.9682 60.6307 27.2931C58.2961 29.6181 56.9803 32.775 56.9727 36.0698L57.0762 231.945C57.0814 233.576 57.408 235.19 58.0371 236.695C58.6662 238.2 59.5855 239.567 60.7427 240.716C61.8998 241.866 63.2721 242.776 64.7811 243.396C66.2902 244.015 67.9064 244.331 69.5376 244.326L151.914 244.286C155.209 244.292 158.371 242.989 160.706 240.664C163.041 238.339 164.356 235.182 164.364 231.887L164.261 36.0181C164.244 32.7308 162.925 29.5842 160.592 27.2677C158.259 24.9513 155.104 23.654 151.816 23.6602Z" fill="#FAFAFA"/>
<path d="M168.717 69.1562C168.919 69.1578 169.113 69.2388 169.256 69.3819C169.399 69.525 169.48 69.7187 169.482 69.9211V94.8382C169.482 95.04 169.402 95.2337 169.26 95.377C169.117 95.5202 168.924 95.6015 168.723 95.603L168.717 69.1562Z" fill="#455A64"/>
<path d="M52.5437 85.5176C52.3347 85.5176 52.1344 85.6006 51.9866 85.7483C51.8389 85.8961 51.7559 86.0965 51.7559 86.3054V101.47C51.7574 101.679 51.8417 101.879 51.9903 102.027C52.139 102.175 52.34 102.257 52.5494 102.257L52.5437 85.5176Z" fill="#455A64"/>
<path d="M52.532 63.6191C52.428 63.6191 52.3251 63.6397 52.2292 63.6797C52.1332 63.7196 52.0461 63.7781 51.9729 63.8519C51.8996 63.9257 51.8417 64.0132 51.8025 64.1095C51.7632 64.2057 51.7434 64.3088 51.7442 64.4127V79.5712C51.7457 79.7812 51.8298 79.9821 51.9783 80.1306C52.1268 80.2791 52.3277 80.3632 52.5377 80.3647L52.532 63.6191Z" fill="#455A64"/>
<path d="M52.5261 47.2246C52.3446 47.2246 52.1706 47.2967 52.0422 47.425C51.9139 47.5534 51.8418 47.7274 51.8418 47.9089V54.3323C51.8418 54.4219 51.8595 54.5106 51.894 54.5933C51.9285 54.676 51.979 54.7511 52.0426 54.8141C52.1062 54.8772 52.1817 54.9271 52.2647 54.9609C52.3477 54.9946 52.4365 55.0116 52.5261 55.0108V47.2246Z" fill="#455A64"/>
<path d="M139.002 30.0371H138.203V31.1585H139.002V30.0371Z" fill="white"/>
<path d="M140.301 29.5371H139.502V31.153H140.301V29.5371Z" fill="white"/>
<path d="M141.602 29.1621H140.803V31.1518H141.602V29.1621Z" fill="white"/>
<path d="M142.901 28.4375H142.102V31.1518H142.901V28.4375Z" fill="white"/>
<path d="M154.692 31.2034H150.666C150.629 31.2042 150.592 31.1975 150.557 31.1836C150.522 31.1698 150.49 31.1492 150.463 31.1229C150.437 31.0967 150.415 31.0654 150.401 31.0308C150.386 30.9962 150.379 30.9591 150.379 30.9216V28.9262C150.379 28.8509 150.408 28.7787 150.461 28.7249C150.514 28.6711 150.585 28.6402 150.661 28.6387H154.686C154.705 28.64 154.724 28.6483 154.737 28.6621C154.751 28.6758 154.759 28.694 154.761 28.7134V29.369H155.192C155.202 29.369 155.211 29.3709 155.22 29.3747C155.229 29.3786 155.237 29.3842 155.243 29.3912C155.25 29.3982 155.255 29.4065 155.258 29.4156C155.261 29.4246 155.262 29.4342 155.261 29.4437V30.3983C155.261 30.4182 155.253 30.4372 155.239 30.4512C155.225 30.4652 155.206 30.4731 155.186 30.4731H154.755V31.1287C154.756 31.1377 154.755 31.1469 154.752 31.1555C154.749 31.1642 154.745 31.1723 154.739 31.1792C154.733 31.1861 154.726 31.1919 154.718 31.196C154.71 31.2002 154.701 31.2027 154.692 31.2034ZM154.617 28.7824H150.666C150.63 28.7824 150.595 28.797 150.569 28.8229C150.543 28.8487 150.528 28.8838 150.528 28.9205V30.9159C150.528 30.9525 150.543 30.9876 150.569 31.0135C150.595 31.0394 150.63 31.0539 150.666 31.0539H154.6V30.3983C154.6 30.38 154.607 30.3625 154.62 30.3495C154.633 30.3366 154.651 30.3293 154.669 30.3293H155.1V29.5128H154.692C154.674 29.5128 154.656 29.5055 154.643 29.4925C154.63 29.4796 154.623 29.4621 154.623 29.4437L154.617 28.7824Z" fill="white"/>
<path d="M150.861 30.733V29.1171L154.283 29.1113V29.8416V30.0027V30.733H150.861Z" fill="white"/>
<path d="M146.719 31.054C146.719 30.996 146.702 30.9393 146.67 30.8911C146.638 30.8429 146.592 30.8053 146.538 30.7831C146.485 30.7609 146.426 30.7551 146.369 30.7664C146.312 30.7777 146.26 30.8056 146.219 30.8466C146.178 30.8877 146.15 30.9399 146.138 30.9968C146.127 31.0537 146.133 31.1127 146.155 31.1663C146.177 31.2198 146.215 31.2656 146.263 31.2979C146.311 31.3301 146.368 31.3473 146.426 31.3473C146.504 31.3473 146.578 31.3164 146.633 31.2614C146.688 31.2064 146.719 31.1318 146.719 31.054Z" fill="white"/>
<path d="M145.428 30.3534L145.802 30.7214C145.968 30.5564 146.194 30.4638 146.428 30.4638C146.663 30.4638 146.888 30.5564 147.055 30.7214L147.429 30.3476C147.163 30.0834 146.803 29.9347 146.428 29.9336C146.242 29.934 146.058 29.9712 145.886 30.0433C145.714 30.1154 145.558 30.2207 145.428 30.3534Z" fill="white"/>
<path d="M146.427 29.1172C145.832 29.1178 145.262 29.3534 144.84 29.7728L145.214 30.1465C145.537 29.827 145.973 29.6477 146.427 29.6477C146.881 29.6477 147.317 29.827 147.64 30.1465L148.014 29.7728C147.806 29.5641 147.559 29.3987 147.286 29.2862C147.014 29.1737 146.722 29.1162 146.427 29.1172Z" fill="white"/>
<path d="M144.23 29.1564L144.604 29.5302C144.842 29.2887 145.126 29.0972 145.439 28.9669C145.752 28.8365 146.088 28.77 146.427 28.7712C147.11 28.7718 147.766 29.0426 148.25 29.5245L148.624 29.1507C148.336 28.8621 147.993 28.6331 147.616 28.4769C147.239 28.3206 146.835 28.2402 146.427 28.2402C146.019 28.2402 145.615 28.3206 145.238 28.4769C144.861 28.6331 144.519 28.8621 144.23 29.1507V29.1564Z" fill="white"/>
<path d="M79.0531 78.3979C79.0406 79.8638 78.5936 81.2931 77.7687 82.5051C76.9438 83.717 75.7781 84.6571 74.4189 85.2065C73.0597 85.756 71.5682 85.89 70.1328 85.5917C68.6975 85.2935 67.3828 84.5763 66.355 83.5308C65.3273 82.4854 64.6326 81.1586 64.3589 79.7184C64.0851 78.2782 64.2446 76.7891 64.8172 75.4395C65.3897 74.0899 66.3496 72.9404 67.5754 72.1363C68.8012 71.3322 70.238 70.9097 71.704 70.9221C72.6774 70.9304 73.6396 71.1303 74.5358 71.5105C75.432 71.8907 76.2445 72.4437 76.9269 73.1379C77.6093 73.832 78.1484 74.6539 78.5132 75.5564C78.878 76.4589 79.0615 77.4244 79.0531 78.3979Z" fill="#3BADD4"/>
<path d="M116.104 72.6886C116.104 72.7691 109.204 72.7806 100.75 72.6886C92.297 72.5966 85.3906 72.4988 85.3906 72.4126C85.3906 72.3263 92.2913 72.3206 100.75 72.4126C109.209 72.5046 116.11 72.6081 116.104 72.6886Z" fill="#263238"/>
<path d="M141.171 79.7202C141.171 79.8007 128.634 79.7662 113.171 79.6396C97.7081 79.5131 85.1719 79.3406 85.1719 79.2601C85.1719 79.1796 97.7081 79.2141 113.177 79.3406C128.646 79.4671 141.171 79.6339 141.171 79.7202Z" fill="#E0E0E0"/>
<path d="M141.125 85.2465C141.125 85.327 128.589 85.2925 113.126 85.166C97.6628 85.0395 85.1094 84.8958 85.1094 84.7865C85.1094 84.6772 97.6398 84.7405 113.109 84.867C128.578 84.9935 141.125 85.1603 141.125 85.2465Z" fill="#E0E0E0"/>
<path d="M157.652 71.624C157.652 71.7103 154.938 71.7506 151.596 71.7276C148.255 71.7046 145.547 71.6068 145.547 71.5263C145.547 71.4458 148.255 71.3998 151.602 71.4285C154.949 71.4573 157.652 71.5435 157.652 71.624Z" fill="#263238"/>
<path d="M152.965 79.3361L153.465 80.3712C153.507 80.4599 153.57 80.5371 153.648 80.5962C153.726 80.6553 153.817 80.6945 153.914 80.7104L155.064 80.883C155.182 80.8879 155.295 80.9289 155.389 81.0005C155.483 81.0721 155.552 81.1707 155.588 81.283C155.624 81.3954 155.624 81.516 155.589 81.6285C155.554 81.7411 155.485 81.8402 155.392 81.9123L154.558 82.7116C154.488 82.7801 154.435 82.8644 154.404 82.9574C154.373 83.0504 154.365 83.1495 154.38 83.2464L154.569 84.3965C154.587 84.508 154.573 84.6221 154.529 84.726C154.485 84.83 154.413 84.9197 154.321 84.9853C154.23 85.0509 154.121 85.0897 154.009 85.0974C153.896 85.1051 153.784 85.0815 153.684 85.0291L152.672 84.4828C152.583 84.4355 152.485 84.4107 152.384 84.4107C152.284 84.4107 152.185 84.4355 152.097 84.4828L151.073 85.0118C150.975 85.077 150.858 85.1103 150.74 85.1071C150.622 85.1039 150.508 85.0645 150.413 84.9941C150.318 84.9238 150.248 84.8259 150.21 84.7138C150.173 84.6018 150.171 84.481 150.205 84.3678L150.406 83.2177C150.426 83.1217 150.421 83.0222 150.392 82.9286C150.363 82.835 150.31 82.7504 150.239 82.6829L149.423 81.8721C149.342 81.7927 149.285 81.6923 149.259 81.5822C149.232 81.4721 149.238 81.3568 149.273 81.2495C149.309 81.1422 149.375 81.0471 149.462 80.9752C149.55 80.9033 149.656 80.8574 149.768 80.8427L150.918 80.6874C151.015 80.6761 151.108 80.64 151.188 80.5826C151.267 80.5252 151.331 80.4485 151.372 80.3597L151.89 79.3361C151.942 79.2387 152.019 79.1572 152.114 79.1004C152.209 79.0437 152.317 79.0137 152.427 79.0137C152.538 79.0137 152.646 79.0437 152.741 79.1004C152.836 79.1572 152.913 79.2387 152.965 79.3361Z" fill="#3BADD4"/>
<path d="M124.305 72.3544C124.302 72.6296 124.219 72.8979 124.064 73.1255C123.909 73.3531 123.69 73.5297 123.435 73.6329C123.18 73.7361 122.9 73.7613 122.63 73.7054C122.361 73.6495 122.114 73.5149 121.921 73.3187C121.728 73.1224 121.597 72.8734 121.546 72.603C121.495 72.3326 121.524 72.0531 121.632 71.7997C121.739 71.5463 121.919 71.3304 122.15 71.1794C122.38 71.0284 122.649 70.949 122.925 70.9512C123.107 70.9527 123.288 70.9902 123.456 71.0615C123.625 71.1329 123.777 71.2366 123.905 71.3669C124.033 71.4972 124.135 71.6515 124.203 71.8209C124.272 71.9903 124.306 72.1716 124.305 72.3544Z" fill="#3BADD4"/>
<path d="M163.833 58.9273C163.833 59.0078 139.882 58.8813 110.353 58.6398C80.8241 58.3983 56.873 58.1337 56.873 58.0647C56.873 57.9957 80.8183 58.1107 110.353 58.3523C139.888 58.5938 163.839 58.8468 163.833 58.9273Z" fill="#E0E0E0"/>
<path d="M163.525 97.2379C163.525 97.3241 139.568 97.1919 110.045 96.9503C80.5212 96.7088 56.5645 96.4443 56.5645 96.3753C56.5645 96.3063 80.5155 96.4213 110.045 96.6628C139.574 96.9043 163.525 97.1573 163.525 97.2379Z" fill="#E0E0E0"/>
<path d="M76.2576 160.07C79.1523 157.176 79.1523 152.482 76.2576 149.588C73.3628 146.693 68.6694 146.693 65.7747 149.588C62.8799 152.482 62.8799 157.176 65.7747 160.07C68.6694 162.965 73.3628 162.965 76.2576 160.07Z" fill="#3BADD4"/>
<path d="M115.477 149.183C115.477 149.263 108.605 149.275 100.123 149.183C91.6413 149.091 84.7637 148.993 84.7637 148.907C84.7637 148.82 91.6643 148.815 100.123 148.907C108.582 148.999 115.483 149.102 115.477 149.183Z" fill="#263238"/>
<path d="M140.544 156.204C140.544 156.284 128.008 156.25 112.544 156.123C97.0811 155.997 84.5449 155.824 84.5449 155.744C84.5449 155.663 97.0811 155.697 112.55 155.824C128.019 155.951 140.544 156.129 140.544 156.204Z" fill="#E0E0E0"/>
<path d="M140.497 161.742C140.497 161.822 127.961 161.788 112.498 161.661C97.0343 161.535 84.4982 161.362 84.5039 161.282C84.5097 161.201 97.0343 161.236 112.503 161.362C127.972 161.489 140.497 161.655 140.497 161.742Z" fill="#E0E0E0"/>
<path d="M157.027 148.118C157.027 148.204 154.318 148.245 150.971 148.222C147.625 148.199 144.922 148.101 144.922 148.02C144.922 147.94 147.63 147.894 150.977 147.923C154.324 147.951 157.027 148.038 157.027 148.118Z" fill="#263238"/>
<path d="M152.332 155.829L152.833 156.865C152.874 156.953 152.937 157.03 153.015 157.09C153.093 157.149 153.184 157.188 153.281 157.204L154.431 157.376C154.549 157.381 154.662 157.422 154.756 157.494C154.85 157.565 154.919 157.664 154.955 157.776C154.991 157.889 154.991 158.009 154.956 158.122C154.921 158.234 154.852 158.334 154.759 158.406L153.925 159.205C153.855 159.273 153.802 159.358 153.771 159.451C153.74 159.544 153.732 159.643 153.747 159.74L153.937 160.89C153.954 161.001 153.94 161.115 153.896 161.219C153.852 161.323 153.78 161.413 153.689 161.479C153.597 161.544 153.489 161.583 153.376 161.591C153.263 161.598 153.151 161.575 153.051 161.522L152.039 160.947C151.951 160.9 151.852 160.875 151.751 160.875C151.651 160.875 151.552 160.9 151.464 160.947L150.44 161.476C150.342 161.542 150.226 161.575 150.108 161.572C149.99 161.569 149.875 161.529 149.78 161.459C149.686 161.388 149.615 161.291 149.577 161.178C149.54 161.066 149.538 160.946 149.572 160.832L149.779 159.682C149.798 159.586 149.793 159.486 149.763 159.392C149.732 159.299 149.679 159.214 149.607 159.147L148.79 158.337C148.709 158.257 148.652 158.157 148.626 158.047C148.6 157.937 148.605 157.821 148.641 157.714C148.677 157.607 148.742 157.512 148.829 157.44C148.917 157.368 149.023 157.322 149.135 157.307L150.285 157.152C150.382 157.141 150.475 157.105 150.555 157.047C150.634 156.99 150.698 156.913 150.739 156.824L151.257 155.801C151.311 155.705 151.391 155.625 151.487 155.571C151.584 155.517 151.693 155.489 151.803 155.492C151.914 155.495 152.021 155.528 152.114 155.588C152.208 155.647 152.283 155.731 152.332 155.829Z" fill="#3BADD4"/>
<path d="M123.653 149.126C123.803 148.372 123.314 147.639 122.56 147.49C121.806 147.34 121.073 147.829 120.924 148.583C120.774 149.337 121.263 150.07 122.017 150.22C122.771 150.369 123.504 149.88 123.653 149.126Z" fill="#3BADD4"/>
<path d="M163.206 135.421C163.206 135.502 139.255 135.375 109.726 135.134C80.1971 134.892 56.2461 134.628 56.2461 134.559C56.2461 134.49 80.1914 134.605 109.726 134.846C139.261 135.088 163.212 135.341 163.206 135.421Z" fill="#E0E0E0"/>
<path d="M162.897 173.731C162.897 173.818 139.32 173.662 110.228 173.386C81.1358 173.11 57.5586 172.811 57.5586 172.742C57.5586 172.673 81.1358 172.811 110.234 173.087C139.331 173.363 162.897 173.651 162.897 173.731Z" fill="#E0E0E0"/>
<path d="M77.8344 227.636C77.8218 229.102 77.375 230.531 76.5504 231.743C75.7258 232.955 74.5604 233.895 73.2015 234.444C71.8427 234.994 70.3514 235.128 68.9162 234.83C67.481 234.533 66.1663 233.816 65.1383 232.771C64.1103 231.726 63.4152 230.4 63.1408 228.96C62.8664 227.52 63.0251 226.031 63.5967 224.682C64.1684 223.332 65.1274 222.182 66.3524 221.377C67.5775 220.573 69.0137 220.149 70.4794 220.16C72.4459 220.177 74.3252 220.974 75.7044 222.376C77.0836 223.778 77.8497 225.67 77.8344 227.636Z" fill="#E0E0E0"/>
<path d="M114.886 221.932C114.886 222.012 107.985 222.024 99.5258 221.932C91.0668 221.84 84.1719 221.742 84.1719 221.656C84.1719 221.569 91.0725 221.564 99.5316 221.656C107.991 221.748 114.886 221.851 114.886 221.932Z" fill="#263238"/>
<path d="M139.946 228.965C139.946 229.046 127.41 229.011 111.953 228.885C96.4951 228.758 83.9531 228.586 83.9531 228.505C83.9531 228.425 96.4893 228.459 111.953 228.586C127.416 228.712 139.946 228.879 139.946 228.965Z" fill="#E0E0E0"/>
<path d="M139.899 234.486C139.899 234.572 127.363 234.537 111.906 234.411C96.4482 234.284 83.9062 234.112 83.9062 234.031C83.9062 233.951 96.4424 233.98 111.906 234.106C127.369 234.233 139.905 234.411 139.899 234.486Z" fill="#E0E0E0"/>
<path d="M156.415 220.868C156.415 220.949 153.707 220.995 150.366 220.966C147.025 220.937 144.311 220.851 144.311 220.771C144.311 220.69 147.025 220.644 150.366 220.667C153.707 220.69 156.415 220.788 156.415 220.868Z" fill="#263238"/>
<path d="M123.063 221.598C123.06 221.874 122.976 222.142 122.822 222.37C122.667 222.597 122.448 222.774 122.193 222.877C121.938 222.98 121.658 223.005 121.388 222.95C121.119 222.894 120.872 222.759 120.679 222.563C120.486 222.367 120.355 222.118 120.304 221.847C120.252 221.577 120.282 221.297 120.39 221.044C120.497 220.79 120.677 220.575 120.907 220.424C121.137 220.272 121.407 220.193 121.682 220.195C121.865 220.197 122.046 220.234 122.214 220.306C122.382 220.377 122.535 220.481 122.663 220.611C122.791 220.741 122.892 220.896 122.961 221.065C123.03 221.234 123.064 221.416 123.063 221.598Z" fill="#3BADD4"/>
<path d="M164.117 97.2459L57.4766 96.3711L57.1623 134.68L163.803 135.555L164.117 97.2459Z" fill="#F5F5F5"/>
<path d="M76.7904 121.077C79.6851 118.183 79.6851 113.489 76.7904 110.594C73.8957 107.7 69.2024 107.7 66.3077 110.594C63.413 113.489 63.413 118.183 66.3077 121.077C69.2024 123.972 73.8957 123.972 76.7904 121.077Z" fill="#455A64"/>
<path d="M116.012 110.199C116.012 110.285 109.112 110.297 100.659 110.228C92.2052 110.159 85.2988 110.032 85.2988 109.952C85.2988 109.871 92.1995 109.854 100.659 109.952C109.118 110.05 116.012 110.107 116.012 110.199Z" fill="#263238"/>
<path d="M141.079 117.221C141.079 117.307 128.543 117.267 113.079 117.14C97.6163 117.014 85.0801 116.847 85.0801 116.761C85.0801 116.674 97.6163 116.715 113.079 116.841C128.543 116.968 141.079 117.14 141.079 117.221Z" fill="#E0E0E0"/>
<path d="M141.034 122.746C141.034 122.827 128.498 122.792 113.035 122.666C97.5713 122.539 85.0352 122.372 85.0352 122.286C85.0352 122.2 97.5713 122.24 113.04 122.367C128.509 122.493 141.034 122.666 141.034 122.746Z" fill="#E0E0E0"/>
<path d="M157.566 109.13C157.566 109.211 154.852 109.257 151.511 109.228C149.492 109.262 147.473 109.195 145.461 109.026C145.461 108.946 148.169 108.9 151.516 108.929C153.535 108.894 155.554 108.961 157.566 109.13Z" fill="#263238"/>
<path d="M152.867 116.842C152.867 116.842 152.821 116.779 152.718 116.687C152.645 116.625 152.557 116.583 152.464 116.564C152.371 116.545 152.274 116.55 152.183 116.577C152.054 116.613 151.945 116.697 151.878 116.813C151.803 116.94 151.729 117.112 151.648 117.279L151.384 117.854C151.337 117.975 151.259 118.081 151.158 118.162C151.057 118.243 150.937 118.295 150.809 118.314L150.067 118.429L149.676 118.486C149.566 118.505 149.466 118.562 149.394 118.647C149.318 118.734 149.277 118.846 149.277 118.961C149.277 119.076 149.318 119.187 149.394 119.274L150.049 119.918L150.222 120.085C150.291 120.151 150.348 120.229 150.389 120.315C150.469 120.496 150.483 120.7 150.429 120.89C150.371 121.216 150.314 121.55 150.256 121.891C150.238 121.957 150.235 122.027 150.248 122.095C150.26 122.163 150.288 122.227 150.329 122.282C150.37 122.337 150.423 122.383 150.484 122.415C150.546 122.446 150.613 122.464 150.682 122.466C150.814 122.466 150.935 122.397 151.108 122.311L151.596 122.063C151.763 121.963 151.94 121.882 152.125 121.822C152.23 121.801 152.338 121.802 152.443 121.823C152.548 121.845 152.647 121.888 152.735 121.948L153.655 122.443C153.713 122.471 153.776 122.487 153.84 122.49C153.904 122.493 153.968 122.482 154.028 122.459C154.088 122.436 154.143 122.4 154.188 122.355C154.234 122.31 154.27 122.255 154.293 122.196C154.333 122.062 154.333 121.92 154.293 121.787C154.293 121.626 154.247 121.471 154.219 121.316L154.15 120.85C154.115 120.668 154.15 120.479 154.247 120.321C154.345 120.195 154.455 120.08 154.575 119.976L154.891 119.683L155.19 119.401C155.272 119.328 155.328 119.231 155.351 119.125C155.37 119.023 155.357 118.919 155.314 118.825C155.27 118.731 155.199 118.653 155.11 118.601C154.904 118.535 154.692 118.489 154.477 118.463L153.902 118.36C153.804 118.351 153.709 118.322 153.623 118.275C153.537 118.227 153.462 118.162 153.402 118.084C153.325 117.951 153.258 117.812 153.201 117.67C153.074 117.424 152.972 117.166 152.896 116.899C153.055 117.126 153.193 117.367 153.31 117.618C153.371 117.749 153.44 117.876 153.517 117.998C153.569 118.057 153.633 118.105 153.704 118.138C153.775 118.172 153.852 118.191 153.931 118.193L154.506 118.274C154.745 118.291 154.981 118.339 155.208 118.417C155.307 118.472 155.391 118.549 155.455 118.642C155.519 118.736 155.559 118.843 155.574 118.955C155.589 119.067 155.577 119.181 155.539 119.287C155.501 119.394 155.439 119.49 155.357 119.568L155.058 119.855L154.753 120.16C154.649 120.247 154.555 120.346 154.472 120.453C154.412 120.558 154.392 120.68 154.414 120.798C154.443 120.953 154.466 121.109 154.495 121.264C154.523 121.419 154.546 121.575 154.575 121.736C154.633 121.923 154.633 122.123 154.575 122.311C154.539 122.409 154.482 122.499 154.408 122.574C154.335 122.648 154.246 122.707 154.149 122.746C154.051 122.784 153.946 122.802 153.841 122.797C153.737 122.792 153.634 122.766 153.54 122.719L152.614 122.224C152.556 122.18 152.489 122.148 152.418 122.131C152.346 122.115 152.272 122.113 152.2 122.127C152.044 122.186 151.892 122.257 151.746 122.339L151.263 122.587L151.016 122.713C150.913 122.76 150.8 122.782 150.688 122.776C150.579 122.771 150.473 122.742 150.376 122.692C150.28 122.642 150.195 122.572 150.128 122.486C150.061 122.401 150.013 122.302 149.988 122.196C149.962 122.09 149.96 121.98 149.98 121.874C150.044 121.534 150.107 121.201 150.164 120.879C150.212 120.751 150.212 120.61 150.164 120.482C150.091 120.358 149.996 120.249 149.883 120.16L149.198 119.401C149.083 119.266 149.02 119.095 149.02 118.918C149.02 118.741 149.083 118.569 149.198 118.435C149.311 118.31 149.464 118.229 149.63 118.205L150.026 118.153L150.774 118.061C150.872 118.05 150.965 118.013 151.043 117.953C151.121 117.893 151.181 117.813 151.217 117.722L151.499 117.181C151.591 117.014 151.665 116.865 151.757 116.71C151.851 116.573 151.992 116.476 152.154 116.439C152.262 116.413 152.375 116.416 152.481 116.449C152.587 116.481 152.683 116.541 152.758 116.623C152.856 116.756 152.873 116.836 152.867 116.842Z" fill="#263238"/>
<path d="M124.213 109.86C124.211 110.135 124.127 110.404 123.972 110.631C123.817 110.859 123.598 111.036 123.343 111.139C123.088 111.242 122.808 111.267 122.539 111.211C122.269 111.155 122.022 111.021 121.829 110.825C121.636 110.628 121.506 110.379 121.454 110.109C121.403 109.838 121.433 109.559 121.54 109.306C121.647 109.052 121.828 108.836 122.058 108.685C122.288 108.534 122.558 108.455 122.833 108.457C123.201 108.462 123.553 108.612 123.812 108.874C124.07 109.137 124.214 109.492 124.213 109.86Z" fill="#3BADD4"/>
<path d="M164.197 173.617L57.5566 172.742L57.2424 211.051L163.883 211.926L164.197 173.617Z" fill="#F5F5F5"/>
<path d="M76.8705 197.447C79.7652 194.552 79.7652 189.858 76.8705 186.964C73.9758 184.069 69.2825 184.069 66.3878 186.964C63.4931 189.858 63.4931 194.552 66.3878 197.447C69.2825 200.341 73.9758 200.341 76.8705 197.447Z" fill="#455A64"/>
<path d="M116.093 186.56C116.093 186.64 109.192 186.652 100.739 186.56C92.2853 186.468 85.3789 186.37 85.3789 186.284C85.3789 186.197 92.2796 186.192 100.739 186.284C109.198 186.376 116.093 186.479 116.093 186.56Z" fill="#263238"/>
<path d="M141.159 193.581C141.159 193.662 128.623 193.627 113.16 193.501C97.6963 193.374 85.1602 193.202 85.1602 193.121C85.1602 193.041 97.6963 193.075 113.16 193.202C128.623 193.328 141.159 193.507 141.159 193.581Z" fill="#E0E0E0"/>
<path d="M141.114 199.119C141.114 199.2 128.578 199.165 113.115 199.039C97.6513 198.912 85.1094 198.757 85.1094 198.659C85.1094 198.562 97.6456 198.613 113.115 198.74C128.583 198.866 141.114 199.033 141.114 199.119Z" fill="#E0E0E0"/>
<path d="M157.64 185.497C157.64 185.583 154.926 185.624 151.585 185.601C148.244 185.578 145.535 185.48 145.535 185.399C145.535 185.319 148.244 185.273 151.59 185.302C154.937 185.33 157.64 185.417 157.64 185.497Z" fill="#263238"/>
<path d="M152.965 193.207C152.965 193.207 152.919 193.144 152.815 193.058C152.742 192.996 152.656 192.953 152.562 192.933C152.469 192.913 152.372 192.916 152.28 192.943C152.153 192.98 152.044 193.065 151.975 193.179C151.901 193.311 151.826 193.484 151.745 193.65C151.665 193.817 151.573 194.007 151.481 194.197C151.436 194.319 151.359 194.426 151.257 194.508C151.156 194.59 151.035 194.644 150.906 194.662L150.164 194.772L149.773 194.835C149.688 194.847 149.608 194.883 149.542 194.938C149.475 194.993 149.425 195.064 149.397 195.145C149.369 195.227 149.363 195.314 149.381 195.398C149.398 195.482 149.438 195.56 149.497 195.623L150.153 196.261L150.325 196.428C150.396 196.494 150.453 196.575 150.492 196.664C150.576 196.844 150.59 197.049 150.532 197.239C150.475 197.568 150.417 197.902 150.36 198.239C150.345 198.304 150.345 198.371 150.36 198.435C150.374 198.5 150.403 198.561 150.443 198.613C150.484 198.665 150.536 198.708 150.595 198.737C150.654 198.767 150.719 198.784 150.785 198.786C150.938 198.777 151.086 198.725 151.211 198.636L151.699 198.383C151.867 198.285 152.044 198.204 152.228 198.141C152.441 198.104 152.66 198.151 152.838 198.274L153.758 198.768C153.816 198.797 153.879 198.813 153.943 198.815C154.007 198.818 154.071 198.808 154.131 198.784C154.191 198.761 154.246 198.726 154.291 198.68C154.337 198.635 154.373 198.581 154.396 198.521C154.437 198.388 154.437 198.246 154.396 198.113C154.396 197.952 154.35 197.791 154.322 197.635L154.253 197.175C154.217 196.993 154.252 196.804 154.35 196.646C154.448 196.521 154.558 196.405 154.678 196.301L154.994 196.008L155.293 195.72C155.377 195.649 155.433 195.552 155.455 195.444C155.473 195.344 155.459 195.24 155.416 195.147C155.373 195.055 155.302 194.978 155.213 194.927C155.008 194.858 154.796 194.811 154.58 194.789L154.005 194.685C153.907 194.676 153.812 194.646 153.726 194.597C153.639 194.549 153.564 194.483 153.505 194.404C153.429 194.272 153.361 194.136 153.304 193.995C153.175 193.748 153.073 193.488 152.999 193.219C153.157 193.449 153.295 193.691 153.413 193.944C153.474 194.072 153.543 194.197 153.62 194.317C153.672 194.378 153.735 194.427 153.806 194.461C153.877 194.496 153.955 194.515 154.034 194.519L154.609 194.599C154.832 194.619 155.052 194.663 155.265 194.731C155.397 194.802 155.503 194.912 155.569 195.046C155.635 195.18 155.658 195.331 155.633 195.479C155.607 195.637 155.531 195.783 155.414 195.893L155.115 196.181L154.81 196.48C154.707 196.57 154.613 196.67 154.529 196.779C154.469 196.883 154.448 197.005 154.471 197.124C154.5 197.279 154.523 197.428 154.552 197.584C154.58 197.739 154.603 197.9 154.632 198.061C154.687 198.249 154.687 198.448 154.632 198.636C154.594 198.734 154.535 198.822 154.461 198.896C154.387 198.97 154.298 199.027 154.2 199.065C154.102 199.103 153.998 199.12 153.893 199.116C153.788 199.111 153.685 199.085 153.591 199.039C153.287 198.878 152.976 198.717 152.666 198.544C152.545 198.46 152.397 198.425 152.251 198.446C152.095 198.508 151.943 198.581 151.797 198.665L151.314 198.912L151.067 199.039C150.963 199.081 150.851 199.1 150.739 199.096C150.631 199.091 150.525 199.062 150.429 199.012C150.333 198.963 150.249 198.893 150.182 198.808C150.115 198.723 150.067 198.625 150.041 198.52C150.015 198.415 150.012 198.305 150.032 198.199C150.095 197.86 150.158 197.526 150.216 197.198C150.263 197.07 150.263 196.93 150.216 196.802C150.14 196.68 150.044 196.571 149.934 196.48L149.278 195.818C149.163 195.684 149.1 195.512 149.1 195.335C149.1 195.158 149.163 194.987 149.278 194.852C149.392 194.728 149.544 194.645 149.71 194.616L150.107 194.565L150.854 194.473C150.952 194.464 151.045 194.428 151.123 194.369C151.202 194.31 151.262 194.231 151.297 194.139L151.579 193.599C151.671 193.426 151.745 193.276 151.837 193.127C151.929 192.987 152.071 192.888 152.234 192.851C152.338 192.831 152.445 192.838 152.545 192.87C152.646 192.902 152.736 192.959 152.809 193.035C152.965 193.127 152.965 193.207 152.965 193.207Z" fill="#263238"/>
<path d="M124.293 186.227C124.291 186.503 124.207 186.771 124.052 186.999C123.897 187.226 123.678 187.403 123.423 187.506C123.168 187.609 122.888 187.634 122.619 187.578C122.349 187.523 122.102 187.388 121.909 187.192C121.716 186.995 121.586 186.746 121.534 186.476C121.483 186.206 121.513 185.926 121.62 185.673C121.728 185.419 121.908 185.203 122.138 185.052C122.368 184.901 122.638 184.822 122.913 184.824C123.096 184.826 123.276 184.863 123.445 184.935C123.613 185.006 123.765 185.11 123.894 185.24C124.022 185.37 124.123 185.525 124.191 185.694C124.26 185.863 124.294 186.045 124.293 186.227Z" fill="#3BADD4"/>
<path d="M115.126 44.7236L106.19 44.6503C105.476 44.6444 104.892 45.2189 104.886 45.9335L104.831 52.6499C104.825 53.3644 105.399 53.9485 106.114 53.9543L115.05 54.0276C115.765 54.0335 116.349 53.459 116.354 52.7444L116.41 46.028C116.415 45.3134 115.841 44.7294 115.126 44.7236Z" fill="#3BADD4"/>
<path d="M115.788 45.0802C115.692 45.2568 115.572 45.4193 115.431 45.5632C115.19 45.8623 114.856 46.2878 114.379 46.8111L112.792 48.634L111.843 49.7036C111.679 49.9041 111.504 50.096 111.32 50.2787C111.087 50.4712 110.787 50.5641 110.486 50.5374C110.188 50.5063 109.913 50.3598 109.721 50.1292L109.209 49.5541L108.249 48.496L106.639 46.6961C106.179 46.1785 105.817 45.7587 105.569 45.4597C105.428 45.3171 105.306 45.1566 105.207 44.9824C105.207 44.9824 105.38 45.1089 105.656 45.385C105.932 45.661 106.317 46.052 106.806 46.5351L108.462 48.2947L109.439 49.3413L109.951 49.9164C110.021 50.0032 110.107 50.0753 110.205 50.1284C110.303 50.1816 110.41 50.2148 110.521 50.226C110.632 50.2372 110.744 50.2263 110.85 50.1939C110.957 50.1615 111.056 50.1082 111.142 50.0372C111.297 49.8991 111.475 49.6749 111.636 49.5023L112.596 48.4443L114.235 46.6616C114.701 46.1613 115.086 45.753 115.385 45.5115C115.501 45.3515 115.636 45.2066 115.788 45.0802Z" fill="white"/>
<path d="M108.863 49.2949C108.306 50.0401 107.689 50.7383 107.017 51.3824C106.413 52.0974 105.717 52.7297 104.947 53.2628C105.506 52.5171 106.125 51.8188 106.799 51.1754C107.402 50.4613 108.096 49.8291 108.863 49.2949Z" fill="white"/>
<path d="M116.347 53.4812C115.565 52.8573 114.85 52.1539 114.214 51.3822C113.501 50.6792 112.858 49.9089 112.293 49.082C113.076 49.7067 113.793 50.41 114.432 51.181C115.144 51.8831 115.786 52.6536 116.347 53.4812Z" fill="white"/>
<path d="M73.4763 48.4611C73.4763 48.5129 71.5096 48.5532 69.0829 48.5532C66.6561 48.5532 64.6895 48.5129 64.6895 48.4611C64.6895 48.4094 66.6561 48.3691 69.0829 48.3691C71.5096 48.3691 73.4763 48.4094 73.4763 48.4611Z" fill="#263238"/>
<path d="M73.4763 50.7092C73.4763 50.761 71.5096 50.8012 69.0829 50.8012C66.6561 50.8012 64.6895 50.761 64.6895 50.7092C64.6895 50.6574 66.6561 50.6172 69.0829 50.6172C71.5096 50.6172 73.4763 50.6574 73.4763 50.7092Z" fill="#263238"/>
<path d="M73.4763 52.9582C73.4763 53.01 71.5096 53.056 69.0829 53.056C66.6561 53.056 64.6895 53.01 64.6895 52.964C64.6895 52.918 66.6561 52.8662 69.0829 52.8662C71.5096 52.8662 73.4763 52.9122 73.4763 52.9582Z" fill="#263238"/>
<path d="M155.945 49.8927C155.916 49.8927 155.945 49.6741 155.818 49.3176C155.676 48.8085 155.369 48.3613 154.944 48.0467C154.604 47.7887 154.199 47.6304 153.774 47.5895C153.349 47.5485 152.922 47.6265 152.539 47.8148C152.156 48.0031 151.833 48.2942 151.606 48.6556C151.379 49.017 151.257 49.4344 151.253 49.8611C151.25 50.2879 151.365 50.7071 151.587 51.072C151.808 51.4369 152.127 51.733 152.507 51.9272C152.887 52.1215 153.313 52.2061 153.738 52.1718C154.164 52.1375 154.571 51.9855 154.915 51.7328C155.342 51.4209 155.657 50.9791 155.812 50.4735C155.916 50.1112 155.916 49.8984 155.945 49.8984C155.952 49.9499 155.952 50.0022 155.945 50.0537C155.948 50.2045 155.932 50.3552 155.899 50.5022C155.774 51.0532 155.461 51.5433 155.013 51.8881C154.635 52.1706 154.187 52.342 153.717 52.3829C153.247 52.4239 152.775 52.3328 152.355 52.1199C151.934 51.907 151.581 51.5808 151.336 51.1781C151.091 50.7753 150.963 50.3121 150.967 49.8406C150.971 49.3691 151.107 48.9081 151.359 48.5096C151.611 48.1112 151.969 47.791 152.393 47.5854C152.818 47.3797 153.291 47.2967 153.76 47.3457C154.229 47.3947 154.675 47.5738 155.047 47.8627C155.489 48.2152 155.793 48.712 155.904 49.2659C155.937 49.413 155.951 49.5638 155.945 49.7144C155.958 49.773 155.958 49.834 155.945 49.8927Z" fill="#263238"/>
<path d="M157.237 54.0687C156.796 53.7733 156.407 53.4059 156.087 52.9818C155.694 52.6157 155.366 52.186 155.115 51.7109C155.557 52.0063 155.946 52.3737 156.265 52.7978C156.66 53.1627 156.988 53.5925 157.237 54.0687Z" fill="#263238"/>
<path d="M150.554 170.004L150.473 200.907L136.816 198.101L125.314 195.697C125.314 195.697 141.059 226.75 158.185 226.75C175.31 226.75 177.524 200.913 177.524 200.913L178.541 170.004H150.554Z" fill="#9B7564"/>
<path d="M221.497 90.2849C220.244 90.9979 218.519 90.0721 217.944 88.738C217.369 87.4038 217.633 85.8627 218.07 84.4596C218.507 83.0564 219.117 81.7108 219.22 80.2559C219.271 78.9278 218.894 77.6184 218.145 76.5209C217.395 75.4233 216.313 74.5958 215.057 74.1603C217.53 72.1994 217.731 67.9957 215.459 65.8048C214.396 64.7812 212.981 64.2234 211.745 63.4183C211.041 62.9538 210.386 62.4202 209.789 61.8254C210.893 62.0974 212.041 62.1326 213.159 61.9289C214.055 61.7323 214.887 61.3131 215.579 60.7101C216.27 60.1071 216.799 59.3397 217.116 58.4786C217.408 57.6065 217.45 56.6702 217.239 55.7751C217.028 54.8801 216.571 54.0618 215.919 53.4124C215.248 52.7835 214.4 52.374 213.49 52.2384C212.58 52.1029 211.65 52.2475 210.824 52.6533C209.226 53.4986 208.352 55.2353 207.575 56.8684L206.851 58.3808C204.602 55.4021 202.486 52.3255 199.019 51.2789C195.873 50.3301 192.492 51.3882 189.214 51.1524C186.827 50.9741 184.539 50.1173 182.158 49.8528C179.777 49.5882 177.069 50.1001 175.666 52.038C174.838 53.1881 174.579 54.6487 173.745 55.7816C172.02 58.1163 168.305 58.4326 166.89 60.9571C165.74 63.0158 166.626 65.615 166.131 67.921C165.596 70.4282 163.526 72.2626 161.836 74.1891C160.145 76.1155 158.667 78.7608 159.616 81.1415C160.455 83.2404 162.899 84.3675 163.693 86.478C164.268 88.0191 163.854 89.727 163.825 91.3717C163.797 93.0164 164.452 94.9715 166.056 95.3453L184.303 100.164C190.588 102.718 197.069 105.34 203.855 105.305C210.64 105.271 217.88 102.039 220.531 95.8054C219.545 95.7682 218.609 95.357 217.915 94.6553C218.801 94.2411 219.583 93.6335 220.203 92.8771C220.823 92.1207 221.265 91.2349 221.497 90.2849Z" fill="#263238"/>
<path d="M206.541 96.0069C208.048 91.4065 209.531 86.7198 210.216 81.9008C210.9 77.0819 210.756 72.0559 209.066 67.5245C208.813 66.8344 206.622 62.1937 205.885 62.2685C205.362 62.3202 206.708 66.6446 206.461 67.1047C203.93 71.4521 203.24 76.6793 203.649 81.6996C204.084 86.5718 205.062 91.3803 206.564 96.0357" fill="#263238"/>
<path d="M190.428 136.456C197.973 136.295 206.53 119.779 206.53 119.779L207.019 77.4209C207.41 65.224 200.641 54.827 188.439 54.7695L187.288 54.827C181.815 55.1263 176.654 57.4716 172.829 61.3978C169.004 65.324 166.794 70.5444 166.638 76.0235C166.356 86.5988 166.172 98.2897 166.546 103.937C167.317 115.622 179.111 116.812 179.111 116.812C179.111 116.812 179.18 119.526 179.215 122.965C179.295 130.682 187.375 136.698 190.399 136.439L190.428 136.456Z" fill="#9B7564"/>
<path d="M179.139 116.829C179.139 116.829 186.534 116.869 194.125 111.51C194.125 111.51 190.87 120.216 179.144 119.791L179.139 116.829Z" fill="#7F6358"/>
<path d="M171.715 85.2186C171.734 85.6585 171.926 86.0729 172.249 86.3722C172.572 86.6714 173 86.8313 173.44 86.8173C173.653 86.8226 173.865 86.7855 174.063 86.7079C174.261 86.6303 174.442 86.5139 174.594 86.3655C174.747 86.2172 174.869 86.0398 174.952 85.8438C175.035 85.6479 175.078 85.4373 175.079 85.2244C175.061 84.7835 174.87 84.3676 174.547 84.0672C174.223 83.7667 173.795 83.606 173.354 83.62C173.14 83.6146 172.928 83.652 172.73 83.7299C172.531 83.8079 172.35 83.9248 172.197 84.0737C172.044 84.2227 171.923 84.4008 171.84 84.5974C171.757 84.794 171.715 85.0053 171.715 85.2186Z" fill="#263238"/>
<path d="M169.426 80.7622C169.645 80.9692 170.858 79.9628 172.658 79.8708C174.458 79.7788 175.821 80.6127 176.005 80.3769C176.091 80.2791 175.861 79.8938 175.263 79.5086C174.458 79.0095 173.517 78.7743 172.572 78.8357C171.637 78.8821 170.741 79.2245 170.013 79.8133C169.484 80.2964 169.317 80.6702 169.426 80.7622Z" fill="#263238"/>
<path d="M187.902 84.7864C187.922 85.2263 188.114 85.6407 188.437 85.9399C188.76 86.2392 189.187 86.3991 189.628 86.3851C189.841 86.3904 190.053 86.3531 190.252 86.2751C190.45 86.1972 190.631 86.0803 190.784 85.9313C190.937 85.7823 191.058 85.6043 191.141 85.4076C191.224 85.211 191.266 84.9998 191.266 84.7864C191.247 84.3517 191.059 83.9416 190.742 83.6431C190.426 83.3447 190.005 83.1814 189.57 83.1878C189.355 83.1793 189.14 83.2143 188.938 83.2907C188.736 83.3672 188.552 83.4835 188.396 83.6327C188.241 83.782 188.117 83.961 188.032 84.1593C187.947 84.3575 187.903 84.5708 187.902 84.7864Z" fill="#263238"/>
<path d="M187.068 80.5435C187.287 80.7505 188.506 79.7499 190.3 79.6579C192.094 79.5659 193.463 80.394 193.647 80.1639C193.739 80.0604 193.509 79.6809 192.905 79.2899C192.099 78.794 191.159 78.5591 190.214 78.617C189.279 78.6646 188.383 79.0068 187.655 79.5946C187.131 80.0489 186.965 80.4515 187.068 80.5435Z" fill="#263238"/>
<path d="M181.365 94.7008C181.365 94.5973 180.215 94.4651 178.415 94.3328C177.955 94.3328 177.518 94.2408 177.42 93.9303C177.354 93.4588 177.437 92.9786 177.656 92.5559C178.039 91.4058 178.422 90.2154 178.806 88.9848C180.427 83.9128 181.572 79.7437 181.365 79.6804C181.158 79.6172 179.68 83.7058 178.064 88.7605C177.679 90.0084 177.305 91.2045 176.954 92.3431C176.693 92.9128 176.642 93.5566 176.81 94.1603C176.886 94.3183 176.997 94.457 177.135 94.5656C177.272 94.6742 177.433 94.75 177.604 94.7871C177.861 94.844 178.123 94.8672 178.386 94.8561C180.232 94.8561 181.359 94.8043 181.365 94.7008Z" fill="#263238"/>
<path d="M186.719 95.6616C186.425 95.6616 186.529 97.611 184.93 99.0832C183.332 100.555 181.25 100.458 181.25 100.728C181.25 100.854 181.733 101.084 182.607 101.061C183.751 101.015 184.843 100.567 185.689 99.7962C186.504 99.0531 186.997 98.0217 187.064 96.921C187.098 96.1159 186.851 95.6443 186.719 95.6616Z" fill="#263238"/>
<path d="M186.776 73.2459C186.983 73.7289 188.766 73.4011 190.888 73.5392C193.01 73.6772 194.746 74.166 194.999 73.7117C195.114 73.4932 194.792 73.0504 194.079 72.6133C193.13 72.0838 192.073 71.7771 190.988 71.7163C189.904 71.6555 188.819 71.8423 187.817 72.2625C187.058 72.6133 186.69 73.0216 186.776 73.2459Z" fill="#263238"/>
<path d="M169.846 74.7461C170.185 75.1371 171.405 74.6483 172.888 74.5506C174.372 74.4528 175.654 74.6771 175.919 74.2343C176.04 74.0215 175.815 73.619 175.246 73.2624C174.481 72.8401 173.607 72.654 172.736 72.7277C171.865 72.8014 171.036 73.1315 170.352 73.6765C169.846 74.125 169.697 74.5448 169.846 74.7461Z" fill="#263238"/>
<path d="M206.529 86.15C206.725 86.0523 214.436 83.3437 214.615 91.3255C214.793 99.3073 206.708 97.8524 206.69 97.6511C206.673 97.4498 206.529 86.15 206.529 86.15Z" fill="#9B7564"/>
<path d="M209.07 94.5686C209.105 94.5686 209.214 94.6606 209.45 94.7641C209.783 94.8988 210.157 94.8988 210.49 94.7641C211.33 94.4364 212.014 93.0735 212.026 91.6301C212.028 90.9428 211.879 90.2635 211.589 89.6404C211.508 89.3926 211.369 89.1681 211.182 88.9858C210.996 88.8036 210.769 88.6691 210.519 88.5938C210.357 88.5552 210.187 88.5743 210.038 88.6478C209.889 88.7213 209.77 88.8446 209.703 88.9963C209.599 89.2206 209.657 89.3816 209.611 89.3931C209.565 89.4046 209.438 89.2609 209.496 88.9331C209.536 88.7329 209.644 88.5525 209.8 88.4213C209.907 88.3357 210.029 88.2722 210.161 88.2347C210.292 88.1972 210.43 88.1863 210.565 88.2028C210.895 88.2606 211.205 88.402 211.464 88.6134C211.724 88.8248 211.925 89.0992 212.049 89.4104C212.407 90.097 212.591 90.8614 212.584 91.6358C212.584 93.2517 211.773 94.7756 210.623 95.1379C210.409 95.2058 210.182 95.2245 209.96 95.1926C209.738 95.1608 209.526 95.0792 209.34 94.9539C209.087 94.7584 209.041 94.5801 209.07 94.5686Z" fill="#7F6358"/>
<path d="M171.68 62.7049C170.375 62.0091 174.21 57.7595 177.379 56.2701C182.163 54.0274 189.501 52.5897 193.952 53.7916C199.317 55.235 203.791 57.817 206.54 62.6704C209.289 67.5239 210.37 73.1537 210.283 78.7087C210.255 80.4051 210.105 82.159 209.214 83.6197C208.121 85.4023 205.988 86.5467 206.114 88.9907C206.15 89.4325 206.098 89.877 205.96 90.2985C205.823 90.72 205.604 91.11 205.315 91.4462C203.866 93.0218 202.054 91.5784 201.215 90.1235C199.409 87.0067 199.168 83.2631 198.966 79.6748C198.823 77.1216 198.685 74.4993 199.375 72.0496C199.748 70.7097 200.364 69.4388 200.663 68.0817C200.962 66.7246 200.904 65.2064 200.042 64.0851C199.844 63.8486 199.624 63.6311 199.386 63.4353C198.255 62.4761 196.89 61.8344 195.43 61.5758C193.97 61.3171 192.468 61.4508 191.077 61.9631C186.585 63.6193 178.914 66.1035 176.884 64.5969C173.963 62.4289 173.25 61.0028 173.25 61.0028L171.68 62.7049Z" fill="#263238"/>
<path d="M193.521 52.6932C189.105 51.2785 184.09 51.4223 180.002 53.6133C177.828 54.7634 175.873 56.615 175.24 58.99C174.608 61.365 175.654 64.2805 177.943 65.1776L178.104 65.2754C181.554 66.3795 183.751 65.8964 187.144 64.6715C190.019 63.6422 192.526 61.8423 195.385 60.8244C198.448 59.7465 201.764 59.6083 204.907 60.4276C201.802 56.9888 197.943 54.125 193.521 52.6932Z" fill="#263238"/>
<path d="M208.743 60.6289C208.674 60.6864 208.03 59.9216 206.73 59.0187C205.974 58.4906 205.157 58.0543 204.298 57.7191C203.27 57.2858 202.157 57.0893 201.043 57.144C199.002 57.371 197.067 58.1682 195.459 59.4443C194.217 60.4276 193.642 61.2557 193.567 61.1982C193.492 61.1407 193.653 60.9509 193.918 60.5829C194.295 60.0611 194.729 59.5828 195.212 59.1567C196.829 57.7278 198.851 56.8374 200.997 56.6092C202.191 56.5407 203.385 56.7534 204.482 57.2303C205.368 57.6013 206.2 58.0907 206.954 58.6852C208.248 59.726 208.8 60.5944 208.743 60.6289Z" fill="#455A64"/>
<path d="M209.554 63.464C209.487 64.2606 209.28 65.0392 208.944 65.7643C207.504 69.3544 204.862 72.3326 201.468 74.1888C200.794 74.6084 200.05 74.9044 199.272 75.0629C199.174 74.9076 202.636 73.5965 205.54 70.2727C208.444 66.9489 209.387 63.3893 209.554 63.464Z" fill="#455A64"/>
<path d="M212.815 64.7695C212.877 65.0684 212.887 65.3759 212.843 65.6781C212.802 66.5071 212.686 67.3308 212.498 68.1394C211.884 70.8344 210.611 73.3355 208.795 75.4195C206.979 77.5036 204.676 79.1058 202.09 80.0832C201.314 80.3784 200.513 80.6055 199.698 80.7618C199.403 80.8473 199.095 80.8785 198.789 80.8538C198.789 80.7618 200.048 80.5433 201.946 79.7037C204.422 78.6609 206.627 77.066 208.392 75.0408C210.157 73.0155 211.436 70.6136 212.13 68.0186C212.671 66.0519 212.717 64.7695 212.815 64.7695Z" fill="#455A64"/>
<path d="M184.348 51.9746C184.348 52.0666 183.514 52.2621 182.226 52.7739C178.846 54.117 175.972 56.4862 174.009 59.5481C173.646 60.2105 173.248 60.8535 172.818 61.4745C172.971 60.7197 173.264 60.0001 173.681 59.3526C174.6 57.7302 175.808 56.2899 177.246 55.1029C178.684 53.9168 180.33 53.0081 182.1 52.4232C182.816 52.1402 183.578 51.9883 184.348 51.9746Z" fill="#455A64"/>
<path d="M215.327 52.9804C215.459 52.9804 215.108 55.2806 213.297 57.4371C211.485 59.5935 209.271 60.3411 209.271 60.2089C209.271 60.0766 211.209 59.1393 212.9 57.0921C214.591 55.0449 215.166 52.9287 215.327 52.9804Z" fill="#455A64"/>
<path d="M130.225 195.956L134.975 193.04C135.781 192.55 136.705 192.29 137.649 192.287H146.849L156.349 200.942L159.184 202.356L158.126 217.308L151.95 216.549C151.95 216.549 138.764 217.124 137.488 216.267C136.211 215.41 134.365 212.719 134.365 212.719C134.365 212.719 127.137 210.378 126.429 209.746C123.744 207.336 124.825 206.761 124.825 206.761L123.589 206.186C123.358 206.623 121.559 203.69 121.748 202.218C121.858 201.361 121.605 201.367 121.605 201.367C121.005 201.023 120.489 200.552 120.091 199.986C119.694 199.421 119.425 198.776 119.304 198.095C119.172 197.221 122.755 197.848 122.755 197.848L131.685 197.969L130.225 195.956Z" fill="#9B7564"/>
<path d="M138.167 197.768L129.765 186.33C129.461 185.914 129.063 185.576 128.603 185.343C128.144 185.11 127.635 184.989 127.12 184.99H110.512C110.192 184.99 109.885 185.117 109.658 185.344C109.432 185.57 109.305 185.878 109.305 186.198C109.307 186.487 109.411 186.765 109.598 186.986L119.115 198.027L138.167 197.768Z" fill="#455A64"/>
<path d="M134.095 202.455C133.483 202.619 132.853 202.702 132.22 202.702C129.177 202.879 126.125 202.616 123.157 201.92C122.533 201.807 121.926 201.614 121.352 201.345C121.979 201.388 122.602 201.482 123.215 201.626C124.365 201.828 125.935 202.075 127.694 202.202C129.454 202.328 131.053 202.386 132.209 202.38C132.838 202.349 133.469 202.374 134.095 202.455Z" fill="#7F6358"/>
<path d="M136.481 207.463C135.87 207.626 135.24 207.709 134.607 207.711C133.087 207.801 131.563 207.78 130.047 207.647C128.528 207.518 127.022 207.277 125.538 206.929C124.916 206.817 124.31 206.623 123.738 206.354C124.366 206.397 124.989 206.491 125.601 206.635C126.752 206.837 128.321 207.084 130.081 207.21C131.841 207.337 133.439 207.394 134.595 207.389C135.225 207.358 135.856 207.383 136.481 207.463Z" fill="#7F6358"/>
<path d="M119.326 198.096C119.396 198.45 119.488 198.8 119.602 199.142C119.98 200.088 120.71 200.851 121.638 201.27L121.701 201.299V201.368C121.681 202.379 121.904 203.381 122.351 204.289C122.903 205.405 123.818 206.301 124.945 206.831L125.1 206.9L125.025 207.044C124.939 207.223 124.894 207.42 124.894 207.619C124.894 207.818 124.939 208.014 125.025 208.194C125.221 208.581 125.5 208.921 125.842 209.189C126.602 209.774 127.437 210.253 128.326 210.615C130.295 211.432 132.333 212.071 134.416 212.524H134.496L134.536 212.593C135.07 213.366 135.697 214.069 136.405 214.686C137.086 215.361 137.924 215.857 138.844 216.129C139.552 216.304 140.282 216.377 141.012 216.348L143.197 216.405L147.412 216.52L155.003 216.733H155.031L164.077 218.579L166.59 219.12L167.246 219.275C167.324 219.284 167.4 219.308 167.47 219.344C167.393 219.353 167.316 219.353 167.24 219.344L166.573 219.24L164.037 218.792L154.962 217.067H154.991L147.4 216.906L143.191 216.808L141 216.756C140.237 216.78 139.475 216.698 138.734 216.515C137.755 216.227 136.862 215.702 136.135 214.985C135.402 214.344 134.755 213.612 134.209 212.806L134.329 212.892C132.224 212.429 130.166 211.773 128.182 210.931C127.265 210.551 126.404 210.048 125.623 209.436C125.239 209.125 124.931 208.732 124.72 208.286C124.621 208.064 124.572 207.823 124.578 207.58C124.584 207.337 124.644 207.099 124.755 206.883L124.835 207.095C123.649 206.525 122.691 205.568 122.121 204.381C121.672 203.43 121.46 202.384 121.506 201.333L121.569 201.431C121.088 201.207 120.658 200.887 120.304 200.492C119.95 200.096 119.68 199.633 119.51 199.131C119.386 198.8 119.323 198.449 119.326 198.096Z" fill="#7F6358"/>
<path d="M139.201 211.863C139.247 211.955 138.131 212.524 136.619 212.725C135.106 212.926 133.887 212.673 133.904 212.576C133.922 212.478 135.118 212.524 136.567 212.323C138.016 212.121 139.16 211.753 139.201 211.863Z" fill="#7F6358"/>
<path d="M143.468 197.75C143.468 197.86 141.645 198.015 139.379 198.101C137.114 198.187 135.279 198.159 135.279 198.044C135.279 197.929 137.102 197.779 139.368 197.693C141.634 197.606 143.468 197.635 143.468 197.75Z" fill="#7F6358"/>
<path d="M159.006 201.132C159.006 201.132 158.834 201.299 158.431 201.362C157.854 201.425 157.272 201.295 156.775 200.994C156.081 200.54 155.432 200.02 154.837 199.441L152.572 197.458L148.431 193.898C147.83 193.438 147.268 192.928 146.752 192.374C147.412 192.748 148.034 193.185 148.609 193.679C149.719 194.53 151.226 195.75 152.842 197.13C153.647 197.831 154.406 198.51 155.084 199.137C155.651 199.715 156.265 200.246 156.919 200.724C157.362 201.02 157.881 201.18 158.414 201.184C158.794 201.19 158.995 201.098 159.006 201.132Z" fill="#7F6358"/>
<path d="M136.395 198.016C136.312 197.941 136.237 197.858 136.171 197.768L135.596 197.032L133.411 194.278L130.259 190.172L128.408 187.745C128.081 187.347 127.651 187.047 127.166 186.877C126.917 186.79 126.658 186.738 126.395 186.721C126.136 186.721 125.82 186.721 125.567 186.721L114.066 186.675L110.575 186.629H109.627C109.515 186.632 109.403 186.622 109.293 186.601C109.402 186.575 109.515 186.565 109.627 186.572L110.575 186.543L114.066 186.491L125.567 186.451C125.855 186.451 126.142 186.451 126.418 186.451C126.706 186.471 126.991 186.529 127.263 186.624C127.799 186.815 128.272 187.149 128.632 187.59L130.478 190.034L133.578 194.18C134.434 195.33 135.136 196.29 135.648 196.992C135.872 197.302 136.05 197.567 136.223 197.762C136.291 197.839 136.349 197.924 136.395 198.016Z" fill="#263238"/>
<path d="M118.334 188.342C118.441 188.26 118.57 188.211 118.704 188.202C118.838 188.192 118.973 188.223 119.09 188.289C119.207 188.356 119.302 188.455 119.363 188.576C119.423 188.696 119.447 188.831 119.432 188.965C119.416 189.099 119.361 189.225 119.274 189.327C119.186 189.43 119.071 189.505 118.941 189.542C118.812 189.579 118.674 189.578 118.546 189.537C118.418 189.497 118.304 189.419 118.219 189.314C118.112 189.174 118.062 188.998 118.079 188.822C118.097 188.646 118.179 188.483 118.311 188.365" fill="#F5F5F5"/>
<path d="M207.351 116.449L230.745 130.199L235.046 206.106L240.635 249.051H156.562C156.562 249.051 157.488 196.784 157.776 180.976C157.983 169.895 157.684 148.416 161.433 135.207C163.032 129.578 178.685 122.303 178.685 122.303C187.259 129.877 196.845 127.617 207.351 116.449Z" fill="#3BADD4"/>
<path d="M238.163 230.074C238.163 230.155 220.014 230.224 197.621 230.224C175.229 230.224 157.08 230.155 157.08 230.074C157.08 229.994 175.229 229.925 197.621 229.925C220.014 229.925 238.163 229.988 238.163 230.074Z" fill="white"/>
<g opacity="0.3">
<path opacity="0.3" d="M157.029 217.159C163.539 222.617 173.654 225.572 181.981 227.257C190.308 228.942 198.813 229.558 207.163 231.087C212.999 232.174 219.124 233.709 224.753 231.812C227.556 230.816 230.014 229.037 231.835 226.685C233.656 224.333 234.762 221.508 235.024 218.545C235.066 218.347 235.065 218.141 235.021 217.943C234.978 217.745 234.892 217.558 234.771 217.395C234.603 217.268 234.411 217.176 234.206 217.127C234.001 217.077 233.788 217.071 233.581 217.108C208.445 218.223 181.826 218.068 157.029 217.142" fill="black"/>
</g>
<path d="M152.578 201.425H211.326L211.613 170.47L238.721 166.974C238.721 166.974 238.842 198.412 238.842 208.723C238.842 221.098 228.146 229.701 219.164 228.378C210.181 227.055 152.578 216.302 152.578 216.302V201.425Z" fill="#9B7564"/>
<path d="M240.601 173.403L209.008 176.687V139.619C209.008 139.619 212.113 127.094 223.028 127.618C233.942 128.141 240.371 139.947 240.601 150.775C240.831 161.603 240.601 173.403 240.601 173.403Z" fill="#3BADD4"/>
<path d="M164.774 130.859C164.774 130.859 154.647 137.524 151.933 144.879C149.086 152.591 145.09 177.571 145.09 177.571H159.288L164.774 130.859Z" fill="#3BADD4"/>
<path d="M208.742 141.09C208.779 141.54 208.779 141.992 208.742 142.441C208.713 143.379 208.673 144.621 208.627 146.127C208.535 149.233 208.437 153.528 208.449 158.272C208.46 163.017 208.587 167.312 208.708 170.418C208.765 171.924 208.811 173.166 208.846 174.104C208.881 174.553 208.881 175.005 208.846 175.455C208.755 175.012 208.701 174.562 208.685 174.109C208.604 173.247 208.506 171.988 208.414 170.435C208.224 167.324 208.058 163.028 208.04 158.272C208.023 153.517 208.167 149.221 208.339 146.11C208.42 144.557 208.506 143.304 208.581 142.435C208.6 141.983 208.654 141.534 208.742 141.09Z" fill="#263238"/>
<path d="M224.648 128.215C224.648 128.296 223.59 128.014 221.876 128.043C219.645 128.066 217.462 128.694 215.56 129.861C213.658 131.028 212.109 132.689 211.077 134.667C210.278 136.18 210.053 137.238 209.979 137.221C209.983 136.967 210.026 136.715 210.105 136.473C210.278 135.806 210.519 135.159 210.824 134.541C211.816 132.465 213.387 130.72 215.348 129.516C217.309 128.312 219.576 127.701 221.876 127.755C222.567 127.767 223.254 127.846 223.929 127.991C224.179 128.028 224.422 128.104 224.648 128.215Z" fill="#263238"/>
<path d="M158.269 148.318C158.296 148.457 158.31 148.597 158.31 148.738C158.31 149.06 158.31 149.457 158.344 149.94C158.344 150.981 158.379 152.487 158.379 154.351C158.379 158.077 158.321 163.224 158.212 168.905C158.103 174.587 157.993 179.676 157.918 183.454C157.884 185.271 157.855 186.766 157.832 187.865C157.832 188.348 157.798 188.745 157.786 189.067C157.794 189.206 157.78 189.346 157.746 189.481C157.716 189.345 157.702 189.206 157.706 189.067C157.706 188.745 157.706 188.348 157.671 187.865C157.671 186.824 157.637 185.317 157.637 183.454C157.637 179.728 157.694 174.581 157.803 168.894C157.913 163.207 158.016 158.123 158.091 154.351C158.131 152.528 158.16 151.038 158.183 149.94C158.183 149.457 158.218 149.06 158.223 148.738C158.219 148.597 158.234 148.455 158.269 148.318Z" fill="#263238"/>
<path d="M157.908 160.734C156.309 160.869 154.704 160.906 153.1 160.843C151.495 160.878 149.89 160.812 148.293 160.648C149.892 160.512 151.497 160.476 153.1 160.538C154.705 160.5 156.311 160.565 157.908 160.734Z" fill="white"/>
<path d="M208.201 152.179C208.201 152.259 197.275 152.328 183.847 152.328C170.42 152.328 159.482 152.259 159.482 152.179C159.482 152.098 170.408 152.029 183.847 152.029C197.286 152.029 208.201 152.081 208.201 152.179Z" fill="white"/>
<path d="M239.917 147.105C239.81 147.118 239.702 147.118 239.595 147.105L238.686 147.031L235.351 146.743C232.527 146.507 228.628 146.249 224.315 146.128C220.002 146.007 216.092 146.059 213.263 146.128L209.91 146.231H209.002C208.895 146.247 208.786 146.247 208.68 146.231C208.783 146.204 208.889 146.189 208.996 146.185L209.905 146.105C210.698 146.042 211.837 145.973 213.257 145.904C216.086 145.771 219.997 145.697 224.321 145.812C228.646 145.927 232.55 146.226 235.368 146.513C236.777 146.657 237.915 146.789 238.698 146.898L239.6 147.025C239.709 147.038 239.815 147.065 239.917 147.105Z" fill="white"/>
<path d="M240.215 169.067C240.215 169.153 233.079 169.067 224.286 168.86C215.494 168.653 208.352 168.429 208.357 168.348C208.363 168.268 215.488 168.348 224.292 168.561C233.096 168.774 240.215 168.986 240.215 169.067Z" fill="white"/>
<path d="M211.515 133.712C211.515 133.798 200.255 133.862 186.368 133.862C172.48 133.862 161.221 133.798 161.221 133.712C161.221 133.626 172.48 133.562 186.368 133.562C200.255 133.562 211.515 133.632 211.515 133.712Z" fill="white"/>
<path d="M208.363 175.495C208.363 175.576 197.069 175.645 183.136 175.645C169.202 175.645 157.908 175.576 157.908 175.495C157.908 175.415 169.202 175.346 183.136 175.346C197.069 175.346 208.363 175.409 208.363 175.495Z" fill="white"/>
<path d="M211.987 193.943C211.987 194.024 199.704 194.093 184.557 194.093C169.41 194.093 157.121 194.024 157.121 193.943C157.121 193.863 169.404 193.794 184.557 193.794C199.71 193.794 211.987 193.857 211.987 193.943Z" fill="white"/>
<path d="M239.757 247.136C239.757 247.216 221.234 247.285 198.393 247.285C175.552 247.285 157.029 247.216 157.029 247.136C157.029 247.055 175.546 246.986 198.393 246.986C221.24 246.986 239.757 247.061 239.757 247.136Z" fill="white"/>
<g opacity="0.3">
<path opacity="0.3" d="M208.621 177.037C208.253 169.711 208.518 162.857 208.144 155.536C205.65 166.279 204.472 177.286 204.636 188.314C204.676 190.931 204.803 193.593 205.648 196.072C206.494 198.55 208.834 200.672 211.226 201.73L211.456 176.721C210.381 176.802 209.702 176.986 208.621 177.037Z" fill="black"/>
</g>
<path d="M45.8462 222.035L41.7 249.275H17.611L12.0215 222.426L45.8462 222.035Z" fill="#3BADD4"/>
<path d="M15.3906 239.493C15.3906 239.574 21.561 239.637 29.1919 239.637C36.8229 239.637 42.9932 239.574 42.9932 239.493C42.9932 239.413 36.8229 239.355 29.1919 239.355C21.561 239.355 15.3906 239.419 15.3906 239.493Z" fill="#FAFAFA"/>
<path d="M15.2988 238.154C15.2988 238.234 21.5094 238.297 29.1749 238.297C36.8404 238.297 43.051 238.234 43.051 238.154C43.051 238.073 36.8404 238.016 29.1749 238.016C21.5094 238.016 15.2988 238.079 15.2988 238.154Z" fill="#FAFAFA"/>
<path d="M15.3438 236.642C15.3438 236.722 21.5543 236.786 29.2198 236.786C36.8853 236.786 43.0959 236.722 43.0959 236.642C43.0959 236.561 36.8853 236.498 29.2198 236.498C21.5543 236.498 15.3438 236.561 15.3438 236.642Z" fill="#FAFAFA"/>
<path d="M38.9336 247.723C39.2675 246.594 39.5136 245.44 39.6697 244.273C39.916 243.128 40.0699 241.964 40.1297 240.794C39.7908 241.922 39.5447 243.076 39.3936 244.244C39.1439 245.389 38.99 246.553 38.9336 247.723Z" fill="#FAFAFA"/>
<path d="M37.2944 247.436C37.4581 246.327 37.558 245.209 37.5934 244.089C37.715 242.974 37.7668 241.852 37.7487 240.73C37.4861 241.824 37.3396 242.942 37.3117 244.066C37.1834 245.185 37.1776 246.315 37.2944 247.436Z" fill="#FAFAFA"/>
<path d="M34.3027 247.436C34.8657 245.179 35.1381 242.861 35.1136 240.535C34.8944 241.676 34.7389 242.828 34.6478 243.985C34.4709 245.129 34.3557 246.28 34.3027 247.436Z" fill="#FAFAFA"/>
<path d="M32.2052 247.58C32.5748 245.268 32.6502 242.918 32.4295 240.587C32.3048 241.748 32.2472 242.915 32.2569 244.083C32.1703 245.247 32.153 246.414 32.2052 247.58Z" fill="#FAFAFA"/>
<path d="M28.496 247.436C28.6783 246.342 28.7649 245.233 28.7548 244.124C28.8378 243.019 28.8263 241.909 28.7203 240.806C28.5453 241.901 28.4607 243.009 28.4673 244.118C28.3878 245.223 28.3974 246.333 28.496 247.436Z" fill="#FAFAFA"/>
<path d="M25.7881 247.579C25.9247 246.434 25.9632 245.28 25.9031 244.129C25.9408 242.985 25.8831 241.841 25.7306 240.707C25.6015 241.852 25.565 243.006 25.6213 244.157C25.5836 245.301 25.6394 246.445 25.7881 247.579Z" fill="#FAFAFA"/>
<path d="M23.2452 247.211C23.2739 246.015 23.2046 244.819 23.0382 243.634C22.9688 242.441 22.8073 241.254 22.5552 240.086C22.5264 241.282 22.5956 242.478 22.7622 243.663C22.8316 244.856 22.9931 246.042 23.2452 247.211Z" fill="#FAFAFA"/>
<path d="M19.9676 246.855C19.9633 245.828 19.828 244.805 19.5651 243.813C19.3919 242.801 19.0904 241.815 18.668 240.88C18.8206 241.889 19.0279 242.889 19.289 243.876C19.4571 244.881 19.6837 245.876 19.9676 246.855Z" fill="#FAFAFA"/>
<path d="M22.2924 168.279C22.2854 168.325 22.2854 168.372 22.2924 168.417C22.2924 168.521 22.3556 168.647 22.4016 168.803C22.5166 169.159 22.6662 169.648 22.8617 170.269C23.0572 170.89 23.316 171.689 23.569 172.604C23.822 173.518 24.1441 174.547 24.4373 175.709C24.7306 176.871 25.0756 178.13 25.3747 179.504C25.6737 180.879 25.99 182.339 26.3063 183.892C26.8813 186.997 27.4104 190.43 27.7784 194.053C28.1464 197.676 28.2959 201.155 28.3535 204.318C28.3535 205.894 28.3535 207.395 28.3132 208.803C28.2729 210.212 28.2097 211.512 28.1407 212.708C28.0717 213.904 27.9797 214.974 27.9049 215.923C27.8302 216.871 27.7496 217.682 27.6691 218.349C27.5886 219.016 27.5484 219.499 27.5139 219.879C27.5139 220.04 27.5024 220.172 27.4794 220.276C27.4794 220.368 27.4794 220.414 27.4794 220.414C27.4987 220.372 27.5103 220.327 27.5139 220.281C27.5139 220.178 27.5484 220.046 27.5771 219.885C27.6231 219.517 27.6979 219.005 27.7841 218.361C27.8704 217.717 27.9797 216.883 28.0659 215.94C28.1522 214.997 28.2787 213.916 28.3477 212.72C28.4167 211.523 28.5145 210.218 28.549 208.809C28.5835 207.4 28.6122 205.899 28.6237 204.312C28.5892 201.149 28.434 197.665 28.0487 194.03C27.6634 190.396 27.1401 186.951 26.5478 183.84C26.2258 182.288 25.9382 180.815 25.5932 179.447C25.2482 178.078 24.9376 176.807 24.6213 175.657C24.3051 174.507 23.983 173.466 23.707 172.558C23.431 171.649 23.178 170.867 22.9537 170.257C22.7294 169.648 22.5684 169.159 22.4476 168.803C22.3901 168.653 22.3441 168.527 22.3096 168.429C22.3072 168.379 22.3014 168.329 22.2924 168.279Z" fill="#263238"/>
<path d="M26.6393 185.147C25.9761 183.182 24.6507 181.509 22.89 180.414C22.3149 180.046 21.5444 179.747 20.9118 180.052C20.0722 180.46 20.0032 181.639 20.2562 182.542C20.6931 184.072 21.6697 185.391 23.005 186.256C24.1786 187.126 25.6483 187.496 27.0936 187.286" fill="#263238"/>
<path d="M28.0999 196.538C27.4789 194.186 25.6042 190.845 23.6548 189.384C23.3561 189.141 23.0121 188.959 22.6427 188.849C22.4577 188.794 22.2616 188.786 22.0727 188.826C21.8837 188.866 21.708 188.953 21.5616 189.079C21.3954 189.3 21.2864 189.558 21.2442 189.831C21.2021 190.104 21.2281 190.383 21.3201 190.644C21.7197 192.358 22.5886 193.928 23.8297 195.177C25.0708 196.427 26.6349 197.306 28.3472 197.717" fill="#263238"/>
<path d="M28.5006 206.561C27.5335 204.317 25.9851 202.372 24.0152 200.926C23.8069 200.729 23.5609 200.576 23.2921 200.478C23.0232 200.379 22.7371 200.336 22.451 200.351C21.5999 200.5 21.2146 201.541 21.3009 202.404C21.4562 204.175 22.8133 205.601 24.2107 206.699C25.4934 207.589 26.8873 208.306 28.3568 208.833" fill="#263238"/>
<path d="M28.278 213.772C27.3433 212.057 26.039 210.572 24.4597 209.424C24.121 209.167 23.7274 208.992 23.3096 208.912C23.0972 208.868 22.8766 208.884 22.6731 208.959C22.4695 209.034 22.2915 209.166 22.1594 209.338C21.7742 209.913 22.1594 210.661 22.5505 211.207C23.8969 213.081 25.8039 214.478 27.9962 215.198" fill="#263238"/>
<path d="M28.4672 210.834C30.112 208.818 31.9409 206.961 33.9302 205.284C34.0628 205.131 34.2318 205.013 34.4217 204.942C34.6115 204.87 34.8162 204.848 35.0171 204.876C35.1623 204.936 35.2869 205.037 35.3757 205.167C35.4645 205.297 35.5137 205.449 35.5174 205.606C35.5174 205.923 35.4467 206.235 35.3104 206.521C34.6577 207.97 33.6871 209.253 32.4706 210.275C31.254 211.298 29.8228 212.033 28.2832 212.426" fill="#263238"/>
<path d="M28.2891 201.466L32.579 196.239C32.9563 195.715 33.4283 195.267 33.9706 194.916C34.2466 194.75 34.5627 194.662 34.8849 194.662C35.2072 194.662 35.5233 194.75 35.7993 194.916C36.0463 195.122 36.231 195.392 36.3326 195.697C36.4342 196.002 36.4486 196.329 36.3743 196.642C36.221 197.27 35.9347 197.858 35.5347 198.367C34.7018 199.633 33.648 200.739 32.4237 201.633C31.1643 202.501 30.02 203.065 28.5076 202.841" fill="#263238"/>
<path d="M27.6973 190.902C28.5346 188.399 30.0232 186.164 32.0102 184.427C32.327 184.108 32.7246 183.882 33.1603 183.771C33.5974 183.737 34.0329 183.856 34.3918 184.108C34.7507 184.36 35.0107 184.729 35.127 185.152C35.2647 185.625 35.3011 186.122 35.2337 186.611C35.1663 187.099 34.9967 187.568 34.7359 187.987C34.214 188.825 33.5296 189.55 32.7232 190.12C31.2785 191.222 29.6699 192.092 27.956 192.696" fill="#263238"/>
<path d="M25.9844 181.506C26.3984 178.475 27.9741 175.951 29.8027 173.501C30.188 172.983 30.7286 172.437 31.3611 172.535C31.5627 172.577 31.7505 172.669 31.9072 172.803C32.0639 172.937 32.1846 173.107 32.2582 173.3C32.4003 173.687 32.4572 174.101 32.425 174.513C32.3466 176.349 31.7287 178.122 30.6487 179.609C29.5687 181.096 28.0743 182.232 26.3524 182.874" fill="#263238"/>
<path d="M24.7809 176.675C24.9791 175.123 25.0311 173.556 24.9362 171.994C24.8388 170.422 24.3007 168.91 23.3836 167.629C23.0003 167.08 22.4702 166.65 21.8539 166.387C21.5407 166.262 21.2006 166.22 20.8662 166.264C20.5319 166.308 20.2146 166.438 19.9447 166.64C19.7165 166.854 19.5391 167.117 19.4257 167.408C19.3122 167.7 19.2656 168.013 19.2892 168.325C19.3467 168.946 19.51 169.553 19.7722 170.119C20.9223 172.868 22.82 175.91 24.8097 176.675" fill="#263238"/>
<path d="M43.4601 180.286C43.4464 180.414 43.4464 180.543 43.4601 180.671C43.4601 180.953 43.4601 181.315 43.4601 181.77C43.4601 182.224 43.4601 182.834 43.4313 183.495C43.4026 184.156 43.4313 184.944 43.3508 185.795C43.2761 187.52 43.1093 189.522 42.8505 191.764C42.5917 194.007 42.1547 196.457 41.6314 199.016C41.1081 201.575 40.4813 203.961 39.8085 206.123C39.1357 208.286 38.4801 210.195 37.8648 211.788C37.5773 212.587 37.2897 213.3 37.0195 213.927C36.7492 214.554 36.5364 215.077 36.3409 215.531L35.9154 216.543C35.8592 216.66 35.8131 216.781 35.7773 216.906C35.8512 216.799 35.9148 216.685 35.9671 216.566C36.0879 216.313 36.2431 215.991 36.4444 215.577C36.6457 215.163 36.8987 214.617 37.1632 213.99C37.4278 213.363 37.7383 212.662 38.0546 211.862C38.6929 210.275 39.3772 208.355 40.0557 206.198C40.7343 204.042 41.3611 201.626 41.9074 199.073C42.4537 196.52 42.8103 194.059 43.0575 191.81C43.3048 189.562 43.4486 187.532 43.4946 185.818C43.5406 184.967 43.5291 184.191 43.5348 183.518C43.5406 182.845 43.5348 182.253 43.5348 181.793C43.5348 181.333 43.5348 180.976 43.4946 180.694C43.4997 180.557 43.4881 180.42 43.4601 180.286Z" fill="#263238"/>
<path d="M42.7861 192.708C42.757 191.23 42.2164 189.807 41.2565 188.683C41.1153 188.476 40.9258 188.306 40.7043 188.189C40.4829 188.072 40.2362 188.01 39.9856 188.01C39.3243 188.108 39.0253 188.895 39.0023 189.562C38.9671 190.695 39.3429 191.802 40.0604 192.679C40.6723 193.522 41.5916 194.09 42.6194 194.261" fill="#263238"/>
<path d="M41.3317 200.781C41.4122 199.056 40.8544 196.364 39.8423 194.955C39.6909 194.727 39.4953 194.532 39.2672 194.38C39.1517 194.305 39.0194 194.259 38.882 194.247C38.7445 194.235 38.6063 194.257 38.4794 194.311C38.3169 194.422 38.1856 194.573 38.098 194.749C38.0104 194.925 37.9695 195.121 37.9791 195.318C37.8823 196.571 38.136 197.826 38.7118 198.943C39.2877 200.06 40.1629 200.995 41.2397 201.643" fill="#263238"/>
<path d="M39.4465 207.694C39.2734 205.956 38.6402 204.297 37.6121 202.886C37.5092 202.71 37.3723 202.557 37.2094 202.434C37.0465 202.312 36.8608 202.223 36.6633 202.173C36.0537 202.093 35.5649 202.719 35.4326 203.323C35.1566 204.56 35.7719 205.819 36.485 206.871C37.1683 207.752 37.9627 208.541 38.8485 209.217" fill="#263238"/>
<path d="M37.742 212.559C37.4723 211.193 36.9049 209.903 36.0801 208.781C35.9009 208.542 35.6711 208.346 35.4073 208.206C35.2732 208.136 35.1226 208.104 34.9717 208.113C34.8208 208.122 34.6752 208.172 34.5505 208.257C34.1709 208.556 34.2572 209.149 34.4182 209.609C34.9366 211.18 35.9441 212.544 37.2935 213.502" fill="#263238"/>
<path d="M38.5321 210.598C40.0848 209.579 41.7288 208.707 43.4431 207.993C43.5659 207.915 43.7063 207.871 43.8512 207.863C43.996 207.855 44.1405 207.883 44.2711 207.947C44.3521 208.016 44.4122 208.106 44.4447 208.208C44.4772 208.309 44.4808 208.418 44.4552 208.522C44.3878 208.737 44.2717 208.934 44.1159 209.097C43.3606 209.944 42.4239 210.61 41.3754 211.045C40.327 211.48 39.1939 211.673 38.0605 211.61" fill="#263238"/>
<path d="M40.4011 204.174C41.7506 203.3 43.0924 202.422 44.4265 201.54C44.7985 201.272 45.2181 201.077 45.6629 200.965C45.8839 200.889 46.1235 200.884 46.3474 200.952C46.5712 201.02 46.768 201.156 46.9096 201.342C47.0511 201.529 47.1303 201.755 47.1356 201.989C47.141 202.222 47.0724 202.452 46.9395 202.645C46.698 203.037 46.3767 203.374 45.9964 203.634C45.154 204.331 44.1913 204.869 43.1557 205.221C42.6937 205.417 42.197 205.519 41.695 205.519C41.1931 205.519 40.6963 205.417 40.2344 205.221" fill="#263238"/>
<path d="M42.2691 196.859C43.3808 195.337 44.8744 194.135 46.5992 193.374C46.8804 193.232 47.1929 193.163 47.5078 193.173C47.8128 193.244 48.0835 193.418 48.2735 193.667C48.4635 193.916 48.5608 194.223 48.5487 194.536C48.5389 194.888 48.4556 195.234 48.304 195.552C48.1525 195.87 47.9361 196.152 47.6688 196.382C47.1338 196.84 46.5119 197.186 45.8402 197.4C44.6195 197.841 43.3365 198.085 42.0391 198.124" fill="#263238"/>
<path d="M43.1319 190.08C44.0635 188.108 45.6794 186.727 47.4506 185.451C47.6159 185.291 47.8201 185.177 48.0431 185.12C48.2661 185.064 48.5 185.067 48.7215 185.129C48.8499 185.201 48.9583 185.304 49.0366 185.428C49.115 185.553 49.1609 185.695 49.17 185.842C49.1837 186.137 49.1327 186.431 49.0205 186.704C48.5716 187.938 47.7693 189.012 46.7139 189.792C45.6585 190.572 44.3967 191.024 43.0859 191.092" fill="#263238"/>
<path d="M43.3505 186.549C43.8191 185.534 44.1907 184.477 44.4604 183.392C44.7338 182.301 44.6939 181.155 44.3454 180.085C44.1919 179.636 43.9172 179.238 43.5518 178.935C43.3652 178.782 43.1424 178.679 42.9048 178.637C42.6672 178.595 42.4226 178.614 42.1947 178.694C41.9937 178.79 41.817 178.931 41.6777 179.105C41.5383 179.279 41.4399 179.483 41.3896 179.7C41.2899 180.134 41.2704 180.582 41.3321 181.023C41.5161 183.139 42.1602 185.623 43.3505 186.578" fill="#263238"/>
<path d="M13.0057 180.022C12.9971 180.151 12.9971 180.279 13.0057 180.408C13.0057 180.69 12.977 181.052 12.9655 181.506C12.954 181.96 12.931 182.57 12.9655 183.231C13 183.893 12.9655 184.686 13.0057 185.531C13.0575 187.257 13.2013 189.275 13.4428 191.524C13.6843 193.772 14.0868 196.233 14.5929 198.786C15.0989 201.34 15.7775 203.749 16.4388 205.911C17.1001 208.074 17.8017 209.989 18.4458 211.576C18.7505 212.375 19.0668 213.077 19.3371 213.703C19.6074 214.33 19.8431 214.854 20.0559 215.291L20.5332 216.28C20.5825 216.399 20.6442 216.513 20.7172 216.619C20.6822 216.495 20.638 216.374 20.585 216.257L20.1307 215.268C19.9351 214.83 19.7051 214.296 19.4579 213.663C19.2106 213.031 18.8828 212.323 18.6068 211.524C17.9915 209.931 17.3302 208.01 16.6631 205.86C15.996 203.709 15.3807 201.299 14.8402 198.758C14.2996 196.216 13.9316 193.761 13.6498 191.524C13.368 189.287 13.23 187.257 13.1553 185.531C13.0977 184.68 13.092 183.91 13.069 183.231C13.046 182.553 13.069 181.966 13.069 181.506C13.069 181.046 13.069 180.69 13.069 180.408C13.0643 180.277 13.043 180.148 13.0057 180.022Z" fill="#455A64"/>
<path d="M13.6758 192.433C13.7047 190.953 14.2475 189.53 15.2112 188.407C15.3507 188.2 15.5391 188.03 15.7597 187.913C15.9803 187.795 16.2264 187.734 16.4763 187.734C17.1376 187.832 17.4366 188.62 17.4596 189.287C17.504 190.429 17.1298 191.547 16.4073 192.433C15.7936 193.276 14.8721 193.845 13.8425 194.014" fill="#455A64"/>
<path d="M15.1327 200.517C15.0522 198.792 15.61 196.101 16.6221 194.692C16.7738 194.464 16.9693 194.269 17.1971 194.117C17.3116 194.041 17.443 193.996 17.5794 193.984C17.7159 193.972 17.8533 193.994 17.9792 194.048C18.1417 194.159 18.273 194.309 18.3606 194.486C18.4482 194.662 18.4891 194.858 18.4795 195.054C18.5776 196.307 18.3245 197.563 17.7485 198.68C17.1726 199.798 16.2966 200.733 15.2189 201.38" fill="#455A64"/>
<path d="M17.0195 207.429C17.1973 205.692 17.8323 204.033 18.8597 202.621C18.9617 202.446 19.0977 202.293 19.2596 202.17C19.4215 202.048 19.6061 201.959 19.8028 201.908C20.4181 201.828 20.9011 202.455 21.0392 203.058C21.3152 204.295 20.6999 205.56 19.9811 206.607C19.2994 207.489 18.5047 208.278 17.6176 208.953" fill="#455A64"/>
<path d="M18.7266 212.288C18.9943 210.928 19.5621 209.645 20.3885 208.533C20.5656 208.294 20.7935 208.098 21.0555 207.958C21.1896 207.888 21.3402 207.856 21.4911 207.865C21.642 207.874 21.7877 207.924 21.9124 208.009C22.2919 208.308 22.2114 208.906 22.0504 209.361C21.5295 210.931 20.5225 212.294 19.1751 213.254" fill="#455A64"/>
<path d="M17.967 210.334C16.4123 209.315 14.7663 208.443 13.0502 207.729C12.9274 207.652 12.787 207.607 12.6421 207.599C12.4973 207.591 12.3528 207.62 12.2222 207.683C12.137 207.755 12.0747 207.851 12.0431 207.958C12.0114 208.065 12.0117 208.18 12.0439 208.287C12.1092 208.502 12.2234 208.698 12.3774 208.862C13.133 209.709 14.0697 210.375 15.1181 210.81C16.1665 211.245 17.2995 211.438 18.4328 211.375" fill="#455A64"/>
<path d="M16.0636 203.933L12.0383 201.299C11.6676 201.032 11.2502 200.837 10.8076 200.724C10.5849 200.666 10.3504 200.671 10.1302 200.738C9.90994 200.805 9.71252 200.931 9.55977 201.103C9.43285 201.295 9.36281 201.519 9.35772 201.749C9.35263 201.979 9.41271 202.206 9.53101 202.403C9.76923 202.781 10.0824 203.106 10.4511 203.358C11.2944 204.054 12.2568 204.592 13.2919 204.945C13.7547 205.141 14.2525 205.243 14.7554 205.243C15.2583 205.243 15.756 205.141 16.2189 204.945" fill="#455A64"/>
<path d="M14.1944 196.595C13.0854 195.071 11.591 193.868 9.86429 193.11C9.58521 192.968 9.27458 192.899 8.96145 192.909C8.656 192.98 8.38457 193.154 8.19364 193.403C8.0027 193.652 7.90415 193.959 7.91485 194.272C7.92464 194.624 8.00797 194.97 8.1595 195.288C8.31102 195.606 8.52739 195.889 8.79469 196.118C9.32976 196.577 9.95167 196.923 10.6234 197.136C11.8441 197.577 13.1271 197.822 14.4245 197.86" fill="#455A64"/>
<path d="M13.3378 189.815C12.4005 187.843 10.7846 186.463 9.01339 185.186C8.84846 185.025 8.64418 184.911 8.4211 184.855C8.19802 184.798 7.96398 184.801 7.74252 184.864C7.6155 184.937 7.50856 185.04 7.43128 185.165C7.35401 185.289 7.3088 185.431 7.29973 185.577C7.28404 185.871 7.33312 186.166 7.44349 186.439C7.89308 187.672 8.69548 188.746 9.75074 189.526C10.806 190.306 12.0675 190.759 13.3781 190.827" fill="#455A64"/>
<path d="M13.1186 186.284C12.6482 185.27 12.2746 184.213 12.003 183.127C11.7315 182.036 11.7733 180.89 12.1238 179.821C12.2661 179.355 12.5421 178.941 12.9173 178.63C13.1028 178.477 13.3246 178.375 13.5613 178.332C13.7981 178.29 14.0417 178.31 14.2687 178.389C14.4705 178.485 14.6481 178.626 14.7885 178.8C14.9288 178.974 15.0283 179.178 15.0795 179.395C15.1735 179.83 15.193 180.277 15.137 180.718C14.9473 182.84 14.309 185.318 13.1186 186.273" fill="#455A64"/>
<path d="M48.6058 216.641V221.759C48.6058 222.022 48.5539 222.283 48.453 222.527C48.3521 222.77 48.2043 222.991 48.018 223.178C47.8316 223.364 47.6103 223.512 47.3669 223.613C47.1234 223.714 46.8624 223.766 46.5988 223.766H11.7218C11.4582 223.766 11.1973 223.714 10.9538 223.613C10.7103 223.512 10.489 223.364 10.3027 223.178C10.1163 222.991 9.96847 222.77 9.86761 222.527C9.76675 222.283 9.71484 222.022 9.71484 221.759V216.641H48.6058Z" fill="#3BADD4"/>
<g opacity="0.4">
<path opacity="0.4" d="M45.581 223.744L45.2935 225.366L13.1135 227.66L12.2969 223.744H45.581Z" fill="black"/>
</g>
<path d="M255.946 249.167C255.946 249.248 199.015 249.317 128.818 249.317C58.6216 249.317 1.67969 249.248 1.67969 249.167C1.67969 249.087 58.6101 249.018 128.818 249.018C199.027 249.018 255.946 249.081 255.946 249.167Z" fill="#263238"/>
</svg>
