<svg width="103" height="25" viewBox="0 0 103 25" fill="none" xmlns="http://www.w3.org/2000/svg">
<path d="M14.575 1.45215V19.2021H11.75V11.3771H2.8V19.2021H1.41561e-07V1.45215H2.8V8.87715H11.75V1.45215H14.575ZM23.9832 19.4521C22.9665 19.4521 22.0415 19.2771 21.2082 18.9271C20.3749 18.5605 19.6582 18.0688 19.0582 17.4521C18.4749 16.8355 18.0165 16.1188 17.6832 15.3021C17.3665 14.4855 17.2082 13.6188 17.2082 12.7021C17.2082 11.7855 17.3665 10.9188 17.6832 10.1021C18.0165 9.26881 18.4749 8.54381 19.0582 7.92715C19.6582 7.29381 20.3749 6.80215 21.2082 6.45215C22.0415 6.08548 22.9749 5.90215 24.0082 5.90215C25.0249 5.90215 25.9415 6.08548 26.7582 6.45215C27.5915 6.81881 28.2999 7.31048 28.8832 7.92715C29.4665 8.52715 29.9082 9.23548 30.2082 10.0521C30.5249 10.8521 30.6832 11.6938 30.6832 12.5771C30.6832 12.7771 30.6749 12.9688 30.6582 13.1521C30.6415 13.3188 30.6249 13.4605 30.6082 13.5771H20.1332C20.1832 14.1605 20.3165 14.6855 20.5332 15.1521C20.7665 15.6188 21.0582 16.0271 21.4082 16.3771C21.7749 16.7105 22.1832 16.9688 22.6332 17.1521C23.0999 17.3355 23.5832 17.4271 24.0832 17.4271C24.4499 17.4271 24.8082 17.3855 25.1582 17.3021C25.5249 17.2021 25.8582 17.0688 26.1582 16.9021C26.4582 16.7188 26.7249 16.5021 26.9582 16.2521C27.1915 16.0021 27.3749 15.7271 27.5082 15.4271L29.8582 16.1021C29.4082 17.0855 28.6582 17.8938 27.6082 18.5271C26.5749 19.1438 25.3665 19.4521 23.9832 19.4521ZM27.9582 11.6771C27.9082 11.1271 27.7665 10.6188 27.5332 10.1521C27.3165 9.68548 27.0332 9.29381 26.6832 8.97715C26.3332 8.64381 25.9249 8.38548 25.4582 8.20215C24.9915 8.01881 24.4999 7.92715 23.9832 7.92715C23.4665 7.92715 22.9749 8.01881 22.5082 8.20215C22.0582 8.38548 21.6582 8.64381 21.3082 8.97715C20.9582 9.29381 20.6749 9.68548 20.4582 10.1521C20.2415 10.6188 20.1082 11.1271 20.0582 11.6771H27.9582ZM32.9514 0.952148H35.7014V15.4271C35.7014 15.9105 35.8264 16.2938 36.0764 16.5771C36.3264 16.8438 36.6764 16.9771 37.1264 16.9771C37.3097 16.9771 37.518 16.9438 37.7514 16.8771C38.0014 16.8105 38.2347 16.7355 38.4514 16.6521L38.8514 18.8021C38.4514 18.9855 37.9764 19.1271 37.4264 19.2271C36.8764 19.3438 36.3847 19.4021 35.9514 19.4021C35.0014 19.4021 34.2597 19.1438 33.7264 18.6271C33.2097 18.1105 32.9514 17.3771 32.9514 16.4271V0.952148ZM47.8709 19.4521C46.8209 19.4521 45.8959 19.2021 45.0959 18.7021C44.2959 18.2021 43.6626 17.5521 43.1959 16.7521V24.5271H40.4459V6.12715H42.8709V8.47715C43.3709 7.69381 44.0126 7.06881 44.7959 6.60215C45.5959 6.13548 46.4959 5.90215 47.4959 5.90215C48.3959 5.90215 49.2209 6.08548 49.9709 6.45215C50.7209 6.81881 51.3709 7.31048 51.9209 7.92715C52.4709 8.54381 52.8959 9.26048 53.1959 10.0771C53.5126 10.8938 53.6709 11.7521 53.6709 12.6521C53.6709 13.6021 53.5292 14.4938 53.2459 15.3271C52.9626 16.1438 52.5626 16.8605 52.0459 17.4771C51.5292 18.0771 50.9126 18.5605 50.1959 18.9271C49.4959 19.2771 48.7209 19.4521 47.8709 19.4521ZM46.9709 17.1021C47.5542 17.1021 48.0792 16.9771 48.5459 16.7271C49.0292 16.4771 49.4376 16.1438 49.7709 15.7271C50.1209 15.3105 50.3876 14.8355 50.5709 14.3021C50.7542 13.7688 50.8459 13.2188 50.8459 12.6521C50.8459 12.0521 50.7376 11.4855 50.5209 10.9521C50.3209 10.4188 50.0376 9.95215 49.6709 9.55215C49.3209 9.15215 48.8959 8.83548 48.3959 8.60215C47.8959 8.36881 47.3542 8.25215 46.7709 8.25215C46.4209 8.25215 46.0542 8.31881 45.6709 8.45215C45.2876 8.58548 44.9292 8.76881 44.5959 9.00215C44.2626 9.23548 43.9709 9.51048 43.7209 9.82715C43.4709 10.1271 43.2959 10.4605 43.1959 10.8271V14.2521C43.3626 14.6521 43.5792 15.0271 43.8459 15.3771C44.1126 15.7271 44.4042 16.0271 44.7209 16.2771C45.0542 16.5271 45.4126 16.7271 45.7959 16.8771C46.1792 17.0271 46.5709 17.1021 46.9709 17.1021ZM63.5691 19.4521C62.5191 19.4521 61.5941 19.2021 60.7941 18.7021C59.9941 18.2021 59.3608 17.5521 58.8941 16.7521V24.5271H56.1441V6.12715H58.5691V8.47715C59.0691 7.69381 59.7108 7.06881 60.4941 6.60215C61.2941 6.13548 62.1941 5.90215 63.1941 5.90215C64.0941 5.90215 64.9191 6.08548 65.6691 6.45215C66.4191 6.81881 67.0691 7.31048 67.6191 7.92715C68.1691 8.54381 68.5941 9.26048 68.8941 10.0771C69.2108 10.8938 69.3691 11.7521 69.3691 12.6521C69.3691 13.6021 69.2275 14.4938 68.9441 15.3271C68.6608 16.1438 68.2608 16.8605 67.7441 17.4771C67.2275 18.0771 66.6108 18.5605 65.8941 18.9271C65.1941 19.2771 64.4191 19.4521 63.5691 19.4521ZM62.6691 17.1021C63.2525 17.1021 63.7775 16.9771 64.2441 16.7271C64.7275 16.4771 65.1358 16.1438 65.4691 15.7271C65.8191 15.3105 66.0858 14.8355 66.2691 14.3021C66.4525 13.7688 66.5441 13.2188 66.5441 12.6521C66.5441 12.0521 66.4358 11.4855 66.2191 10.9521C66.0191 10.4188 65.7358 9.95215 65.3691 9.55215C65.0191 9.15215 64.5941 8.83548 64.0941 8.60215C63.5941 8.36881 63.0525 8.25215 62.4691 8.25215C62.1191 8.25215 61.7525 8.31881 61.3691 8.45215C60.9858 8.58548 60.6275 8.76881 60.2941 9.00215C59.9608 9.23548 59.6691 9.51048 59.4191 9.82715C59.1691 10.1271 58.9941 10.4605 58.8941 10.8271V14.2521C59.0608 14.6521 59.2775 15.0271 59.5441 15.3771C59.8108 15.7271 60.1025 16.0271 60.4191 16.2771C60.7525 16.5271 61.1108 16.7271 61.4941 16.8771C61.8775 17.0271 62.2691 17.1021 62.6691 17.1021ZM79.1924 8.50215C78.1257 8.53548 77.1757 8.78548 76.3424 9.25215C75.5257 9.70215 74.9424 10.3521 74.5924 11.2021V19.2021H71.8424V6.12715H74.3924V9.05215C74.8424 8.15215 75.4257 7.43548 76.1424 6.90215C76.8757 6.35215 77.659 6.05215 78.4924 6.00215C78.659 6.00215 78.7924 6.00215 78.8924 6.00215C79.009 6.00215 79.109 6.01048 79.1924 6.02715V8.50215ZM79.9205 19.2021V16.0021H82.1955V19.2021H79.9205ZM88.8428 19.4521C88.2094 19.4521 87.6178 19.3521 87.0678 19.1521C86.5344 18.9355 86.0678 18.6438 85.6678 18.2771C85.2844 17.9105 84.9761 17.4771 84.7428 16.9771C84.5261 16.4771 84.4178 15.9355 84.4178 15.3521C84.4178 14.7355 84.5511 14.1771 84.8178 13.6771C85.0844 13.1771 85.4594 12.7438 85.9428 12.3771C86.4428 12.0105 87.0261 11.7271 87.6928 11.5271C88.3761 11.3271 89.1261 11.2271 89.9428 11.2271C90.5594 11.2271 91.1678 11.2855 91.7678 11.4021C92.3678 11.5021 92.9094 11.6438 93.3928 11.8271V10.9271C93.3928 9.96048 93.1178 9.21048 92.5678 8.67715C92.0178 8.12715 91.2261 7.85215 90.1928 7.85215C89.4928 7.85215 88.8011 7.98548 88.1178 8.25215C87.4511 8.50215 86.7594 8.86881 86.0428 9.35215L85.1928 7.60215C86.8761 6.46881 88.6261 5.90215 90.4428 5.90215C92.2428 5.90215 93.6428 6.36048 94.6428 7.27715C95.6428 8.19381 96.1428 9.51048 96.1428 11.2271V15.9521C96.1428 16.5355 96.3844 16.8355 96.8678 16.8521V19.2021C96.6011 19.2521 96.3678 19.2855 96.1678 19.3021C95.9844 19.3188 95.8011 19.3271 95.6178 19.3271C95.0844 19.3271 94.6678 19.1938 94.3678 18.9271C94.0844 18.6605 93.9094 18.3188 93.8428 17.9021L93.7678 17.0771C93.1844 17.8438 92.4594 18.4355 91.5928 18.8521C90.7428 19.2521 89.8261 19.4521 88.8428 19.4521ZM89.5928 17.4271C90.2594 17.4271 90.8844 17.3105 91.4678 17.0771C92.0678 16.8271 92.5344 16.4855 92.8678 16.0521C93.2178 15.7521 93.3928 15.4355 93.3928 15.1021V13.3771C92.9261 13.1938 92.4261 13.0521 91.8928 12.9521C91.3761 12.8521 90.8678 12.8021 90.3678 12.8021C89.3844 12.8021 88.5761 13.0188 87.9428 13.4521C87.3261 13.8688 87.0178 14.4271 87.0178 15.1271C87.0178 15.7771 87.2594 16.3271 87.7428 16.7771C88.2261 17.2105 88.8428 17.4271 89.5928 17.4271ZM99.4791 19.2021V6.12715H102.229V19.2021H99.4791ZM99.4791 3.97715V0.952148H102.229V3.97715H99.4791Z" fill="#3BADD4"/>
</svg>
