<svg width="83" height="86" viewBox="0 0 83 86" fill="none" xmlns="http://www.w3.org/2000/svg">
<path d="M70.8466 33.6376V43.7311C69.8806 36.6938 64.5189 30.1036 59.8826 25.5899C55.4117 21.24 50.8403 18.0367 49.0566 16.8428C49.7307 17.115 50.3992 17.3869 51.0731 17.6588C56.8219 20.5043 69.3989 27.3721 70.8466 33.6376Z" fill="#1C9EC1"/>
<path d="M48.9275 14.9803C50.3752 12.5708 50.7405 10.5081 50.0154 8.8398C48.9705 6.43033 45.9746 5.51704 44.5293 5.20605H48.7948C50.5539 5.20605 51.1087 5.78078 51.2115 7.57407C51.3767 10.3834 50.6081 12.8455 48.9275 14.9803Z" fill="#1C9EC1"/>
<path d="M70.8467 43.7316C70.8467 43.7316 70.8467 43.7316 70.8467 43.7342V46.6103C70.8467 56.5288 70.8467 66.4502 70.8441 76.3687H13.6504V6.54171C13.6504 5.26184 13.7048 5.20361 14.9688 5.20361C24.5523 5.20361 34.136 5.20361 43.7197 5.20634H44.529C45.9742 5.51732 48.9702 6.43061 50.015 8.84008C50.7401 10.5084 50.3749 12.5711 48.9271 14.9806C48.7836 15.1666 48.6293 15.3498 48.4696 15.5301C48.3559 15.658 48.2639 15.7692 48.1962 15.8636C47.9907 16.1438 47.985 16.2965 48.2045 16.4518C48.3234 16.5354 48.5155 16.6213 48.778 16.7295C48.8703 16.7684 48.9649 16.8045 49.0568 16.8433C50.8404 18.0372 55.4118 21.2404 59.8827 25.5904C64.5189 30.104 69.8807 36.6943 70.8467 43.7316Z" fill="#3BADD4"/>
<path d="M25.1785 27.9639C28.4369 28.0691 30.2638 28.1214 30.6599 28.1214C31.0816 28.1214 32.915 28.0691 36.1608 27.9639L36.314 28.1016V29.0845L36.1608 29.2224C35.2792 29.2487 34.5987 29.288 34.1195 29.3403C33.6405 29.3926 33.2922 29.491 33.0749 29.6349C32.8576 29.7794 32.7138 30.1166 32.6436 30.6475C32.5732 31.1783 32.5384 31.9154 32.5384 32.8591L32.4998 37.3806V40.1328C35.2982 40.2113 37.9493 40.2504 40.4539 40.2504C43.878 40.2504 46.4845 40.2113 48.2736 40.1328V37.3806L48.2353 33.5471C48.2223 32.0531 48.1841 31.0896 48.1204 30.6575C48.0562 30.2249 47.967 29.9367 47.8521 29.7921C47.7371 29.6482 47.5069 29.5303 47.1621 29.4387C46.8171 29.3471 45.9609 29.275 44.5938 29.2224L44.4596 29.0845V28.1016L44.5938 27.9639C47.8646 28.0691 49.6982 28.1214 50.0945 28.1214C50.5287 28.1214 52.3625 28.0691 55.5952 27.9639L55.7486 28.1016V29.0845L55.5952 29.2224C54.7005 29.2487 54.0137 29.288 53.5347 29.3403C53.0557 29.3926 52.7074 29.491 52.4902 29.6349C52.2729 29.7794 52.1322 30.1166 52.0685 30.6475C52.0046 31.1783 51.9663 31.9154 51.9536 32.8591L51.9152 37.3806V46.4821L51.9536 50.3153C51.9662 51.7966 52.0046 52.7531 52.0685 53.1859C52.1323 53.6182 52.2248 53.9067 52.3463 54.0505C52.4677 54.1949 52.6979 54.316 53.0365 54.4144C53.3748 54.5123 54.2277 54.588 55.5952 54.6404L55.7486 54.7579V55.7411L55.5952 55.8983C52.3241 55.7935 50.4904 55.7411 50.0945 55.7411C49.6854 55.7411 47.8521 55.7935 44.5938 55.8983L44.4596 55.7411V54.7579L44.5938 54.6404C45.7948 54.588 46.5935 54.5223 46.9897 54.4436C47.3853 54.3648 47.6476 54.2636 47.7755 54.1388C47.9029 54.0148 48.0118 53.7491 48.1011 53.3429C48.1904 52.9367 48.2354 52.0323 48.2354 50.6296L48.2737 46.482V41.9999C44.4912 41.9212 41.8402 41.8822 40.32 41.8822C38.7609 41.8822 36.1544 41.9212 32.5 41.9999V46.482L32.5193 50.3152C32.5317 51.7965 32.5703 52.7529 32.6343 53.1857C32.6982 53.618 32.7907 53.9065 32.9123 54.0503C33.0333 54.1948 33.2668 54.3158 33.6117 54.4142C33.9569 54.5121 34.8064 54.5878 36.1609 54.6402L36.3141 54.7577V55.7409L36.1609 55.8981C32.9028 55.7934 31.069 55.7409 30.6601 55.7409C30.2639 55.7409 28.437 55.7933 25.1787 55.8981L25.0254 55.7409V54.7577L25.1787 54.6402C26.367 54.5878 27.1589 54.5221 27.5553 54.4434C27.9513 54.3646 28.2166 54.2634 28.3506 54.1387C28.4847 54.0146 28.5933 53.7489 28.6765 53.3427C28.7595 52.9365 28.8074 52.0321 28.8203 50.6295L28.8393 46.4818V37.3805L28.801 33.547C28.788 32.0531 28.7532 31.0895 28.6955 30.6574C28.6382 30.2248 28.5486 29.9366 28.4273 29.7921C28.3057 29.6481 28.0728 29.5302 27.7276 29.4386C27.3828 29.347 26.533 29.2749 25.1787 29.2223L25.0254 29.0844V28.1015L25.1785 27.9639Z" fill="#F3F3F3"/>
</svg>
