<svg width="425" height="317" viewBox="0 0 425 317" fill="none" xmlns="http://www.w3.org/2000/svg">
<path d="M424.704 278.096H0V278.308H424.704V278.096Z" fill="#EBEBEB"/>
<path d="M66.6432 286.182H44.5586V286.394H66.6432V286.182Z" fill="#EBEBEB"/>
<path d="M170.248 283.88H124.295V284.092H170.248V283.88Z" fill="#EBEBEB"/>
<path d="M89.8506 294.074H67.4941V294.287H89.8506V294.074Z" fill="#EBEBEB"/>
<path d="M382.149 292.646H365.814V292.859H382.149V292.646Z" fill="#EBEBEB"/>
<path d="M358.246 292.646H332.518V292.859H358.246V292.646Z" fill="#EBEBEB"/>
<path d="M265.685 289.062H219.342V289.275H265.685V289.062Z" fill="#EBEBEB"/>
<path d="M201.309 240.213H37.2967C36.0118 240.21 34.7804 239.698 33.8726 238.789C32.9649 237.88 32.4551 236.647 32.4551 235.362V4.80765C32.4663 3.53016 32.981 2.30867 33.8876 1.4085C34.7941 0.508335 36.0192 0.0021884 37.2967 0H201.309C202.595 0 203.829 0.510993 204.738 1.42057C205.648 2.33014 206.159 3.56379 206.159 4.85012V235.362C206.159 236.649 205.648 237.882 204.738 238.792C203.829 239.702 202.595 240.213 201.309 240.213ZM37.2967 0.169882C36.0682 0.172132 34.8907 0.661744 34.0228 1.53125C33.1549 2.40076 32.6674 3.57911 32.6674 4.80765V235.362C32.6674 236.591 33.1549 237.769 34.0228 238.639C34.8907 239.508 36.0682 239.998 37.2967 240H201.309C202.538 239.998 203.717 239.509 204.586 238.639C205.455 237.77 205.944 236.592 205.947 235.362V4.80765C205.944 3.57833 205.455 2.4 204.586 1.53073C203.717 0.661468 202.538 0.172128 201.309 0.169882H37.2967Z" fill="#EBEBEB"/>
<path d="M385.045 240.213H221.024C219.738 240.21 218.506 239.699 217.597 238.79C216.688 237.88 216.176 236.648 216.174 235.362V4.80765C216.187 3.52939 216.704 2.30791 217.612 1.40797C218.52 0.508038 219.746 0.00216454 221.024 0H385.045C386.321 0.00442074 387.544 0.511555 388.448 1.41149C389.353 2.31141 389.867 3.53163 389.878 4.80765V235.362C389.878 236.646 389.369 237.877 388.463 238.786C387.557 239.695 386.328 240.208 385.045 240.213ZM221.024 0.169882C219.795 0.172128 218.616 0.661468 217.747 1.53073C216.878 2.4 216.388 3.57833 216.386 4.80765V235.362C216.388 236.592 216.878 237.77 217.747 238.639C218.616 239.509 219.795 239.998 221.024 240H385.045C386.274 239.998 387.452 239.509 388.322 238.639C389.191 237.77 389.68 236.592 389.682 235.362V4.80765C389.68 3.57833 389.191 2.4 388.322 1.53073C387.452 0.661468 386.274 0.172128 385.045 0.169882H221.024Z" fill="#EBEBEB"/>
<path d="M160.401 191.906C159.985 191.906 159.552 191.906 159.153 191.957C150.336 192.662 143.201 201.063 142.64 211.4C142.515 213.681 142.71 215.968 143.218 218.195C145.165 227.122 146.099 236.24 146.004 245.376V272.056C146.004 273.993 147.346 275.564 148.994 275.564H264.615V191.906H160.401Z" fill="#F0F0F0"/>
<path d="M282.413 212.769C282.413 200.758 273.758 191.126 263.369 191.958C254.553 192.663 247.417 201.064 246.857 211.401C246.729 213.682 246.92 215.969 247.426 218.197C249.376 227.123 250.313 236.241 250.221 245.378V272.058C250.221 273.994 251.554 275.566 253.21 275.566H276.06C277.707 275.566 279.049 273.994 279.049 272.058V243.781C278.98 235.209 279.904 226.658 281.802 218.299C282.22 216.485 282.425 214.63 282.413 212.769Z" fill="#FAFAFA"/>
<path d="M240.094 228.253H121.211V275.556H240.094V228.253Z" fill="#F5F5F5"/>
<path d="M82.1898 171.58H207.257C209.172 171.58 211.068 171.957 212.838 172.69C214.607 173.423 216.215 174.497 217.569 175.852C218.924 177.206 219.998 178.814 220.731 180.583C221.464 182.353 221.841 184.249 221.841 186.164V236.28H67.6055V186.164C67.6055 184.249 67.9827 182.353 68.7156 180.583C69.4486 178.814 70.5228 177.206 71.8771 175.852C73.2314 174.497 74.8392 173.423 76.6086 172.69C78.3781 171.957 80.2746 171.58 82.1898 171.58Z" fill="#E6E6E6"/>
<path d="M92.7957 171.58H211.016C214.83 171.58 218.488 173.095 221.185 175.792C223.882 178.489 225.397 182.147 225.397 185.961V236.262H78.4492V185.952C78.4515 182.145 79.9629 178.495 82.6521 175.801C85.3414 173.107 88.9891 171.589 92.7957 171.58Z" fill="#F5F5F5"/>
<path d="M125.219 226.555H240.042C240.871 226.555 241.667 226.884 242.253 227.47C242.839 228.056 243.168 228.851 243.168 229.681V234.717C243.166 235.545 242.836 236.338 242.25 236.922C241.664 237.507 240.87 237.835 240.042 237.835H125.219C124.972 237.835 124.734 237.736 124.559 237.561C124.384 237.386 124.285 237.148 124.285 236.9V227.489C124.285 227.241 124.384 227.004 124.559 226.828C124.734 226.653 124.972 226.555 125.219 226.555Z" fill="#EBEBEB"/>
<path d="M60.3086 275.557H265.509V275.752C265.509 276.374 265.262 276.97 264.822 277.41C264.382 277.849 263.786 278.096 263.164 278.096H62.6615C62.3529 278.097 62.0471 278.038 61.7617 277.92C61.4763 277.803 61.2168 277.631 60.9982 277.413C60.7797 277.195 60.6062 276.936 60.4879 276.651C60.3695 276.366 60.3086 276.061 60.3086 275.752V275.557Z" fill="#E6E6E6"/>
<path d="M61.2081 191.906C60.7891 191.906 60.3729 191.923 59.9595 191.957C51.1426 192.662 44.0076 201.063 43.447 211.4C43.3218 213.681 43.5162 215.968 44.0246 218.195C45.9714 227.122 46.906 236.24 46.8107 245.376V272.056C46.8107 273.993 48.1527 275.564 49.8006 275.564H122.06V191.906H61.2081Z" fill="#F0F0F0"/>
<path d="M139.854 212.769C139.854 200.758 131.208 191.126 120.811 191.958C111.994 192.663 104.859 201.064 104.298 211.401C104.17 213.682 104.362 215.969 104.867 218.197C106.821 227.123 107.759 236.241 107.662 245.378V272.058C107.662 273.994 108.996 275.566 110.652 275.566H133.467C135.115 275.566 136.457 273.994 136.457 272.058V243.781C136.388 235.209 137.311 226.658 139.209 218.299C139.638 216.487 139.855 214.631 139.854 212.769Z" fill="#FAFAFA"/>
<path d="M52.5599 116.573L373.984 116.573V19.4095L52.5599 19.4095V116.573Z" fill="#EBEBEB"/>
<path d="M61.0566 109.115L365.484 109.115V26.8755L61.0566 26.8755V109.115Z" fill="#FAFAFA"/>
<path d="M235.319 109.115H259.595L236.729 26.875H212.453L235.319 109.115Z" fill="white"/>
<path d="M264.345 109.115H288.629L265.763 26.875H241.479L264.345 109.115Z" fill="white"/>
<path d="M185.654 109.115H197.801L174.935 26.875H162.797L185.654 109.115Z" fill="white"/>
<path d="M207.553 109.115H218.994V26.8755H207.553V109.115Z" fill="#EBEBEB"/>
<path d="M207.544 26.875H204.996V109.115H207.544V26.875Z" fill="#E0E0E0"/>
<path d="M52.5613 19.417H50.7266V116.581H52.5613V19.417Z" fill="#E0E0E0"/>
<path d="M370.749 273.365C372.817 273.358 374.799 272.533 376.261 271.071C377.724 269.608 378.548 267.627 378.555 265.559V189.171C378.548 187.103 377.724 185.121 376.261 183.659C374.799 182.197 372.817 181.372 370.749 181.365C368.681 181.372 366.701 182.197 365.239 183.66C363.778 185.122 362.956 187.104 362.951 189.171V265.559C362.956 267.626 363.778 269.608 365.239 271.07C366.701 272.533 368.681 273.358 370.749 273.365Z" fill="#F5F5F5"/>
<path d="M366.282 270.291C367.68 270.289 369.021 269.732 370.009 268.744C370.998 267.755 371.555 266.415 371.557 265.016V189.716C371.555 188.318 370.998 186.978 370.009 185.989C369.021 185 367.68 184.444 366.282 184.441C364.885 184.446 363.547 185.003 362.56 185.992C361.573 186.98 361.018 188.319 361.016 189.716V265.016C361.018 266.413 361.573 267.752 362.56 268.741C363.547 269.729 364.885 270.287 366.282 270.291Z" fill="#EBEBEB"/>
<path d="M359.419 273.365C361.487 273.358 363.467 272.533 364.929 271.07C366.39 269.608 367.212 267.626 367.217 265.559V189.171C367.212 187.104 366.39 185.122 364.929 183.66C363.467 182.197 361.487 181.372 359.419 181.365C357.351 181.372 355.369 182.197 353.907 183.659C352.445 185.121 351.62 187.103 351.613 189.171V265.559C351.62 267.627 352.445 269.608 353.907 271.071C355.369 272.533 357.351 273.358 359.419 273.365Z" fill="#F5F5F5"/>
<path d="M354.951 270.291C356.348 270.287 357.687 269.729 358.676 268.741C359.664 267.753 360.221 266.414 360.225 265.016V189.716C360.221 188.319 359.664 186.98 358.676 185.991C357.687 185.003 356.348 184.446 354.951 184.441C353.553 184.446 352.214 185.003 351.226 185.991C350.237 186.98 349.68 188.319 349.676 189.716V265.016C349.68 266.414 350.237 267.753 351.226 268.741C352.214 269.729 353.553 270.287 354.951 270.291Z" fill="#EBEBEB"/>
<path d="M348.087 273.365C350.155 273.358 352.135 272.533 353.597 271.07C355.058 269.608 355.88 267.626 355.885 265.559V189.171C355.88 187.104 355.058 185.122 353.597 183.66C352.135 182.197 350.155 181.372 348.087 181.365C346.019 181.372 344.037 182.197 342.575 183.659C341.113 185.121 340.288 187.103 340.281 189.171V265.559C340.288 267.627 341.113 269.608 342.575 271.071C344.037 272.533 346.019 273.358 348.087 273.365Z" fill="#F5F5F5"/>
<path d="M343.619 270.291C345.015 270.287 346.354 269.729 347.34 268.741C348.327 267.752 348.883 266.413 348.885 265.016V189.716C348.883 188.319 348.327 186.98 347.34 185.992C346.354 185.003 345.015 184.446 343.619 184.441C342.22 184.444 340.88 185 339.891 185.989C338.902 186.978 338.346 188.318 338.344 189.716V265.016C338.346 266.415 338.902 267.755 339.891 268.744C340.88 269.732 342.22 270.289 343.619 270.291Z" fill="#EBEBEB"/>
<path d="M328.951 265.559C328.951 269.87 332.444 273.365 336.753 273.365C341.062 273.365 344.555 269.87 344.555 265.559V189.18C344.555 184.869 341.062 181.374 336.753 181.374C332.444 181.374 328.951 184.869 328.951 189.18V265.559Z" fill="#F5F5F5"/>
<path d="M332.28 270.291C333.678 270.289 335.019 269.732 336.007 268.744C336.996 267.755 337.553 266.415 337.555 265.016V189.716C337.553 188.318 336.996 186.978 336.007 185.989C335.019 185 333.678 184.444 332.28 184.441C330.883 184.446 329.545 185.003 328.558 185.992C327.571 186.98 327.016 188.319 327.014 189.716V265.016C327.016 266.413 327.571 267.752 328.558 268.741C329.545 269.729 330.883 270.287 332.28 270.291Z" fill="#EBEBEB"/>
<path d="M325.417 273.365C327.486 273.358 329.467 272.533 330.93 271.071C332.392 269.608 333.217 267.627 333.223 265.559V189.171C333.217 187.103 332.392 185.121 330.93 183.659C329.467 182.197 327.486 181.372 325.417 181.365C323.349 181.372 321.368 182.197 319.905 183.659C318.443 185.121 317.618 187.103 317.611 189.171V265.559C317.618 267.627 318.443 269.608 319.905 271.071C321.368 272.533 323.349 273.358 325.417 273.365Z" fill="#F5F5F5"/>
<path d="M320.949 270.291C322.347 270.289 323.687 269.732 324.676 268.744C325.665 267.755 326.221 266.415 326.223 265.016V189.716C326.221 188.318 325.665 186.978 324.676 185.989C323.687 185 322.347 184.444 320.949 184.441C319.551 184.446 318.212 185.003 317.224 185.991C316.235 186.98 315.678 188.319 315.674 189.716V265.016C315.678 266.414 316.235 267.753 317.224 268.741C318.212 269.729 319.551 270.287 320.949 270.291Z" fill="#EBEBEB"/>
<path d="M314.085 273.365C316.153 273.358 318.134 272.533 319.595 271.07C321.056 269.608 321.878 267.626 321.883 265.559V189.171C321.878 187.104 321.056 185.122 319.595 183.66C318.134 182.197 316.153 181.372 314.085 181.365C312.017 181.372 310.036 182.197 308.573 183.659C307.111 185.121 306.286 187.103 306.279 189.171V265.559C306.286 267.627 307.111 269.608 308.573 271.071C310.036 272.533 312.017 273.358 314.085 273.365Z" fill="#F5F5F5"/>
<path d="M309.619 270.291C311.016 270.287 312.355 269.729 313.343 268.741C314.332 267.753 314.889 266.414 314.893 265.016V189.716C314.889 188.319 314.332 186.98 313.343 185.991C312.355 185.003 311.016 184.446 309.619 184.441C308.22 184.444 306.88 185 305.891 185.989C304.902 186.978 304.346 188.318 304.344 189.716V265.016C304.346 266.415 304.902 267.755 305.891 268.744C306.88 269.732 308.22 270.289 309.619 270.291Z" fill="#EBEBEB"/>
<path d="M302.745 273.365C304.813 273.358 306.795 272.533 308.257 271.071C309.72 269.608 310.544 267.627 310.551 265.559V189.171C310.544 187.103 309.72 185.121 308.257 183.659C306.795 182.197 304.813 181.372 302.745 181.365C300.677 181.372 298.697 182.197 297.236 183.66C295.774 185.122 294.952 187.104 294.947 189.171V265.559C294.952 267.626 295.774 269.608 297.236 271.07C298.697 272.533 300.677 273.358 302.745 273.365Z" fill="#F5F5F5"/>
<path d="M293.181 263.138H316.064C316.515 263.138 316.947 262.959 317.266 262.64C317.584 262.322 317.763 261.89 317.763 261.439C317.763 260.988 317.584 260.556 317.266 260.238C316.947 259.919 316.515 259.74 316.064 259.74H293.181C292.731 259.74 292.299 259.919 291.98 260.238C291.661 260.556 291.482 260.988 291.482 261.439C291.482 261.89 291.661 262.322 291.98 262.64C292.299 262.959 292.731 263.138 293.181 263.138Z" fill="#F5F5F5"/>
<path d="M293.181 197.309H316.064C316.515 197.309 316.947 197.13 317.266 196.811C317.584 196.493 317.763 196.061 317.763 195.61C317.763 195.159 317.584 194.727 317.266 194.409C316.947 194.09 316.515 193.911 316.064 193.911H293.181C292.731 193.911 292.299 194.09 291.98 194.409C291.661 194.727 291.482 195.159 291.482 195.61C291.482 196.061 291.661 196.493 291.98 196.811C292.299 197.13 292.731 197.309 293.181 197.309Z" fill="#F5F5F5"/>
<path d="M212.35 316.455C303.307 316.455 377.042 312.15 377.042 306.84C377.042 301.53 303.307 297.225 212.35 297.225C121.393 297.225 47.6582 301.53 47.6582 306.84C47.6582 312.15 121.393 316.455 212.35 316.455Z" fill="#F5F5F5"/>
<path d="M342.855 258.782H245.581C244.359 258.787 243.149 258.545 242.024 258.069C240.898 257.593 239.882 256.893 239.035 256.012C238.188 255.131 237.529 254.088 237.098 252.944C236.667 251.801 236.472 250.582 236.526 249.362L243.67 64.7003C243.791 62.1796 244.871 59.8004 246.688 58.0493C248.505 56.2983 250.923 55.3078 253.447 55.2804H350.721C351.943 55.2746 353.153 55.5171 354.278 55.9931C355.404 56.4691 356.42 57.1688 357.267 58.0497C358.114 58.9306 358.773 59.9743 359.204 61.1175C359.635 62.2608 359.83 63.4797 359.776 64.7003L352.632 249.362C352.511 251.882 351.431 254.262 349.614 256.013C347.796 257.764 345.379 258.754 342.855 258.782Z" fill="#3BADD4"/>
<path d="M359.711 127L359.117 142.261L360.051 142.297L360.645 127.036L359.711 127Z" fill="#3BADD4"/>
<path d="M360.196 115.12L359.949 121.427L360.883 121.463L361.13 115.157L360.196 115.12Z" fill="#3BADD4"/>
<path opacity="0.8" d="M342.855 258.782H245.581C244.359 258.787 243.149 258.545 242.024 258.069C240.898 257.593 239.882 256.893 239.035 256.012C238.188 255.131 237.529 254.088 237.098 252.944C236.667 251.801 236.472 250.582 236.526 249.362L243.67 64.7003C243.791 62.1796 244.871 59.8004 246.688 58.0493C248.505 56.2983 250.923 55.3078 253.447 55.2804H350.721C351.943 55.2746 353.153 55.5171 354.278 55.9931C355.404 56.4691 356.42 57.1688 357.267 58.0497C358.114 58.9306 358.773 59.9743 359.204 61.1175C359.635 62.2608 359.83 63.4797 359.776 64.7003L352.632 249.362C352.511 251.882 351.431 254.262 349.614 256.013C347.796 257.764 345.379 258.754 342.855 258.782Z" fill="white"/>
<path d="M333.548 255.036H247.758C246.687 255.04 245.626 254.828 244.64 254.41C243.654 253.993 242.762 253.38 242.02 252.608C241.277 251.836 240.699 250.921 240.32 249.92C239.942 248.918 239.77 247.85 239.816 246.78L246.501 73.8403C246.609 71.6299 247.557 69.5442 249.152 68.0097C250.746 66.4751 252.867 65.6074 255.08 65.5841H340.87C341.941 65.5785 343.003 65.7905 343.989 66.2075C344.976 66.6245 345.868 67.2376 346.611 68.0097C347.354 68.7818 347.932 69.6967 348.31 70.699C348.688 71.7013 348.859 72.77 348.812 73.8403L342.127 246.78C342.017 248.99 341.068 251.074 339.474 252.608C337.88 254.142 335.76 255.011 333.548 255.036Z" fill="#3BADD4"/>
<path opacity="0.8" d="M295.049 245.244C297.32 243.017 297.424 239.441 295.282 237.258C293.14 235.074 289.563 235.11 287.293 237.337C285.022 239.565 284.918 243.14 287.06 245.324C289.202 247.507 292.779 247.471 295.049 245.244Z" fill="white"/>
<path d="M292.697 201.947C288.167 201.977 283.678 201.085 279.504 199.323C275.33 197.562 271.558 194.969 268.419 191.703C265.279 188.436 262.838 184.564 261.244 180.324C259.65 176.083 258.936 171.562 259.146 167.036L260.292 137.265H260.233C259.897 137.263 259.562 137.235 259.231 137.18L258.075 167.036C257.861 171.7 258.598 176.358 260.242 180.727C261.886 185.097 264.402 189.086 267.637 192.451C270.872 195.817 274.759 198.489 279.06 200.304C283.361 202.119 287.987 203.039 292.655 203.009C302.549 202.965 312.02 198.993 318.986 191.967C318.733 191.71 318.511 191.425 318.324 191.117C314.978 194.523 310.991 197.233 306.592 199.092C302.194 200.951 297.472 201.921 292.697 201.947Z" fill="white"/>
<path d="M296.81 95.5086C278.607 95.5086 263.004 109.099 259.963 126.673C260.189 126.66 260.416 126.66 260.642 126.673C260.778 126.673 260.906 126.673 261.042 126.673C264.049 109.685 279.16 96.5874 296.768 96.5874C301.299 96.5559 305.789 97.4478 309.964 99.2086C314.139 100.969 317.912 103.562 321.052 106.829C324.192 110.095 326.634 113.967 328.229 118.209C329.824 122.45 330.538 126.972 330.328 131.498L328.952 167.054C328.729 172.607 327.214 178.031 324.526 182.896C324.864 182.994 325.187 183.136 325.486 183.32C328.238 178.324 329.788 172.754 330.014 167.054L331.39 131.498C331.608 126.833 330.873 122.172 329.231 117.8C327.589 113.428 325.073 109.437 321.837 106.069C318.601 102.702 314.714 100.028 310.411 98.2127C306.108 96.397 301.48 95.477 296.81 95.5086Z" fill="white"/>
<path d="M296.53 102.781C302.254 102.767 307.859 104.41 312.669 107.512C312.821 107.183 313.006 106.87 313.221 106.578C308.245 103.383 302.451 101.696 296.539 101.719C289.848 101.74 283.325 103.816 277.852 107.665C278.039 107.965 278.196 108.284 278.319 108.616C283.64 104.836 290.002 102.797 296.53 102.781Z" fill="white"/>
<path d="M263.657 170.452C263.393 168.633 263.297 166.793 263.368 164.957L264.583 133.529C264.848 127.05 267.095 120.809 271.021 115.648C270.718 115.495 270.433 115.307 270.172 115.088C266.129 120.412 263.817 126.849 263.547 133.529L262.332 164.957C262.258 166.879 262.36 168.804 262.638 170.707C262.968 170.589 263.31 170.504 263.657 170.452Z" fill="white"/>
<path d="M320.882 113.627C320.625 113.889 320.34 114.123 320.033 114.323C324.243 119.829 326.384 126.639 326.081 133.563L324.866 164.991C324.478 173.228 320.952 181.004 315.011 186.724C309.07 192.443 301.166 195.672 292.92 195.748C286.373 195.778 280.001 193.636 274.802 189.657C274.498 189.894 274.167 190.093 273.816 190.252C279.246 194.529 285.965 196.841 292.877 196.809C301.408 196.732 309.586 193.392 315.732 187.475C321.878 181.558 325.526 173.513 325.928 164.991L327.142 133.563C327.461 126.388 325.245 119.331 320.882 113.627Z" fill="white"/>
<path d="M268.252 146.024L268.651 135.644C268.987 128.52 272.037 121.794 277.175 116.847C282.313 111.9 289.15 109.107 296.282 109.041C302.286 108.997 308.112 111.082 312.724 114.926C317.337 118.77 320.437 124.125 321.476 130.038C321.824 129.977 322.176 129.945 322.529 129.945C321.473 123.767 318.255 118.166 313.451 114.142C308.646 110.118 302.566 107.934 296.299 107.979C288.881 108.045 281.77 110.948 276.426 116.093C271.082 121.238 267.911 128.234 267.564 135.644L267.182 146.101C267.427 146.07 267.674 146.053 267.921 146.05L268.252 146.024Z" fill="white"/>
<path d="M304.251 187.092C300.779 188.657 297.016 189.47 293.208 189.478C289.75 189.511 286.321 188.838 283.132 187.5C279.942 186.162 277.059 184.188 274.659 181.697C272.259 179.207 270.392 176.254 269.172 173.017C267.952 169.781 267.405 166.33 267.565 162.875L267.811 156.623H267.48C267.235 156.624 266.991 156.607 266.749 156.572L266.503 162.858C266.337 166.445 266.903 170.028 268.167 173.389C269.431 176.75 271.366 179.818 273.854 182.407C276.343 184.995 279.332 187.05 282.641 188.445C285.949 189.841 289.507 190.548 293.098 190.523C297.128 190.519 301.111 189.65 304.777 187.975C304.568 187.702 304.391 187.405 304.251 187.092Z" fill="white"/>
<path d="M322.12 140.579C321.967 140.579 321.814 140.579 321.67 140.579L320.82 162.902C320.53 169.686 317.747 176.125 313.006 180.986C313.218 181.276 313.398 181.59 313.541 181.92C318.601 176.846 321.576 170.061 321.882 162.902L322.732 140.571C322.536 140.562 322.332 140.579 322.12 140.579Z" fill="white"/>
<path d="M305.569 116.243C302.59 114.899 299.358 114.206 296.09 114.213C289.785 114.269 283.741 116.736 279.198 121.109C274.655 125.481 271.958 131.426 271.661 137.725L270.769 160.786C270.721 162.146 270.789 163.507 270.973 164.855C271.282 164.573 271.621 164.325 271.984 164.116C271.847 163.011 271.796 161.898 271.831 160.786L272.723 137.725C273.007 131.711 275.582 126.034 279.919 121.86C284.257 117.685 290.027 115.329 296.047 115.275C299.139 115.279 302.194 115.942 305.009 117.22C305.164 116.877 305.351 116.55 305.569 116.243Z" fill="white"/>
<path d="M313.738 122.588C313.531 122.894 313.295 123.178 313.033 123.437C316.227 127.495 317.858 132.565 317.628 137.724L316.736 160.786C316.457 166.626 314.017 172.153 309.89 176.294C305.763 180.435 300.244 182.894 294.405 183.193C294.294 183.573 294.143 183.941 293.955 184.289C300.159 184.096 306.062 181.568 310.483 177.21C314.904 172.853 317.516 166.987 317.798 160.786L318.69 137.724C318.933 132.245 317.173 126.864 313.738 122.588Z" fill="white"/>
<path d="M291.594 122.003C291.611 121.631 291.662 121.261 291.746 120.898C289.034 121.487 286.472 122.629 284.221 124.254C284.548 124.42 284.851 124.632 285.121 124.882C287.078 123.523 289.274 122.547 291.594 122.003Z" fill="white"/>
<path d="M311.837 163.453C310.642 167.355 308.236 170.774 304.968 173.218C301.7 175.661 297.74 177.001 293.659 177.044C291.281 177.06 288.923 176.592 286.732 175.666C284.54 174.741 282.56 173.379 280.913 171.662C279.265 169.946 277.986 167.911 277.151 165.684C276.317 163.456 275.945 161.081 276.06 158.705L276.79 139.806C276.881 137.572 277.376 135.373 278.251 133.316C277.948 133.07 277.679 132.785 277.453 132.467C276.425 134.774 275.848 137.256 275.754 139.78L275.023 158.68C274.908 161.19 275.305 163.698 276.19 166.051C277.076 168.403 278.43 170.551 280.172 172.363C281.914 174.175 284.007 175.613 286.323 176.59C288.639 177.567 291.129 178.063 293.642 178.046C297.964 177.997 302.158 176.576 305.619 173.988C309.08 171.4 311.629 167.78 312.899 163.649C312.539 163.616 312.184 163.55 311.837 163.453Z" fill="white"/>
<path d="M313.433 139.806L313.28 143.73C313.561 143.68 313.845 143.651 314.129 143.645H314.359L314.503 139.78C314.67 135.768 313.527 131.811 311.245 128.506C308.963 125.202 305.667 122.731 301.855 121.467C301.889 121.845 301.889 122.226 301.855 122.605C305.37 123.858 308.391 126.204 310.475 129.3C312.558 132.396 313.595 136.078 313.433 139.806Z" fill="white"/>
<path d="M295.595 126.674C291.516 126.713 287.606 128.312 284.668 131.143C281.73 133.973 279.987 137.821 279.796 141.896L279.635 146.092C279.99 146.115 280.342 146.169 280.688 146.253L280.858 141.896C281.036 138.099 282.664 134.515 285.405 131.882C288.147 129.25 291.794 127.769 295.595 127.745C297.43 127.735 299.249 128.098 300.939 128.813C302.629 129.528 304.157 130.579 305.428 131.903C306.699 133.227 307.688 134.795 308.334 136.513C308.98 138.231 309.27 140.062 309.186 141.896L308.617 156.624C308.457 159.94 307.193 163.108 305.026 165.623C302.859 168.138 299.913 169.856 296.657 170.504C296.695 170.86 296.695 171.218 296.657 171.574C300.194 170.911 303.404 169.075 305.768 166.362C308.133 163.65 309.513 160.219 309.687 156.624L310.256 141.896C310.347 139.92 310.035 137.946 309.338 136.095C308.64 134.244 307.573 132.555 306.201 131.13C304.829 129.706 303.181 128.576 301.357 127.81C299.534 127.044 297.573 126.657 295.595 126.674Z" fill="white"/>
<path d="M285.675 139.16C285.896 139.147 286.117 139.147 286.338 139.16C287.252 137.584 288.562 136.274 290.139 135.359C291.715 134.444 293.502 133.957 295.324 133.944C296.435 133.944 297.538 134.134 298.586 134.505C298.705 134.166 298.855 133.839 299.036 133.528C297.861 133.097 296.619 132.876 295.367 132.874C293.258 132.896 291.195 133.492 289.399 134.598C287.603 135.704 286.143 137.278 285.174 139.151C285.341 139.146 285.508 139.148 285.675 139.16Z" fill="white"/>
<path d="M304.531 154.542C304.475 155.758 304.205 156.954 303.732 158.076C304.063 158.198 304.375 158.367 304.658 158.577C305.215 157.301 305.531 155.933 305.593 154.542L306 143.975C306.033 142.99 305.933 142.004 305.703 141.045C305.383 141.214 305.043 141.345 304.692 141.436C304.887 142.27 304.97 143.127 304.939 143.984L304.531 154.542Z" fill="white"/>
<path d="M296.444 164.259C295.682 164.443 294.901 164.537 294.117 164.54C292.823 164.542 291.543 164.282 290.352 163.775C289.162 163.268 288.088 162.524 287.193 161.589C286.299 160.655 285.604 159.548 285.15 158.337C284.696 157.125 284.493 155.834 284.553 154.542L284.739 149.76C284.383 149.729 284.03 149.664 283.686 149.564L283.491 154.542C283.427 155.975 283.656 157.405 284.163 158.746C284.67 160.088 285.444 161.312 286.439 162.345C287.433 163.378 288.628 164.198 289.949 164.755C291.271 165.311 292.691 165.594 294.125 165.584C295.016 165.581 295.902 165.473 296.767 165.262C296.63 164.937 296.522 164.602 296.444 164.259Z" fill="white"/>
<path d="M295.119 139.143C293.261 139.165 291.482 139.899 290.149 141.193C288.815 142.487 288.028 144.243 287.95 146.099L287.704 152.504C287.681 153.101 287.741 153.699 287.882 154.279C288.152 153.954 288.467 153.668 288.817 153.43C288.774 153.126 288.757 152.819 288.766 152.512L289.012 146.108C289.088 144.541 289.76 143.063 290.891 141.977C292.022 140.89 293.526 140.277 295.094 140.264C295.85 140.262 296.598 140.414 297.294 140.709C297.989 141.005 298.618 141.438 299.141 141.984C299.664 142.529 300.072 143.175 300.338 143.883C300.605 144.59 300.725 145.344 300.691 146.099L300.445 152.504C300.39 153.64 300.021 154.738 299.379 155.677C298.737 156.615 297.848 157.358 296.81 157.821C296.791 158.222 296.734 158.62 296.64 159.01C298.008 158.537 299.204 157.663 300.071 156.504C300.939 155.344 301.439 153.951 301.507 152.504L301.762 146.099C301.809 145.2 301.672 144.3 301.359 143.455C301.046 142.611 300.564 141.839 299.942 141.187C299.32 140.536 298.571 140.018 297.742 139.667C296.913 139.315 296.02 139.137 295.119 139.143Z" fill="white"/>
<path d="M312.982 62.7727H283.168C282.947 62.7728 282.729 62.7285 282.526 62.6425C282.322 62.5565 282.138 62.4306 281.985 62.2721C281.831 62.1137 281.711 61.926 281.631 61.7201C281.551 61.5143 281.513 61.2945 281.52 61.0738C281.546 60.6171 281.745 60.1873 282.076 59.8717C282.408 59.5562 282.847 59.3786 283.304 59.375H313.11C313.331 59.3738 313.551 59.4172 313.755 59.5027C313.959 59.5881 314.144 59.7139 314.299 59.8725C314.454 60.0311 314.575 60.2192 314.655 60.4256C314.735 60.632 314.773 60.8525 314.766 61.0738C314.738 61.5299 314.539 61.9586 314.208 62.2737C313.877 62.5888 313.439 62.7671 312.982 62.7727Z" fill="#3BADD4"/>
<path opacity="0.2" d="M266.343 92.5849C264.58 92.723 262.811 92.7627 261.043 92.7038C260.418 92.57 259.777 92.5299 259.14 92.5849H258.945C253.958 92.2196 249.024 91.3284 244.225 89.9263C243.732 89.7819 243.222 89.612 242.704 89.4336L238.576 196.349L266.165 177.942C267.412 177.123 268.447 176.02 269.185 174.724C269.924 173.427 270.344 171.974 270.412 170.484L273.181 99.0064C273.22 98.1165 273.067 97.2286 272.731 96.4035C272.396 95.5784 271.886 94.8355 271.237 94.2257C270.587 93.6159 269.814 93.1536 268.969 92.8704C268.125 92.5872 267.229 92.4898 266.343 92.5849Z" fill="black"/>
<path d="M259.694 84.6101C257.934 84.7512 256.167 84.7937 254.403 84.7375C253.778 84.605 253.137 84.5621 252.5 84.6101H252.296C247.312 84.2482 242.38 83.3569 237.584 81.9514C231.571 80.0819 226.029 76.9418 221.335 72.7438C220.195 71.6457 218.671 71.0362 217.088 71.045H209.885C208.271 71.0568 206.717 71.6614 205.519 72.7438C200.537 76.9292 194.758 80.0614 188.531 81.9514C183.664 83.3507 178.666 84.2416 173.615 84.6101H173.411C172.772 84.5621 172.128 84.605 171.5 84.7375C169.738 84.7938 167.974 84.7513 166.217 84.6101C165.312 84.5409 164.402 84.6537 163.542 84.9418C162.681 85.23 161.887 85.6876 161.206 86.2878C160.525 86.8879 159.971 87.6184 159.577 88.4361C159.183 89.2537 158.957 90.1421 158.912 91.0486L156.143 162.535C156.08 163.982 156.38 165.422 157.017 166.723C157.653 168.024 158.606 169.145 159.787 169.984L199.837 198.15C201.312 199.185 203.072 199.737 204.874 199.73H212.068C213.907 199.724 215.704 199.174 217.232 198.15L259.456 169.984C260.7 169.163 261.733 168.061 262.47 166.767C263.208 165.473 263.631 164.023 263.704 162.535L266.464 91.0486C266.5 90.1647 266.348 89.2833 266.016 88.4633C265.684 87.6433 265.18 86.9038 264.539 86.2941C263.898 85.6845 263.134 85.2189 262.299 84.9284C261.463 84.638 260.575 84.5294 259.694 84.6101Z" fill="#3BADD4"/>
<path opacity="0.8" d="M259.694 84.6101C257.934 84.7512 256.167 84.7937 254.403 84.7375C253.778 84.605 253.137 84.5621 252.5 84.6101H252.296C247.312 84.2482 242.38 83.3569 237.584 81.9514C231.571 80.0819 226.029 76.9418 221.335 72.7438C220.195 71.6457 218.671 71.0362 217.088 71.045H209.885C208.271 71.0568 206.717 71.6614 205.519 72.7438C200.537 76.9292 194.758 80.0614 188.531 81.9514C183.664 83.3507 178.666 84.2416 173.615 84.6101H173.411C172.772 84.5621 172.128 84.605 171.5 84.7375C169.738 84.7938 167.974 84.7513 166.217 84.6101C165.312 84.5409 164.402 84.6537 163.542 84.9418C162.681 85.23 161.887 85.6876 161.206 86.2878C160.525 86.8879 159.971 87.6184 159.577 88.4361C159.183 89.2537 158.957 90.1421 158.912 91.0486L156.143 162.535C156.08 163.982 156.38 165.422 157.017 166.723C157.653 168.024 158.606 169.145 159.787 169.984L199.837 198.15C201.312 199.185 203.072 199.737 204.874 199.73H212.068C213.907 199.724 215.704 199.174 217.232 198.15L259.456 169.984C260.7 169.163 261.733 168.061 262.47 166.767C263.208 165.473 263.631 164.023 263.704 162.535L266.464 91.0486C266.5 90.1647 266.348 89.2833 266.016 88.4633C265.684 87.6433 265.18 86.9038 264.539 86.2941C263.898 85.6845 263.134 85.2189 262.299 84.9284C261.463 84.638 260.575 84.5294 259.694 84.6101Z" fill="white"/>
<path d="M160.822 162.398L163.463 94.0462C163.522 92.793 164.058 91.6098 164.961 90.7394C165.865 89.869 167.067 89.3776 168.322 89.3659H169.876C176.598 89.2824 183.276 88.2822 189.727 86.393C195.863 84.5334 201.616 81.5905 206.715 77.7035C207.555 77.0192 208.605 76.6455 209.688 76.6455C210.771 76.6455 211.821 77.0192 212.661 77.7035C217.5 81.6151 223.041 84.5672 228.987 86.4015C235.36 88.3003 241.967 89.3009 248.616 89.3744H250.052C250.671 89.3691 251.284 89.4901 251.854 89.7301C252.424 89.9701 252.94 90.324 253.368 90.7701C253.797 91.2163 254.13 91.7453 254.347 92.3247C254.564 92.904 254.66 93.5216 254.63 94.1396L251.989 162.407C251.953 163.176 251.737 163.925 251.358 164.595C250.979 165.265 250.447 165.837 249.806 166.263L207.845 194.293C207.066 194.824 206.146 195.108 205.203 195.108C204.261 195.108 203.34 194.824 202.562 194.293L162.758 166.263C162.136 165.834 161.632 165.255 161.294 164.579C160.955 163.903 160.793 163.153 160.822 162.398Z" fill="#3BADD4"/>
<path opacity="0.2" d="M172.486 158.789L174.729 100.681C180.734 100.205 186.676 99.1269 192.464 97.4613C198.37 95.6852 203.999 93.0951 209.189 89.7656C214.161 93.1106 219.599 95.7038 225.328 97.4613C231.031 99.1342 236.892 100.213 242.817 100.681L240.566 158.789L205.622 182.096L172.486 158.789Z" fill="white"/>
<path opacity="0.2" d="M184.234 152.717L185.857 110.748C188.966 110.161 192.1 109.422 195.2 108.531C199.846 107.162 204.349 105.347 208.646 103.111C212.801 105.355 217.172 107.17 221.693 108.531C224.762 109.42 227.829 110.159 230.892 110.748L229.27 152.717L206.166 168.184L184.234 152.717Z" fill="white"/>
<path d="M107.141 87.1855C105.553 90.4812 103.948 93.8618 102.402 97.1915C101.631 98.8903 100.89 100.555 100.176 102.186C99.51 103.746 98.926 105.339 98.4264 106.96C98.0764 108.509 97.9167 110.095 97.9507 111.682C97.9507 113.466 97.9507 115.318 97.9507 117.161L98.231 128.356L94.3067 128.934C93.3242 125.236 92.5276 121.491 91.9199 117.713C91.6311 115.811 91.3423 113.899 91.1894 111.92C91.1045 110.935 91.0365 109.933 91.0195 108.879C91.0195 108.344 91.0195 107.809 91.0195 107.181C91.0195 106.892 91.062 106.586 91.113 106.246C91.1639 105.906 91.2149 105.669 91.2659 105.397C91.6869 103.376 92.2547 101.389 92.9647 99.4509C93.6187 97.5992 94.3322 95.79 95.0712 94.0147C96.5577 90.4557 98.1546 87.0241 99.9383 83.584L107.141 87.1855Z" fill="#FF8B7B"/>
<path d="M101.076 129.902L97.8147 126.147L94.1283 126.334C92.4295 130.369 96.1244 132.943 96.1244 132.943L96.7784 135.151C96.8459 135.371 96.961 135.574 97.1155 135.745C97.27 135.915 97.4601 136.05 97.6724 136.139C97.8847 136.228 98.1141 136.27 98.3441 136.261C98.5742 136.251 98.7994 136.192 99.0039 136.086L101.076 135.058C101.365 134.916 101.607 134.696 101.776 134.423C101.944 134.149 102.032 133.833 102.028 133.512V132.246C101.993 131.378 101.656 130.549 101.076 129.902Z" fill="#FF8B7B"/>
<path d="M90.6986 297.694C90.0726 297.414 89.4823 297.061 88.9404 296.641C88.9118 296.62 88.89 296.591 88.8779 296.557C88.8658 296.524 88.8639 296.488 88.8724 296.454C88.8815 296.418 88.9007 296.385 88.9278 296.359C88.9549 296.334 88.9887 296.316 89.0253 296.309C89.3396 296.25 92.1171 295.74 92.7797 296.471C92.8524 296.554 92.9018 296.656 92.9226 296.765C92.9435 296.874 92.9352 296.986 92.8986 297.091C92.8626 297.271 92.7813 297.438 92.6624 297.578C92.5435 297.718 92.3909 297.825 92.2191 297.889C91.7054 298.012 91.1647 297.942 90.6986 297.694ZM89.5265 296.598C90.6477 297.371 91.599 297.728 92.0747 297.541C92.1872 297.495 92.2861 297.421 92.3619 297.325C92.4378 297.23 92.488 297.117 92.5079 296.997C92.5356 296.957 92.5505 296.91 92.5505 296.861C92.5505 296.813 92.5356 296.765 92.5079 296.725C92.1511 296.335 90.6392 296.445 89.5265 296.598Z" fill="#3BADD4"/>
<path d="M88.9722 296.666L88.8957 296.606C88.8808 296.577 88.873 296.545 88.873 296.513C88.873 296.48 88.8808 296.448 88.8957 296.419C88.8957 296.334 89.864 294.245 90.9428 293.871C91.08 293.814 91.229 293.791 91.3769 293.804C91.5249 293.818 91.6674 293.867 91.7922 293.947C91.925 294.007 92.0332 294.11 92.0983 294.24C92.1633 294.37 92.1812 294.519 92.1489 294.661C91.9451 295.553 89.966 296.572 89.1166 296.674C89.0932 296.683 89.0683 296.687 89.0435 296.685C89.0186 296.684 88.9943 296.677 88.9722 296.666ZM91.5204 294.228C91.3783 294.173 91.2208 294.173 91.0787 294.228C90.4332 294.449 89.7621 295.553 89.3799 296.232C90.2972 295.969 91.6223 295.128 91.7412 294.593C91.7412 294.5 91.7412 294.389 91.5544 294.27L91.5204 294.228Z" fill="#3BADD4"/>
<path d="M120.02 56.5889C120.725 61.2436 122.313 71.394 118.924 74.4264C118.924 74.4264 119.977 79.1576 128.599 79.3275C138.086 79.5144 133.347 74.7067 133.347 74.7067C128.25 73.3732 128.531 69.5423 129.601 65.9578L120.02 56.5889Z" fill="#FF8B7B"/>
<path d="M139.437 48.8763L139.284 48.7999C139.217 48.7303 139.18 48.6374 139.18 48.5408C139.18 48.4442 139.217 48.3514 139.284 48.2818C139.651 47.8153 140.124 47.4422 140.662 47.1928C141.201 46.9433 141.791 46.8246 142.384 46.8463C142.432 46.8515 142.479 46.8663 142.521 46.8897C142.564 46.9131 142.601 46.9447 142.631 46.9826C142.661 47.0206 142.683 47.0641 142.696 47.1107C142.709 47.1572 142.713 47.206 142.707 47.254C142.694 47.3524 142.644 47.4421 142.566 47.5039C142.488 47.5657 142.39 47.5949 142.291 47.5852C141.822 47.577 141.358 47.6778 140.935 47.8797C140.512 48.0817 140.141 48.3793 139.853 48.7489C139.804 48.8082 139.738 48.8517 139.664 48.8743C139.59 48.897 139.511 48.8977 139.437 48.8763Z" fill="#263238"/>
<path d="M141.203 53.4551C141.568 54.9432 142.139 56.3728 142.901 57.7021C142.56 57.901 142.179 58.0223 141.786 58.0576C141.393 58.0928 140.996 58.041 140.625 57.906L141.203 53.4551Z" fill="#FF5652"/>
<path d="M140.771 52.317C140.694 52.9455 140.966 53.4892 141.374 53.5316C141.781 53.5741 142.172 53.09 142.223 52.4614C142.274 51.8328 142.028 51.2892 141.62 51.2467C141.212 51.2043 140.847 51.6884 140.771 52.317Z" fill="#263238"/>
<path d="M141.467 51.2634L143.021 50.9746C143.021 50.9746 142.104 52.0788 141.467 51.2634Z" fill="#263238"/>
<path d="M148.339 300.803L156.612 298.187L155.805 281.335L147.523 283.943L148.339 300.803Z" fill="#FF8B7B"/>
<path d="M80.4297 294.781L87.879 296.887L94.1221 279.636L86.6643 277.529L80.4297 294.781Z" fill="#FF8B7B"/>
<path d="M88.8291 295.4L80.8446 292.002C80.7055 291.944 80.55 291.937 80.4065 291.984C80.263 292.031 80.1411 292.128 80.0632 292.257L76.3173 298.33C76.2265 298.482 76.1691 298.65 76.1488 298.826C76.1286 299.001 76.146 299.179 76.1998 299.347C76.2537 299.515 76.3428 299.669 76.4612 299.8C76.5796 299.931 76.7246 300.035 76.8864 300.105C79.6979 301.227 81.1334 301.626 84.616 303.112C86.7735 304.021 88.4638 306.79 93.212 306.79C96.4228 306.79 97.0343 303.885 95.7602 303.461C89.8144 301.558 91.029 298.729 89.8144 296.326C89.6066 295.91 89.2572 295.581 88.8291 295.4Z" fill="#263238"/>
<path d="M159.568 299.351C158.867 299.332 158.169 299.238 157.487 299.071C157.452 299.061 157.419 299.041 157.394 299.014C157.368 298.987 157.351 298.954 157.343 298.918C157.336 298.883 157.34 298.846 157.354 298.813C157.367 298.78 157.39 298.752 157.419 298.731C157.683 298.561 159.968 297.032 160.927 297.44C161.032 297.486 161.122 297.557 161.191 297.648C161.259 297.739 161.303 297.845 161.318 297.958C161.361 298.133 161.357 298.315 161.308 298.488C161.259 298.661 161.166 298.818 161.038 298.943C160.614 299.253 160.091 299.398 159.568 299.351ZM158.005 298.807C159.373 299.079 160.401 299.028 160.783 298.672C160.867 298.586 160.926 298.479 160.956 298.363C160.986 298.247 160.985 298.125 160.953 298.009C160.948 297.959 160.931 297.911 160.903 297.869C160.875 297.828 160.836 297.794 160.792 297.771C160.299 297.55 158.957 298.221 157.988 298.807H158.005Z" fill="#3BADD4"/>
<path d="M157.53 299.07H157.437C157.408 299.055 157.385 299.033 157.368 299.006C157.352 298.979 157.343 298.948 157.343 298.917C157.343 298.815 157.275 296.564 158.099 295.816C158.201 295.717 158.325 295.644 158.461 295.601C158.596 295.558 158.74 295.548 158.881 295.57C159.028 295.574 159.169 295.627 159.284 295.719C159.399 295.81 159.481 295.937 159.518 296.08C159.721 296.929 158.354 298.628 157.623 299.078C157.592 299.084 157.56 299.081 157.53 299.07ZM158.762 295.901C158.611 295.904 158.466 295.961 158.354 296.063C157.861 296.513 157.734 297.761 157.708 298.526C158.439 297.931 159.28 296.666 159.152 296.131C159.152 296.046 159.084 295.935 158.847 295.91L158.762 295.901Z" fill="#3BADD4"/>
<path d="M156.84 297.983H148.057C147.906 297.978 147.759 298.03 147.646 298.13C147.532 298.229 147.461 298.368 147.446 298.518L146.673 305.466C146.661 305.644 146.686 305.823 146.746 305.991C146.806 306.159 146.9 306.313 147.022 306.443C147.143 306.574 147.29 306.678 147.454 306.75C147.617 306.821 147.794 306.858 147.972 306.859C151.039 306.808 152.508 306.63 156.373 306.63C158.751 306.63 162.225 306.876 165.513 306.876C168.8 306.876 168.859 303.631 167.483 303.334C161.316 302.017 160.289 300.2 158.14 298.467C157.774 298.163 157.316 297.993 156.84 297.983Z" fill="#263238"/>
<path opacity="0.2" d="M155.797 281.335L156.238 290.364L147.94 292.641L147.523 283.951L155.797 281.335Z" fill="black"/>
<path opacity="0.2" d="M86.6646 277.537L94.1139 279.644L90.9031 288.528L83.4453 286.422L86.6646 277.537Z" fill="black"/>
<path d="M103.624 75.4123C100.362 76.1768 96.7773 87.9241 96.7773 87.9241L105.875 97.5479C105.875 97.5479 113.604 86.4461 112.084 82.4369C110.478 78.2578 107.437 74.5119 103.624 75.4123Z" fill="#3BADD4"/>
<path opacity="0.2" d="M103.624 75.4123C100.362 76.1768 96.7773 87.9241 96.7773 87.9241L105.875 97.5479C105.875 97.5479 113.604 86.4461 112.084 82.4369C110.478 78.2578 107.437 74.5119 103.624 75.4123Z" fill="black"/>
<path opacity="0.4" d="M108.662 82.7767C110.361 81.2477 111.431 81.6724 112.179 82.8616C112.892 86.3187 108.059 94.1502 106.233 96.9363C105.46 93.6661 104.916 86.2508 108.662 82.7767Z" fill="black"/>
<path d="M145.244 78.1466C145.694 81.5442 145.414 91.9834 138.823 123.564L107.063 122.944C108.176 110.042 108.55 102.074 103.572 75.4455C108.061 74.62 112.602 74.1175 117.163 73.942C121.977 73.6921 126.802 73.7858 131.603 74.2223C136.198 74.732 141.235 75.7343 143.494 76.2184C143.95 76.3189 144.363 76.5584 144.676 76.9038C144.99 77.2492 145.188 77.6835 145.244 78.1466Z" fill="#3BADD4"/>
<path opacity="0.2" d="M145.244 78.1466C145.694 81.5442 145.414 91.9834 138.823 123.564L107.063 122.944C108.176 110.042 108.55 102.074 103.572 75.4455C108.061 74.62 112.602 74.1175 117.163 73.942C121.977 73.6921 126.802 73.7858 131.603 74.2223C136.198 74.732 141.235 75.7343 143.494 76.2184C143.95 76.3189 144.363 76.5584 144.676 76.9038C144.99 77.2492 145.188 77.6835 145.244 78.1466Z" fill="black"/>
<path d="M120.01 48.1617C119.551 55.9338 119.16 59.204 122.6 63.553C127.697 70.0764 137.312 68.6494 140.073 61.1492C142.553 54.3539 142.884 42.785 135.732 38.9966C128.58 35.2082 120.46 40.3896 120.01 48.1617Z" fill="#FF8B7B"/>
<path d="M130.457 123.37C130.457 123.37 125.845 180.076 119.763 210.171C114.854 234.507 92.5824 287.093 92.5824 287.093L82.8906 282.999C82.8906 282.999 94.1113 223.439 101.697 208.956C110.191 159.003 96.4387 141.972 107.082 122.945L130.457 123.37Z" fill="#263238"/>
<path opacity="0.4" d="M121.819 154.382C118.345 169.153 120.596 182.565 122.949 191.416C124.342 181.928 125.599 171.71 126.669 162.137C125.2 159.385 123.357 156.786 121.819 154.382Z" fill="black"/>
<path d="M138.842 123.531C138.842 123.531 150.904 178.904 152.432 202.577C154.046 227.209 157.283 285.564 157.283 285.564L146.648 288.418C146.648 288.418 134.688 228.271 135.606 210.17C129.66 184.484 108.926 122.979 108.926 122.979L138.842 123.531Z" fill="#263238"/>
<path d="M158.888 288.265L145.077 290.592L143.752 285.666L158.54 283.151L158.888 288.265Z" fill="#3BADD4"/>
<path d="M94.3252 287.577L81.3887 283.916L82.1107 279.117L95.939 282.523L94.3252 287.577Z" fill="#3BADD4"/>
<path d="M106.694 121.042L105.131 123.853C105.012 124.066 105.267 124.295 105.632 124.304L138.938 124.958C139.226 124.958 139.473 124.83 139.498 124.652L139.914 121.815C139.914 121.62 139.702 121.45 139.388 121.441L107.221 120.813C107.12 120.801 107.019 120.816 106.926 120.856C106.834 120.896 106.754 120.96 106.694 121.042Z" fill="white"/>
<path d="M110.848 124.72H109.999C109.829 124.72 109.701 124.618 109.718 124.516L110.287 120.829C110.287 120.728 110.457 120.643 110.627 120.643H111.477C111.646 120.643 111.774 120.736 111.757 120.846L111.188 124.524C111.179 124.635 111.026 124.72 110.848 124.72Z" fill="#263238"/>
<path d="M131.733 125.128H130.883C130.714 125.128 130.586 125.035 130.603 124.924L131.172 121.246C131.172 121.136 131.342 121.051 131.52 121.051H132.37C132.54 121.051 132.667 121.144 132.65 121.255L132.081 124.933C132.056 125.043 131.903 125.128 131.733 125.128Z" fill="#263238"/>
<path d="M147.005 82.1475C148.56 85.4517 150.293 88.8833 152.102 92.1365C153.819 95.3615 155.776 98.4535 157.954 101.387C158.226 101.735 158.498 102.092 158.719 102.346C158.94 102.601 159.22 102.907 159.509 103.196C160.103 103.775 160.733 104.317 161.394 104.818C162.819 105.894 164.315 106.873 165.871 107.749C169.128 109.586 172.489 111.234 175.936 112.684L174.9 116.506C170.9 115.832 166.985 114.73 163.221 113.219C161.262 112.443 159.37 111.508 157.564 110.424C156.614 109.848 155.703 109.21 154.837 108.513C154.387 108.156 153.988 107.757 153.52 107.341C153.053 106.925 152.671 106.491 152.365 106.118C151.635 105.328 150.989 104.521 150.327 103.714C149.664 102.907 149.07 102.066 148.492 101.225C147.303 99.5263 146.233 97.8275 145.196 96.1287C143.131 92.6775 141.289 89.097 139.684 85.4092L147.005 82.1475Z" fill="#FF8B7B"/>
<path d="M143.023 76.0668C150.464 77.6892 152.264 89.3855 152.264 89.3855L144.934 97.9306C144.934 97.9306 133.289 86.8883 133.892 80.883C134.291 76.4491 138.963 75.1834 143.023 76.0668Z" fill="#3BADD4"/>
<path opacity="0.2" d="M143.023 76.0668C150.464 77.6892 152.264 89.3855 152.264 89.3855L144.934 97.9306C144.934 97.9306 133.289 86.8883 133.892 80.883C134.291 76.4491 138.963 75.1834 143.023 76.0668Z" fill="black"/>
<path d="M184.541 115.69L182.477 113.252C182.477 113.252 175.817 111.698 172.87 113.142L171.961 115.885L179.402 119.742L180.956 120.472C181.326 120.646 181.746 120.68 182.139 120.569C182.532 120.459 182.872 120.21 183.097 119.869L184.592 117.762C184.813 117.46 184.928 117.092 184.919 116.718C184.91 116.343 184.777 115.981 184.541 115.69Z" fill="#FF8B7B"/>
<path d="M141.732 91.1012C143.031 87.6357 143.753 83.4566 143.43 81.4605C142.989 85.011 140.288 89.8696 137.578 93.4796C132.71 95.425 127.464 96.243 122.234 95.8723C117.005 95.5015 111.927 93.9518 107.382 91.3391C105.148 86.8202 103.296 79.7616 104.468 75.5486C103.033 77.6891 101.971 83.5415 102.65 87.6696C100.365 85.3338 99.0319 82.7091 99.0234 80.1269C99.0234 67.717 113.982 68.473 114.185 59.4183C114.389 50.3636 110.703 31.855 129.169 35.8048C141.265 35.2357 138.733 45.9042 136.763 52.3937C134.97 58.382 153.267 81.367 141.732 91.1012Z" fill="#263238"/>
<path d="M129.202 35.8042C136.762 31.7695 144.492 38.1231 140.534 44.7739C137.042 44.621 134.214 46.838 136.949 51.2719C128.837 46.1585 123.868 36.2544 129.202 35.8042Z" fill="#263238"/>
<path d="M137.151 50.1166C137.973 51.5335 138.318 53.1772 138.136 54.8053C137.898 56.8948 136.267 56.8948 135.121 55.6547C133.974 54.4146 133.023 51.8409 133.685 50.244C133.818 49.8992 134.049 49.601 134.349 49.3863C134.65 49.1717 135.007 49.05 135.376 49.0364C135.745 49.0229 136.11 49.118 136.425 49.31C136.741 49.502 136.993 49.7825 137.151 50.1166Z" fill="#FF8B7B"/>
</svg>
